<svg width="100" height="18" viewBox="0 0 100 18" fill="none" xmlns="http://www.w3.org/2000/svg">
<path d="M15.1213 17.6639V12.7489H5.00729V17.6639H0V0H20.1286V17.6639H15.1213ZM5.00729 8.45046H15.1207V4.29909H5.00729V8.45046Z" fill="white"/>
<path d="M23.2891 4.29909V0H44.2298V4.29909H36.2692V17.6639H31.2497V4.29909H23.2891Z" fill="white"/>
<path d="M47.3906 17.6639V0H67.5192V17.6639H47.3906ZM52.3979 4.27468V13.4021H62.5113V4.27468H52.3979Z" fill="white"/>
<path d="M87.3303 17.695V11.2451L81.5122 17.1963L75.6819 11.2451V17.695H70.6758V0L81.5128 10.4665L92.3377 0V17.6957H87.3303V17.695Z" fill="white"/>
<path d="M99.9992 3.78146H95.4961V0H99.9992V3.78146Z" fill="#E15D13"/>
</svg>
