<svg width="120" height="13" viewBox="0 0 120 13" fill="none" xmlns="http://www.w3.org/2000/svg">
<path d="M0 0.351562H4.53147C6.05203 0.351562 7.15469 0.646587 7.83944 1.23664C8.5242 1.82669 8.86657 2.72757 8.86657 3.93927C8.86657 4.60308 8.76587 5.14044 8.56448 5.55137C8.36308 5.9623 8.14657 6.28366 7.91497 6.51547C7.64308 6.78942 7.33091 6.98961 6.97846 7.11605L9.60671 11.415H6.91804L4.59189 7.606H2.38657V11.415H0V0.351562ZM4.53147 5.50396C5.14573 5.50396 5.60392 5.38805 5.90601 5.15625C6.21818 4.91391 6.37427 4.52405 6.37427 3.98669C6.37427 3.43879 6.21818 3.04893 5.90601 2.81713C5.59385 2.57479 5.13566 2.45361 4.53147 2.45361H2.38657V5.50396H4.53147Z" fill="#B8B8B8"/>
<path d="M10.8945 0.351562H19.5647V2.45361H13.2811V4.72952H18.5829V6.75254H13.2811V9.31291H19.5647V11.415H10.8945V0.351562Z" fill="#B8B8B8"/>
<path d="M21.3008 0.351562H25.7416C27.3226 0.351562 28.4756 0.704539 29.2006 1.41049C29.9358 2.11644 30.3033 3.13322 30.3033 4.46083C30.3033 5.77791 29.9358 6.78942 29.2006 7.49537C28.4756 8.20132 27.3226 8.5543 25.7416 8.5543H23.6874V11.415H21.3008V0.351562ZM25.7416 6.45225C26.4163 6.45225 26.9299 6.28893 27.2823 5.9623C27.6348 5.63566 27.811 5.13518 27.811 4.46083C27.811 3.78649 27.6348 3.28601 27.2823 2.95937C26.9299 2.6222 26.4163 2.45361 25.7416 2.45361H23.6874V6.45225H25.7416Z" fill="#B8B8B8"/>
<path d="M31.7422 9.31193H34.3402V2.45264H31.7422V0.350586H39.3248V2.45264H36.7268V9.31193H39.3248V11.414H31.7422V9.31193Z" fill="#B8B8B8"/>
<path d="M41.1406 0.350586H44.7356L48.542 7.69986L49.0254 9.10647H49.2519L48.9196 7.69986V0.350586H51.3062V11.414H47.7113L43.9048 4.06474L43.4215 2.6581H43.1949L43.5272 4.06474V11.414H41.1406V0.350586Z" fill="#B8B8B8"/>
<path d="M55.1589 11.5727C54.7763 11.5727 54.4641 11.4621 54.2224 11.2408C53.9908 11.009 53.875 10.6982 53.875 10.3083C53.875 9.91848 53.9908 9.61292 54.2224 9.39165C54.4641 9.15985 54.7763 9.04395 55.1589 9.04395C55.5416 9.04395 55.8487 9.15985 56.0803 9.39165C56.322 9.61292 56.4428 9.91848 56.4428 10.3083C56.4428 10.6982 56.322 11.009 56.0803 11.2408C55.8487 11.4621 55.5416 11.5727 55.1589 11.5727Z" fill="#B8B8B8"/>
<path d="M63.2109 11.5728C62.6067 11.5728 62.0327 11.5096 61.4889 11.3832C60.9552 11.2462 60.487 11.046 60.0842 10.7826C59.6914 10.5087 59.3742 10.1715 59.1326 9.77109C58.901 9.36017 58.7852 8.88602 58.7852 8.34868V7.71648H60.205V8.34868C60.205 8.70692 60.2856 9.00719 60.4467 9.24953C60.6078 9.49187 60.8243 9.6868 61.0962 9.83431C61.3782 9.97129 61.7004 10.0714 62.0629 10.1346C62.4254 10.1873 62.8081 10.2136 63.2109 10.2136C63.6137 10.2136 63.9963 10.182 64.3589 10.1188C64.7214 10.0556 65.0386 9.95548 65.3105 9.81851C65.5924 9.67099 65.814 9.48134 65.9751 9.24953C66.1362 9.00719 66.2168 8.70692 66.2168 8.34868C66.2168 7.9799 66.111 7.69014 65.8996 7.47941C65.6982 7.25814 65.4313 7.08429 65.099 6.95785C64.7667 6.82087 64.384 6.71551 63.951 6.64175C63.5281 6.568 63.0951 6.48897 62.652 6.40468C62.2089 6.32039 61.7709 6.22029 61.3379 6.10439C60.9149 5.97795 60.5373 5.79883 60.205 5.56702C59.8727 5.33522 59.6008 5.03492 59.3893 4.66614C59.1879 4.29736 59.0872 3.82848 59.0872 3.25951C59.0872 2.78536 59.1879 2.35863 59.3893 1.97931C59.5907 1.6 59.8677 1.27863 60.2201 1.01522C60.5826 0.751798 61.0156 0.551603 61.5191 0.414627C62.0226 0.267115 62.5765 0.193359 63.1807 0.193359C63.7849 0.193359 64.3387 0.267115 64.8422 0.414627C65.3457 0.551603 65.7737 0.757067 66.1261 1.03102C66.4886 1.30497 66.7706 1.64214 66.972 2.04253C67.1734 2.44292 67.2741 2.90126 67.2741 3.41756V3.73365H65.8542V3.41756C65.8542 3.08039 65.7888 2.7959 65.6579 2.56409C65.527 2.32175 65.3457 2.12683 65.1141 1.97931C64.8825 1.8318 64.6005 1.72644 64.2682 1.66322C63.946 1.58946 63.5835 1.55258 63.1807 1.55258C62.3751 1.55258 61.7256 1.68956 61.2321 1.96351C60.7488 2.23746 60.5071 2.66946 60.5071 3.25951C60.5071 3.62829 60.6078 3.92331 60.8092 4.14458C61.0207 4.36585 61.2926 4.55024 61.6249 4.69775C61.9572 4.83473 62.3348 4.94536 62.7577 5.02965C63.1907 5.11395 63.6288 5.20351 64.0719 5.29834C64.5149 5.39317 64.948 5.5038 65.3709 5.63024C65.8039 5.75668 66.1865 5.9358 66.5189 6.16761C66.8512 6.38887 67.118 6.67336 67.3194 7.02107C67.5309 7.36878 67.6366 7.81131 67.6366 8.34868C67.6366 8.88602 67.5158 9.36017 67.2741 9.77109C67.0425 10.1715 66.7253 10.5087 66.3225 10.7826C65.9298 11.046 65.4615 11.2462 64.9177 11.3832C64.384 11.5096 63.8151 11.5728 63.2109 11.5728Z" fill="#B8B8B8"/>
<path d="M72.3304 1.6782H68.5391V0.350586H77.5265V1.6782H73.7503V11.414H72.3304V1.6782Z" fill="#B8B8B8"/>
<path d="M83.3112 11.573C82.6868 11.573 82.0927 11.494 81.5288 11.3359C80.9749 11.1779 80.4916 10.9355 80.0787 10.6089C79.6658 10.2823 79.3386 9.87134 79.0969 9.37612C78.8552 8.8809 78.7344 8.29615 78.7344 7.62181V0.351562H80.1542V7.54278C80.1542 8.01693 80.2398 8.42786 80.411 8.77556C80.5822 9.11271 80.8138 9.38666 81.1058 9.59739C81.3979 9.80812 81.7302 9.96617 82.1028 10.0715C82.4854 10.1664 82.8882 10.2138 83.3112 10.2138C83.7341 10.2138 84.1322 10.1664 84.5048 10.0715C84.8874 9.96617 85.2248 9.80812 85.5168 9.59739C85.8088 9.37612 86.0404 9.0969 86.2116 8.75976C86.3828 8.42259 86.4684 8.01693 86.4684 7.54278V0.351562H87.8883V7.62181C87.8883 8.29615 87.7674 8.8809 87.5258 9.37612C87.2841 9.87134 86.9518 10.2823 86.5288 10.6089C86.116 10.9355 85.6326 11.1779 85.0788 11.3359C84.5249 11.494 83.9358 11.573 83.3112 11.573Z" fill="#B8B8B8"/>
<path d="M90.1484 0.350586H94.0908C94.9065 0.350586 95.6416 0.482294 96.2961 0.745709C96.9507 1.00913 97.5045 1.38317 97.9577 1.86786C98.4108 2.35254 98.7582 2.93732 98.9999 3.6222C99.2517 4.29654 99.3775 5.04991 99.3775 5.8823C99.3775 6.71469 99.2517 7.47332 98.9999 8.1582C98.7582 8.83251 98.4108 9.41203 97.9577 9.89671C97.5045 10.3814 96.9507 10.7554 96.2961 11.0189C95.6416 11.2823 94.9065 11.414 94.0908 11.414H90.1484V0.350586ZM94.0908 10.0864C94.6849 10.0864 95.2186 9.981 95.6919 9.77027C96.1652 9.55954 96.563 9.26978 96.8852 8.901C97.2175 8.52171 97.4693 8.07917 97.6405 7.57342C97.8117 7.05713 97.8973 6.49342 97.8973 5.8823C97.8973 5.27117 97.8117 4.71274 97.6405 4.20698C97.4693 3.69069 97.2175 3.24815 96.8852 2.87937C96.563 2.50005 96.1652 2.20503 95.6919 1.9943C95.2186 1.78356 94.6849 1.6782 94.0908 1.6782H91.5683V10.0864H94.0908Z" fill="#B8B8B8"/>
<path d="M100.75 10.0864H103.544V1.6782H100.75V0.350586H107.759V1.6782H104.964V10.0864H107.759V11.414H100.75V10.0864Z" fill="#B8B8B8"/>
<path d="M114.412 11.5728C113.596 11.5728 112.861 11.4359 112.206 11.1619C111.552 10.8774 110.998 10.4823 110.545 9.97656C110.092 9.4708 109.739 8.87021 109.488 8.17483C109.246 7.47941 109.125 6.71551 109.125 5.88312C109.125 5.05073 109.246 4.28683 109.488 3.59141C109.739 2.896 110.092 2.29541 110.545 1.78965C110.998 1.2839 111.552 0.894045 112.206 0.620091C112.861 0.335603 113.596 0.193359 114.412 0.193359C115.227 0.193359 115.962 0.335603 116.617 0.620091C117.272 0.894045 117.825 1.2839 118.279 1.78965C118.732 2.29541 119.079 2.896 119.321 3.59141C119.573 4.28683 119.698 5.05073 119.698 5.88312C119.698 6.71551 119.573 7.47941 119.321 8.17483C119.079 8.87021 118.732 9.4708 118.279 9.97656C117.825 10.4823 117.272 10.8774 116.617 11.1619C115.962 11.4359 115.227 11.5728 114.412 11.5728ZM114.412 10.2136C115.016 10.2136 115.555 10.103 116.028 9.88173C116.501 9.66046 116.899 9.3549 117.221 8.96504C117.554 8.57522 117.8 8.11687 117.961 7.59005C118.133 7.06322 118.218 6.49424 118.218 5.88312C118.218 5.272 118.133 4.70302 117.961 4.17619C117.8 3.64936 117.554 3.19102 117.221 2.80117C116.899 2.41131 116.501 2.10575 116.028 1.88448C115.555 1.66322 115.016 1.55258 114.412 1.55258C113.808 1.55258 113.269 1.66322 112.795 1.88448C112.322 2.10575 111.919 2.41131 111.587 2.80117C111.265 3.19102 111.018 3.64936 110.847 4.17619C110.686 4.70302 110.605 5.272 110.605 5.88312C110.605 6.49424 110.686 7.06322 110.847 7.59005C111.018 8.11687 111.265 8.57522 111.587 8.96504C111.919 9.3549 112.322 9.66046 112.795 9.88173C113.269 10.103 113.808 10.2136 114.412 10.2136Z" fill="#B8B8B8"/>
</svg>
