<svg width="49" height="48" viewBox="0 0 49 48" fill="none" xmlns="http://www.w3.org/2000/svg">
<rect x="0.707031" width="48" height="48" rx="24" fill="#6A6A6A" fill-opacity="0.1"/>
<path d="M41.6931 28.5693C41.5855 27.7193 41.0979 27.0601 40.3528 26.5433C40.537 26.6708 40.6928 26.7786 40.3493 26.5407C39.8859 26.22 40.1314 26.39 40.3463 26.5387C38.5094 25.2699 36.1132 25.5519 34.1115 26.2568C33.3093 24.9883 33.2745 24.0203 33.7367 22.6357C33.7965 22.4607 33.7557 22.3636 33.5675 22.2855C33.1108 22.0961 32.4531 22.1963 31.9935 22.3144C31.8348 22.3548 31.7193 22.4331 31.6841 22.5882C31.3519 24.1034 30.33 25.4912 29.4393 26.7686C28.8121 25.6028 28.8618 24.7006 29.2837 23.4863C29.3352 23.3385 29.3115 23.2598 29.1589 23.1814C28.6909 22.9466 27.9729 23.0619 27.496 23.1986C26.9476 23.3538 26.1238 25.9858 25.8607 26.5078C25.3108 27.5979 24.8236 29.2993 23.8894 30.1641C23.0966 29.1762 25.3413 26.9443 24.5908 26.0484C24.3369 25.7455 23.8777 25.7533 23.5862 26.0099C23.6561 25.5345 23.6924 25.2219 23.5656 24.8185C23.4314 24.3941 23.0911 24.1506 22.593 24.1629C21.4331 24.1958 20.4117 25.0263 19.7157 25.8127C19.0533 26.5693 17.3064 27.0394 16.3672 27.4956C14.7538 26.1327 11.2611 24.6865 11.1702 22.3656C11.0717 19.7502 14.2845 17.9753 16.4294 16.9138C19.2189 15.5323 23.5167 13.8134 26.6863 15.3241C27.5274 15.725 27.8658 16.5848 27.6342 17.4083C27.0304 19.5562 24.5922 20.9891 22.4713 21.6463C21.4279 21.9697 20.2819 22.2105 19.1778 22.1479C17.6983 22.064 16.5462 21.1964 16.3882 21.1425C16.2561 21.1182 16.2665 21.2838 16.3014 21.3715C17.8364 25.2736 25.6095 22.4141 27.6423 20.4108C28.6213 19.447 29.2158 18.513 29.4696 17.0425C29.7671 15.3185 28.4619 14.2399 27.4713 13.7952C22.4492 11.5407 15.5065 14.4932 11.7091 17.5031C10.0612 18.8094 7.99968 20.885 8.94572 23.0622C9.97246 25.425 13.1182 26.6366 15.1656 28.0817C13.5089 28.88 11.4363 29.7056 10.3627 31.2025C9.74888 32.0606 9.53109 32.9749 9.98819 33.9504C10.7985 35.6734 13.7448 34.9267 14.988 34.1673C16.1269 33.4717 16.8934 32.5379 17.2245 31.3406C17.5117 30.3025 17.4528 29.2239 16.976 28.2461L18.8184 27.3424C18.3223 28.7847 18.1032 30.5926 19.133 31.8959C19.5456 32.417 20.6165 32.4381 21.0548 31.9153C21.623 31.2314 21.9999 30.3744 22.3763 29.5899C22.3323 30.1758 22.2567 30.8397 22.465 31.3503C22.7042 31.9361 23.2466 32.0559 23.8051 31.6842C25.5144 30.5465 26.6023 27.3934 27.4444 25.5553C27.6733 26.3571 27.926 27.0896 28.3439 27.8288C28.4472 28.0103 28.4346 28.1272 28.2926 28.2785C27.6684 28.9457 26.1769 30.0584 26.0323 30.9597C25.9985 31.1704 26.1427 31.3721 26.3988 31.4203C27.4025 31.6146 28.5153 31.2621 29.3303 30.7279C30.1803 30.1703 30.4547 29.41 30.2484 28.5083C29.9535 27.2101 30.9569 25.7595 31.9114 24.6939C32.0866 25.5006 32.3507 26.2771 32.8229 26.9818C31.9802 27.6994 30.723 28.717 30.9036 29.9154C30.9672 30.3445 31.3634 30.6218 31.839 30.5239C32.8563 30.3162 33.735 29.8919 34.3766 29.1398C34.9581 28.4614 34.7499 27.721 34.4962 26.9751C36.0348 26.5492 37.5914 26.4641 39.1259 26.9734C39.8668 27.2178 40.4636 27.6297 40.8177 28.2746C41.2512 29.0648 41.0071 29.7928 40.1699 30.3123C39.9581 30.4438 39.8114 30.5519 39.8831 30.6088C39.9548 30.6657 40.1989 30.7408 40.7393 30.4118C41.2797 30.0826 41.6101 29.6378 41.6947 29.0539C41.7116 28.8928 41.7111 28.7303 41.6931 28.5693ZM15.9868 30.1479C15.8993 31.19 15.3657 32.035 14.4931 32.7176C14.0021 33.1024 13.3908 33.4161 12.7838 33.4733C12.1768 33.5306 11.7041 33.382 11.6637 32.7714C11.55 31.0531 14.3013 29.3699 15.829 28.8631C15.9592 29.2919 16.0231 29.7173 15.9857 30.1498L15.9868 30.1479ZM22.632 25.6196C22.3805 27.0139 21.6762 29.5163 20.5493 30.5156C20.3974 30.6496 20.2522 30.6418 20.1749 30.4674C19.5081 28.9638 20.4115 25.8631 22.3071 25.3845C22.5299 25.3289 22.6682 25.4208 22.632 25.6196ZM27.1638 30.7301C27.7066 30.17 28.2488 29.6104 28.7925 29.0472C28.8597 29.6735 27.66 30.9199 27.1638 30.7301ZM32.3661 29.6241C32.2147 29.7037 31.8749 29.7813 31.8616 29.6763C31.7661 28.921 32.6232 28.1217 33.155 27.7471C33.442 28.4561 33.1023 29.2368 32.3661 29.6241Z" fill="#151515"/>
</svg>
