<svg width="49" height="48" viewBox="0 0 49 48" fill="none" xmlns="http://www.w3.org/2000/svg">
<rect x="0.410156" width="48" height="48" rx="24" fill="#6A6A6A" fill-opacity="0.1"/>
<path d="M39.8116 22.5732L25.837 8.59857C25.4478 8.21501 24.9233 8 24.3768 8C23.8304 8 23.3059 8.21501 22.9167 8.59857L20.0231 11.5055L23.7034 15.1858C24.1373 15.0369 24.6043 15.0132 25.051 15.1175C25.4977 15.2218 25.9059 15.4499 26.2289 15.7757C26.5519 16.1014 26.7765 16.5116 26.877 16.9592C26.9774 17.4068 26.9498 17.8736 26.797 18.3061L30.344 21.8531C30.7595 21.7017 31.2081 21.6653 31.6425 21.7479C32.0769 21.8305 32.4809 22.0289 32.8118 22.3222C33.1427 22.6155 33.3882 22.9927 33.5224 23.4141C33.6565 23.8354 33.6742 24.2852 33.5738 24.7158C33.4733 25.1464 33.2583 25.5419 32.9516 25.8604C32.6448 26.1788 32.2577 26.4085 31.8312 26.5251C31.4046 26.6416 30.9545 26.6408 30.5284 26.5226C30.1023 26.4043 29.7161 26.1732 29.4106 25.8535C29.0701 25.5102 28.838 25.0743 28.7432 24.6002C28.6484 24.126 28.695 23.6345 28.8772 23.1866L25.5703 19.9996V28.6938C25.8057 28.8166 26.0214 28.9739 26.2103 29.1605C26.5869 29.5339 26.8331 30.0188 26.9124 30.5431C26.9917 31.0675 26.8999 31.6035 26.6506 32.0716C26.4014 32.5397 26.0079 32.915 25.5285 33.1418C25.0492 33.3687 24.5094 33.4351 23.9894 33.331C23.4694 33.227 22.9967 32.9582 22.6415 32.5644C22.2863 32.1706 22.0674 31.6729 22.0173 31.1449C21.9673 30.6169 22.0887 30.0869 22.3636 29.6334C22.6385 29.1799 23.0522 28.827 23.5434 28.6271V19.7729C23.242 19.6532 22.9676 19.4742 22.7365 19.2466C22.5055 19.0189 22.3224 18.7473 22.1981 18.4477C22.0737 18.1481 22.0107 17.8267 22.0128 17.5023C22.0148 17.178 22.0819 16.8573 22.21 16.5593L18.5963 12.9323L9.00873 22.5065C8.62517 22.8957 8.41016 23.4202 8.41016 23.9667C8.41016 24.5131 8.62517 25.0376 9.00873 25.4268L22.9834 39.4014C23.3726 39.785 23.8971 40 24.4435 40C24.9899 40 25.5144 39.785 25.9036 39.4014L39.8116 25.4935C40.1951 25.1043 40.4102 24.5798 40.4102 24.0333C40.4102 23.4869 40.1951 22.9624 39.8116 22.5732Z" fill="#151515"/>
</svg>
