<svg width="49" height="48" viewBox="0 0 49 48" fill="none" xmlns="http://www.w3.org/2000/svg">
<g clip-path="url(#clip0)">
<rect x="0.824219" width="48" height="48" rx="24" fill="#6A6A6A" fill-opacity="0.1"/>
<path d="M-10.7777 38.6003C-12.8045 39.5615 -18.1689 43.8888 -19.2021 45.1708C-20.2751 46.4529 -20.5929 44.4497 -19.4803 41.1243C-18.6062 38.44 -16.3807 34.7939 -12.6455 31.6689C-10.4601 29.866 -5.65167 27.2619 -2.71127 25.7392C-2.11507 25.4186 5.59393 22.1333 12.4685 20.4907C13.0647 20.3303 11.7533 21.4923 11.5545 22.1333C10.5213 25.1782 -10.1025 38.2395 -10.1025 38.2395L-10.7777 38.6003ZM18.2701 75.34C18.6277 77.5035 18.3099 77.6638 16.0847 77.9443C13.8593 78.2248 12.2301 77.3833 11.6341 76.8225C11.0379 76.2613 10.9189 75.0195 11.5149 73.8978C11.8727 73.1765 12.2303 72.9361 12.4291 72.0547C12.6277 71.2134 12.7867 71.013 12.9455 70.6925C13.1043 70.4118 13.1443 70.1313 13.1839 68.1683C13.2237 66.2052 13.1839 62.519 13.3827 60.9566C13.5815 59.3541 20.4561 61.6777 20.4561 61.6777C20.4561 61.6777 18.8267 65.7644 18.3897 66.766C17.9525 67.7678 17.9923 69.6907 17.9923 70.0914C17.9923 70.4921 17.8335 71.2933 17.7141 71.3334C17.5949 71.3733 18.1115 72.415 17.8729 73.0162C17.7139 73.5771 18.2305 75.0195 18.2701 75.34ZM20.8929 14.0802C20.6543 12.5577 20.8929 9.55254 21.2107 9.072C22.2043 7.70965 27.4495 7.54954 28.5623 9.15206C29.0391 9.87316 28.9993 11.5559 28.9199 12.6378C28.8405 13.7194 28.5623 16.0433 28.5225 16.8047C28.4829 17.3657 22.7209 18.2469 21.4493 16.7244C21.0915 16.3239 20.8929 14.0802 20.8929 14.0802ZM32.5757 71.4536C34.9997 73.2166 36.8673 73.537 38.0991 74.1781C39.3309 74.8193 39.0131 76.0613 36.9467 76.4218C35.2777 76.7422 32.6551 76.1012 30.9067 76.1012C29.1583 76.1012 25.2639 76.3016 24.2307 75.5805C23.0387 74.7393 23.5551 73.1765 23.5551 73.1765C23.8731 72.2952 24.6677 70.3318 24.4293 68.7293C24.1909 67.1267 23.8729 66.2453 23.2769 64.7628C22.6809 63.2805 22.2439 59.6346 22.8003 59.4342C23.3567 59.2337 23.1975 59.4342 23.9129 59.5943C24.6281 59.7544 25.4229 59.995 26.9727 59.995C28.5225 59.995 30.2311 59.7544 30.8273 59.6344C31.4233 59.5142 31.9001 59.3939 31.7013 60.636C31.5027 61.878 30.9067 64.2018 30.8669 66.0048C30.8273 67.8077 30.8273 69.8912 30.9465 70.2517C31.0655 70.6123 31.9399 71.013 32.5757 71.4536Z" fill="#131415"/>
<path d="M24.1279 18.0352C19.7534 21.8383 11.2824 22.8789 -1.28451 27.7627C-4.5059 29.0036 -13.096 32.7265 -15.1641 36.6096C-8.20447 32.5666 -5.61939 38.1308 -5.06274 43.8552C-4.54592 49.2194 -1.88119 52.0217 4.95911 51.8613C11.9984 51.7014 14.1459 55.8244 16.0945 60.6684C19.8725 42.1338 25.9175 38.5311 29.8147 35.3687C38.0869 28.6033 27.9059 16.674 24.1279 18.0352Z" fill="#959595"/>
<path d="M24.0689 18.0961C13.5864 21.7865 3.22272 22.7091 -8.96712 30.2907C-11.8657 32.0958 -17.9806 36.1872 -19.1719 44.0095C-14.7249 39.0353 -4.44079 32.7778 8.14634 28.8065C14.4995 26.8007 19.1453 25.4771 24.7836 23.2708C24.3867 20.7033 24.3867 19.7005 24.0689 18.0961Z" fill="#959595"/>
<path d="M37.4819 39.9995C37.4819 39.9995 36.7285 42.6022 35.2217 43.4431C35.2217 43.4431 34.1115 43.8436 31.891 42.6024C31.2565 42.2421 30.7807 41.0009 30.8202 40.6003C30.86 39.6392 31.4547 39.1989 31.4547 39.1989C31.4547 39.1989 32.0894 38.1177 32.8426 38.1578C33.5962 38.1978 34.8651 38.3179 35.2616 37.9575C35.6183 37.5571 37.5613 38.6782 37.4819 39.9995ZM21.3034 14.8146C21.3034 14.8146 21.145 16.8568 20.8674 18.1379C20.8276 18.3783 19.6382 18.4982 18.7656 18.8588C20.4311 23.6634 30.4634 23.6233 31.772 21.2611C31.1376 20.8208 29.8687 20.14 29.2739 19.8998C28.679 19.6594 28.7187 19.6995 28.679 18.5784C28.6395 17.4572 28.56 15.3753 28.4806 14.8146C28.4014 14.254 22.255 14.254 21.3034 14.8146Z" fill="#131415"/>
<path d="M21.7193 14.905C21.7193 14.905 21.7193 16.0554 21.6005 17.166C21.561 17.6817 21.5214 17.999 21.4422 18.3957C21.4026 18.6339 22.7885 19.5856 23.1845 21.6881C25.0852 25.9324 29.4807 23.8301 31.3021 21.8071C30.6686 21.3707 29.639 20.7757 28.4512 20.2997C27.8571 20.0616 28.1343 19.5461 28.0948 18.4354C28.0552 17.3248 27.8967 15.6982 27.8176 15.1033C27.7381 14.5083 22.6697 14.3496 21.7193 14.905Z" fill="#151515"/>
<path d="M21.2626 14.8225C21.2626 14.8225 21.2232 15.5569 21.1055 16.4134C21.6165 16.9435 22.2851 17.6779 22.7965 18.1266C23.1504 18.4531 24.0153 18.4122 24.802 18.4122C25.5098 18.4122 26.139 18.4937 26.4143 18.3307C27.0437 18.0043 27.948 17.1886 28.4592 16.5766C28.42 15.8424 28.3807 15.1489 28.3415 14.8225C28.3017 14.2513 22.2063 14.2513 21.2626 14.8225Z" fill="#131415"/>
<path d="M24.9505 17.9278C24.4734 17.9278 23.9169 17.8879 23.4798 17.8077C23.2809 17.7678 23.0823 17.6478 22.9232 17.5676C22.6449 17.3673 22.3667 17.1274 22.049 16.8871C21.4128 16.4068 21.3732 16.1266 21.3732 16.0067C21.6515 13.485 21.2936 11.3637 21.2936 11.3637C21.2936 11.3637 21.0153 10.2829 22.5257 10.0027C24.0361 9.72248 24.9503 9.68259 24.9503 9.68259C24.9503 9.68259 25.9043 9.68259 27.3749 10.0027C28.8853 10.2829 28.607 11.3637 28.607 11.3637C28.607 11.3637 28.2493 13.485 28.5276 16.0067C28.5276 16.1266 28.488 16.4068 27.8518 16.8871C27.2953 17.2874 26.8582 17.7275 26.4211 17.8077C25.9838 17.8879 25.4272 17.9278 24.9505 17.9278Z" fill="#131415"/>
<path d="M24.8982 8.67307C22.2788 8.67307 21.7626 9.39365 21.0085 10.1944C20.8499 10.3945 20.9688 11.5957 21.2469 14.1581H21.604C21.604 14.1581 21.3657 13.4373 21.4055 12.5966C21.4452 11.7559 21.604 11.796 21.4848 11.5957C21.3262 11.3553 21.0085 10.9549 21.7231 10.5547C22.4374 10.1543 23.5486 10.8749 24.8982 10.915C26.2475 10.8749 27.3985 10.1543 28.1128 10.5547C28.8271 10.9549 28.5097 11.3553 28.3511 11.5957C28.1923 11.8359 28.3907 11.7557 28.4304 12.5966C28.47 13.4373 28.2318 14.1581 28.2318 14.1581H28.589C28.8271 11.5957 28.9859 10.4747 28.8669 10.2744C28.1921 9.39365 27.5175 8.71297 24.8982 8.67307ZM37.4793 40.2218C37.4793 40.2218 36.7252 42.6641 35.2568 43.5048C34.9392 43.3448 34.9789 43.1046 34.7011 42.7441C34.6216 42.6242 34.3437 42.5438 34.2249 42.4239C34.1058 42.3038 34.1456 42.1035 33.947 41.9435C33.7882 41.7833 33.6692 41.9034 33.5103 41.7833C33.3517 41.6233 33.3118 41.423 33.1929 41.3031C33.1134 41.2229 32.796 41.183 32.7167 41.1028C32.5182 40.9025 30.7721 40.5422 30.8514 40.1418C31.01 39.5412 31.3276 39.1009 31.3276 39.1009C31.3276 39.1009 32.0817 37.9799 32.8356 38.0198C33.5897 38.0599 34.3042 38.2201 34.7011 37.8598C35.1377 37.4592 37.5985 38.9407 37.4793 40.2218Z" fill="#131415"/>
<path d="M32.3555 22.4102C32.3555 22.4102 34.8744 21.8097 36.5938 23.4507C38.3132 25.1317 38.1931 27.2126 37.6735 28.4933C38.1132 29.0136 38.9129 30.4542 38.3132 32.1752C40.9521 34.4163 39.7926 37.8583 37.4336 40.1395C37.4336 40.1395 36.8738 38.0583 34.6348 37.9383C34.7147 37.138 32.5555 36.4975 33.5551 34.4163C32.0357 34.0562 32.0758 33.0156 31.8359 31.7351C31.6359 30.4542 32.3555 22.4102 32.3555 22.4102Z" fill="#131415"/>
<path d="M31.3142 23.5776C31.3142 23.5776 34.2398 22.0991 35.9632 23.7775C37.6864 25.4559 37.2054 27.2941 36.6845 28.5729C37.1253 29.0922 38.1673 30.5711 37.5261 32.3291C37.4059 32.7288 36.5242 32.7288 35.8827 33.7678C37.4857 32.8485 38.4878 33.0884 38.8485 34.2471C39.4097 36.0454 38.1671 38.2033 37.0851 39.4023C37.0851 39.3622 37.045 39.3222 37.045 39.2824C36.8848 39.882 36.6843 41.0407 35.4821 42.3194C34.8808 42.9588 34.3999 42.879 33.7186 42.7191C32.9172 42.5192 32.6366 42.1593 31.5145 41.5602C30.8732 41.2006 31.2339 40.7609 31.2339 40.4013C31.2339 40.3214 31.314 40.2014 31.4344 40.0417C31.5145 39.8417 31.7549 39.5223 32.1156 39.1625C32.1156 39.1625 32.6366 38.4433 33.3982 38.4831C34.1597 38.5231 34.9611 38.3634 35.1616 38.1635C35.1616 36.7649 33.5586 36.7248 34.1196 34.3272C34.1597 34.2073 34.3602 34.0074 35.0013 33.9275C34.0393 33.7276 33.5985 33.6876 32.9172 33.0484C32.4363 32.6089 32.0756 32.0494 31.9552 31.3301C31.715 30.0914 31.3142 23.5776 31.3142 23.5776Z" fill="#151515"/>
<path d="M22.9444 21.0417C22.7067 20.7207 21.4784 19.1164 19.1404 18.4746C18.4667 18.274 18.0309 18.8356 17.3574 19.2367C17.1592 19.1164 16.2875 18.7153 15.812 18.9959C15.3366 19.2765 15.0197 19.5575 14.544 19.758C14.3061 19.6376 13.6723 19.6376 13.1571 19.8381C12.642 19.9986 11.8494 20.3595 11.0966 21.4024C10.6211 23.1272 19.497 21.8435 19.497 21.8435L22.9444 21.0417Z" fill="#131415"/>
<path d="M23.1102 21.0955C21.8396 20.6563 22.0382 19.1795 19.2196 18.9401C18.6638 18.9001 18.3066 19.339 17.9095 19.6185C18.1081 19.8182 18.3066 20.1374 18.4256 20.4566C18.0684 20.0577 17.4332 19.5385 16.7979 19.4188C16.2024 19.2993 15.8054 19.7382 15.1703 20.0577C15.2892 20.1772 15.4084 20.3769 15.5671 20.6165C15.0112 20.2573 14.6144 20.1376 13.8602 20.4169C13.3441 20.5764 12.3517 21.0155 11.5974 22.0934C11.1211 23.8098 19.6165 21.8937 19.6165 21.8937L23.1102 21.0955Z" fill="#959595"/>
<path d="M30.5665 21.6686C30.5665 21.6686 30.5665 21.2131 30.5267 20.7992C30.5267 20.7164 30.2084 20.5093 30.2084 20.4266L30.1289 20.3436C30.1289 20.3436 30.7656 19.971 31.2431 20.1782C31.7602 20.3436 32.0388 21.0476 32.0388 21.0476C32.9541 20.7164 33.0336 21.0891 33.4715 21.5859C34.4266 21.3787 34.5458 21.7513 35.1428 22.6624C35.1428 22.6624 34.4266 22.5382 33.0338 22.7864C31.6807 22.9934 30.5665 21.6271 30.5665 21.6686Z" fill="#131415"/>
<path d="M30.4657 21.4662C30.4657 21.4662 30.7022 21.2603 30.6232 21.2191C31.0566 20.9722 31.6479 20.6842 31.9238 21.4662C32.8303 21.1369 32.9485 21.5897 33.382 22.0838C34.4854 21.5487 34.5642 22.207 34.6431 22.4952C34.2884 22.4952 33.7763 22.5364 33.0668 22.6187C31.7269 22.8246 30.4262 21.425 30.4657 21.4662Z" fill="#959595"/>
<path d="M16.9566 20.4519C16.9566 20.4519 19.2213 21.2522 21.1284 21.1321C23.0355 20.9722 26.2934 20.8121 28.0416 21.8526C28.0416 21.8526 29.8295 21.2121 31.4982 21.6524C33.1672 22.0925 36.2263 24.974 35.3127 28.0154C35.2331 28.2157 34.7166 28.5357 34.1206 28.7359C34.1206 28.7359 34.4386 30.0965 33.8823 31.217C33.326 32.2976 32.0943 34.3787 32.0546 37.26C32.015 37.7402 31.9356 38.7406 31.856 39.2208C28.7568 39.101 23.9892 37.9402 19.3009 38.0204C19.3405 37.5003 19.3803 37.18 19.42 36.6598H19.539C19.3007 35.3391 19.2213 34.6587 18.9827 33.6582C17.4729 32.6978 15.8836 31.5773 14.533 29.4562C13.2218 27.3351 16.9566 20.4519 16.9566 20.4519ZM32.2929 42.0624C32.2929 42.0624 34.7563 50.9469 31.856 54.6687C31.856 54.6687 32.2929 56.3894 31.2997 58.2304C31.1407 59.0306 30.9419 59.7511 30.8229 60.5514C30.3064 63.873 29.4322 65.2736 29.1938 70.5962L26.8097 70.5563C26.8097 70.5563 26.5316 66.7144 25.6973 64.6734C25.2208 63.513 23.3531 61.952 23.4328 60.3914C23.5122 59.1908 23.7506 58.1903 25.7771 56.5894C25.9359 54.2685 23.6314 52.0672 23.9892 43.423L32.2929 42.0624Z" fill="#131415"/>
<path d="M31.5441 41.7565C32.181 45.8489 33.6536 51.9073 30.9868 54.8762C31.1442 55.629 31.1576 56.4052 31.0265 57.1631C30.9469 57.6445 30.7877 58.1661 30.5887 58.7277C30.1907 59.6907 30.0314 61.095 29.912 61.9375C29.3946 65.2676 29.3946 65.4283 29.1558 70.7644L26.7675 70.7243C26.7675 70.7243 26.4888 66.8725 25.653 64.8265C25.1756 63.663 24.1804 62.66 24.1009 61.0952C24.0213 59.8916 24.8571 57.4844 26.8474 57.5645C26.728 52.7098 24.4989 53.6727 23.9019 43.562L31.5441 41.7565ZM16.8966 20.4519C16.8966 20.4519 17.7722 20.7328 18.7274 20.813C19.6828 20.8932 20.7177 20.813 21.633 20.7728C23.5435 20.6125 26.2502 20.4118 28.0413 21.4549C28.0413 21.4549 29.0364 21.1339 30.1112 21.214C30.5887 21.2542 31.0665 21.6555 31.6237 21.816C33.3749 22.2572 35.0467 25.1861 34.2902 27.8343C34.2107 28.035 33.6534 27.8343 33.0165 28.035C33.1357 28.5968 33.2157 29.8807 32.5786 31.2448C31.9021 32.609 31.0265 34.3743 31.1855 37.7446C27.0063 37.5439 25.1356 37.2632 20.996 37.0625C20.6378 35.5779 20.3988 34.0934 20.3591 33.3311C20.9164 33.0502 21.2346 32.8097 21.6727 32.3281C20.4787 32.5288 20.0009 32.4485 19.2843 32.0472C18.568 31.646 17.2943 30.3621 16.6574 29.5196C16.5779 29.4393 16.1402 30.7631 15.1451 30.8035C14.7867 30.2819 16.2992 28.7973 16.0206 28.2357C15.0257 26.1893 16.8966 20.4519 16.8966 20.4519Z" fill="#151515"/>
<path d="M31.8606 38.3693C31.8606 38.3693 31.9407 39.8111 31.9407 40.1715C31.9407 40.572 32.2616 41.7733 32.3015 42.334C31.8606 43.0949 29.9362 44.817 26.4481 45.4578C23.0002 46.1786 18.4297 40.7723 18.4297 40.7723C18.55 40.2517 18.9509 38.7297 19.2316 37.9289C19.2717 37.8489 19.3519 37.6485 19.3519 37.5685C19.7128 37.0479 31.8606 38.3693 31.8606 38.3693Z" fill="#131415"/>
<path d="M31.0102 38.6082C31.0102 39.6051 31.1688 40.323 31.2881 40.961C31.4864 42.1174 31.8038 42.875 31.8038 43.6327C31.8038 45.9453 28.7877 45.5465 26.2476 45.6264C22.8346 46.3443 19.9375 40.961 19.9375 40.961C20.1756 40.0438 20.3344 39.0072 20.6915 38.1298C20.7311 37.6513 20.8106 37.0532 20.8501 36.774C25.6919 36.774 29.1049 37.0532 31.0893 37.2523C31.1688 37.691 31.0895 38.4487 31.0102 38.6082Z" fill="#151515"/>
<path d="M27.1196 43.7263C27.1196 43.7263 25.0032 38.9964 18.6536 40.3996C17.1363 44.6884 15.0995 49.6188 16.4174 54.9499C15.0995 56.7537 13.582 57.7559 13.582 61.0827C13.582 64.4096 13.7418 64.9709 13.7418 64.9709L18.414 65.2115C18.414 65.2115 19.9315 63.2476 20.5304 61.123C20.6902 60.5216 20.85 59.4395 20.7302 58.1969C20.8898 57.9564 21.5687 57.3954 21.6487 56.313C21.6487 56.313 23.9249 55.1106 25.2428 52.1846C26.4809 49.5385 26.1613 47.2538 27.1196 43.7263Z" fill="#131415"/>
<path d="M27.1216 43.6841C27.002 43.2446 25.405 38.9282 19.4964 40.207C16.0233 49.4794 17.3009 53.3162 17.8197 54.9947C15.4641 57.9921 14.3863 58.6316 14.8656 64.7066H17.9796C19.4167 62.4286 19.7361 61.5891 19.8159 58.5917C19.8159 58.4718 19.3769 58.8315 19.0574 59.2312C19.2971 57.9923 19.9757 57.7525 20.4947 56.9931C20.7342 56.6733 20.9337 56.1938 20.9337 55.5543C23.7283 53.6759 24.7663 51.3178 25.365 48.8798C25.8443 47.2013 26.4031 44.4435 27.1216 43.6841Z" fill="#151515"/>
<path d="M17.3739 37.2787C17.3739 37.2787 18.4468 37.3186 19.4005 37.6392C20.3144 37.9596 20.3144 38.1598 20.672 38.5607C21.0296 38.9615 21.9037 39.5622 21.7449 40.163C21.6654 40.4836 21.4668 40.5637 21.1886 40.8441C21.0694 40.9643 20.1951 41.9257 19.9965 42.0459C19.8773 42.1259 19.7183 42.2463 19.5991 42.3263L19.0031 42.727C18.6058 42.9274 18.3276 43.0476 17.8906 43.0074C17.8906 43.0074 16.8973 42.9673 16.2613 42.2864C16.2613 42.2864 16.1819 41.9658 16.3409 41.8057C16.3409 41.8057 15.5064 41.0845 15.268 40.6038C15.0294 40.1233 15.0294 39.4422 15.1886 39.0817C15.268 38.7208 16.8175 37.7193 17.3739 37.2787ZM18.3674 76.2584L18.2482 77.2601C18.2482 77.2601 17.8906 77.7007 15.2284 77.6607C12.5264 77.6206 11.8112 76.7794 11.5729 76.3387L11.4141 75.297C11.4141 75.297 11.9306 74.5359 12.0498 74.5359C12.924 74.6159 15.9041 75.8178 17.9704 76.1382C18.1686 76.1382 18.2082 76.2183 18.3674 76.2584ZM24.1288 74.2153C24.1288 74.6558 24.089 74.6558 24.089 75.0966C24.5658 75.4571 25.7581 75.6575 28.0227 75.6172C31.3207 75.5372 34.3803 76.6189 38.1152 75.9777L38.155 75.2567L37.7974 75.2168L24.5658 74.135L24.1288 74.2153Z" fill="#131415"/>
<path d="M26.9759 75.6693H27.9713C30.1217 75.5891 32.1525 76.0707 34.3424 76.1911C35.4971 76.1509 36.9307 75.8699 36.8112 75.027L25.5026 74.0635C24.8257 74.8262 25.3431 75.4685 26.9759 75.6693ZM13.9949 58.7697C14.3532 59.0105 16.7822 60.4557 20.7243 60.2549C20.6445 61.0176 20.6844 62.5029 18.9324 65.112C18.0564 66.3965 17.2996 68.6446 17.1405 71.4946C17.1804 72.1369 17.5387 72.6988 17.0609 73.5419C17.2201 74.0635 17.8572 75.1072 18.1758 75.7495C18.4943 76.392 18.6536 77.1144 16.5431 77.1546C14.3929 77.1946 10.9286 76.9538 11.4066 75.268C11.6456 74.3849 12.3224 73.4617 12.4022 73.1002C12.4818 72.739 12.4818 71.6553 13.1585 70.9326C13.756 68.9256 13.5568 66.9988 13.4375 65.1924C13.2383 63.3056 13.1984 60.2951 13.9949 58.7697ZM17.698 26.0543C20.5252 22.2407 18.1359 19.1902 13.5968 20.1133C11.7651 20.4745 9.93353 21.7592 9.81389 24.0873C9.21667 24.1675 7.86289 24.2477 7.1859 26.7366C6.66844 28.6634 6.38967 29.0246 5.4736 29.9879C4.87637 30.6704 5.51348 32.0753 5.95138 33.079C7.4248 36.5312 11.9641 36.8522 15.0302 39.4615C16.0655 39.1805 17.1405 38.0165 17.4592 37.2539C14.8709 34.1627 15.4282 32.9586 14.3929 31.353C15.508 30.9514 18.0564 29.386 17.698 26.0543Z" fill="#131415"/>
<path d="M17.1013 25.8593C17.2599 25.6177 17.5378 25.0948 17.6571 24.8935C17.6968 24.8532 18.1333 25.6177 18.173 25.5776C19.2445 23.8071 19.5224 21.2319 18.2919 20.9905C18.014 20.9502 17.4983 20.8297 17.0616 20.6685C16.268 20.3868 15.5536 20.3868 14.2834 20.6284C12.5371 20.9502 10.7908 22.2378 10.7908 24.0887C10.7908 24.2094 12.0209 24.5715 12.3783 26.0604C11.7828 25.2153 10.7509 24.2898 9.52059 25.0946C8.21079 25.9395 8.88557 27.8709 7.1393 29.8827C6.54383 30.5667 6.62333 31.3715 7.25816 32.9809C8.2901 35.516 13.1719 36.8839 15.8311 39.2981C16.4661 39.0164 16.9026 38.3726 17.2202 37.8898C15.4342 35.9987 14.7197 34.2282 14.2039 32.9406C13.5689 31.4519 12.8543 30.607 11.4652 29.4801C12.1797 29.7618 12.7355 30.0435 13.0527 30.2848C13.4099 30.5262 13.9258 30.5665 14.4022 30.4055C16.1091 29.8025 17.022 27.3881 17.1013 25.8593Z" fill="#151515"/>
<path d="M34.4378 26.4299C34.3187 27.9525 33.2071 27.1912 32.6116 26.9107C31.4204 26.3897 30.2292 26.0291 28.8396 26.0291C27.45 26.0291 25.6634 26.1493 24.1151 26.5501C21.9712 27.1511 21.3357 27.1111 20.383 26.6301C19.4302 26.1092 17.7628 24.8269 17.7628 24.8269C17.7628 24.8269 17.7231 25.2276 18.1201 25.7486C18.6361 26.3897 19.7877 27.1912 21.3359 27.7119C22.0903 27.9525 22.686 27.792 23.361 27.6319C26.8945 26.7503 30.6265 26.59 33.763 28.5134C33.9218 28.5935 34.4778 28.3531 34.716 27.9925C35.0333 27.4717 34.4378 26.4299 34.4378 26.4299Z" fill="#131415"/>
<path d="M27.8019 10.0033C27.6837 9.64565 26.8167 9.00952 24.8074 9.00952C22.6403 9.00952 22.0098 9.68526 21.9706 10.0429C21.9706 10.1622 21.8129 11.4342 21.7734 11.9507C21.7734 11.9507 21.7734 12.5867 21.8127 13.5405C21.8522 14.1764 22.0098 14.5341 22.0886 15.3688C22.1673 16.243 22.4039 16.7995 22.8372 17.5151C23.0343 17.6341 23.1918 17.7535 23.3889 17.7933C24.177 17.9522 25.556 17.992 26.3046 17.7933C26.738 17.6741 27.2897 16.9189 27.4078 16.2432C27.5653 15.4086 27.723 14.8123 27.7624 14.2958C27.8412 13.7793 27.8806 12.6265 27.9199 12.3084C28.0383 11.4342 27.8412 10.0827 27.8019 10.0033Z" fill="#151515"/>
<path d="M20.6055 35.5961C20.6055 35.8797 23.7187 37.4592 25.4348 37.7834C27.1511 38.1073 30.7432 37.7834 31.3019 37.6619L31.2219 38.229C31.2219 38.229 26.9514 38.8771 23.6787 37.986C20.4058 37.0949 20.7652 36.8923 20.7652 36.8923L20.6055 35.5961Z" fill="#131415"/>
<path d="M17.0355 20.2836C18.3426 21.0656 20.1646 20.8599 20.8378 20.8186C20.9963 20.8186 22.5807 20.5305 22.6599 20.5715C22.8182 20.6127 22.8182 20.7362 22.8182 20.7362C22.8182 20.7362 22.2241 21.0654 20.8775 21.1476C19.61 21.2299 18.105 21.1476 17.2733 20.7362C16.2829 20.2836 17.0355 20.2836 17.0355 20.2836ZM30.5022 21.0656C30.7398 21.2301 32.2846 21.8476 32.958 22.5884C33.552 23.2471 33.2353 23.2059 33.1163 23.0412C32.958 22.8353 31.73 21.971 31.2548 21.7653C30.7795 21.5596 30.1853 21.189 30.1853 21.1068C30.1853 21.0246 30.5022 21.0656 30.5022 21.0656Z" fill="#131415"/>
<path d="M16.792 37.6288C17.9688 37.5474 19.1862 37.8327 19.9571 38.6475C20.3629 39.055 21.0122 39.5031 20.9311 39.9106C20.9311 40.0328 20.6875 40.3589 20.4849 40.6033C20.3631 40.7662 19.998 41.1329 19.8761 41.2553C19.7139 41.3775 19.1458 41.8258 19.024 41.9072C18.9023 41.9889 18.74 42.1927 18.6182 42.2333C18.2126 42.4372 17.7662 42.2741 17.3604 42.0705C16.9548 41.8666 17.4417 41.8258 16.9952 41.4999C15.8998 40.7258 15.291 40.1958 15.7374 38.6883C15.7778 38.403 16.2241 38.0769 16.792 37.6288Z" fill="#151515"/>
<path opacity="0.4" d="M6.63637 28.5915C3.05488 30.0328 -6.05805 34.5968 -8.64453 35.998C-6.49568 37.3591 -5.50086 40.6418 -5.18242 43.9647C-5.14276 44.285 -5.1029 44.5653 -5.06305 44.8855C-5.02339 45.1658 -4.98353 45.3659 -4.94387 45.4861C-4.94387 45.5262 -4.94387 45.6062 -4.90402 45.6461C-2.55608 39.2007 5.84025 32.3949 6.15869 31.8744C6.31772 31.6342 5.95961 30.5933 6.5168 29.5927C7.23322 28.3112 8.62619 27.7507 6.63637 28.5915ZM15.1523 58.8174C16.9827 55.1343 17.0225 51.6112 16.9827 47.4876C16.9827 45.766 18.2162 43.3239 17.5797 44.0046C15.1919 46.6867 9.18319 51.7313 4.84563 52.0113C10.9341 51.8112 13.3217 54.8939 15.1523 58.8174Z" fill="#131415"/>
<path d="M-12.1523 39.2982C-9.86708 37.6629 1.96039 31.401 4.80704 30.5233C7.65348 29.6059 6.77146 28.5289 6.77146 28.5289C6.77146 28.5289 -4.77533 33.4747 -11.6713 37.7426" fill="#131415"/>
<path opacity="0.4" d="M21.3615 27.7427C20.4465 27.3811 19.7305 28.4659 19.9692 29.5105C20.208 30.555 22.3562 31.7199 22.2367 35.5366C22.1572 38.6703 21.4809 39.9557 21.4809 39.9557L19.9692 38.0275C19.9692 38.0275 19.7305 33.6885 19.2134 33.0457C18.6964 32.4029 17.0652 31.2379 16.4287 30.6353C15.7922 30.0326 17.1447 29.2292 17.0652 28.1042C16.9857 27.0196 17.7415 24.8502 17.7415 24.8502L21.3615 27.7427ZM26.8912 44.8568C26.8117 47.8698 27.4881 52.3293 27.7664 54.4586C28.0449 56.5878 28.4029 56.7485 27.7664 57.7128C27.1299 58.6368 26.2946 60.1634 26.2946 60.1634L23.5495 59.9222C23.5495 59.9222 25.7375 57.11 25.8567 56.5878C25.976 56.0657 24.7429 52.0884 24.7429 52.0884L26.8912 44.8568ZM21.6004 16.7349C22.1574 17.9801 22.8335 18.5426 23.9075 18.9043C24.544 19.1454 27.0502 19.4669 28.0449 18.3418C28.4824 17.8195 28.2039 16.4135 28.2039 16.4135L25.9364 18.2614L22.8732 17.699L22.5152 16.775L21.6004 16.7349Z" fill="#131415"/>
<path d="M21.7628 19.6106C22.8075 20.265 25.4194 20.881 26.1426 20.9965C26.8658 21.1503 28.0311 20.265 28.5937 20.0341C29.1966 19.7646 30.2414 19.6106 31.4467 20.65C31.5672 20.7655 31.1654 21.266 31.1654 21.266C31.1251 21.2274 30.8841 21.2274 30.5625 21.0734C30.2412 20.9195 29.9599 20.8039 29.4777 20.8424C27.4685 21.0734 27.1471 21.7279 25.3792 21.3427C23.6112 20.9575 23.1691 20.6498 21.4414 20.7268" fill="#959595"/>
<path fill-rule="evenodd" clip-rule="evenodd" d="M24.0366 20.64C23.1627 20.3827 22.2281 20.0507 21.6845 19.7005L21.8558 19.4424C22.3572 19.7655 23.2516 20.087 24.1262 20.3445C24.9964 20.6008 25.8238 20.7871 26.1772 20.8451C26.1799 20.8456 26.1827 20.8461 26.1854 20.8467C26.3284 20.878 26.5067 20.8586 26.7145 20.7954C26.9205 20.7327 27.1416 20.6315 27.364 20.5146C27.5563 20.4136 27.7449 20.3035 27.9226 20.1997C27.9503 20.1835 27.9778 20.1674 28.005 20.1516C28.2016 20.0371 28.3881 19.9306 28.5395 19.8664C28.8617 19.7187 29.3025 19.6025 29.8236 19.666C30.347 19.7298 30.9387 19.9734 31.562 20.5262C31.5641 20.528 31.5661 20.5299 31.568 20.5318C31.6211 20.5841 31.6352 20.6492 31.6363 20.6989C31.6374 20.7478 31.6265 20.7956 31.6135 20.8362C31.5875 20.9179 31.5415 21.0052 31.4968 21.0802C31.4512 21.1569 31.4021 21.2288 31.3648 21.2809C31.3461 21.3072 31.3301 21.3287 31.3187 21.3439C31.313 21.3515 31.3085 21.3575 31.3053 21.3617C31.3037 21.3637 31.3024 21.3654 31.3015 21.3665L31.3005 21.3679L31.3 21.3684L31.3 21.3685C31.3 21.3685 31.3 21.3685 31.1759 21.2745L31.3 21.3685C31.2725 21.4037 31.231 21.4255 31.1861 21.4284C31.1518 21.4306 31.1182 21.4216 31.09 21.4033C31.0861 21.4022 31.0805 21.4007 31.0726 21.3988C31.0583 21.3954 31.0412 21.3917 31.0191 21.3868L31.0186 21.3867C30.9968 21.382 30.9715 21.3765 30.9437 21.37C30.8313 21.3436 30.6781 21.3006 30.5029 21.2143C30.1928 21.0616 29.9424 20.9566 29.5035 20.9922C28.7465 21.0819 28.2399 21.2328 27.7899 21.3668C27.6526 21.4077 27.5206 21.447 27.3884 21.4826C26.8142 21.6369 26.2654 21.7082 25.3531 21.5038C24.8636 21.3941 24.4776 21.2916 24.1406 21.202C23.2427 20.9635 22.692 20.8172 21.4559 20.8738L21.4414 20.5657C22.7289 20.5068 23.331 20.6668 24.2474 20.9103C24.5813 20.999 24.9568 21.0988 25.4225 21.2031C26.2786 21.3949 26.7749 21.3278 27.306 21.185C27.4285 21.1521 27.5543 21.1146 27.6876 21.0749C28.1409 20.9398 28.6806 20.7789 29.469 20.6857C29.4709 20.6855 29.4728 20.6853 29.4747 20.6851C29.9986 20.642 30.3106 20.7749 30.6428 20.9384L30.6428 20.9385C30.7893 21.0106 30.9175 21.0468 31.0162 21.07C31.0411 21.0758 31.0641 21.0809 31.0859 21.0856L31.0887 21.0862C31.0981 21.0882 31.1076 21.0903 31.1168 21.0923C31.1498 21.0457 31.1901 20.986 31.2268 20.9242C31.2677 20.8557 31.2995 20.792 31.3149 20.7437C31.317 20.7373 31.3186 20.7316 31.3198 20.7266C30.7502 20.231 30.228 20.026 29.7852 19.972C29.3327 19.9169 28.9503 20.0178 28.6696 20.1469C28.6681 20.1476 28.6666 20.1482 28.665 20.1489C28.5354 20.2036 28.366 20.2996 28.1642 20.4171C28.1376 20.4326 28.1105 20.4484 28.0829 20.4645C27.9056 20.5681 27.7103 20.6821 27.5113 20.7867C27.2815 20.9074 27.0404 21.019 26.8068 21.09C26.5765 21.1601 26.3393 21.1951 26.1218 21.1487C25.7497 21.0872 24.9119 20.8977 24.0366 20.64ZM31.0965 21.4054C31.0981 21.406 31.0977 21.406 31.0959 21.4052C31.0961 21.4053 31.0964 21.4053 31.0965 21.4054Z" fill="#131415"/>
<path d="M21.5195 19.6106C22.8148 20.215 25.3269 20.8624 26.0334 21.0352C26.7398 21.2079 27.8781 20.4307 28.4277 20.0423C29.4092 19.3516 30.665 19.9128 31.2539 20.6467C31.6463 21.1214 31.8035 21.4236 31.8035 21.5531C31.8035 21.7256 31.3325 21.5531 31.3325 21.5531C31.0578 21.4236 30.7436 21.3806 30.5084 21.2077C30.1942 21.0352 29.8801 20.7762 29.4094 20.8192C27.4467 21.0784 27.0541 21.8121 25.3664 21.3804C23.6787 20.9487 23.2469 20.5602 21.4414 20.6895" fill="#959595"/>
<path d="M15.2314 57.1338C15.152 57.0536 15.3108 56.9735 15.2314 56.9735C14.715 56.9735 13.9995 56.5726 13.6019 56.0112C11.8931 53.5255 9.38923 51.8817 4.85874 52.0019C-1.93717 52.1621 -4.63966 49.3558 -5.15612 43.9832C-5.43434 41.0564 -6.22923 38.2097 -7.8586 36.6058L-8.8125 37.2074C-6.9845 38.811 -6.38824 41.4172 -5.9908 44.9855C-5.35493 50.3581 -1.06288 52.844 3.94465 52.9241C9.1508 53.0042 11.0186 54.0869 12.9658 56.7332C13.6017 57.5751 14.3171 57.8558 14.8734 57.976L15.2314 57.1338Z" fill="#131415"/>
<path opacity="0.4" d="M33.7234 31.3894C33.8374 31.9921 34.1415 33.1576 34.7498 33.7201C35.0161 34.0014 35.054 34.0817 34.8259 34.0817C34.5976 34.0817 32.9249 34.0014 32.9249 34.0014L32.4688 33.1576L33.7234 31.3894Z" fill="#131415"/>
</g>
<defs>
<clipPath id="clip0">
<rect x="0.824219" width="48" height="48" rx="24" fill="white"/>
</clipPath>
</defs>
</svg>
