<svg width="49" height="48" viewBox="0 0 49 48" fill="none" xmlns="http://www.w3.org/2000/svg">
<rect x="0.46875" width="48" height="48" rx="24" fill="#6A6A6A" fill-opacity="0.1"/>
<path d="M25.0469 32.9866L33.1522 28.6026V19.9186L25.0469 24.5213V32.9866Z" fill="#151515"/>
<path opacity="0.5" d="M39.1339 16.52L34.3086 19.2586V29.1186L39.1339 31.8613V16.52Z" fill="#151515"/>
<path d="M32.6067 18.9133L24.4694 14.5107L16.332 18.9133L24.4694 23.5333L32.6067 18.9133Z" fill="#151515"/>
<path opacity="0.5" d="M33.2642 29.84L25.0469 34.2853V40L38.2335 32.664L33.2642 29.84Z" fill="#151515"/>
<path opacity="0.5" d="M23.8898 34.2853L15.6738 29.84L10.7031 32.664L23.8898 40V34.2853Z" fill="#151515"/>
<path opacity="0.5" d="M9.80078 31.8613L14.6261 29.1186V19.2586L9.80078 16.52V31.8613Z" fill="#151515"/>
<path opacity="0.5" d="M15.1605 18.248L23.8899 13.5253V8L10.3672 15.5253L15.1605 18.248Z" fill="#151515"/>
<path d="M23.8905 24.5213L15.7852 19.9186V28.6026L23.8905 32.9866V24.5213Z" fill="#151515"/>
<path opacity="0.5" d="M25.0469 13.5253L33.7762 18.2493L38.5709 15.5253L25.0469 8V13.5253Z" fill="#151515"/>
</svg>
