<svg width="49" height="48" viewBox="0 0 49 48" fill="none" xmlns="http://www.w3.org/2000/svg">
<g clip-path="url(#clip0)">
<rect x="0.175781" width="48" height="48" rx="24" fill="#F1F1F1"/>
<path d="M50.6988 48.2025C51.8628 49.0228 52.9418 50.0116 53.8103 51.1422C53.9573 51.2856 54.1055 51.4224 54.2542 51.5598C54.4043 51.6984 54.555 51.8376 54.7057 51.9846C54.8017 52.1241 54.8662 52.2826 54.9297 52.4387C54.9994 52.6102 55.068 52.7788 55.1758 52.9158V53C54.9173 52.9156 54.7381 52.7341 54.5626 52.5563C54.4525 52.4446 54.3437 52.3345 54.2177 52.2507C53.9251 52.0575 53.6316 51.8476 53.3388 51.6383C52.9731 51.3768 52.6084 51.116 52.2478 50.8895C51.6656 50.5322 51.0367 50.2498 50.4059 49.9666C49.7998 49.6945 49.1918 49.4215 48.6215 49.0804C47.9633 48.6725 47.3366 48.2114 46.7098 47.7325C46.1367 47.3202 45.5189 46.5398 45.1607 45.959C45.072 45.8225 45.0143 45.6765 44.9588 45.536C44.8827 45.3434 44.8107 45.1612 44.6683 45.0279C44.7152 44.6126 45.1292 44.5085 45.5221 44.4096C45.6536 44.3765 45.7827 44.3441 45.895 44.3007C47.4485 43.6533 49.3064 43.4183 51.7016 43.4804C51.6318 43.0242 50.7105 42.4817 50.0743 42.1072C49.8944 42.0012 49.7374 41.9088 49.6288 41.8354C49.5777 41.8001 49.5265 41.7646 49.4752 41.7291C48.5557 41.0922 47.6045 40.4333 46.6292 39.8579C46.3014 39.6631 45.8285 39.498 45.3743 39.3395C45.0843 39.2382 44.8019 39.1396 44.5698 39.0377C44.33 38.9427 44.0023 38.8477 43.6483 38.7451C42.8126 38.5029 41.831 38.2184 41.5165 37.7917C40.6891 36.7481 40.1115 35.4797 39.5367 34.2172C39.4863 34.1065 39.4359 33.9959 39.3854 33.8855C39.1095 33.2832 38.8075 32.6693 38.5028 32.0498C38.1053 31.2418 37.7032 30.4244 37.3484 29.6112C37.2061 29.3082 37.0961 29.0203 36.9877 28.7365C36.847 28.3684 36.709 28.0073 36.5067 27.6292C34.3175 23.5323 31.094 20.1005 27.1722 17.6796C25.8873 16.8948 24.4547 16.172 22.8653 15.6755C22.3846 15.5374 21.851 15.5143 21.3115 15.491C20.8462 15.4709 20.3766 15.4507 19.9329 15.3562H19.3061C18.9458 15.2581 18.6237 14.9785 18.3237 14.718C18.1764 14.5901 18.0344 14.4668 17.8959 14.3719C16.9691 13.76 16.0379 13.3521 14.9321 12.9176C14.5426 12.7446 13.4368 12.3323 13.0428 12.6471C12.81 12.7092 12.6846 12.8023 12.622 13.0373C12.3847 13.3831 12.5951 13.9108 12.7428 14.23C13.0411 14.8442 13.4153 15.2924 13.7987 15.7517C13.9965 15.9887 14.1968 16.2286 14.3904 16.4957C14.4681 16.6011 14.5485 16.7086 14.6303 16.818C15.0854 17.427 15.5821 18.0914 15.8857 18.7304C16.3025 19.6011 16.5989 20.5226 16.8941 21.4406C17.1505 22.2381 17.4061 23.033 17.7392 23.7895C18.0078 24.4058 18.4241 25.1063 18.8136 25.6473C18.9383 25.8181 19.1014 25.9695 19.2658 26.1223C19.5326 26.3701 19.8031 26.6213 19.9195 26.9642C20.2116 27.4415 19.6698 28.8097 19.3459 29.6276C19.2727 29.8125 19.2106 29.9692 19.1718 30.0812C18.3973 32.4666 18.545 35.7876 19.4404 37.8538C19.4739 37.9298 19.5072 38.0071 19.5407 38.085C19.8653 38.8397 20.2151 39.653 21.0835 39.8579C21.1098 39.8299 21.1123 39.8209 21.1183 39.8165C21.1256 39.8112 21.138 39.8129 21.2044 39.7959C21.2507 39.4499 21.2897 39.107 21.3282 38.7694C21.4681 37.5407 21.6 36.3817 22.046 35.3974C22.26 34.8835 22.6161 34.4685 22.9621 34.0651C23.1445 33.8525 23.3241 33.6432 23.4787 33.4243C23.6689 33.5368 23.7385 33.7884 23.8096 34.0457C23.8507 34.194 23.8922 34.3442 23.9577 34.4707C24.0144 34.6002 24.0714 34.7314 24.129 34.8639C24.4718 35.6525 24.8344 36.4865 25.256 37.2685C26.241 39.1308 27.3468 40.9309 28.6003 42.5715C29.0257 43.1523 29.6301 43.7908 30.1673 44.314C30.2533 44.3881 30.341 44.4511 30.427 44.5128C30.5827 44.6244 30.7327 44.732 30.8568 44.8948H30.9239V44.9835C30.3582 44.779 29.9229 44.3427 29.4984 43.9171C29.2511 43.6691 29.0074 43.4248 28.7436 43.2321C27.396 42.2434 25.7843 40.7624 24.8621 39.3347C24.5855 38.7455 24.2904 38.1791 23.9902 37.6028C23.8724 37.3768 23.7539 37.1493 23.6354 36.9183V36.8517C23.5172 37.0031 23.4992 37.1526 23.4775 37.3334C23.4655 37.4333 23.4523 37.5429 23.4205 37.6676C23.3113 38.0812 23.2568 38.5105 23.2042 38.9253C23.0713 39.9733 22.9501 40.9285 21.9878 41.3034C20.4612 41.9153 19.3195 40.3146 18.8405 39.5919C17.3183 37.1666 16.8975 33.0918 17.972 29.7974C18.0569 29.5434 18.1153 29.2725 18.1736 29.0021C18.2813 28.503 18.3885 28.0057 18.6614 27.6204C18.5984 27.2696 18.3924 27.0882 18.1907 26.9105C18.0915 26.8232 17.9934 26.7368 17.9138 26.6316C17.4929 26.0862 17.1348 25.4433 16.8079 24.8359C16.3213 23.903 15.9399 22.8365 15.5716 21.8064C15.4655 21.5098 15.3605 21.2162 15.2544 20.9296C15.1512 20.6708 15.0846 20.4141 15.0187 20.16C14.9503 19.8962 14.8826 19.6352 14.7754 19.3778C14.478 18.7557 13.9801 18.1244 13.525 17.5474C13.4319 17.4294 13.3406 17.3136 13.2532 17.2007C13.1379 17.0416 12.9866 16.8576 12.8181 16.6526C11.9719 15.6236 10.6919 14.067 11.3639 12.4919C12.6175 9.49903 17.0228 11.7603 18.7241 12.8067C18.8917 12.9126 19.0677 13.0643 19.2501 13.2213C19.5257 13.4586 19.8156 13.7082 20.112 13.8309C20.5227 13.8481 20.9348 13.872 21.3475 13.896C21.6815 13.9154 22.016 13.9348 22.3505 13.9507C22.4928 13.9835 22.6343 14.0158 22.7749 14.0478C24.0187 14.331 25.1893 14.5976 26.1828 15.1434C31.3268 18.0742 34.6712 21.0759 37.7603 26.0242C38.18 26.6915 38.4649 27.3948 38.7556 28.1124C38.9208 28.5201 39.0878 28.9323 39.2825 29.3452C40.0301 31.0345 40.8718 32.808 41.7314 34.4087C41.827 34.5993 41.9185 34.7955 42.0103 34.9925C42.2836 35.5792 42.5604 36.1731 42.9625 36.6478C43.1006 36.844 43.4159 36.9485 43.7166 37.0482C43.8643 37.0972 44.0086 37.1451 44.1266 37.202C44.5185 37.3988 44.9421 37.576 45.3692 37.7547C46.0202 38.0271 46.6793 38.3029 47.247 38.6563C48.9796 39.7072 50.6674 40.9531 52.1896 42.2389C52.4881 42.5012 52.7426 42.8275 52.9976 43.1545C53.2169 43.4357 53.4366 43.7174 53.6849 43.9593V44.2209C53.2059 44.3672 52.7269 44.5135 52.2523 44.6288C51.7332 44.7557 51.2436 44.8059 50.7586 44.8557C50.2606 44.9068 49.7676 44.9574 49.2527 45.0899C49.1903 45.1072 49.1263 45.125 49.0611 45.1431C48.4719 45.3071 47.7818 45.4992 47.1933 45.5511L47.2515 45.6131C47.546 46.4085 48.7908 47.1072 49.8009 47.6742C50.1423 47.8658 50.4568 48.0424 50.6988 48.2025Z" fill="#151515"/>
<path d="M19.9488 18.3308C20.3115 18.251 20.6607 18.1889 21.1755 18.1889L21.1845 18.1801C21.2787 18.27 21.3948 18.3464 21.5119 18.4235C21.6952 18.5442 21.8811 18.6666 21.9903 18.8452C22.0597 18.9361 22.103 19.0279 22.1466 19.1203C22.1986 19.2306 22.251 19.3416 22.3485 19.4526C22.3485 20.1532 22.1426 20.6143 21.7217 20.9025L21.659 20.969C21.5347 20.7318 21.4198 20.4933 21.3046 20.2544C21.1959 20.0288 21.087 19.8028 20.9696 19.5768C20.8535 19.4229 20.7218 19.2794 20.5899 19.1356C20.3758 18.9023 20.1611 18.6683 20.0115 18.3885H19.9488V18.3308Z" fill="#151515"/>
</g>
<defs>
<clipPath id="clip0">
<rect x="0.175781" width="48" height="48" rx="24" fill="white"/>
</clipPath>
</defs>
</svg>
