<svg width="49" height="48" viewBox="0 0 49 48" fill="none" xmlns="http://www.w3.org/2000/svg">
<rect x="0.882812" width="48" height="48" rx="24" fill="#6A6A6A" fill-opacity="0.1"/>
<path fill-rule="evenodd" clip-rule="evenodd" d="M36.8828 12H12.8828V36H36.8828V12ZM34.8828 30.4004C34.8828 32.4698 32.8963 33.4578 30.8398 33.4578C28.6014 33.4578 26.9226 32.2695 26.6149 30.3203L28.6014 30.0399C28.8812 31.1481 29.8465 31.7622 30.9657 31.7622C31.903 31.7622 32.8823 31.335 32.8823 30.5339C32.8823 30.1467 32.6864 29.7996 31.903 29.5726L29.2869 28.8383C28.5035 28.6247 27.0066 28.1574 27.0066 26.3284C27.0066 24.3925 28.6993 23.4446 30.7698 23.4579C32.8543 23.4846 34.3092 24.4726 34.7989 26.275L32.7424 26.6087C32.5185 25.6742 31.6512 25.1802 30.7418 25.1535C29.8465 25.1268 29.0071 25.554 29.0071 26.2349C29.0071 26.8624 29.7066 27.1027 30.3501 27.2629L32.0989 27.7169C33.1341 27.9839 34.8828 28.4645 34.8828 30.4004ZM24.6046 32.1093C24.031 33.0572 23.0797 33.4578 21.9745 33.4578C20.3657 33.4578 19.3165 32.6167 18.8828 31.2816L20.7574 30.8543C20.8414 31.3483 21.373 31.7622 21.8906 31.7622C22.2403 31.7622 22.716 31.5886 22.8979 31.1748C23.0098 30.9211 23.0098 30.5473 23.0098 30.0533V23.6448H24.9404V30.0533C24.9404 30.1606 24.9411 30.2621 24.9419 30.3587C24.9473 31.0915 24.9507 31.5431 24.6046 32.1093Z" fill="#151515"/>
</svg>
