<svg width="49" height="48" viewBox="0 0 49 48" fill="none" xmlns="http://www.w3.org/2000/svg">
<rect x="0.53125" width="48" height="48" rx="24" fill="#6A6A6A" fill-opacity="0.1"/>
<g clip-path="url(#clip0)">
<path d="M30.1992 32.4261C28.7988 32.9488 27.1774 33.2514 25.4852 33.2514C25.2874 33.2514 25.0911 33.2474 24.8947 33.2394L24.922 33.2408C24.7597 33.2474 24.5688 33.2514 24.3765 33.2514C22.6542 33.2514 21.0042 32.9488 19.4783 32.3968L19.5765 32.4274L20.5352 33.9914L20.9197 38.9954C20.9197 39.287 21.3142 39.5265 22.1033 39.7141C22.9038 39.8968 23.8242 40.0021 24.7692 40.0021C24.8333 40.0021 24.8988 40.0021 24.9629 40.0008H24.9533C25.0133 40.0021 25.0856 40.0021 25.1565 40.0021C26.0933 40.0021 27.0056 39.8994 27.8811 39.7034L27.7992 39.7194C28.5883 39.5319 28.9829 39.2923 28.9829 39.0008L29.302 33.9968L30.1992 32.4261ZM18.4924 24.4261C18.7256 23.6648 19.0529 22.9994 19.4688 22.3994L19.4524 22.4248C19.852 21.8181 20.392 21.3301 21.0288 20.9968L21.052 20.9861C21.2115 20.9154 21.3983 20.8741 21.5961 20.8741C21.8429 20.8741 22.0747 20.9394 22.2738 21.0514L22.267 21.0474C22.447 21.1394 22.597 21.2661 22.7115 21.4194L22.7142 21.4234C22.8097 21.5248 22.8779 21.6528 22.9052 21.7941L22.9065 21.7994C22.9242 21.8488 22.9338 21.9061 22.9338 21.9661C22.9338 22.0541 22.912 22.1368 22.8724 22.2088L22.8738 22.2061C22.8261 22.2994 22.7292 22.3621 22.6174 22.3634C22.5102 22.3634 22.3715 22.2176 22.2015 21.9261C21.9452 21.4674 21.5815 21.4048 21.1106 21.7381C20.6524 22.0754 20.2842 22.5034 20.0292 22.9981L20.0197 23.0181C19.7265 23.5181 19.4674 24.0981 19.2738 24.7074L19.2561 24.7701C19.1647 24.9861 19.1129 25.2381 19.1129 25.5021C19.1129 25.6981 19.1415 25.8861 19.1961 26.0648L19.192 26.0514C19.2574 26.1648 19.3788 26.2408 19.5192 26.2408C19.9242 26.1621 20.2679 25.9474 20.5079 25.6501L20.5106 25.6461C20.8365 25.3448 21.1215 25.0061 21.3615 24.6354L21.3752 24.6141L21.6942 23.6768C21.7797 23.4688 21.9079 23.3648 22.0788 23.3648C22.2497 23.3648 22.3352 23.4794 22.3352 23.7088C22.3065 24.0661 22.2152 24.3954 22.0706 24.6954L22.0788 24.6781C21.9465 24.9821 21.8142 25.3568 21.7092 25.7421L21.6942 25.8048L21.1788 27.4261C21.1338 27.5581 21.0792 27.6714 21.0138 27.7768L21.0179 27.7688C20.9797 27.8541 20.8979 27.9154 20.8011 27.9261H20.7997C20.797 27.9261 20.7929 27.9261 20.7888 27.9261C20.7138 27.9261 20.647 27.8888 20.6088 27.8328V27.8314C20.5788 27.7608 20.5611 27.6794 20.5611 27.5941C20.5611 27.5448 20.5665 27.4968 20.5774 27.4514L20.5761 27.4554C20.7206 26.8234 20.8856 26.2874 21.0847 25.7701L21.0561 25.8554L20.6088 26.2928C20.2692 26.6661 19.7988 26.9194 19.2697 26.9861L19.2588 26.9874C19.2452 26.9888 19.2302 26.9888 19.2138 26.9888C19.042 26.9888 18.8811 26.9421 18.7433 26.8608L18.7474 26.8634L19.2588 31.8034C19.3015 32.0114 19.8556 32.2408 20.9211 32.4914C22.0802 32.7701 23.4111 32.9288 24.7802 32.9288H24.892H24.8865H24.9929C26.362 32.9288 27.6929 32.7688 28.9679 32.4688L28.8533 32.4914C29.877 32.2408 30.4311 32.0114 30.5156 31.8034L31.2192 25.9248L31.0911 25.9874C30.7829 26.3234 30.4229 26.6048 30.0206 26.8221L30.0002 26.8328C29.8392 26.9034 29.6511 26.9434 29.4533 26.9434C29.377 26.9434 29.302 26.9368 29.2283 26.9261L29.2365 26.9274C28.9774 26.8856 28.8479 26.7603 28.8479 26.5514C28.9815 26.1048 29.2256 25.7248 29.5502 25.4274L29.5515 25.4261L29.7438 25.1141C29.9565 24.9061 30.0629 24.7496 30.0629 24.6448C30.0629 24.5399 29.9774 24.4981 29.8065 24.5194C29.6061 24.5528 29.4315 24.6421 29.2952 24.7701C29.0906 24.9541 28.9106 25.1594 28.7579 25.3834L28.7497 25.3954C28.5533 25.6741 28.372 25.9928 28.2192 26.3274L28.2042 26.3648L27.9479 26.8648L27.3206 28.6141C27.2402 28.7341 27.1324 28.8288 27.0056 28.8941L27.0015 28.8968C26.9565 28.9261 26.9006 28.9448 26.842 28.9448C26.7833 28.9448 26.7274 28.9274 26.6811 28.8968H26.6824C26.6088 28.8488 26.5611 28.7688 26.5583 28.6781L26.6224 28.4901C26.7888 28.0181 26.962 27.6261 27.1597 27.2474L27.1338 27.3021L27.5811 26.3648C27.6238 26.1976 27.6452 26.135 27.6452 26.1768C27.3956 26.4434 27.0983 26.6634 26.767 26.8261L26.7492 26.8341C26.6129 26.9021 26.452 26.9421 26.2815 26.9421C26.2202 26.9421 26.1615 26.9368 26.1029 26.9274L26.1097 26.9288C25.9488 26.8954 25.8247 26.7741 25.7906 26.6194V26.6168L25.7265 26.4914C25.4579 26.7594 25.0856 26.9261 24.6724 26.9288C24.3952 26.887 24.3224 26.5745 24.4542 25.9914C24.217 26.5381 23.6783 26.9168 23.0483 26.9288H23.047C23.0238 26.9328 22.9965 26.9341 22.9706 26.9341C22.7497 26.9341 22.5588 26.8048 22.4729 26.6194L22.4715 26.6154C22.4661 26.5554 22.4633 26.4861 22.4633 26.4154C22.4633 25.9621 22.5792 25.5354 22.7852 25.1621L22.7783 25.1768V25.1141C22.9065 24.8225 23.0556 24.4892 23.2256 24.1141C23.3538 23.8634 23.5242 23.7799 23.737 23.8634H23.8011C23.9292 23.947 23.9506 24.1136 23.8652 24.3634L23.6729 24.6141C23.5229 24.8874 23.3729 25.2168 23.2447 25.5581L23.2256 25.6154C23.1402 25.9905 23.172 26.1781 23.3211 26.1781C23.497 26.1728 23.662 26.1274 23.8065 26.0501L23.8011 26.0528C24.0861 25.8501 24.3138 25.5874 24.4679 25.2834L24.4733 25.2714C24.6192 25.0288 24.7392 24.7474 24.8197 24.4501L24.8252 24.4261L24.9533 24.1061C25.0388 23.8981 25.1347 23.7941 25.2411 23.7941C25.3542 23.7954 25.4565 23.8434 25.5288 23.9181C25.6142 24.0016 25.6142 24.1474 25.5288 24.3554L25.0815 25.3554C24.982 25.5741 24.9138 25.8274 24.8906 26.0928V26.1021C24.8906 26.2692 25.0397 26.2901 25.3379 26.1648C25.5097 26.0994 25.657 26.0154 25.7879 25.9114L25.7852 25.9141C25.8279 25.747 26.1688 24.8505 26.8079 23.2248L27.4474 21.6608C27.5061 21.4781 27.6779 21.3474 27.8811 21.3474H27.8961H27.8947C27.9697 21.3608 28.0352 21.3941 28.087 21.4421C28.1724 21.5043 28.1938 21.619 28.1511 21.7861L26.9961 24.4874C26.6979 25.2376 26.5161 25.7159 26.4506 25.9221C26.3852 26.1283 26.3979 26.235 26.4888 26.2421C26.787 26.2421 27.2774 25.8865 27.9602 25.1754L28.0242 25.1128L28.2165 24.6754C28.2615 24.4594 28.3502 24.2688 28.4742 24.1048L28.4715 24.1088C28.557 24.0252 28.6211 23.9834 28.6638 23.9834C28.8347 23.9834 28.9202 24.0545 28.9202 24.1968V24.2061C28.9202 24.3474 28.897 24.4848 28.8533 24.6114L28.8561 24.6021L29.1752 24.2901C29.4288 24.0008 29.8024 23.8181 30.2197 23.8181C30.2456 23.8181 30.2729 23.8194 30.2988 23.8208H30.2947C30.5647 23.8394 30.7761 24.0581 30.7761 24.3248C30.7761 24.3354 30.7761 24.3448 30.7747 24.3554V24.3541C30.6329 24.9221 30.3411 25.4101 29.9442 25.7928L29.8161 25.8554C29.737 25.9634 29.6715 26.0874 29.6265 26.2208L29.6238 26.2301C29.6238 26.2719 29.6665 26.2928 29.752 26.2928C29.9279 26.2474 30.0792 26.1594 30.1992 26.0421L31.2902 25.1048L32.2488 16.5994C31.0215 17.0354 29.6047 17.2874 28.1279 17.2874C28.0924 17.2874 28.057 17.2874 28.0202 17.2874H28.0256C27.1079 17.3474 26.0361 17.3808 24.9547 17.3808C23.8733 17.3808 22.8029 17.3461 21.7392 17.2794L21.8838 17.2861C21.8538 17.2861 21.8183 17.2861 21.7815 17.2861C20.3047 17.2861 18.8879 17.0341 17.5747 16.5714L17.6606 16.5981L18.4924 24.4261ZM32.3729 16.0448H32.3088C32.3088 15.8776 31.9142 15.711 31.1252 15.5448C30.2292 15.3634 29.1642 15.2301 28.0788 15.1714L28.0215 15.1688L28.6611 12.6088L32.3074 8.79275C32.4356 8.7092 32.3292 8.52164 31.9883 8.23009C31.8888 8.12475 31.7579 8.04875 31.6092 8.01809L31.6038 8.01675C31.4756 7.99631 31.3902 8.00653 31.3474 8.04742L27.4488 12.0381L26.617 15.1021L24.9547 15.0381C24.8374 15.0368 24.6997 15.0354 24.5606 15.0354C22.8492 15.0354 21.1665 15.1501 19.5179 15.3714L19.7088 15.3501C18.2597 15.5581 17.5352 15.7874 17.5352 16.0381C17.5352 16.455 18.8142 16.747 21.3724 16.9141C22.4442 16.9941 23.6947 17.0394 24.9547 17.0394C26.2147 17.0394 27.4652 16.9941 28.702 16.9048L28.537 16.9141C31.0952 16.7488 32.3742 16.4572 32.3742 16.0394L32.3729 16.0448ZM27.9002 16.3568C27.9002 16.3985 27.8147 16.451 27.6438 16.5141C27.4747 16.5741 27.2783 16.6088 27.0738 16.6088C27.0602 16.6088 27.0465 16.6088 27.0342 16.6088H27.0356C27.0247 16.6088 27.0111 16.6088 26.9974 16.6088C26.7929 16.6088 26.5979 16.5741 26.4152 16.5114L26.4274 16.5154C26.2565 16.4532 26.1711 16.4008 26.1711 16.3581C26.1711 16.3154 26.2352 16.2736 26.3633 16.2328L26.2992 16.2954C26.2992 16.379 26.5338 16.4208 27.0029 16.4208C27.472 16.4208 27.7065 16.379 27.7065 16.2954L27.7706 16.2328C27.8533 16.2719 27.8947 16.3119 27.8947 16.3528L27.9002 16.3568Z" fill="#151515"/>
</g>
<defs>
<clipPath id="clip0">
<rect width="15" height="32" fill="white" transform="translate(17.5312 8)"/>
</clipPath>
</defs>
</svg>
