<svg width="49" height="48" viewBox="0 0 49 48" fill="none" xmlns="http://www.w3.org/2000/svg">
<rect x="0.648438" width="48" height="48" rx="24" fill="#6A6A6A" fill-opacity="0.1"/>
<path d="M14.0542 28.346C14.0772 28.398 14.1032 28.446 14.1312 28.494C14.1442 28.522 14.1622 28.551 14.1782 28.577C14.2042 28.629 14.2322 28.679 14.2592 28.729L14.4162 28.993C14.4452 29.042 14.4732 29.09 14.5062 29.138C14.5612 29.232 14.6262 29.324 14.6832 29.418C14.7092 29.457 14.7332 29.496 14.7622 29.535C14.8722 29.706 14.9722 29.848 15.0792 29.986C15.1552 30.089 15.2312 30.19 15.3132 30.291C15.3402 30.329 15.3702 30.367 15.3982 30.405L15.6192 30.673C15.6462 30.704 15.6732 30.74 15.7022 30.772C15.8002 30.89 15.9042 31.004 16.0082 31.12C16.0082 31.122 16.0112 31.124 16.0132 31.127C16.1422 31.289 16.2812 31.433 16.4332 31.561L16.4372 31.565C16.5172 31.647 16.5972 31.728 16.6822 31.808L16.7832 31.905C16.8942 32.009 17.0052 32.112 17.1222 32.212C17.1242 32.212 17.1252 32.214 17.1272 32.215L17.1842 32.265C17.2862 32.354 17.3892 32.442 17.4942 32.524L17.6192 32.629C17.7042 32.697 17.7922 32.761 17.8792 32.828L18.0152 32.932C18.1082 33.002 18.2072 33.07 18.3022 33.138C18.3372 33.163 18.3722 33.188 18.4082 33.211L18.4372 33.234L18.7182 33.418L18.8382 33.498C18.9852 33.592 19.1312 33.68 19.2772 33.768C19.3192 33.789 19.3612 33.812 19.4002 33.836C19.5082 33.898 19.6202 33.961 19.7292 34.018C19.7892 34.052 19.8512 34.081 19.9132 34.112C19.9882 34.154 20.0662 34.195 20.1462 34.237C20.1682 34.244 20.1862 34.251 20.2042 34.261L20.2082 34.257C20.2412 34.272 20.2722 34.288 20.3042 34.304C20.4242 34.364 20.5492 34.421 20.6792 34.477C20.7032 34.487 20.7292 34.497 20.7552 34.511C20.8992 34.574 21.0432 34.634 21.1922 34.692C21.2262 34.702 21.2622 34.719 21.2972 34.732C21.4322 34.783 21.5712 34.835 21.7092 34.884L21.7592 34.902C21.9122 34.954 22.0632 35.004 22.2192 35.051C22.2552 35.061 22.2922 35.074 22.3302 35.084C22.4892 35.132 22.6432 35.189 22.8042 35.219C33.0772 37.082 36.0622 29.073 36.0622 29.073C33.5542 32.323 29.1032 33.18 24.8882 32.226C24.7322 32.19 24.5762 32.14 24.4182 32.094C24.1322 32.011 23.9422 31.951 23.7552 31.885L23.8502 31.914L23.7882 31.89C23.6522 31.844 23.5212 31.793 23.3882 31.742C23.3632 31.731 23.3262 31.717 23.2892 31.704L23.2782 31.701C23.1312 31.642 22.9882 31.582 22.8462 31.519C22.8152 31.509 22.7892 31.495 22.7582 31.483C22.4962 31.367 22.3772 31.311 22.2582 31.253L22.3962 31.314C22.3592 31.298 22.3262 31.281 22.2902 31.262C22.1962 31.218 22.1022 31.168 22.0102 31.121C21.9242 31.08 21.8632 31.048 21.8032 31.015L21.8232 31.025C21.7102 30.965 21.5972 30.9 21.4832 30.839C21.4492 30.815 21.4102 30.795 21.3712 30.773C21.1552 30.647 21.0122 30.558 20.8692 30.467L20.9322 30.505C20.8842 30.475 20.8452 30.449 20.8082 30.422L20.8142 30.426C20.6912 30.35 20.5932 30.285 20.4982 30.218C20.4642 30.196 20.4332 30.172 20.3982 30.148C20.2702 30.06 20.1742 29.991 20.0802 29.92L20.1042 29.937C20.0622 29.903 20.0172 29.871 19.9722 29.838C19.8842 29.769 19.7952 29.703 19.7072 29.631L19.5892 29.537C19.4622 29.435 19.3562 29.346 19.2522 29.255C19.2422 29.245 19.2312 29.236 19.2192 29.228L19.2182 29.227L18.8712 28.912L18.7712 28.818C18.6892 28.735 18.6052 28.656 18.5212 28.574L18.4242 28.474C18.3202 28.371 18.2202 28.267 18.1212 28.159L18.1152 28.152L18.0982 28.138C17.9922 28.022 17.8892 27.905 17.7852 27.785C17.7582 27.754 17.7332 27.721 17.7052 27.688L17.4782 27.413C17.3992 27.315 17.2882 27.17 17.1782 27.022L17.1382 26.966C14.8002 23.79 13.9542 19.407 15.8252 15.811L14.1732 17.9C12.0482 20.939 12.3112 24.891 13.9362 28.118C13.9732 28.197 14.0142 28.271 14.0542 28.346Z" fill="#151515"/>
<path d="M21.2112 23.968C21.2072 23.963 21.2042 23.957 21.2002 23.952C21.1972 23.948 21.1942 23.944 21.1912 23.94L21.2112 23.968Z" fill="#151515"/>
<path d="M22.3292 25.28L22.4192 25.37C22.5332 25.48 22.6502 25.587 22.7692 25.694L22.7842 25.707C22.9042 25.813 23.0392 25.924 23.1782 26.032L23.1992 26.048C23.2332 26.071 23.2622 26.098 23.2952 26.121C23.4352 26.229 23.5762 26.332 23.7232 26.435L23.7382 26.444C23.8002 26.489 23.8662 26.53 23.9362 26.574C23.9642 26.592 23.9962 26.616 24.0262 26.634C24.1322 26.702 24.2362 26.765 24.3432 26.83C24.3602 26.837 24.3752 26.846 24.3912 26.853C24.4812 26.908 24.5792 26.961 24.6732 27.009C24.7062 27.029 24.7382 27.044 24.7722 27.063C24.8392 27.096 24.9052 27.131 24.9692 27.165L25.0012 27.179C25.1362 27.245 25.2742 27.307 25.4092 27.368C25.4432 27.381 25.4722 27.392 25.5012 27.406C25.6122 27.454 25.7252 27.5 25.8362 27.542C25.8862 27.559 25.9332 27.579 25.9802 27.594C26.0822 27.632 26.1892 27.667 26.2902 27.702L26.4302 27.747C26.5762 27.792 26.7242 27.851 26.8792 27.875C34.8122 29.181 36.6482 23.104 36.6482 23.104C34.9952 25.471 31.7962 26.599 28.3872 25.718C28.1802 25.665 28.0302 25.621 27.8812 25.573L27.9382 25.589C27.8902 25.576 27.8482 25.561 27.8022 25.547C27.6982 25.511 27.5912 25.476 27.4902 25.439L27.3462 25.385C27.2342 25.34 27.1202 25.298 27.0112 25.25C26.9772 25.235 26.9462 25.225 26.9202 25.21C26.7802 25.147 26.6392 25.085 26.5022 25.019L26.2962 24.912L26.1772 24.852C26.0852 24.804 26.0002 24.754 25.9122 24.703C25.8872 24.691 25.8672 24.68 25.8472 24.667L25.8502 24.668C25.7442 24.602 25.6342 24.538 25.5322 24.471C25.4982 24.452 25.4672 24.429 25.4352 24.409L25.2272 24.274C25.0832 24.174 24.9422 24.067 24.7992 23.963C24.7672 23.934 24.7362 23.91 24.7052 23.884C23.2062 22.711 22.0242 21.108 21.4632 19.293C20.8722 17.406 21.0022 15.29 22.0232 13.573L20.7682 15.341C19.2272 17.542 19.3142 20.484 20.5142 22.812C20.7332 23.242 20.9552 23.606 21.2002 23.952C21.4282 24.278 21.6802 24.659 21.9842 24.921C22.0922 25.044 22.2082 25.161 22.3292 25.28Z" fill="#151515"/>
<path d="M15.0842 29.992L15.0802 29.986L15.0732 29.977L15.0842 29.992Z" fill="#151515"/>
<path d="M19.2422 29.248L19.2522 29.255L19.2542 29.258L19.2422 29.248Z" fill="#151515"/>
<path d="M26.3142 13.427C25.4052 14.754 25.3182 16.402 25.9442 17.865C26.6092 19.419 27.9682 20.639 29.5522 21.217C29.6172 21.242 29.6802 21.263 29.7472 21.287L29.8352 21.314C29.9272 21.343 30.0202 21.377 30.1152 21.398C34.4962 22.239 35.6822 19.16 36.0012 18.707C34.9582 20.197 33.2092 20.555 31.0632 20.036C30.8532 19.984 30.6802 19.929 30.5132 19.866L30.5462 19.877C30.2932 19.788 30.0892 19.703 29.8902 19.607L29.9282 19.624C29.5182 19.424 29.1662 19.208 28.8392 18.96C26.9212 17.51 25.7352 14.749 26.9872 12.5L26.3142 13.427Z" fill="#151515"/>
</svg>
