<svg width="435" height="577" viewBox="0 0 435 577" fill="none" xmlns="http://www.w3.org/2000/svg">

<path d="M0.000280211 474.994C9.34029e-05 474.338 3.1134e-05 473.676 1.03779e-05 473.008H0.50001L0.5 472V471H0V469H0.5V467H0V465H0.5V463H0V461H0.5V459H0V457H0.5V455H0V453H0.5V451H0V449H0.5V447H0V445H0.5V443H0V441H0.5V439H0V437H0.5V435H0V433H0.5V431H0V429H0.5V427H0V425H0.5V423H0V421H0.5V419H0V417H0.5V415H0V413H0.5V411H0V409H0.5V407H0V405H0.5V403H0V401H0.5V399H0V397H0.5V395H0V393H0.5V391H0V389H0.5V387H0V385H0.5V383H0V381H0.5V379H0V377H0.5V375H0V373H0.5V371H0V369H0.5V367H0V365H0.5V363H0V361H0.5V359H0V357H0.5V355H0V353H0.5V351H0V349H0.5V347H0V345H0.5V343H0V341H0.5V339H0V337H0.5V335H0V333H0.5V331H0V329H0.5V327H0V325H0.5V323H0V321H0.5V319H0V317H0.5V315H0V313H0.5V311H0V309H0.5V307H0V305H0.5V303H0V301H0.5V299H0V297H0.5V295H0V293H0.5V291H0V289H0.5V287H0V285H0.5V283H0V281H0.5V279H0V277H0.5V275H0V273H0.5V271H0V269H0.5V267H0V265H0.5V263H0V261H0.5V259H0V257H0.5V255H0V253H0.5V251H0V249H0.5V247H0V245H0.5V243H0V241H0.5V239H0V237H0.5V235H0V233H0.5V231H0V229H0.5V227H0V225H0.5V223H0V221H0.5V219H0V217H0.5V215H0V213H0.5V211H0V209H0.5V207H0V205H0.5V203H0V201H0.5V199H0V197H0.5V195H0V193H0.5V191H0V189H0.5V187H0V185H0.5V183H0V181H0.5V179H0V177H0.5V175H0V173H0.5V171H0V169H0.5V167H0V165H0.5V163H0V161H0.5V159H0V157H0.5V155H0V153H0.5V151H0V149H0.5V147H0V145H0.5V143H0V141H0.5V139H0V137H0.5V135H0V133H0.5V131H0V129H0.5V127H0V125H0.5V123H0V121H0.5V119H0V117H0.5V115H0V113H0.5V111H0V109H0.5V107H0V105H0.5V103H0V101H0.5V99H0V97H0.5V95H0V93H0.5V91H0V89H0.5V87H0V85H0.5V83H0V81H0.5V79H0V77H0.5V75H0V73H0.5V72L0.50001 70.9922L1.03777e-05 70.9922C3.11335e-05 70.3236 9.34015e-05 69.6618 0.000280208 69.0065L0.50028 69.0066C0.500473 68.3318 0.500797 67.6641 0.501344 67.0033L0.00134429 67.0028C0.0019 66.3317 0.00268543 65.6676 0.00379554 65.0106L0.503795 65.0114C0.504926 64.342 0.506394 63.68 0.508299 63.0252L0.00830115 63.0237C0.0102657 62.3485 0.0126951 61.681 0.0156995 61.021L0.515694 61.0233C0.518754 60.3511 0.522411 59.6867 0.526781 59.03L0.0267917 59.0267C0.0312531 58.3562 0.0364574 57.6938 0.0425283 57.0392L0.542507 57.0439C0.548751 56.3706 0.555913 55.7058 0.564126 55.0492L0.0641646 55.043C0.0726056 54.3682 0.0821571 53.7021 0.092965 53.0445L0.592898 53.0527C0.603955 52.3799 0.616328 51.7162 0.630173 51.0613L0.130285 51.0507C0.144504 50.3781 0.160276 49.7147 0.177769 49.0604L0.67759 49.0737C0.695534 48.4026 0.715289 47.7411 0.737038 47.089L0.237316 47.0724C0.259835 46.3973 0.284491 45.7322 0.311486 45.077L0.811063 45.0976C0.838831 44.4236 0.869076 43.7601 0.902016 43.107L0.40265 43.0819C0.436694 42.4069 0.473616 41.7428 0.513659 41.0893L1.01272 41.1199C1.05394 40.4472 1.09847 39.786 1.14657 39.136L0.647932 39.0991C0.697827 38.4248 0.751563 37.7624 0.809438 37.1115L1.30747 37.1557C1.36714 36.4847 1.4312 35.8262 1.49997 35.1798L1.00278 35.1269C1.07438 34.4541 1.15109 33.7941 1.23328 33.1467L1.7293 33.2097C1.81407 32.542 1.90465 31.888 2.00145 31.2474L1.50706 31.1727C1.60814 30.5036 1.71601 29.8487 1.83111 29.2074L2.32325 29.2957C2.44186 28.6348 2.56814 27.9889 2.70257 27.3575L2.21354 27.2534C2.35491 26.5894 2.50531 25.9408 2.66531 25.307L3.1501 25.4294C3.31431 24.779 3.48861 24.1449 3.67362 23.5264L3.19459 23.3832C3.38826 22.7357 3.59367 22.1046 3.81153 21.4892L4.28287 21.6561C4.50516 21.0282 4.7404 20.4174 4.98933 19.8228L4.52812 19.6297C4.7885 19.0077 5.06386 18.4028 5.35505 17.8139L5.80324 18.0355C6.09568 17.4441 6.40416 16.8697 6.72956 16.3111L6.29753 16.0594C6.6343 15.4814 6.98908 14.9197 7.36284 14.3735L7.77548 14.6559C8.14435 14.1168 8.53199 13.5932 8.93938 13.0839L8.54895 12.7716C8.96262 12.2545 9.3963 11.7519 9.85097 11.2629L10.2171 11.6034C10.4388 11.365 10.6656 11.1298 10.8977 10.8977C11.1298 10.6656 11.365 10.4388 11.6034 10.2171L11.2629 9.85098C11.7519 9.39631 12.2545 8.96262 12.7716 8.54895L13.0839 8.93939C13.5931 8.53199 14.1168 8.14435 14.6559 7.77548L14.3735 7.36284C14.9197 6.98909 15.4814 6.63431 16.0594 6.29753L16.3111 6.72956C16.8697 6.40417 17.4441 6.09569 18.0355 5.80325L17.8139 5.35505C18.4028 5.06386 19.0077 4.7885 19.6297 4.52812L19.8228 4.98933C20.4174 4.7404 21.0282 4.50516 21.6561 4.28287L21.4892 3.81153C22.1046 3.59367 22.7357 3.38826 23.3832 3.19459L23.5264 3.67362C24.1449 3.48861 24.779 3.31431 25.4294 3.1501L25.307 2.66531C25.9408 2.5053 26.5894 2.3549 27.2534 2.21353L27.3575 2.70257C27.9889 2.56814 28.6348 2.44186 29.2957 2.32325L29.2074 1.83111C29.8487 1.71601 30.5036 1.60814 31.1727 1.50706L31.2474 2.00145C31.888 1.90465 32.542 1.81406 33.2097 1.7293L33.1467 1.23328C33.7941 1.15109 34.4541 1.07438 35.1269 1.00278L35.1799 1.49997C35.8262 1.4312 36.4847 1.36714 37.1557 1.30747L37.1115 0.809437C37.7624 0.751563 38.4248 0.697826 39.0991 0.647932L39.136 1.14657C39.786 1.09847 40.4472 1.05394 41.1199 1.01272L41.0893 0.513659C41.7428 0.473616 42.4069 0.436694 43.0819 0.40265L43.107 0.902016C43.7601 0.869076 44.4236 0.838831 45.0976 0.811063L45.077 0.311486C45.7322 0.284491 46.3973 0.259835 47.0724 0.237316L47.089 0.737038C47.7411 0.715289 48.4026 0.695534 49.0737 0.67759L49.0604 0.177768C49.7147 0.160276 50.3781 0.144504 51.0507 0.130285L51.0613 0.630173C51.7162 0.616328 52.3799 0.603955 53.0527 0.592898L53.0445 0.0929651C53.7021 0.0821571 54.3682 0.0726057 55.043 0.0641647L55.0492 0.564126C55.7058 0.555913 56.3706 0.548751 57.0439 0.542507L57.0392 0.0425283C57.6938 0.0364574 58.3562 0.0312531 59.0267 0.0267917L59.03 0.526781C59.6867 0.522411 60.351 0.518755 61.0233 0.515694L61.021 0.0156996C61.681 0.0126952 62.3485 0.0102657 63.0237 0.00830118L63.0252 0.508299C63.68 0.506394 64.342 0.504926 65.0114 0.503795L65.0105 0.00379557C65.6676 0.00268545 66.3316 0.00190002 67.0028 0.0013443L67.0032 0.501344C67.6641 0.500797 68.3318 0.500473 69.0066 0.50028L69.0065 0.000280212C69.6617 9.34038e-05 70.3236 3.11346e-05 70.9922 1.03782e-05L70.9922 0.50001L72 0.5H72.9965V0H74.9897V0.5H76.9828V0H78.976V0.5H80.9692V0H82.9623V0.5H84.9555V0H86.9487V0.5H88.9418V0H90.935V0.5H92.9282V0H94.9213V0.5H96.9145V0H98.9077V0.5H100.901V0H102.894V0.5H104.887V0H106.88V0.5H108.873V0H110.867V0.5H112.86V0H114.853V0.5H116.846V0H118.839V0.5H120.832V0H122.826V0.5H124.819V0H126.812V0.5H128.805V0H130.798V0.5H132.791V0H134.784V0.5H136.778V0H138.771V0.5H140.764V0H142.757V0.5H144.75V0H146.743V0.5H148.736V0H150.73V0.5H152.723V0H154.716V0.5H156.709V0H158.702V0.5H160.695V0H162.688V0.5H164.682V0H166.675V0.5H168.668V0H170.661V0.5H172.654V0H174.647V0.5H176.641V0H178.634V0.5H180.627V0H182.62V0.5H184.613V0H186.606V0.5H188.599V0H190.593V0.5H192.586V0H194.579V0.5H196.572V0H198.565V0.5H200.558V0H202.551V0.5H204.545V0H206.538V0.5H208.531V0H210.524V0.5H212.517V0H214.51V0.5H216.503V0H218.497V0.5H220.49V0H222.483V0.5H224.476V0H226.469V0.5H228.462V0H230.456V0.5H232.449V0H234.442V0.5H236.435V0H238.428V0.5H240.421V0H242.414V0.5H244.408V0H246.401V0.5H248.394V0H250.387V0.5H252.38V0H254.373V0.5H256.366V0H258.36V0.5H260.353V0H262.346V0.5H264.339V0H266.332V0.5H268.325V0H270.319V0.5H272.312V0H274.305V0.5H276.298V0H278.291V0.5H280.284V0H282.277V0.5H284.271V0H286.264V0.5H288.257V0H290.25V0.5H292.243V0H294.236V0.5H296.229V0H298.223V0.5H300.216V0H302.209V0.5H304.202V0H306.195V0.5H308.188V0H310.182V0.5H312.175V0H314.168V0.5H316.161V0H318.154V0.5H320.147V0H322.14V0.5H324.134V0H326.127V0.5H328.12V0H330.113V0.5H332.106V0H334.099V0.5H336.092V0H338.086V0.5H340.079V0H342.072V0.5H344.065V0H346.058V0.5H348.051V0H350.045V0.5H352.038V0H354.031V0.5H356.024V0H358.017V0.5H360.01V0H362.003V0.5H363L364.008 0.50001V1.03779e-05C364.676 3.11339e-05 365.338 9.34019e-05 365.994 0.000280206L365.993 0.50028C366.668 0.500473 367.336 0.500797 367.997 0.501344L367.997 0.00134429C368.668 0.00189999 369.332 0.00268541 369.989 0.00379552L369.989 0.503795C370.658 0.504926 371.32 0.506394 371.975 0.508299L371.976 0.00830112C372.651 0.0102657 373.319 0.0126951 373.979 0.0156996L373.977 0.515694C374.649 0.518754 375.313 0.522411 375.97 0.52678L375.973 0.0267916C376.644 0.031253 377.306 0.0364573 377.961 0.0425282L377.956 0.542507C378.629 0.548751 379.294 0.555912 379.951 0.564125L379.957 0.0641646C380.632 0.0726056 381.298 0.0821571 381.956 0.0929651L381.947 0.592897C382.62 0.603955 383.284 0.616328 383.939 0.630173L383.949 0.130284C384.622 0.144504 385.285 0.160276 385.94 0.177768L385.926 0.67759C386.597 0.695533 387.259 0.715289 387.911 0.737038L387.928 0.237315C388.603 0.259835 389.268 0.284491 389.923 0.311486L389.902 0.811062C390.576 0.838831 391.24 0.869075 391.893 0.902015L391.918 0.40265C392.593 0.436694 393.257 0.473616 393.911 0.51366L393.88 1.01272C394.553 1.05394 395.214 1.09847 395.864 1.14657L395.901 0.647931C396.575 0.697826 397.238 0.751563 397.889 0.809438L397.844 1.30747C398.515 1.36714 399.174 1.4312 399.82 1.49997L399.873 1.00278C400.546 1.07438 401.206 1.15109 401.853 1.23328L401.79 1.7293C402.458 1.81407 403.112 1.90465 403.753 2.00145L403.827 1.50706C404.496 1.60814 405.151 1.71601 405.793 1.83111L405.704 2.32325C406.365 2.44186 407.011 2.56814 407.643 2.70257L407.747 2.21354C408.411 2.35491 409.059 2.50531 409.693 2.66531L409.571 3.1501C410.221 3.31431 410.855 3.48861 411.474 3.67362L411.617 3.19459C412.264 3.38826 412.895 3.59367 413.511 3.81153L413.344 4.28287C413.972 4.50516 414.583 4.7404 415.177 4.98933L415.37 4.52812C415.992 4.7885 416.597 5.06385 417.186 5.35504L416.964 5.80324C417.556 6.09568 418.13 6.40416 418.689 6.72956L418.941 6.29753C419.519 6.6343 420.08 6.98908 420.627 7.36283L420.344 7.77548C420.883 8.14435 421.407 8.53199 421.916 8.93938L422.228 8.54895C422.746 8.96262 423.248 9.3963 423.737 9.85097L423.397 10.2171C423.635 10.4388 423.87 10.6656 424.102 10.8977C424.334 11.1298 424.561 11.365 424.783 11.6034L425.149 11.2629C425.604 11.7519 426.037 12.2544 426.451 12.7715L426.061 13.0839C426.468 13.5931 426.856 14.1168 427.225 14.6559L427.637 14.3735C428.011 14.9197 428.366 15.4814 428.702 16.0594L428.27 16.3111C428.596 16.8696 428.904 17.4441 429.197 18.0355L429.645 17.8139C429.936 18.4028 430.212 19.0077 430.472 19.6297L430.011 19.8228C430.26 20.4174 430.495 21.0282 430.717 21.6561L431.189 21.4892C431.406 22.1046 431.612 22.7357 431.805 23.3832L431.326 23.5264C431.511 24.1449 431.686 24.779 431.85 25.4294L432.335 25.307C432.495 25.9408 432.645 26.5894 432.786 27.2534L432.297 27.3575C432.432 27.9889 432.558 28.6348 432.677 29.2957L433.169 29.2074C433.284 29.8487 433.392 30.5036 433.493 31.1727L432.999 31.2474C433.095 31.888 433.186 32.542 433.271 33.2097L433.767 33.1467C433.849 33.7941 433.926 34.4541 433.997 35.1269L433.5 35.1798C433.569 35.8262 433.633 36.4847 433.693 37.1557L434.191 37.1114C434.248 37.7624 434.302 38.4248 434.352 39.0991L433.853 39.136C433.902 39.786 433.946 40.4472 433.987 41.1199L434.486 41.0893C434.526 41.7428 434.563 42.4069 434.597 43.0818L434.098 43.107C434.131 43.7601 434.161 44.4236 434.189 45.0976L434.689 45.077C434.716 45.7322 434.74 46.3973 434.763 47.0724L434.263 47.089C434.285 47.7411 434.305 48.4026 434.322 49.0737L434.822 49.0604C434.84 49.7147 434.856 50.3781 434.87 51.0507L434.37 51.0613C434.384 51.7162 434.396 52.3799 434.407 53.0527L434.907 53.0445C434.918 53.7021 434.927 54.3682 434.936 55.043L434.436 55.0492C434.444 55.7058 434.451 56.3706 434.458 57.0439L434.957 57.0392C434.964 57.6938 434.969 58.3562 434.973 59.0267L434.473 59.03C434.478 59.6867 434.481 60.351 434.484 61.0233L434.984 61.021C434.987 61.681 434.99 62.3485 434.992 63.0237L434.492 63.0252C434.493 63.3563 434.494 63.6893 434.494 64.0241C434.495 64.3514 434.496 64.6805 434.496 65.0114L434.996 65.0105C434.997 65.6676 434.998 66.3316 434.999 67.0028L434.499 67.0032C434.499 67.6641 434.5 68.3318 434.5 69.0066L435 69.0065C435 69.6618 435 70.3236 435 70.9922L434.5 70.9922V72V73H435V75H434.5V77H435V79H434.5V81H435V83H434.5V85H435V87H434.5V89H435V91H434.5V93H435V95H434.5V97H435V99H434.5V101H435V103H434.5V105H435V107H434.5V109H435V111H434.5V113H435V115H434.5V117H435V119H434.5V121H435V123H434.5V125H435V127H434.5V129H435V131H434.5V133H435V135H434.5V137H435V139H434.5V141H435V143H434.5V145H435V147H434.5V149H435V151H434.5V153H435V155H434.5V157H435V159H434.5V161H435V163H434.5V165H435V167H434.5V169H435V171H434.5V173H435V175H434.5V177H435V179H434.5V181H435V183H434.5V185H435V187H434.5V189H435V191H434.5V193H435V195H434.5V197H435V199H434.5V201H435V203H434.5V205H435V207H434.5V209H435V211H434.5V213H435V215H434.5V217H435V219H434.5V221H435V223H434.5V225H435V227H434.5V229H435V231H434.5V233H435V235H434.5V237H435V239H434.5V241H435V243H434.5V245H435V247H434.5V249H435V251H434.5V253H435V255H434.5V257H435V259H434.5V261H435V263H434.5V265H435V267H434.5V269H435V271H434.5V273H435V275H434.5V277H435V279H434.5V281H435V283H434.5V285H435V287H434.5V289H435V291H434.5V293H435V295H434.5V297H435V299H434.5V301H435V303H434.5V305H435V307H434.5V309H435V311H434.5V313H435V315H434.5V317H435V319H434.5V321H435V323H434.5V325H435V327H434.5V329H435V331H434.5V333H435V335H434.5V337H435V339H434.5V341H435V343H434.5V345H435V347H434.5V349H435V351H434.5V353H435V355H434.5V357H435V359H434.5V361H435V363H434.5V365H435V367H434.5V369H435V371H434.5V373H435V375H434.5V377H435V379H434.5V381H435V383H434.5V385H435V387H434.5V389H435V391H434.5V393H435V395H434.5V397H435V399H434.5V401H435V403H434.5V405H435V407H434.5V409H435V411H434.5V413H435V415H434.5V417H435V419H434.5V421H435V423H434.5V425H435V427H434.5V429H435V431H434.5V433H435V435H434.5V437H435V439H434.5V441H435V443H434.5V445H435V447H434.5V449H435V451H434.5V453H435V455H434.5V457H435V459H434.5V461H435V463H434.5V465H435V467H434.5V469H435V471H434.5V472V473.008H435C435 473.676 435 474.338 435 474.994L434.5 474.993C434.5 475.668 434.499 476.336 434.499 476.997L434.999 476.997C434.998 477.668 434.997 478.332 434.996 478.989L434.496 478.989C434.495 479.658 434.494 480.32 434.492 480.975L434.992 480.976C434.99 481.651 434.987 482.319 434.984 482.979L434.484 482.977C434.483 483.308 434.481 483.638 434.479 483.966C434.477 484.303 434.475 484.637 434.473 484.97L434.973 484.973C434.969 485.644 434.964 486.306 434.957 486.961L434.458 486.956C434.453 487.458 434.448 487.955 434.442 488.448C434.44 488.616 434.438 488.784 434.436 488.951L434.936 488.957C434.927 489.632 434.918 490.298 434.907 490.956L434.407 490.947C434.396 491.62 434.384 492.284 434.37 492.939L434.87 492.949C434.856 493.622 434.84 494.285 434.822 494.94L434.322 494.926C434.305 495.597 434.285 496.259 434.263 496.911L434.763 496.928C434.74 497.603 434.716 498.268 434.689 498.923L434.189 498.902C434.179 499.134 434.17 499.365 434.159 499.594C434.14 500.032 434.12 500.465 434.098 500.893L434.597 500.918C434.563 501.593 434.526 502.257 434.486 502.911L433.987 502.88C433.946 503.553 433.902 504.214 433.853 504.864L434.352 504.901C434.302 505.575 434.248 506.238 434.191 506.889L433.693 506.844C433.633 507.515 433.569 508.174 433.5 508.82L433.997 508.873C433.926 509.546 433.849 510.206 433.767 510.853L433.271 510.79C433.186 511.458 433.095 512.112 432.999 512.753L433.493 512.827C433.392 513.496 433.284 514.151 433.169 514.793L432.677 514.704C432.558 515.365 432.432 516.011 432.297 516.643L432.786 516.747C432.645 517.411 432.495 518.059 432.335 518.693L431.85 518.571C431.686 519.221 431.511 519.855 431.326 520.474L431.805 520.617C431.612 521.264 431.406 521.895 431.188 522.511L430.717 522.344C430.495 522.972 430.26 523.583 430.011 524.177L430.472 524.37C430.212 524.992 429.936 525.597 429.645 526.186L429.197 525.964C428.904 526.556 428.596 527.13 428.27 527.689L428.702 527.941C428.366 528.519 428.011 529.08 427.637 529.627L427.225 529.344C426.856 529.883 426.468 530.407 426.061 530.916L426.451 531.228C426.037 531.746 425.604 532.248 425.149 532.737L424.783 532.397C424.694 532.492 424.604 532.588 424.513 532.683C424.378 532.824 424.241 532.964 424.102 533.102C423.87 533.334 423.635 533.561 423.397 533.783L423.737 534.149C423.248 534.604 422.746 535.037 422.228 535.451L421.916 535.061C421.407 535.468 420.883 535.856 420.344 536.225L420.627 536.637C420.08 537.011 419.519 537.366 418.941 537.703L418.689 537.27C418.13 537.596 417.556 537.904 416.965 538.197L417.186 538.645C416.597 538.936 415.992 539.211 415.37 539.472L415.177 539.011C414.583 539.26 413.972 539.495 413.344 539.717L413.511 540.188C412.895 540.406 412.264 540.612 411.617 540.805L411.474 540.326C410.855 540.511 410.221 540.686 409.571 540.85L409.693 541.335C409.059 541.495 408.411 541.645 407.747 541.786L407.643 541.297C407.011 541.432 406.365 541.558 405.704 541.677L405.793 542.169C405.151 542.284 404.496 542.392 403.827 542.493L403.753 541.999C403.112 542.095 402.458 542.186 401.79 542.271L401.853 542.767C401.206 542.849 400.546 542.926 399.873 542.997L399.82 542.5C399.174 542.569 398.515 542.633 397.844 542.693L397.889 543.191C397.238 543.248 396.575 543.302 395.901 543.352L395.864 542.853C395.214 542.902 394.553 542.946 393.88 542.987L393.911 543.486C393.257 543.526 392.593 543.563 391.918 543.597L391.893 543.098C391.636 543.111 391.378 543.123 391.118 543.136C390.717 543.154 390.312 543.172 389.902 543.189L389.923 543.689C389.268 543.716 388.603 543.74 387.928 543.763L387.911 543.263C387.259 543.285 386.597 543.304 385.926 543.322L385.94 543.822C385.285 543.84 384.622 543.855 383.949 543.87L383.939 543.37C383.284 543.384 382.62 543.396 381.947 543.407L381.956 543.907C381.298 543.918 380.632 543.927 379.957 543.936L379.951 543.436C379.294 543.444 378.629 543.451 377.956 543.458L377.961 543.957C377.306 543.964 376.644 543.969 375.973 543.973L375.97 543.473C375.313 543.478 374.649 543.481 373.977 543.484L373.979 543.984C373.319 543.987 372.651 543.99 371.976 543.992L371.975 543.492C371.32 543.494 370.658 543.495 369.989 543.496L369.989 543.996C369.332 543.997 368.668 543.998 367.997 543.999L367.997 543.499C367.336 543.499 366.668 543.5 365.993 543.5L365.994 544C365.338 544 364.676 544 364.008 544V543.5H363H362.004V544H360.01V543.5H358.017V544H356.024V543.5H354.031V544H352.038V543.5H350.045V544H348.051V543.5H346.058V544H344.065V543.5H342.072V544H340.079V543.5H338.086V544H336.092V543.5H334.099V544H332.106V543.5H330.113V544H328.12V543.5H326.127V544H324.133V543.5H322.14V544H320.147V543.5H318.154V544H316.161V543.5H314.168V544H312.175V543.5H310.181V544H308.188V543.5H306.195V544H304.202V543.5H302.209V544H300.216V543.5H298.223V544H296.229V543.5H294.236V544H292.243V543.5H290.25V544H288.257V543.5H286.264V544H284.27V543.5H282.277V544H280.284V543.5H278.291V544H276.298V543.5H274.305V544H272.312V543.5H270.318V544H268.325V543.5H266.332V544H264.339V543.5H262.346V544H260.353V543.5H258.359V544H256.366V543.5H254.373V544H252.38V543.5H250.387V544H248.394V543.5H246.401V544H244.407V543.5H242.414V544H240.421V543.5H238.428V544H236.435V543.5H234.442V544H232.449V543.5H230.455V544H228.462V543.5H226.469V544H224.476V543.5H222.483V544H220.49V543.5H218.497V544H216.503V543.5H214.51V544H212.517V543.5H210.524V544H208.531V543.5H206.538V544H204.544V543.5H202.551V544H200.558V543.5H198.565V544H196.572V543.5H194.579V544H192.586V543.5H190.592V544H188.599V543.5H186.606V544H184.613V543.5H182.62V544H180.627V543.5H178.634V544H176.64V543.5H174.647V544H172.654V543.5H170.661V544H168.668V543.5H166.675V544H164.682V543.5H162.688V544H160.695V543.5H158.702V544H156.709V543.5H154.716V544H152.723V543.5H150.729V544H148.736V543.5H146.743V544H144.75V543.5H142.757V544H140.764V543.5H138.771V544H136.777V543.5H134.784V544H132.791V543.5H130.798V544H128.805V543.5H126.812V544H124.819V543.5H122.825V544H120.832V543.5H118.839V544H116.846V543.5H114.853V544H112.86V543.5H110.866V544H108.873V543.5H106.88V544H104.887V543.5H102.894V544H100.901V543.5H98.9075V544H96.9144V543.5H94.9212V544H92.9281V543.5H90.9349V544H88.9418V543.5H86.9486V544H84.9555V543.5H82.9623V544H80.9692V543.5H78.976V544H76.9829V543.5H74.9897V544H72.9966V543.5H72H70.9922L70.9922 544C70.3236 544 69.6618 544 69.0065 544L69.0066 543.5C68.3318 543.5 67.6641 543.499 67.0033 543.499L67.0028 543.999C66.3317 543.998 65.6676 543.997 65.0106 543.996L65.0114 543.496C64.342 543.495 63.68 543.494 63.0252 543.492L63.0237 543.992C62.3485 543.99 61.681 543.987 61.021 543.984L61.0233 543.484C60.3511 543.481 59.6867 543.478 59.03 543.473L59.0267 543.973C58.3562 543.969 57.6938 543.964 57.0392 543.957L57.0439 543.458C56.3706 543.451 55.7058 543.444 55.0492 543.436L55.043 543.936C54.3682 543.927 53.7021 543.918 53.0445 543.907L53.0527 543.407C52.3799 543.396 51.7162 543.384 51.0613 543.37L51.0507 543.87C50.3781 543.855 49.7147 543.84 49.0604 543.822L49.0737 543.322C48.4026 543.304 47.7411 543.285 47.089 543.263L47.0724 543.763C46.3973 543.74 45.7322 543.716 45.077 543.689L45.0976 543.189C44.4236 543.161 43.7601 543.131 43.107 543.098L43.0819 543.597C42.4069 543.563 41.7428 543.526 41.0893 543.486L41.1199 542.987C40.4472 542.946 39.786 542.902 39.136 542.853L39.0991 543.352C38.4248 543.302 37.7624 543.248 37.1115 543.191L37.1557 542.693C36.4847 542.633 35.8262 542.569 35.1798 542.5L35.1269 542.997C34.4541 542.926 33.7941 542.849 33.1467 542.767L33.2097 542.271C32.542 542.186 31.888 542.095 31.2474 541.999L31.1727 542.493C30.5036 542.392 29.8487 542.284 29.2074 542.169L29.2957 541.677C28.6348 541.558 27.9889 541.432 27.3575 541.297L27.2534 541.786C26.5894 541.645 25.9408 541.495 25.307 541.335L25.4294 540.85C24.779 540.686 24.1449 540.511 23.5264 540.326L23.3832 540.805C22.7357 540.612 22.1046 540.406 21.4892 540.188L21.6561 539.717C21.0282 539.495 20.4174 539.26 19.8228 539.011L19.6297 539.472C19.0077 539.212 18.4028 538.936 17.8139 538.645L18.0355 538.197C17.4441 537.904 16.8697 537.596 16.3111 537.27L16.0594 537.703C15.4814 537.366 14.9197 537.011 14.3735 536.637L14.6559 536.225C14.1168 535.856 13.5932 535.468 13.0839 535.061L12.7716 535.451C12.2545 535.037 11.7519 534.604 11.2629 534.149L11.6034 533.783C11.365 533.561 11.1298 533.334 10.8977 533.102C10.6656 532.87 10.4388 532.635 10.2171 532.397L9.85098 532.737C9.39631 532.248 8.96262 531.746 8.54896 531.228L8.93939 530.916C8.53199 530.407 8.14435 529.883 7.77548 529.344L7.36285 529.627C6.98909 529.08 6.63431 528.519 6.29753 527.941L6.72956 527.689C6.40417 527.13 6.09569 526.556 5.80325 525.964L5.35504 526.186C5.06386 525.597 4.7885 524.992 4.52812 524.37L4.98933 524.177C4.74041 523.583 4.50516 522.972 4.28287 522.344L3.81154 522.511C3.59367 521.895 3.38826 521.264 3.19459 520.617L3.67362 520.474C3.48862 519.855 3.31431 519.221 3.1501 518.571L2.66531 518.693C2.50531 518.059 2.35491 517.411 2.21354 516.747L2.70258 516.643C2.56814 516.011 2.44186 515.365 2.32325 514.704L1.83111 514.793C1.71601 514.151 1.60815 513.496 1.50706 512.827L2.00145 512.753C1.90465 512.112 1.81407 511.458 1.7293 510.79L1.23328 510.853C1.15109 510.206 1.07438 509.546 1.00278 508.873L1.49997 508.82C1.4312 508.174 1.36714 507.515 1.30747 506.844L0.809438 506.889C0.751564 506.238 0.697828 505.575 0.647934 504.901L1.14657 504.864C1.09847 504.214 1.05394 503.553 1.01272 502.88L0.513661 502.911C0.473617 502.257 0.436695 501.593 0.402651 500.918L0.902016 500.893C0.869077 500.24 0.838832 499.576 0.811063 498.902L0.311488 498.923C0.284492 498.268 0.259836 497.603 0.237316 496.928L0.737039 496.911C0.715289 496.259 0.695534 495.597 0.67759 494.926L0.177769 494.94C0.160276 494.285 0.144505 493.622 0.130285 492.949L0.630173 492.939C0.616328 492.284 0.603955 491.62 0.592898 490.947L0.0929653 490.956C0.0821573 490.298 0.0726059 489.632 0.0641648 488.957L0.564126 488.951C0.555913 488.294 0.548751 487.629 0.542507 486.956L0.0425285 486.961C0.0364575 486.306 0.0312532 485.644 0.0267918 484.973L0.526781 484.97C0.522411 484.313 0.518755 483.649 0.515694 482.977L0.0156996 482.979C0.0126952 482.319 0.0102657 481.651 0.00830121 480.976L0.508299 480.975C0.506394 480.32 0.504926 479.658 0.503795 478.989L0.00379557 478.989C0.00268545 478.332 0.00190002 477.668 0.00134431 476.997L0.501344 476.997C0.500797 476.336 0.500473 475.668 0.50028 474.993L0.000280211 474.994Z" stroke="url(#paint0_linear)" stroke-dasharray="2 2"/>
<rect x="9.5" y="9.5" width="416" height="525" rx="25.5" stroke="url(#paint1_linear)" stroke-dasharray="2 2"/>
<rect x="211.5" y="543.5" width="11" height="33" stroke="#8C8C8C" stroke-dasharray="2 2"/>

<defs>
<linearGradient id="paint0_linear" x1="217.5" y1="0" x2="217.5" y2="544" gradientUnits="userSpaceOnUse">
<stop stop-color="#B8B8B8"/>
<stop offset="1" stop-color="#8C8C8C"/>
</linearGradient>
<linearGradient id="paint1_linear" x1="217.5" y1="9" x2="217.5" y2="535" gradientUnits="userSpaceOnUse">
<stop stop-color="#B8B8B8"/>
<stop offset="1" stop-color="#8C8C8C"/>
</linearGradient>
<clipPath id="clip0">
<rect width="16" height="12.8" fill="white" transform="translate(100.051 72.8177) rotate(45)"/>
</clipPath>
</defs>
</svg>
