<svg width="49" height="48" viewBox="0 0 49 48" fill="none" xmlns="http://www.w3.org/2000/svg">
<rect x="0.0585938" width="48" height="48" rx="24" fill="#F1F1F1"/>
<path d="M30.0389 20.5803L29.8626 20.4868C29.9554 20.7046 29.9856 20.8904 29.9824 21.0565C30.0154 20.922 30.0373 20.7833 30.04 20.6391C30.0421 20.8183 30.0198 20.9867 29.9765 21.1433L29.9824 21.0563C29.9314 21.2646 29.8463 21.4576 29.7325 21.6344L29.7872 21.5779C29.1172 22.667 27.2895 22.9049 26.3881 21.7801C24.9412 19.9744 26.4179 18.0277 26.6247 16.1155C26.8832 13.719 25.3365 11.3924 23.4185 10C24.4748 11.6602 23.0831 13.8569 21.9695 15.0845C20.8897 16.2753 19.5768 17.2692 18.3848 18.3504C17.1047 19.5127 15.8732 20.7358 14.8213 22.0992C12.7163 24.8279 11.4274 28.2599 12.3746 31.6646C13.3209 35.0672 16.3543 37.233 19.7798 37.9986C18.0517 37.2727 16.4345 35.4284 16.4308 33.5413C16.4264 31.4834 17.7684 29.7366 19.4379 28.5888C19.2371 29.3253 19.1276 29.999 19.6247 30.6578C20.0871 31.2705 20.8967 31.5679 21.6608 31.4063C23.4471 31.0268 23.5288 29.1192 22.4701 28.0077C21.4231 26.9076 20.4102 25.6639 20.8085 24.0679C21.0081 23.2679 21.5138 22.5189 22.1547 21.9829C21.662 23.2401 23.0612 24.4799 23.9828 25.0969C25.5823 26.1683 27.3363 26.9783 28.8069 28.234C30.3534 29.5538 31.4958 31.3383 31.265 33.4084C31.0147 35.6519 29.1798 37.2124 27.1218 38C31.4709 37.0671 35.9656 33.7876 36.057 29.1011C36.1336 25.246 33.4114 22.2789 30.0389 20.5803Z" fill="#151515"/>
</svg>
