<svg width="49" height="48" viewBox="0 0 49 48" fill="none" xmlns="http://www.w3.org/2000/svg">
<rect x="0.765625" width="48" height="48" rx="24" fill="#6A6A6A" fill-opacity="0.1"/>
<path fill-rule="evenodd" clip-rule="evenodd" d="M41.4231 21.9649C41.2516 21.5931 41.1688 21.1533 41.1511 20.7393C41.1071 19.7203 41.1445 18.6976 41.0985 17.6786C41.0573 16.766 40.7322 15.9436 39.8573 15.4732C39.0871 15.0591 38.1942 15.0179 37.3371 15.0082V16.6367C37.6228 16.6464 37.5525 16.6553 37.6222 16.659C38.7733 16.7157 39.1591 17.0814 39.1736 18.2251C39.1845 19.0756 39.1771 19.9266 39.1908 20.7768C39.2076 21.8083 39.3613 22.793 40.3033 23.4443C40.3193 23.4554 40.3179 23.4964 40.3271 23.5439C39.8476 23.885 39.4682 24.3242 39.3579 24.9237C39.2691 25.4087 39.2188 25.9052 39.2036 26.3982C39.1762 27.2905 39.2045 28.1847 39.1791 29.0769C39.1591 29.7757 38.8285 30.1037 38.1493 30.2593C37.8936 30.3183 37.6228 30.3392 37.3371 30.3755V32C37.9085 31.9657 38.1991 31.9431 38.5905 31.9007C40.0636 31.741 40.8931 30.9733 41.0631 29.5419C41.1162 29.0932 41.1102 28.636 41.1202 28.1827C41.1391 27.3331 41.1293 26.4795 41.2053 25.6351C41.2828 24.7735 41.9085 24.2973 42.7656 24.3448V22.6419C42.1942 22.7443 41.6676 22.4968 41.4231 21.9649ZM14.5696 25.4368C14.5693 22.132 14.4799 18.8272 14.4799 15.5227V15.0027C13.6228 15.0027 12.7011 14.9944 11.7968 15.0067C11.4296 15.0116 11.1059 15.0431 10.7419 15.0929C9.34848 15.2829 8.67677 15.9379 8.42991 17.3283C8.35848 17.7295 8.37277 18.1464 8.36677 18.5568C8.35563 19.3368 8.37791 20.1172 8.36534 20.8969C8.34963 21.879 7.88763 22.6402 6.88763 22.698C6.8522 22.7 7.05134 22.7409 6.76562 22.7655V24.2836C7.90848 24.4633 8.2722 24.9254 8.3482 25.9888C8.3602 26.1582 8.36334 26.329 8.36505 26.4993C8.37477 27.4493 8.36391 28.4008 8.40677 29.3491C8.44705 30.2341 8.64334 31.0251 9.47848 31.4895C10.2585 31.9233 11.3371 31.9585 11.9085 31.9811V30.3603C11.9085 30.3466 11.8485 30.334 11.7928 30.3306C10.5531 30.2547 10.2736 29.9177 10.2662 28.6752C10.2613 27.8525 10.2965 27.0298 10.2833 26.2071C10.2668 25.1735 10.1159 24.1931 9.18163 23.539C9.16734 23.529 9.18134 23.4866 9.17677 23.4294C9.80505 23.0316 10.1391 22.4233 10.2299 21.6856C10.2802 21.2787 10.2971 20.866 10.3042 20.4554C10.3185 19.6047 10.3033 18.7531 10.3265 17.9029C10.3428 17.3054 10.7236 16.8699 11.2096 16.772C11.6702 16.679 11.9085 16.6819 12.7656 16.6387V17.227C12.7656 20.1773 12.6608 23.1272 12.6762 26.0775C12.6816 27.0879 12.7933 28.084 13.8748 28.5204C14.4628 28.7576 15.0928 28.8306 15.7682 28.9902C15.8811 28.3286 15.9179 27.7798 16.0102 27.2367C14.7653 26.879 14.5696 26.6936 14.5696 25.4368ZM22.1908 19.7443C20.0936 18.7399 17.5485 19.6181 16.5719 21.7248C15.8365 23.3112 15.8628 24.944 16.5102 26.5528C16.8613 27.425 17.4959 28.078 18.3596 28.462C20.0465 29.212 21.7536 29.0297 23.4545 28.5032C23.5462 28.4746 23.6633 28.2977 23.6522 28.2039C23.5942 27.7286 23.4979 27.2579 23.4119 26.7671C23.0071 26.8693 22.6688 26.9737 22.3231 27.0387C21.4096 27.2106 20.4942 27.2104 19.6053 26.8564C18.7276 26.5073 18.1382 25.5029 18.2848 24.6444H24.2482C24.3211 23.7859 24.2922 22.6056 23.9273 21.6295C23.6016 20.757 23.0393 20.1509 22.1908 19.7443ZM22.1782 23.2139H18.2593C18.2613 22.0693 19.1919 21.042 20.4128 21.0655C21.4851 21.0861 22.2268 22.0693 22.1782 23.2139ZM38.2091 26.7276C38.3496 25.2814 37.9136 24.4676 36.6279 23.8392C36.1719 23.6163 35.6879 23.4511 35.2233 23.2445C34.8756 23.09 34.5256 22.9335 34.2005 22.7378C33.8839 22.5475 33.7513 22.2316 33.7982 21.8616C33.8442 21.4961 34.0788 21.2552 34.4176 21.1865C34.8282 21.103 35.2585 21.0314 35.6713 21.0652C36.2548 21.113 36.8302 21.2626 37.4322 21.3728L37.8128 19.708C36.9982 19.5838 36.2388 19.4232 35.4713 19.3626C34.6179 19.2953 33.7868 19.4373 33.0056 19.8405C31.3551 20.6923 31.3248 23.3075 32.8416 24.166C33.2948 24.4224 33.7796 24.6227 34.2511 24.847C34.7473 25.0837 35.2616 25.2894 35.7365 25.5635C36.0971 25.7716 36.2259 26.1347 36.1293 26.5579C36.0399 26.9514 35.7425 27.1268 35.3931 27.1603C34.8616 27.2109 34.3165 27.2596 33.7905 27.1969C33.1571 27.1214 32.5371 26.9288 31.8882 26.7817L31.5573 28.4385C33.0811 29.0114 34.5888 29.1053 36.1111 28.7673C37.3851 28.4846 38.1108 27.7383 38.2091 26.7276ZM30.0905 24.0229C29.5308 23.7256 28.9288 23.5087 28.3511 23.2437C27.9925 23.0791 27.6128 22.9364 27.2968 22.7083C26.6891 22.2696 26.8022 21.4286 27.5099 21.2037C27.9159 21.0744 28.3751 21.0343 28.8016 21.0663C29.3828 21.1101 29.9562 21.2606 30.5622 21.3705L30.9216 19.7835C30.6139 19.6997 30.3353 19.6084 30.0499 19.5483C28.9153 19.3091 27.7748 19.2164 26.6573 19.6098C25.6973 19.9481 25.0313 20.5805 24.8996 21.6444C24.7522 22.8325 25.1456 23.7705 26.2413 24.3348C26.6799 24.5609 27.1499 24.7248 27.5976 24.9343C28.0445 25.1432 28.5008 25.3426 28.9159 25.6047C29.2333 25.8051 29.3585 26.1441 29.2691 26.5362C29.1802 26.9248 28.8973 27.1205 28.5453 27.1568C28.0139 27.2115 27.4685 27.2621 26.9422 27.2006C26.3062 27.1262 25.6842 26.9331 25.0239 26.7843C24.9265 27.2458 24.8122 27.7108 24.7411 28.1821C24.7256 28.2846 24.8396 28.4815 24.9356 28.5149C26.4739 29.0489 28.0396 29.1256 29.6042 28.664C30.5385 28.3887 31.1919 27.791 31.3236 26.7688C31.4731 25.6085 31.1968 24.6101 30.0905 24.0229Z" fill="#151515"/>
</svg>
