<svg width="49" height="48" viewBox="0 0 49 48" fill="none" xmlns="http://www.w3.org/2000/svg">
<rect x="0.234375" width="48" height="48" rx="24" fill="#F1F1F1"/>
<path fill-rule="evenodd" clip-rule="evenodd" d="M10.2344 23.9994C10.2344 29.5403 13.4544 34.3292 18.1245 36.5977L11.4465 18.3017C10.646 20.0945 10.233 22.036 10.2344 23.9994ZM33.6855 23.293C33.6855 21.5624 33.0631 20.3648 32.5311 19.4327C31.8212 18.2778 31.1556 17.3019 31.1556 16.1487C31.1556 14.8613 32.131 13.6638 33.5065 13.6638C33.5689 13.6638 33.6278 13.6714 33.6879 13.6755C31.1097 11.3073 27.7352 9.99533 24.2344 10C19.3425 10 15.0405 12.5094 12.5368 16.3097C12.8658 16.3202 13.1755 16.326 13.438 16.326C14.9022 16.326 17.169 16.1487 17.169 16.1487C17.9233 16.1038 18.0125 17.2132 17.2583 17.3019C17.2583 17.3019 16.5 17.3911 15.6565 17.436L20.7542 32.5991L23.8185 23.4109L21.638 17.4355C20.8837 17.3911 20.1685 17.3013 20.1685 17.3013C19.4143 17.257 19.503 16.1038 20.2578 16.1487C20.2578 16.1487 22.5695 16.326 23.9456 16.326C25.4098 16.326 27.6766 16.1487 27.6766 16.1487C28.4315 16.1038 28.5201 17.2132 27.7659 17.3019C27.7659 17.3019 27.0064 17.3911 26.1635 17.436L31.2227 32.4836L32.6204 27.8183C33.2241 25.8812 33.6855 24.4906 33.6855 23.293ZM36.5194 17.2826C36.5795 17.7288 36.6139 18.2066 36.6139 18.7222C36.6139 20.142 36.3479 21.7391 35.5487 23.7369L31.2729 36.0996C35.4344 33.673 38.2344 29.1634 38.2344 23.9994C38.2344 21.5653 37.612 19.2769 36.5194 17.2826ZM24.4794 25.2244L20.2782 37.4295C21.533 37.7987 22.8595 38 24.2332 38C25.8636 38 27.4275 37.7183 28.8824 37.2067C28.8441 37.1453 28.811 37.081 28.7832 37.0142L24.4794 25.2244Z" fill="#151515"/>
</svg>
