<svg width="49" height="48" viewBox="0 0 49 48" fill="none" xmlns="http://www.w3.org/2000/svg">
<rect x="0.351562" width="48" height="48" rx="24" fill="#6A6A6A" fill-opacity="0.1"/>
<path fill-rule="evenodd" clip-rule="evenodd" d="M20.3516 13C20.3516 12.4477 20.7993 12 21.3516 12H25.3516C25.9038 12 26.3516 12.4477 26.3516 13C26.3516 13.5523 26.7993 14 27.3516 14H30.3516C30.9038 14 31.3516 13.5523 31.3516 13C31.3516 12.4477 31.7993 12 32.3516 12H36.3516C36.9038 12 37.3516 12.4477 37.3516 13C37.3516 13.5523 37.7993 14 38.3516 14C38.9038 14 39.3516 14.4477 39.3516 15V22C39.3516 22.5523 38.9038 23 38.3516 23H19.3516C18.7993 23 18.3516 22.5523 18.3516 22V15C18.3516 14.4477 18.7993 14 19.3516 14C19.9038 14 20.3516 13.5523 20.3516 13Z" fill="#151515"/>
<path opacity="0.5" fill-rule="evenodd" clip-rule="evenodd" d="M11.3516 26C11.3516 25.4477 11.7993 25 12.3516 25H16.3516C16.9038 25 17.3516 25.4477 17.3516 26C17.3516 26.5523 17.7993 27 18.3516 27H21.3516C21.9038 27 22.3516 26.5523 22.3516 26C22.3516 25.4477 22.7993 25 23.3516 25H27.3516C27.9038 25 28.3516 25.4477 28.3516 26C28.3516 26.5523 28.7993 27 29.3516 27C29.9038 27 30.3516 27.4477 30.3516 28V35C30.3516 35.5523 29.9038 36 29.3516 36H10.3516C9.79928 36 9.35156 35.5523 9.35156 35V28C9.35156 27.4477 9.79928 27 10.3516 27C10.9038 27 11.3516 26.5523 11.3516 26Z" fill="#151515"/>
</svg>
