<svg width="48" height="48" viewBox="0 0 48 48" fill="none" xmlns="http://www.w3.org/2000/svg">
<rect width="48" height="48" rx="24" fill="#F1F1F1"/>
<path d="M17.203 27.8999L15.773 24.9629C16.675 24.5449 17.093 23.6759 17.093 22.5979C17.093 21.2669 16.466 20.2439 15.047 20.0239C14.838 19.9909 14.541 19.9799 14.387 19.9799H11.043V27.8999H12.539V25.2159H14.211L15.509 27.8999H17.203ZM12.539 21.3769H14.321C14.475 21.3769 14.673 21.3879 14.827 21.4319C15.432 21.5969 15.586 22.1689 15.586 22.5979C15.586 23.0269 15.432 23.5989 14.827 23.7639C14.673 23.8079 14.475 23.8189 14.321 23.8189H12.539V21.3769Z" fill="#151515"/>
<path d="M18.1921 27.8999H23.3621V26.5029H19.6881V24.4679H22.7021V23.0709H19.6881V21.3769H23.3621V19.9799H18.1921V27.8999Z" fill="#151515"/>
<path d="M27.4524 28.0649C29.0694 28.0649 30.6314 27.2509 30.6314 25.5459C30.6314 23.9509 29.2564 23.5549 28.4424 23.3349L27.0674 22.9609C26.5614 22.8289 26.0114 22.6309 26.0114 22.1139C26.0114 21.5529 26.6714 21.2009 27.3754 21.2229C28.0904 21.2449 28.7724 21.6519 28.9484 22.4219L30.5654 22.1469C30.1804 20.6619 29.0364 19.8479 27.3974 19.8259C25.7694 19.8149 24.4384 20.5959 24.4384 22.1909C24.4384 23.6979 25.6154 24.0829 26.2314 24.2589L28.2884 24.8639C28.9044 25.0509 29.0584 25.3369 29.0584 25.6559C29.0584 26.3159 28.2884 26.6679 27.5514 26.6679C26.6714 26.6679 25.9124 26.1619 25.6924 25.2489L24.1304 25.4799C24.3724 27.0859 25.6924 28.0649 27.4524 28.0649Z" fill="#151515"/>
<path d="M33.4573 27.8999H34.9533V21.3769H37.4503V19.9799H30.9603V21.3769H33.4573V27.8999Z" fill="#151515"/>
<g opacity="0.5">
<path d="M7.29075 30.21H8.07175V28.813H7.40075C7.22475 28.813 7.08175 28.67 7.08175 28.483V25.381C7.08175 25.029 6.97175 24.688 6.76275 24.391L6.55375 24.105L6.76275 23.819C6.97175 23.522 7.08175 23.181 7.08175 22.829V19.727C7.08175 19.551 7.22475 19.408 7.40075 19.408H8.07175V18H7.29075C6.27875 18 5.67375 18.616 5.67375 19.617V22.829C5.67375 22.895 5.65175 22.95 5.61875 23.005L5.12375 23.709C4.95875 23.951 4.95875 24.259 5.12375 24.501L5.61875 25.205C5.65175 25.249 5.67375 25.315 5.67375 25.381V28.593C5.67375 29.605 6.27875 30.21 7.29075 30.21Z" fill="#151515"/>
<path d="M40.215 30.21C41.227 30.21 41.832 29.605 41.832 28.593V25.381C41.832 25.315 41.854 25.249 41.887 25.205L42.382 24.501C42.547 24.259 42.547 23.951 42.382 23.709L41.887 23.005C41.854 22.95 41.832 22.895 41.832 22.829V19.617C41.832 18.616 41.227 18 40.215 18H39.434V19.408H40.105C40.281 19.408 40.424 19.551 40.424 19.727V22.829C40.424 23.181 40.534 23.522 40.743 23.819L40.952 24.105L40.743 24.391C40.534 24.688 40.424 25.029 40.424 25.381V28.483C40.424 28.67 40.281 28.813 40.105 28.813H39.434V30.21H40.215Z" fill="#151515"/>
</g>
</svg>
