<svg width="49" height="48" viewBox="0 0 49 48" fill="none" xmlns="http://www.w3.org/2000/svg">
<rect x="0.292969" width="48" height="48" rx="24" fill="#F1F1F1"/>
<path d="M14.6221 25.3539L15.3931 21.1601C15.5873 21.1601 15.7759 21.1581 15.9579 21.1561C17.779 21.1367 18.9447 21.1243 18.5656 23.1985C18.1602 25.3938 16.816 25.3769 15.1173 25.3576C14.9553 25.3558 14.79 25.3539 14.6221 25.3539Z" fill="#151515"/>
<path d="M30.7561 25.3539L31.5271 21.1601C31.7224 21.1601 31.9119 21.1581 32.0947 21.1561C33.9216 21.1367 35.0773 21.1245 34.6996 23.1985C34.2929 25.405 32.9355 25.3835 31.2906 25.3591C31.1154 25.3566 30.937 25.3539 30.7561 25.3539Z" fill="#151515"/>
<path fill-rule="evenodd" clip-rule="evenodd" d="M6.29297 24C6.29297 18.4738 14.354 14 24.293 14C34.232 14 42.293 18.4738 42.293 24C42.293 29.5262 34.232 34 24.293 34C14.354 34 6.29297 29.5262 6.29297 24ZM13.8365 29.6015L14.3255 26.94C14.5839 26.94 14.8314 26.9422 15.069 26.9444C16.9576 26.9616 18.2208 26.973 19.4 25.8046C20.867 24.3785 21.251 21.84 20.204 20.5692C19.658 19.9046 18.7805 19.5769 17.588 19.5769H13.61L11.771 29.6015H13.8365ZM25.8561 24.7006C25.7414 25.3101 25.6034 26.044 25.4405 26.9308H27.5225C27.6739 26.1099 27.8112 25.3978 27.9308 24.7775C28.5219 21.7112 28.6814 20.8838 27.989 20.2108C27.301 19.5398 25.9758 19.5535 24.4799 19.5691C24.2505 19.5714 24.0172 19.5738 23.7815 19.5738L24.2705 16.9123H22.217L20.378 26.9292H22.43L23.4875 21.1892C23.7533 21.1892 23.9944 21.1874 24.2131 21.1858C25.3687 21.1772 25.8984 21.1733 26.1545 21.4631C26.4103 21.7542 26.3515 22.0666 25.8561 24.7006ZM31.15 26.9428C33.1577 26.9555 34.3656 26.9631 35.537 25.8062C37.004 24.38 37.388 21.8431 36.3425 20.5692C35.7965 19.9046 34.919 19.5769 33.7265 19.5769H29.75L27.905 29.6015H29.975L30.464 26.94C30.7028 26.94 30.9311 26.9414 31.15 26.9428Z" fill="#151515"/>
</svg>
