<svg width="49" height="48" viewBox="0 0 49 48" fill="none" xmlns="http://www.w3.org/2000/svg">
<rect x="0.589844" width="48" height="48" rx="24" fill="#6A6A6A" fill-opacity="0.1"/>
<path fill-rule="evenodd" clip-rule="evenodd" d="M34.9452 21.8757C34.9452 23.2322 33.8382 24.3319 32.4726 24.3319C31.107 24.3319 30 23.2322 30 21.8757C30 20.5192 31.107 19.4196 32.4726 19.4196C33.8382 19.4196 34.9452 20.5192 34.9452 21.8757ZM32.4719 20.7871C32.4719 21.1417 32.1826 21.4291 31.8257 21.4291C31.4688 21.4291 31.1795 21.1417 31.1795 20.7871C31.1795 20.4326 31.4688 20.1452 31.8257 20.1452C32.1826 20.1452 32.4719 20.4326 32.4719 20.7871Z" fill="white"/>
<path d="M24.8556 27.5974C25.3332 27.5974 26.1762 27.9324 26.9348 28.4627C26.2043 27.6533 25.3332 27.095 24.8556 27.095C24.3498 27.095 23.2821 27.7091 22.5234 28.6022C23.3102 27.9882 24.3217 27.5974 24.8556 27.5974Z" fill="#151515"/>
<path opacity="0.5" fill-rule="evenodd" clip-rule="evenodd" d="M17.5232 13.7257C17.5232 13.7257 14.2639 16.4331 13.3086 19.5591C12.8289 21.1287 12.6892 22.8672 12.5766 24.2694C12.4649 25.6597 12.3798 26.7193 12.0161 26.9555C11.2742 27.4336 10.4608 25.5379 9.91274 24.2608L9.91273 24.2608C9.69281 23.7483 9.51564 23.3354 9.40298 23.2155C9.12957 22.9192 8.57582 22.4209 8.03105 21.9306L8.03103 21.9306C7.34415 21.3125 6.67156 20.7072 6.59321 20.536C6.45272 20.229 10.7517 15.5678 12.6342 14.6468C14.9102 13.5862 17.7199 13.5024 17.5232 13.7257ZM35.8711 19.5591C34.9158 16.4331 31.6564 13.7257 31.6564 13.7257C31.4598 13.5024 34.2695 13.5862 36.5455 14.6468C38.428 15.5678 42.727 20.229 42.5865 20.536C42.5082 20.7071 41.8362 21.3119 41.1497 21.9297L41.1496 21.9298L41.1493 21.93L41.1492 21.9302L41.1489 21.9304L41.1487 21.9306L41.1486 21.9306C40.6039 22.4209 40.0501 22.9192 39.7767 23.2155C39.6641 23.3354 39.4869 23.7483 39.267 24.2608C38.7189 25.5379 37.9055 27.4336 37.1636 26.9555C36.7999 26.7193 36.7148 25.6597 36.6031 24.2694C36.4904 22.8672 36.3508 21.1287 35.8711 19.5591ZM31.2912 25.5879C30.3275 24.4113 28.9479 23.2917 27.1421 22.7483C26.9528 22.1502 26.0588 21.5129 24.8006 21.5129C23.5734 21.5343 22.6926 22.1456 22.4743 22.7191C20.6196 23.2508 19.207 24.3898 18.2257 25.5879C16.9213 27.1687 16.9249 27.8592 16.9321 29.2456C16.9326 29.3524 16.9332 29.4634 16.9332 29.5792C16.9332 34.0229 18.1283 34.1351 19.3064 34.2456C19.6822 34.2809 20.0563 34.316 20.3892 34.4915C21.5188 35.0525 22.6846 35.0182 23.8722 34.9831H23.8723C24.1618 34.9746 24.4525 34.966 24.7444 34.966H24.7725C25.0472 34.966 25.3192 34.9724 25.5887 34.9788H25.5888C26.8078 35.0075 27.9772 35.035 29.1276 34.4636C29.4616 34.2944 29.8368 34.268 30.2137 34.2415C31.3907 34.1587 32.5837 34.0748 32.5837 29.635C32.5849 29.562 32.5863 29.4907 32.5877 29.4211L32.5877 29.4189L32.5877 29.4174L32.5878 29.4162L32.5878 29.4147C32.6164 27.9465 32.6307 27.2113 31.2912 25.5879ZM25.183 23.736C24.9601 23.7803 24.8009 23.8119 24.8009 23.8575C24.8167 23.9202 24.8236 24.018 24.8316 24.1313L24.8316 24.1314L24.8316 24.1315C24.8378 24.2199 24.8448 24.3178 24.8571 24.4157C24.8571 24.5356 24.8587 24.6976 24.8606 24.8824V24.8824C24.8675 25.553 24.8774 26.5235 24.8223 26.8727C26.0594 26.9156 27.9197 28.546 27.9197 30.584V30.6957C27.8916 28.714 25.5314 27.0952 24.7728 27.0952C24.0141 27.0952 21.6539 28.714 21.6258 30.6957V30.584C21.6258 28.5809 23.4726 26.9285 24.7097 26.8733C24.6323 26.4529 24.6323 25.0318 24.6323 24.4157C24.6323 24.2977 24.6425 24.1491 24.6507 24.0315L24.6507 24.0314L24.6507 24.0313L24.6507 24.0313L24.6507 24.0307C24.656 23.954 24.6604 23.8905 24.6604 23.8575C24.6604 23.7862 23.5213 23.4927 23.1815 23.4068C23.4655 23.4766 24.301 23.6707 24.4637 23.5784C24.6323 23.4667 24.7166 23.1318 24.7166 23.1318C24.7166 23.1318 24.7728 23.4667 24.9976 23.5784C25.2223 23.7179 26.262 23.383 26.262 23.383C25.9627 23.5812 25.506 23.6719 25.183 23.736ZM23.0869 23.383C23.0869 23.383 23.1222 23.3922 23.1815 23.4068L23.0869 23.383Z" fill="#151515"/>
<path fill-rule="evenodd" clip-rule="evenodd" d="M19.4608 21.8757C19.4608 23.2322 18.3538 24.3319 16.9882 24.3319C15.6226 24.3319 14.5156 23.2322 14.5156 21.8757C14.5156 20.5192 15.6226 19.4196 16.9882 19.4196C18.3538 19.4196 19.4608 20.5192 19.4608 21.8757ZM18.2806 20.7871C18.2806 21.1417 17.9913 21.4291 17.6344 21.4291C17.2775 21.4291 16.9881 21.1417 16.9881 20.7871C16.9881 20.4326 17.2775 20.1452 17.6344 20.1452C17.9913 20.1452 18.2806 20.4326 18.2806 20.7871Z" fill="white"/>
<path d="M25.3881 23.2306C25.5083 23.1998 25.5586 22.9933 25.5005 22.7694C25.4423 22.5455 25.2977 22.389 25.1775 22.4198C25.0573 22.4506 25.007 22.6571 25.0652 22.881C25.1233 23.1049 25.2679 23.2614 25.3881 23.2306Z" fill="#151515"/>
<path d="M23.9438 23.2264C24.0624 23.263 24.2144 23.1136 24.2834 22.8927C24.3524 22.6719 24.3122 22.4632 24.1936 22.4267C24.075 22.3902 23.923 22.5396 23.854 22.7604C23.7851 22.9813 23.8253 23.1899 23.9438 23.2264Z" fill="#151515"/>
<path d="M25.5052 21.9036C25.5052 21.8757 24.859 22.1827 24.6904 22.2106C24.5218 22.1827 23.8756 21.8757 23.8756 21.9036H25.5052Z" fill="#151515"/>
<path d="M36.4958 27.2354L36.4632 27.3742C36.4533 27.3524 36.4434 27.3273 36.4336 27.2991C36.4233 27.3345 36.4126 27.3702 36.4017 27.4061C36.3669 27.6015 36.2921 27.7933 36.1921 27.9825C36.1725 28.027 36.1522 28.0703 36.1315 28.1119C36.309 27.8383 36.4456 27.5576 36.4913 27.2625C36.4928 27.2535 36.4943 27.2445 36.4958 27.2354Z" fill="#151515"/>
<path d="M35.0537 29.5796C34.8565 29.8752 34.7058 30.1714 34.6649 30.4723C34.6098 30.9376 34.4894 31.3633 34.2965 31.7501C34.5514 31.3217 34.7086 30.8404 34.7773 30.3049C34.8103 30.0554 34.9133 29.8152 35.0537 29.5796Z" fill="#151515"/>
<path d="M24.8026 34.6867H24.8026L24.8026 34.6869L24.8026 34.6867Z" fill="#151515"/>
<path d="M12.8737 27.4448C12.8689 27.4213 12.8647 27.3978 12.861 27.3742C12.861 27.3742 12.8738 27.3896 12.8981 27.418C12.8902 27.3923 12.8824 27.3668 12.8749 27.3414C12.8703 27.353 12.8656 27.364 12.861 27.3742L12.8284 27.2358C12.8299 27.2447 12.8314 27.2536 12.8329 27.2625C12.8424 27.3238 12.8562 27.3846 12.8737 27.4448Z" fill="#151515"/>
<path d="M36.2665 16.6284C36.6242 17.2148 36.6859 17.8691 36.698 18.584L35.4621 15.6081C35.7852 15.923 36.0515 16.2637 36.2665 16.6284Z" fill="#151515"/>
<path d="M34.4842 14.8443C33.7739 14.3962 32.8928 14.0232 31.8155 13.7326L34.4842 14.8443Z" fill="#151515"/>
<path fill-rule="evenodd" clip-rule="evenodd" d="M31.8014 13.7288C31.8991 13.8512 34.841 17.5457 35.283 18.973C35.3543 19.2075 35.4228 19.5571 35.4891 19.9828C35.422 19.9369 35.3568 19.8892 35.2933 19.8401C35.0332 19.3623 34.7003 19.0349 34.2925 18.7967C33.7236 18.0249 33.4567 17.2983 33.4567 17.2983C33.4218 17.7636 33.4762 18.156 33.5892 18.4867C33.3403 18.4041 33.0714 18.3363 32.7823 18.2752C31.4617 17.9682 28.8206 17.717 29.1296 18.6939C29.1362 18.7165 29.1433 18.7405 29.1507 18.7658C29.4277 19.7096 30.2361 22.4642 28.5396 21.5129C28.5396 21.5129 28.7404 21.6279 28.9962 21.9666C29.6361 22.426 31.1937 23.5968 32.1361 24.7506C32.3133 24.9675 32.4639 25.1587 32.5919 25.3269C33.2168 25.2526 33.9791 25.0333 34.6368 24.4714C35.3354 23.8766 35.6894 23.0079 35.757 22.1143C35.8019 22.5248 35.8462 22.9469 35.8901 23.3652L35.8902 23.3664L35.8903 23.3669L35.8903 23.367L35.8903 23.3671C35.9764 24.1878 36.0611 24.9944 36.1462 25.6727C36.1474 25.7462 36.15 25.8293 36.1541 25.9228C36.2073 27.1387 36.0365 27.6871 35.9034 27.9261C35.3618 28.4898 34.4651 29.3384 33.6253 29.7466C33.0633 30.0257 32.8666 30.1095 32.8666 29.7466C32.8666 29.3838 32.7823 27.9882 32.4733 26.8997C32.4722 26.896 32.4711 26.8923 32.4701 26.8885L32.4452 26.8997C32.4452 26.8997 31.2089 24.5831 29.6916 23.7178C29.5194 23.6214 29.3643 23.5268 29.2247 23.4347C29.1981 23.4199 29.1713 23.405 29.1446 23.3902C28.5731 23.0727 27.9754 22.7407 27.5281 22.3502L27.5147 22.3383C26.7502 21.6603 25.9311 20.9338 24.7745 20.8741L24.7745 20.8709C24.7604 20.8712 24.7463 20.8717 24.7323 20.8722C24.7183 20.8717 24.7043 20.8712 24.6902 20.8709L24.6902 20.8741C23.5242 20.934 22.6481 21.6687 21.8523 22.3502C21.4032 22.7423 20.7893 23.0754 20.2021 23.394L20.2021 23.394C19.9679 23.5211 19.738 23.6458 19.5245 23.7711C19.5254 23.7685 19.5264 23.7658 19.5273 23.7632C18.0455 24.6612 16.8509 26.8997 16.8509 26.8997L16.826 26.8885C16.8249 26.8922 16.8238 26.896 16.8228 26.8997C16.5137 27.9882 16.4013 29.3838 16.4013 29.7466C16.4013 29.77 16.4016 29.792 16.4018 29.8126L16.4018 29.8126C16.4049 30.1113 16.405 30.1122 15.6427 29.7466C14.8885 29.396 14.0885 28.6721 13.541 28.1156C13.5374 28.1055 13.5353 28.0999 13.5353 28.0999C13.5353 28.0999 13.0645 27.8522 13.1403 25.9637C13.2382 25.2315 13.3351 24.3082 13.4339 23.3664C13.4778 22.9477 13.5222 22.5253 13.5671 22.1144C13.6348 23.0079 13.9888 23.8766 14.6873 24.4714C15.336 25.0256 16.0865 25.2465 16.7065 25.3238C16.834 25.1563 16.9838 24.9662 17.16 24.7506C18.1346 23.5572 19.7676 22.3457 20.3624 21.9219C20.6016 21.6177 20.7846 21.5129 20.7846 21.5129C19.088 22.4642 19.8964 19.7096 20.1734 18.7658C20.1809 18.7405 20.1879 18.7165 20.1945 18.6939C20.4755 17.717 17.8624 17.9682 16.5418 18.2752C16.1902 18.3495 15.8686 18.4317 15.5762 18.5382C15.7016 18.1968 15.7637 17.7879 15.727 17.2983C15.727 17.2983 15.4204 18.1329 14.764 18.9633C14.5345 19.135 14.3331 19.3469 14.1593 19.6145C14.062 19.7026 13.9601 19.7877 13.8532 19.8685C13.9139 19.4944 13.9763 19.1862 14.0411 18.973C14.4518 17.647 17.0203 14.364 17.4609 13.8067C19.3021 13.2805 21.7171 13 24.8026 13C27.7369 13 30.0328 13.2537 31.8014 13.7288ZM16.0719 26.2671C14.0719 26.3773 13.423 24.4435 13.423 24.4435C13.423 24.4435 13.8444 25.867 14.6874 26.3415H14.7155C15.1231 26.5082 15.5971 26.4869 16.0068 26.4077C16.0205 26.3725 16.041 26.3265 16.0719 26.2671ZM33.221 26.261C33.2483 26.3131 33.2678 26.3552 33.2817 26.3888C33.711 26.4826 34.2264 26.5208 34.6649 26.3415C35.7888 25.867 35.9574 24.4435 35.9574 24.4435C35.9574 24.4435 35.2896 26.4336 33.221 26.261ZM18.5087 17.1587C19.2392 17.0192 20.4474 16.9913 21.4027 17.2983C22.2322 17.5857 22.0287 18.3993 21.9015 18.9082C21.8433 19.1407 21.8011 19.3096 21.8804 19.3358C21.9501 19.3589 22.0263 19.2886 22.1472 19.177C22.4646 18.8838 23.0904 18.306 24.7183 18.3868C26.2377 18.4614 26.8555 18.934 27.1902 19.1901C27.3569 19.3176 27.4534 19.3915 27.5562 19.3358C27.6248 19.2986 27.6477 19.14 27.6791 18.9227C27.7889 18.162 28.0027 16.6812 30.6469 17.1587C30.6469 17.1587 27.0785 16.2098 27.2471 18.7776C27.2471 18.7776 25.1962 17.2148 22.3306 18.6098C22.3676 18.5783 23.0581 16.2161 18.5087 17.1587ZM30.956 17.1587C30.9889 17.1587 31.0122 17.1683 31.0315 17.1763C31.0451 17.1819 31.0567 17.1867 31.0684 17.1867C31.0965 17.1867 31.0403 17.1587 30.956 17.1587ZM24.8024 19.3645C27.0081 19.434 28.652 21.15 28.652 21.15C26.7132 19.8103 24.8026 19.8382 24.8307 19.8382C24.8257 19.8382 24.8203 19.8382 24.8144 19.8382L24.8138 19.8382C24.4887 19.8376 22.8563 19.8349 20.9532 21.15C20.9532 21.15 22.5692 19.434 24.8024 19.3645ZM24.8307 19.3637C24.8212 19.364 24.8118 19.3642 24.8024 19.3645L24.7937 19.3642C24.7873 19.3641 24.7809 19.3639 24.7745 19.3637H24.8307ZM24.7784 16.3225C25.8863 16.3716 26.7132 17.5216 26.7132 17.5216C25.7298 16.6005 24.8026 16.6284 24.8026 16.6284C24.8026 16.6284 23.8191 16.6005 22.8638 17.5216C22.8638 17.5216 23.9389 16.3716 24.7784 16.3225ZM24.7784 16.3225C24.7678 16.3221 24.7571 16.3217 24.7464 16.3214H24.8026C24.7945 16.3217 24.7865 16.3221 24.7784 16.3225Z" fill="#151515"/>
<path d="M16.9671 13.9582C16.4044 14.1433 15.9011 14.3538 15.4537 14.5886L16.9671 13.9582Z" fill="#151515"/>
<path d="M13.7581 15.8586L12.6953 18.4175C12.7509 17.7863 12.8627 17.2028 13.1701 16.6563C13.3334 16.3759 13.5287 16.1098 13.7581 15.8586Z" fill="#151515"/>
<path d="M13.8169 20.1019C13.7998 20.2156 13.7829 20.3341 13.7661 20.4567C13.782 20.4082 13.7987 20.3602 13.8163 20.3127C13.8478 20.2276 13.8808 20.1462 13.9153 20.0684C13.8817 20.0804 13.8488 20.0916 13.8169 20.1019Z" fill="#151515"/>
<path d="M35.5139 20.1463C35.4871 20.1388 35.4592 20.1307 35.4305 20.122C35.4572 20.1834 35.483 20.2469 35.5078 20.3127C35.5254 20.3602 35.5421 20.4083 35.558 20.4568C35.5434 20.35 35.5287 20.2463 35.5139 20.1463Z" fill="#151515"/>
<path d="M24.6306 23.8575C24.6306 23.8575 24.4339 26.5649 24.0405 27.0952L24.7711 26.9277L24.6306 23.8575Z" fill="white"/>
<path d="M24.8273 23.8575C24.8273 23.8575 25.024 26.5649 25.4173 27.0952L24.6868 26.9277L24.8273 23.8575Z" fill="white"/>
<path d="M24.6587 32.5378C23.591 32.5378 22.5514 32.2029 21.596 31.9517C21.3993 31.8959 21.2027 32.0354 21.006 31.9796C19.2358 31.4214 17.8028 30.4724 16.9318 29.2722V29.5514C16.9318 35.4127 19.011 33.7659 20.3878 34.4637C21.7927 35.1615 23.2538 34.9382 24.743 34.9382H24.7711C26.2884 34.9382 27.7213 35.1336 29.1262 34.4358C30.503 33.738 32.5823 35.4406 32.5823 29.5793C32.5823 29.356 32.5823 29.1327 32.6104 28.9373C31.7955 30.2491 30.3063 31.2818 28.4519 31.8959C28.2833 31.9517 27.8899 31.8121 27.7213 31.8401C26.7098 32.175 25.8107 32.5378 24.6587 32.5378Z" fill="white"/>
<path d="M21.9894 29.3839C21.9894 29.3839 21.287 31.4772 21.7646 32.3983L21.1184 32.1192C21.1184 32.1192 21.596 29.9979 21.9894 29.3839ZM27.5528 29.3839C27.5528 29.3839 28.2552 31.4772 27.7775 32.3983L28.4238 32.1192C28.4238 32.1192 27.918 29.9979 27.5528 29.3839Z" fill="white"/>
<path d="M34.4367 15.4005C34.4367 15.4005 38.2861 20.2849 38.2299 26.3695L39.7753 23.2435C39.7472 23.2435 38.3985 19.2522 34.4367 15.4005Z" fill="white"/>
<path d="M14.7402 15.4005C14.7402 15.4005 10.8908 20.2849 10.947 26.3695L9.42969 23.2435C9.42969 23.2435 10.7784 19.2522 14.7402 15.4005Z" fill="white"/>
<path d="M21.8489 25.5601C21.9731 25.5601 22.0737 25.4601 22.0737 25.3368C22.0737 25.2135 21.9731 25.1135 21.8489 25.1135C21.7248 25.1135 21.6241 25.2135 21.6241 25.3368C21.6241 25.4601 21.7248 25.5601 21.8489 25.5601Z" fill="white"/>
<path d="M20.5564 26.8998C20.6806 26.8998 20.7812 26.7998 20.7812 26.6765C20.7812 26.5532 20.6806 26.4532 20.5564 26.4532C20.4323 26.4532 20.3316 26.5532 20.3316 26.6765C20.3316 26.7998 20.4323 26.8998 20.5564 26.8998Z" fill="white"/>
<path d="M20.1349 25.5601C20.2591 25.5601 20.3597 25.4601 20.3597 25.3368C20.3597 25.2135 20.2591 25.1135 20.1349 25.1135C20.0108 25.1135 19.9102 25.2135 19.9102 25.3368C19.9102 25.4601 20.0108 25.5601 20.1349 25.5601Z" fill="white"/>
<path d="M27.328 25.5601C27.4521 25.5601 27.5528 25.4601 27.5528 25.3368C27.5528 25.2135 27.4521 25.1135 27.328 25.1135C27.2038 25.1135 27.1032 25.2135 27.1032 25.3368C27.1032 25.4601 27.2038 25.5601 27.328 25.5601Z" fill="white"/>
<path d="M28.6205 26.8998C28.7446 26.8998 28.8453 26.7998 28.8453 26.6765C28.8453 26.5532 28.7446 26.4532 28.6205 26.4532C28.4963 26.4532 28.3957 26.5532 28.3957 26.6765C28.3957 26.7998 28.4963 26.8998 28.6205 26.8998Z" fill="white"/>
<path d="M29.0419 25.5601C29.1661 25.5601 29.2667 25.4601 29.2667 25.3368C29.2667 25.2135 29.1661 25.1135 29.0419 25.1135C28.9178 25.1135 28.8172 25.2135 28.8172 25.3368C28.8172 25.4601 28.9178 25.5601 29.0419 25.5601Z" fill="white"/>
</svg>
