<svg width="49" height="48" viewBox="0 0 49 48" fill="none" xmlns="http://www.w3.org/2000/svg">
<g clip-path="url(#clip0)">
<rect x="0.117188" width="48" height="48" rx="24" fill="#F1F1F1"/>
<g clip-path="url(#clip1)">
<path d="M33.5431 32.8071C32.5961 32.7437 31.5042 32.577 30.6429 32.3265C30.4816 32.2795 29.8137 32.0329 29.6437 31.9547C26.6453 30.5598 24.5565 27.5149 24.5565 23.9823C24.5565 19.1371 28.4816 15.1904 33.3093 15.1904C38.0941 15.1904 41.9927 19.0698 42.0598 23.8602H45.2218C45.1548 17.3195 39.8384 12.0187 33.3093 12.0187C26.7412 12.0187 21.3952 17.3845 21.3952 23.9823C21.3952 28.5309 23.9423 32.4869 27.6718 34.508C28.3452 34.8657 29.3117 35.2344 29.6398 35.3354C30.703 35.6532 32.0077 35.8645 33.169 35.953C33.5634 35.9827 34.9406 35.9984 35.342 35.9999H57.1172V32.8368H35.3786C35.0895 32.8368 33.8261 32.8259 33.5431 32.8071ZM35.3786 27.8405C35.1487 27.8405 33.9461 27.8327 33.724 27.8139C33.3475 27.7818 32.8019 27.7255 32.4512 27.6448C32.0552 27.5384 31.6835 27.3975 31.5159 27.3051C30.3413 26.6672 29.5409 25.4195 29.5409 23.9823C29.5409 21.8916 31.2267 20.1961 33.3093 20.1961C35.3482 20.1961 37.0061 21.8251 37.0723 23.8602H40.1104C40.0465 20.1421 37.0287 17.1458 33.3093 17.1458C29.5487 17.1458 26.5004 20.2063 26.5004 23.9823C26.5004 26.6453 28.0202 28.945 30.2338 30.0714C30.5744 30.2717 31.215 30.4815 31.3974 30.5293C32.0225 30.6944 32.8619 30.8072 33.5431 30.8572C33.7949 30.8784 35.0279 30.8878 35.2882 30.8893V30.894H57.1164V27.8405H35.3786ZM19.4467 35.9882H16.2636V15.1975H11.6121V11.9999H19.4467V35.9882ZM8.11719 16.7951V19.8697H11.6121V35.9882H14.6705V16.7951H8.11719Z" fill="#151515"/>
</g>
</g>
<defs>
<clipPath id="clip0">
<rect x="0.117188" width="48" height="48" rx="24" fill="white"/>
</clipPath>
<clipPath id="clip1">
<rect width="49" height="24" fill="white" transform="translate(8.11719 12)"/>
</clipPath>
</defs>
</svg>
