<svg width="48" height="48" viewBox="0 0 48 48" fill="none" xmlns="http://www.w3.org/2000/svg">
<rect width="48" height="48" rx="24" fill="#DFDFDF"/>
<path opacity="0.5" d="M41 16L10 27.5C11.5 30.1667 17.2 34.4 28 30C38.8 25.6 41.1667 18.8333 41 16Z" fill="#151515"/>
<path opacity="0.5" d="M8.5 27.9999L10 27.4999C9.31292 25.2044 10.3134 22.9848 10.8328 22.0281L3.5 23.4999L8.5 27.9999Z" fill="#151515"/>
<path d="M8.5 28L10 27.5C10.887 29.1064 12.7573 30.3855 14.1575 30.9136L8 33.5L8.5 28Z" fill="#151515"/>
<path d="M20.998 14.5C31.798 10.5 38.8313 13.8334 40.998 16L9.99799 27.5C9.16466 24.8333 10.198 18.5 20.998 14.5Z" fill="#151515"/>
<path d="M27.0025 12.9999C25.0025 7.49992 20.0025 4.99992 22.0025 24.4999C24.0025 43.9999 28.002 31 28.002 30" stroke="#151515"/>
<path d="M21.721 13.8807C17.1284 10.2534 11.5608 10.7551 23.5131 26.2919C35.4654 41.8287 32.0338 28.6675 31.5081 27.8168" stroke="#151515"/>
</svg>
