<svg width="48" height="48" viewBox="0 0 48 48" fill="none" xmlns="http://www.w3.org/2000/svg">
<g clip-path="url(#clip0)">
<rect width="48" height="48" rx="24" fill="#DFDFDF"/>
<path d="M50.523 48.2025C51.687 49.0228 52.766 50.0116 53.6345 51.1422C53.7815 51.2856 53.9297 51.4224 54.0784 51.5598C54.2285 51.6984 54.3792 51.8376 54.5299 51.9846C54.6259 52.1241 54.6904 52.2826 54.7539 52.4387C54.8236 52.6102 54.8922 52.7788 55 52.9158V53C54.7415 52.9156 54.5623 52.7341 54.3869 52.5563C54.2767 52.4446 54.168 52.3345 54.0419 52.2507C53.7493 52.0575 53.4558 51.8476 53.1631 51.6383C52.7973 51.3768 52.4326 51.116 52.072 50.8895C51.4898 50.5322 50.861 50.2498 50.2301 49.9666C49.624 49.6945 49.016 49.4215 48.4457 49.0804C47.7876 48.6725 47.1608 48.2114 46.534 47.7325C45.9609 47.3202 45.3431 46.5398 44.985 45.959C44.8962 45.8225 44.8385 45.6765 44.783 45.536C44.7069 45.3434 44.6349 45.1612 44.4925 45.0279C44.5395 44.6126 44.9534 44.5085 45.3463 44.4096C45.4778 44.3765 45.6069 44.3441 45.7192 44.3007C47.2727 43.6533 49.1307 43.4183 51.5259 43.4804C51.4561 43.0242 50.5347 42.4817 49.8986 42.1072C49.7187 42.0012 49.5616 41.9088 49.453 41.8354C49.4019 41.8001 49.3507 41.7646 49.2994 41.7291C48.3799 41.0922 47.4287 40.4333 46.4534 39.8579C46.1256 39.6631 45.6527 39.498 45.1986 39.3395C44.9085 39.2382 44.6261 39.1396 44.394 39.0377C44.1542 38.9427 43.8265 38.8477 43.4725 38.7451C42.6369 38.5029 41.6552 38.2184 41.3407 37.7917C40.5133 36.7481 39.9358 35.4797 39.3609 34.2172C39.3105 34.1065 39.2602 33.9959 39.2096 33.8855C38.9338 33.2832 38.6317 32.6693 38.327 32.0498C37.9295 31.2418 37.5274 30.4244 37.1726 29.6112C37.0303 29.3082 36.9203 29.0203 36.8119 28.7365C36.6712 28.3684 36.5332 28.0073 36.3309 27.6292C34.1417 23.5323 30.9183 20.1005 26.9964 17.6796C25.7115 16.8948 24.2789 16.172 22.6895 15.6755C22.2088 15.5374 21.6752 15.5143 21.1358 15.491C20.6704 15.4709 20.2008 15.4507 19.7571 15.3562H19.1303C18.77 15.2581 18.448 14.9785 18.148 14.718C18.0007 14.5901 17.8587 14.4668 17.7201 14.3719C16.7933 13.76 15.8621 13.3521 14.7563 12.9176C14.3668 12.7446 13.261 12.3323 12.867 12.6471C12.6342 12.7092 12.5089 12.8023 12.4462 13.0373C12.2089 13.3831 12.4193 13.9108 12.5671 14.23C12.8653 14.8442 13.2395 15.2924 13.6229 15.7517C13.8208 15.9887 14.021 16.2286 14.2146 16.4957C14.2923 16.6011 14.3727 16.7086 14.4545 16.818C14.9096 17.427 15.4063 18.0914 15.7099 18.7304C16.1267 19.6011 16.4231 20.5226 16.7183 21.4406C16.9747 22.2381 17.2304 23.033 17.5634 23.7895C17.832 24.4058 18.2484 25.1063 18.6379 25.6473C18.7625 25.8181 18.9256 25.9695 19.0901 26.1223C19.3568 26.3701 19.6274 26.6213 19.7437 26.9642C20.0358 27.4415 19.494 28.8097 19.1701 29.6276C19.0969 29.8125 19.0348 29.9692 18.996 30.0812C18.2215 32.4666 18.3692 35.7876 19.2646 37.8538C19.2982 37.9298 19.3314 38.0071 19.3649 38.085C19.6895 38.8397 20.0393 39.653 20.9077 39.8579C20.934 39.8299 20.9365 39.8209 20.9425 39.8165C20.9498 39.8112 20.9623 39.8129 21.0286 39.7959C21.0749 39.4499 21.1139 39.107 21.1524 38.7694C21.2923 37.5407 21.4242 36.3817 21.8702 35.3974C22.0843 34.8835 22.4403 34.4685 22.7864 34.0651C22.9688 33.8525 23.1484 33.6432 23.3029 33.4243C23.4931 33.5368 23.5627 33.7884 23.6339 34.0457C23.6749 34.194 23.7164 34.3442 23.7819 34.4707C23.8386 34.6002 23.8956 34.7314 23.9532 34.8639C24.296 35.6525 24.6586 36.4865 25.0802 37.2685C26.0652 39.1308 27.171 40.9309 28.4246 42.5715C28.8499 43.1523 29.4543 43.7908 29.9915 44.314C30.0775 44.3881 30.1653 44.4511 30.2513 44.5128C30.4069 44.6244 30.557 44.732 30.681 44.8948H30.7481V44.9835C30.1824 44.779 29.7471 44.3427 29.3227 43.9171C29.0753 43.6691 28.8316 43.4248 28.5678 43.2321C27.2203 42.2434 25.6085 40.7624 24.6863 39.3347C24.4097 38.7455 24.1146 38.1791 23.8144 37.6028C23.6966 37.3768 23.5781 37.1493 23.4596 36.9183V36.8517C23.3414 37.0031 23.3234 37.1526 23.3017 37.3334C23.2897 37.4333 23.2766 37.5429 23.2447 37.6676C23.1355 38.0812 23.0811 38.5105 23.0284 38.9253C22.8955 39.9733 22.7743 40.9285 21.812 41.3034C20.2854 41.9153 19.1438 40.3146 18.6647 39.5919C17.1425 37.1666 16.7217 33.0918 17.7962 29.7974C17.8811 29.5434 17.9396 29.2725 17.9979 29.0021C18.1055 28.503 18.2127 28.0057 18.4856 27.6204C18.4226 27.2696 18.2166 27.0882 18.0149 26.9105C17.9158 26.8232 17.8176 26.7368 17.738 26.6316C17.3171 26.0862 16.959 25.4433 16.6322 24.8359C16.1455 23.903 15.7642 22.8365 15.3958 21.8064C15.2898 21.5098 15.1848 21.2162 15.0786 20.9296C14.9754 20.6708 14.9088 20.4141 14.8429 20.16C14.7745 19.8962 14.7068 19.6352 14.5996 19.3778C14.3023 18.7557 13.8043 18.1244 13.3492 17.5474C13.2561 17.4294 13.1648 17.3136 13.0774 17.2007C12.9622 17.0416 12.8108 16.8576 12.6423 16.6526C11.7961 15.6236 10.5161 14.067 11.1881 12.4919C12.4417 9.49903 16.8471 11.7603 18.5483 12.8067C18.7159 12.9126 18.892 13.0643 19.0743 13.2213C19.3499 13.4586 19.6398 13.7082 19.9362 13.8309C20.3469 13.8481 20.759 13.872 21.1717 13.896C21.5057 13.9154 21.8402 13.9348 22.1747 13.9507C22.317 13.9835 22.4585 14.0158 22.5991 14.0478C23.8429 14.331 25.0135 14.5976 26.007 15.1434C31.1511 18.0742 34.4954 21.0759 37.5845 26.0242C38.0042 26.6915 38.2891 27.3948 38.5799 28.1124C38.745 28.5201 38.912 28.9323 39.1067 29.3452C39.8543 31.0345 40.696 32.808 41.5556 34.4087C41.6513 34.5993 41.7427 34.7955 41.8345 34.9925C42.1079 35.5792 42.3846 36.1731 42.7868 36.6478C42.9248 36.844 43.2401 36.9485 43.5408 37.0482C43.6885 37.0972 43.8328 37.1451 43.9508 37.202C44.3427 37.3988 44.7663 37.576 45.1934 37.7547C45.8444 38.0271 46.5035 38.3029 47.0712 38.6563C48.8038 39.7072 50.4917 40.9531 52.0138 42.2389C52.3123 42.5012 52.5668 42.8275 52.8218 43.1545C53.0411 43.4357 53.2608 43.7174 53.5092 43.9593V44.2209C53.0301 44.3672 52.5511 44.5135 52.0765 44.6288C51.5574 44.7557 51.0678 44.8059 50.5828 44.8557C50.0848 44.9068 49.5918 44.9574 49.0769 45.0899C49.0145 45.1072 48.9505 45.125 48.8853 45.1431C48.2962 45.3071 47.606 45.4992 47.0175 45.5511L47.0757 45.6131C47.3702 46.4085 48.615 47.1072 49.6251 47.6742C49.9665 47.8658 50.281 48.0424 50.523 48.2025Z" fill="#4D4D4D"/>
<path d="M19.773 18.3308C20.1357 18.251 20.4849 18.1889 20.9997 18.1889L21.0087 18.1801C21.103 18.27 21.219 18.3464 21.3361 18.4235C21.5194 18.5442 21.7053 18.6666 21.8146 18.8452C21.8839 18.9361 21.9273 19.0279 21.9708 19.1203C22.0229 19.2306 22.0752 19.3416 22.1727 19.4526C22.1727 20.1532 21.9668 20.6143 21.5459 20.9025L21.4833 20.969C21.3589 20.7318 21.244 20.4933 21.1288 20.2544C21.0201 20.0288 20.9112 19.8028 20.7938 19.5768C20.6777 19.4229 20.546 19.2794 20.4141 19.1356C20.2 18.9023 19.9853 18.6683 19.8357 18.3885H19.773V18.3308Z" fill="#4D4D4D"/>
</g>
<defs>
<clipPath id="clip0">
<rect width="48" height="48" rx="24" fill="white"/>
</clipPath>
</defs>
</svg>
