<svg width="48" height="48" viewBox="0 0 48 48" fill="none" xmlns="http://www.w3.org/2000/svg">
<rect width="48" height="48" rx="24" fill="#DFDFDF"/>
<path fill-rule="evenodd" clip-rule="evenodd" d="M10 23.9994C10 29.5403 13.22 34.3292 17.8902 36.5977L11.2122 18.3017C10.4117 20.0945 9.9986 22.036 10 23.9994ZM33.4512 23.293C33.4512 21.5624 32.8287 20.3648 32.2967 19.4327C31.5868 18.2778 30.9212 17.3019 30.9212 16.1487C30.9212 14.8613 31.8966 13.6638 33.2721 13.6638C33.3345 13.6638 33.3934 13.6714 33.4535 13.6755C30.8753 11.3073 27.5008 9.99533 24 10C19.1082 10 14.8061 12.5094 12.3024 16.3097C12.6314 16.3202 12.9412 16.326 13.2037 16.326C14.6678 16.326 16.9347 16.1487 16.9347 16.1487C17.6889 16.1038 17.7782 17.2132 17.0239 17.3019C17.0239 17.3019 16.2656 17.3911 15.4221 17.436L20.5198 32.5991L23.5841 23.4109L21.4036 17.4355C20.6493 17.3911 19.9342 17.3013 19.9342 17.3013C19.1799 17.257 19.2686 16.1038 20.0234 16.1487C20.0234 16.1487 22.3352 16.326 23.7113 16.326C25.1754 16.326 27.4423 16.1487 27.4423 16.1487C28.1971 16.1038 28.2857 17.2132 27.5315 17.3019C27.5315 17.3019 26.772 17.3911 25.9291 17.436L30.9883 32.4836L32.386 27.8183C32.9898 25.8812 33.4512 24.4906 33.4512 23.293ZM36.285 17.2826C36.3451 17.7288 36.3795 18.2066 36.3795 18.7222C36.3795 20.142 36.1135 21.7391 35.3143 23.7369L31.0385 36.0996C35.2 33.673 38 29.1634 38 23.9994C38 21.5653 37.3776 19.2769 36.285 17.2826ZM24.245 25.2244L20.0438 37.4295C21.2986 37.7987 22.6251 38 23.9988 38C25.6292 38 27.1932 37.7183 28.648 37.2067C28.6098 37.1453 28.5766 37.081 28.5488 37.0142L24.245 25.2244Z" fill="#4D4D4D"/>
</svg>
