<svg width="48" height="48" viewBox="0 0 48 48" fill="none" xmlns="http://www.w3.org/2000/svg">
<g clip-path="url(#clip0)">
<rect width="48" height="48" rx="24" fill="#DFDFDF"/>
<g clip-path="url(#clip1)">
<path d="M33.4259 32.8071C32.479 32.7437 31.387 32.577 30.5258 32.3265C30.3644 32.2796 29.6965 32.033 29.5266 31.9547C26.5282 30.5599 24.4393 27.515 24.4393 23.9824C24.4393 19.1371 28.3645 15.1905 33.1921 15.1905C37.9769 15.1905 41.8755 19.0698 41.9426 23.8603H45.1046C45.0376 17.3196 39.7212 12.0188 33.1921 12.0188C26.624 12.0188 21.278 17.3846 21.278 23.9824C21.278 28.531 23.8252 32.487 27.5546 34.5081C28.2281 34.8658 29.1945 35.2345 29.5227 35.3354C30.5858 35.6532 31.8905 35.8646 33.0518 35.953C33.4462 35.9828 34.8234 35.9984 35.2248 36H57V32.8369H35.2615C34.9723 32.8369 33.7089 32.8259 33.4259 32.8071ZM35.2615 27.8406C35.0315 27.8406 33.8289 27.8328 33.6068 27.814C33.2303 27.7819 32.6847 27.7255 32.334 27.6449C31.938 27.5384 31.5663 27.3975 31.3987 27.3052C30.2241 26.6672 29.4237 25.4195 29.4237 23.9824C29.4237 21.8917 31.1095 20.1962 33.1921 20.1962C35.2311 20.1962 36.8889 21.8251 36.9551 23.8603H39.9933C39.9293 20.1422 36.9115 17.1458 33.1921 17.1458C29.4315 17.1458 26.3832 20.2064 26.3832 23.9824C26.3832 26.6453 27.903 28.945 30.1166 30.0714C30.4572 30.2718 31.0978 30.4816 31.2802 30.5293C31.9053 30.6945 32.7447 30.8072 33.4259 30.8573C33.6777 30.8784 34.9107 30.8878 35.171 30.8894V30.8941H56.9992V27.8406H35.2615ZM19.3295 35.9883H16.1464V15.1975H11.4949V12H19.3295V35.9883ZM8 16.7951V19.8698H11.4949V35.9883H14.5533V16.7951H8Z" fill="#4D4D4D"/>
</g>
</g>
<defs>
<clipPath id="clip0">
<rect width="48" height="48" rx="24" fill="white"/>
</clipPath>
<clipPath id="clip1">
<rect width="49" height="24" fill="white" transform="translate(8 12)"/>
</clipPath>
</defs>
</svg>
