<svg width="48" height="48" viewBox="0 0 48 48" fill="none" xmlns="http://www.w3.org/2000/svg">
<rect width="48" height="48" rx="24" fill="#DFDFDF"/>
<path d="M17.203 27.8998L15.773 24.9628C16.675 24.5448 17.093 23.6758 17.093 22.5978C17.093 21.2668 16.466 20.2438 15.047 20.0238C14.838 19.9908 14.541 19.9798 14.387 19.9798H11.043V27.8998H12.539V25.2158H14.211L15.509 27.8998H17.203ZM12.539 21.3768H14.321C14.475 21.3768 14.673 21.3878 14.827 21.4318C15.432 21.5968 15.586 22.1688 15.586 22.5978C15.586 23.0268 15.432 23.5988 14.827 23.7638C14.673 23.8078 14.475 23.8188 14.321 23.8188H12.539V21.3768Z" fill="#4D4D4D"/>
<path d="M18.1921 27.8998H23.3621V26.5028H19.6881V24.4678H22.7021V23.0708H19.6881V21.3768H23.3621V19.9798H18.1921V27.8998Z" fill="#4D4D4D"/>
<path d="M27.4524 28.0648C29.0694 28.0648 30.6314 27.2508 30.6314 25.5458C30.6314 23.9508 29.2564 23.5548 28.4424 23.3348L27.0674 22.9608C26.5614 22.8288 26.0114 22.6308 26.0114 22.1138C26.0114 21.5528 26.6714 21.2008 27.3754 21.2228C28.0904 21.2448 28.7724 21.6518 28.9484 22.4218L30.5654 22.1468C30.1804 20.6618 29.0364 19.8478 27.3974 19.8258C25.7694 19.8148 24.4384 20.5958 24.4384 22.1908C24.4384 23.6978 25.6154 24.0828 26.2314 24.2588L28.2884 24.8638C28.9044 25.0508 29.0584 25.3368 29.0584 25.6558C29.0584 26.3158 28.2884 26.6678 27.5514 26.6678C26.6714 26.6678 25.9124 26.1618 25.6924 25.2488L24.1304 25.4798C24.3724 27.0858 25.6924 28.0648 27.4524 28.0648Z" fill="#4D4D4D"/>
<path d="M33.4573 27.8998H34.9533V21.3768H37.4503V19.9798H30.9603V21.3768H33.4573V27.8998Z" fill="#4D4D4D"/>
<g opacity="0.5">
<path d="M7.29075 30.21H8.07175V28.813H7.40075C7.22475 28.813 7.08175 28.67 7.08175 28.483V25.381C7.08175 25.029 6.97175 24.688 6.76275 24.391L6.55375 24.105L6.76275 23.819C6.97175 23.522 7.08175 23.181 7.08175 22.829V19.727C7.08175 19.551 7.22475 19.408 7.40075 19.408H8.07175V18H7.29075C6.27875 18 5.67375 18.616 5.67375 19.617V22.829C5.67375 22.895 5.65175 22.95 5.61875 23.005L5.12375 23.709C4.95875 23.951 4.95875 24.259 5.12375 24.501L5.61875 25.205C5.65175 25.249 5.67375 25.315 5.67375 25.381V28.593C5.67375 29.605 6.27875 30.21 7.29075 30.21Z" fill="#4D4D4D"/>
<path d="M40.215 30.21C41.227 30.21 41.832 29.605 41.832 28.593V25.381C41.832 25.315 41.854 25.249 41.887 25.205L42.382 24.501C42.547 24.259 42.547 23.951 42.382 23.709L41.887 23.005C41.854 22.95 41.832 22.895 41.832 22.829V19.617C41.832 18.616 41.227 18 40.215 18H39.434V19.408H40.105C40.281 19.408 40.424 19.551 40.424 19.727V22.829C40.424 23.181 40.534 23.522 40.743 23.819L40.952 24.105L40.743 24.391C40.534 24.688 40.424 25.029 40.424 25.381V28.483C40.424 28.67 40.281 28.813 40.105 28.813H39.434V30.21H40.215Z" fill="#4D4D4D"/>
</g>
</svg>
