<svg width="48" height="48" viewBox="0 0 48 48" fill="none" xmlns="http://www.w3.org/2000/svg">
<rect width="48" height="48" rx="24" fill="#DFDFDF"/>
<path d="M29.9803 20.5803L29.804 20.4868C29.8968 20.7046 29.927 20.8904 29.9238 21.0565C29.9568 20.922 29.9787 20.7833 29.9815 20.6391C29.9835 20.8183 29.9612 20.9867 29.9179 21.1433L29.9238 21.0563C29.8728 21.2646 29.7877 21.4576 29.6739 21.6344L29.7286 21.5779C29.0586 22.667 27.2309 22.9049 26.3295 21.7801C24.8826 19.9744 26.3593 18.0277 26.5661 16.1155C26.8246 13.719 25.2779 11.3924 23.3599 10C24.4162 11.6602 23.0245 13.8569 21.9109 15.0845C20.8311 16.2753 19.5182 17.2692 18.3262 18.3504C17.0461 19.5127 15.8146 20.7358 14.7627 22.0992C12.6577 24.8279 11.3688 28.2599 12.316 31.6646C13.2623 35.0672 16.2957 37.233 19.7213 37.9986C17.9931 37.2727 16.3759 35.4284 16.3722 33.5413C16.3678 31.4834 17.7098 29.7366 19.3793 28.5888C19.1785 29.3253 19.069 29.999 19.5661 30.6578C20.0285 31.2705 20.8381 31.5679 21.6022 31.4063C23.3885 31.0268 23.4702 29.1192 22.4115 28.0077C21.3645 26.9076 20.3517 25.6639 20.7499 24.0679C20.9495 23.2679 21.4552 22.5189 22.0961 21.9829C21.6034 23.2401 23.0026 24.4799 23.9242 25.0969C25.5237 26.1683 27.2777 26.9783 28.7483 28.234C30.2948 29.5538 31.4372 31.3383 31.2064 33.4084C30.9561 35.6519 29.1212 37.2124 27.0632 38C31.4123 37.0671 35.907 33.7876 35.9984 29.1011C36.075 25.246 33.3528 22.2789 29.9803 20.5803Z" fill="#4D4D4D"/>
</svg>
