<svg width="48" height="48" viewBox="0 0 48 48" fill="none" xmlns="http://www.w3.org/2000/svg">
<rect width="48" height="48" rx="24" fill="#DFDFDF"/>
<path d="M14.3291 25.3539L15.1001 21.1601C15.2944 21.1601 15.4829 21.1581 15.665 21.1561C17.4861 21.1367 18.6517 21.1243 18.2726 23.1985C17.8673 25.3938 16.5231 25.3769 14.8244 25.3576C14.6623 25.3558 14.4971 25.3539 14.3291 25.3539Z" fill="#4D4D4D"/>
<path d="M30.4631 25.3539L31.2341 21.1601C31.4294 21.1601 31.6189 21.1581 31.8017 21.1561C33.6287 21.1367 34.7843 21.1245 34.4066 23.1985C33.9999 25.405 32.6425 25.3835 30.9977 25.3591C30.8225 25.3566 30.644 25.3539 30.4631 25.3539Z" fill="#4D4D4D"/>
<path fill-rule="evenodd" clip-rule="evenodd" d="M6 24C6 18.4738 14.061 14 24 14C33.939 14 42 18.4738 42 24C42 29.5262 33.939 34 24 34C14.061 34 6 29.5262 6 24ZM13.5435 29.6015L14.0325 26.94C14.2909 26.94 14.5384 26.9422 14.776 26.9444C16.6646 26.9616 17.9278 26.973 19.107 25.8046C20.574 24.3785 20.958 21.84 19.911 20.5692C19.365 19.9046 18.4875 19.5769 17.295 19.5769H13.317L11.478 29.6015H13.5435ZM25.5631 24.7006C25.4485 25.3101 25.3104 26.044 25.1475 26.9308H27.2295C27.3809 26.1099 27.5182 25.3978 27.6378 24.7775C28.2289 21.7112 28.3884 20.8838 27.696 20.2108C27.008 19.5398 25.6828 19.5535 24.1869 19.5691C23.9576 19.5714 23.7242 19.5738 23.4885 19.5738L23.9775 16.9123H21.924L20.085 26.9292H22.137L23.1945 21.1892C23.4604 21.1892 23.7014 21.1874 23.9201 21.1858C25.0757 21.1772 25.6054 21.1733 25.8615 21.4631C26.1173 21.7542 26.0585 22.0666 25.5631 24.7006ZM30.857 26.9428C32.8648 26.9555 34.0727 26.9631 35.244 25.8062C36.711 24.38 37.095 21.8431 36.0495 20.5692C35.5035 19.9046 34.626 19.5769 33.4335 19.5769H29.457L27.612 29.6015H29.682L30.171 26.94C30.4098 26.94 30.6382 26.9414 30.857 26.9428Z" fill="#4D4D4D"/>
</svg>
