<svg width="64" height="64" viewBox="0 0 64 64" fill="none" xmlns="http://www.w3.org/2000/svg">
<path d="M52.6205 22.9761C52.6225 22.8591 52.625 22.7424 52.625 22.625C52.625 11.2524 43.3726 2 32 2C20.6274 2 11.375 11.2524 11.375 22.625C11.375 22.7424 11.3775 22.8593 11.3795 22.9761C4.63325 26.3846 0 33.3519 0 41.375C0 52.7476 9.30838 62 20.75 62C24.8976 62 28.7624 60.7682 32 58.653C35.2376 60.7682 39.1024 62 43.25 62C54.6916 62 64 52.7476 64 41.375C64 33.3519 59.3667 26.3846 52.6205 22.9761ZM32 53.9412C28.8069 51.0796 26.7074 47.0222 26.4121 42.4804C28.19 42.9814 30.0641 43.25 32 43.25C33.9359 43.25 35.81 42.9814 37.5879 42.4804C37.2926 47.0222 35.1931 51.0796 32 53.9412ZM32 39.5C30.1131 39.5 28.2976 39.1886 26.602 38.6146C27.2412 34.7463 29.2001 31.3179 32 28.8088C34.7999 31.3179 36.7587 34.7464 37.398 38.6146C35.7024 39.1886 33.8869 39.5 32 39.5ZM23.1029 36.9576C19.0584 34.4379 16.1531 30.2552 15.35 25.3731C17.0473 24.8073 18.8631 24.5 20.75 24.5C23.6968 24.5 26.4689 25.26 28.8824 26.5931C26.035 29.3614 23.9825 32.9423 23.1029 36.9576ZM35.1176 26.5931C37.5311 25.26 40.3032 24.5 43.25 24.5C45.1369 24.5 46.9528 24.8073 48.65 25.3731C47.8469 30.2552 44.9416 34.4379 40.8971 36.9576C40.0175 32.9423 37.965 29.3614 35.1176 26.5931ZM32 5.75C40.9304 5.75 48.2614 12.7232 48.8372 21.5104C47.0589 21.0155 45.1851 20.75 43.25 20.75C39.1024 20.75 35.2376 21.9818 32 24.097C28.7624 21.9818 24.8976 20.75 20.75 20.75C18.8149 20.75 16.9411 21.0155 15.1628 21.5104C15.7386 12.7232 23.0696 5.75 32 5.75ZM20.75 58.25C11.3761 58.25 3.75 50.6799 3.75 41.375C3.75 35.309 6.99163 29.9811 11.845 27.0064C13.1713 33.1126 17.2086 38.2195 22.6299 40.9959C22.6275 41.1221 22.625 41.2482 22.625 41.375C22.625 47.1665 25.0254 52.407 28.8824 56.1569C26.4689 57.49 23.6968 58.25 20.75 58.25ZM43.25 58.25C40.3032 58.25 37.5311 57.49 35.1176 56.1569C38.9746 52.407 41.375 47.1665 41.375 41.375C41.375 41.2482 41.3725 41.1221 41.3701 40.9959C46.7914 38.2195 50.8288 33.1126 52.155 27.0064C57.0084 29.9811 60.25 35.309 60.25 41.375C60.25 50.6799 52.6239 58.25 43.25 58.25Z" fill="#E15D13"/>
</svg>
