<svg width="64" height="64" viewBox="0 0 64 64" fill="none" xmlns="http://www.w3.org/2000/svg">
<path d="M32 0C14.3801 0 0 14.3813 0 32C0 49.6199 14.3813 64 32 64C49.6199 64 64 49.6189 64 32C64 14.3801 49.6189 0 32 0ZM32 60.25C16.4229 60.25 3.75 47.5771 3.75 32C3.75 16.4229 16.4229 3.75 32 3.75C47.5771 3.75 60.25 16.4229 60.25 32C60.25 47.5771 47.5771 60.25 32 60.25Z" fill="#E15D13"/>
<path d="M47 15.125C43.8984 15.125 41.375 17.6484 41.375 20.75C41.375 23.1944 42.9426 25.2785 45.125 26.0525V28.25C45.125 29.2839 44.2839 30.125 43.25 30.125H20.75C17.6484 30.125 15.125 32.6484 15.125 35.75V37.9475C12.9426 38.7215 11.375 40.8056 11.375 43.25C11.375 46.3516 13.8984 48.875 17 48.875C20.1016 48.875 22.625 46.3516 22.625 43.25C22.625 40.8056 21.0574 38.7215 18.875 37.9475V35.75C18.875 34.7161 19.7161 33.8737 20.75 33.8737H43.25C46.3516 33.8737 48.875 31.3516 48.875 28.25V26.0525C51.0574 25.2785 52.625 23.1944 52.625 20.75C52.625 17.6484 50.1016 15.125 47 15.125ZM17 45.125C15.9661 45.125 15.125 44.2839 15.125 43.25C15.125 42.2161 15.9661 41.375 17 41.375C18.0339 41.375 18.875 42.2161 18.875 43.25C18.875 44.2839 18.0339 45.125 17 45.125ZM47 22.625C45.9661 22.625 45.125 21.7839 45.125 20.75C45.125 19.7161 45.9661 18.875 47 18.875C48.0339 18.875 48.875 19.7161 48.875 20.75C48.875 21.7839 48.0339 22.625 47 22.625Z" fill="#E15D13"/>
<path d="M26.9243 18.3257C27.6564 19.0579 28.8437 19.0581 29.5759 18.3257L32.0001 15.9016L34.4243 18.3258C35.1564 19.0581 36.3437 19.0582 37.0759 18.3258C37.8082 17.5936 37.8082 16.4064 37.0759 15.6742L34.6517 13.2499L37.0759 10.8257C37.8082 10.0934 37.8082 8.90632 37.0759 8.17407C36.3438 7.44182 35.1566 7.44182 34.4243 8.17407L32.0001 10.5983L29.5758 8.17407C28.8437 7.44182 27.6564 7.44182 26.9242 8.17407C26.1919 8.90632 26.1919 10.0934 26.9242 10.8257L29.3484 13.2499L26.9242 15.6742C26.1921 16.4063 26.1921 17.5936 26.9243 18.3257Z" fill="#E15D13"/>
<path d="M11.9243 25.8257C12.6564 26.5579 13.8437 26.5581 14.5759 25.8257L17.0001 23.4016L19.4243 25.8258C20.1564 26.5581 21.3437 26.5582 22.0759 25.8258C22.8082 25.0936 22.8082 23.9064 22.0759 23.1742L19.6517 20.7499L22.0759 18.3257C22.8082 17.5934 22.8082 16.4063 22.0759 15.6741C21.3438 14.9418 20.1566 14.9418 19.4243 15.6741L17.0001 18.0983L14.5758 15.6741C13.8437 14.9418 12.6564 14.9418 11.9242 15.6741C11.1919 16.4063 11.1919 17.5934 11.9242 18.3257L14.3484 20.7499L11.9242 23.1742C11.1921 23.9063 11.1921 25.0936 11.9243 25.8257Z" fill="#E15D13"/>
<path d="M37.0758 45.6743C36.3437 44.9421 35.1564 44.9421 34.4242 45.6743L32.0001 48.0984L29.5758 45.6742C28.8437 44.9419 27.6564 44.9419 26.9242 45.6742C26.1919 46.4064 26.1919 47.5936 26.9242 48.3258L29.3484 50.7501L26.9242 53.1743C26.1919 53.9066 26.1919 55.0937 26.9242 55.8259C27.6563 56.5582 28.8436 56.5583 29.5758 55.8259L32.0001 53.4017L34.4243 55.8259C35.1564 56.5582 36.3437 56.5583 37.0759 55.8259C37.8082 55.0937 37.8082 53.9066 37.0759 53.1743L34.6517 50.7501L37.0759 48.3258C37.8082 47.5937 37.8082 46.4064 37.0758 45.6743Z" fill="#E15D13"/>
<path d="M52.0758 38.1743C51.3437 37.4421 50.1564 37.4421 49.4242 38.1743L47.0001 40.5984L44.5758 38.1742C43.8437 37.4419 42.6564 37.4419 41.9242 38.1742C41.1919 38.9064 41.1919 40.0936 41.9242 40.8258L44.3484 43.2501L41.9242 45.6743C41.1919 46.4066 41.1919 47.5937 41.9242 48.3259C42.6563 49.0582 43.8436 49.0583 44.5758 48.3259L47.0001 45.9017L49.4243 48.3259C50.1564 49.0582 51.3437 49.0583 52.0759 48.3259C52.8082 47.5937 52.8082 46.4066 52.0759 45.6743L49.6517 43.2501L52.0759 40.8258C52.8082 40.0937 52.8082 38.9064 52.0758 38.1743Z" fill="#E15D13"/>
</svg>
