<svg width="64" height="64" viewBox="0 0 64 64" fill="none" xmlns="http://www.w3.org/2000/svg">
<path d="M62.125 2H1.875C0.8395 2 0 2.8395 0 3.875V48.875C0 49.9105 0.8395 50.75 1.875 50.75H22.625V58.25H17C15.9645 58.25 15.125 59.0895 15.125 60.125C15.125 61.1605 15.9645 62 17 62H47C48.0355 62 48.875 61.1605 48.875 60.125C48.875 59.0895 48.0355 58.25 47 58.25H41.375V50.75H62.125C63.1605 50.75 64 49.9105 64 48.875V3.875C64 2.8395 63.1605 2 62.125 2ZM60.25 5.75V39.5H3.75V5.75H60.25ZM37.625 58.25H26.375V50.75H37.625V58.25ZM3.75 47V43.25H60.25V47H3.75Z" fill="#E15D13"/>
<path d="M27.4119 31.8021C28.3399 32.2661 29.4653 31.888 29.9275 30.9636L37.4275 15.9636C37.8906 15.0374 37.5151 13.9113 36.589 13.448C35.6629 12.9849 34.5366 13.3603 34.0734 14.2865L26.5734 29.2865C26.1103 30.2128 26.4856 31.3389 27.4119 31.8021Z" fill="#E15D13"/>
<path d="M19.4243 31.4507C20.1564 32.1829 21.3437 32.1831 22.0759 31.4507C22.8082 30.7184 22.8082 29.5313 22.0759 28.7991L15.9017 22.6249L22.0758 16.4507C22.8081 15.7184 22.8081 14.5313 22.0758 13.7991C21.3437 13.0668 20.1564 13.0668 19.4242 13.7991L11.9242 21.2991C11.1919 22.0313 11.1919 23.2184 11.9242 23.9507L19.4243 31.4507Z" fill="#E15D13"/>
<path d="M41.9242 31.4507C42.6563 32.1829 43.8436 32.1831 44.5758 31.4507L52.0758 23.9507C52.808 23.2184 52.808 22.0313 52.0758 21.2991L44.5758 13.7991C43.8437 13.0668 42.6564 13.0668 41.9242 13.7991C41.1919 14.5313 41.1919 15.7184 41.9242 16.4507L48.0983 22.6249L41.9242 28.7992C41.1919 29.5313 41.1919 30.7186 41.9242 31.4507Z" fill="#E15D13"/>
</svg>
