<svg width="100" height="18" viewBox="0 0 100 18" fill="none" xmlns="http://www.w3.org/2000/svg">
<path d="M15.1214 17.664V12.749H5.00733V17.664H0V0H20.1287V17.664H15.1214ZM5.00733 8.45052H15.1208V4.29912H5.00733V8.45052Z" fill="#151515"/>
<path d="M23.2891 4.29912V0H44.2299V4.29912H36.2692V17.664H31.2497V4.29912H23.2891Z" fill="#151515"/>
<path d="M47.3906 17.664V0H67.5194V17.664H47.3906ZM52.398 4.27471V13.4022H62.5114V4.27471H52.398Z" fill="#151515"/>
<path d="M87.3304 17.6951V11.2451L81.5123 17.1964L75.682 11.2451V17.6951H70.6758V0L81.5129 10.4666L92.3378 0V17.6958H87.3304V17.6951Z" fill="#151515"/>
<path d="M99.9992 3.78148H95.4961V0H99.9992V3.78148Z" fill="#151515"/>
</svg>
