<svg width="166" height="166" viewBox="0 0 166 166" fill="none" xmlns="http://www.w3.org/2000/svg">
<mask id="mask0" style="mask-type:alpha" maskUnits="userSpaceOnUse" x="0" y="0" width="166" height="166">
<path d="M166 83C166 128.84 128.84 166 83 166C37.1604 166 0 128.84 0 83C0 37.1604 37.1604 0 83 0C128.84 0 166 37.1604 166 83Z" fill="white"/>
</mask>
<g mask="url(#mask0)">
<path d="M166 83C166 128.84 128.84 166 83 166C37.1604 166 0 128.84 0 83C0 37.1604 37.1604 0 83 0C128.84 0 166 37.1604 166 83Z" fill="#F1F1F1"/>
<path d="M53.2681 47.0112C54.1498 37.3121 62.2691 33.0503 66.2186 32.1319L89.9149 28.5498C95.1502 29.7438 106.227 33.0687 108.652 36.8161C111.683 41.5003 109.754 57.2062 110.856 61.0638C113.281 59.9616 114.438 60.6046 114.714 61.0638C114.806 61.9823 114.659 65.748 113.336 73.4632C112.013 81.1784 109.662 80.5355 108.652 79.2496V83.9338L105.621 105.702L110.856 109.284L148.054 131.052L151.361 133.807L159.076 153.646C148.422 157.779 118.02 166.045 81.6486 166.045C45.277 166.045 14.3244 157.963 3.39453 153.922C3.48638 153.462 3.94562 151.772 5.04779 148.686C8.13386 134.799 14.4162 129.674 17.1717 128.847C29.7548 121.591 55.5272 106.804 57.9519 105.702C58.503 100.191 54.0943 80.6273 53.2681 79.2496C49.521 77.927 48.5837 67.4931 48.5835 62.4415L49.6857 59.9616L53.2681 61.0638C52.9007 60.4209 52.3863 56.7102 53.2681 47.0112Z" fill="white"/>
<path fill-rule="evenodd" clip-rule="evenodd" d="M59.8127 106.168C59.8127 106.168 66.8533 114.403 81.9768 116.951C97.1048 119.498 103.993 114.107 104.743 109.91C105.493 105.718 105.493 100.623 105.493 100.623C105.493 100.623 96.8082 108.711 84.075 108.562C71.3463 108.414 58.9141 100.174 58.9141 100.174L59.8127 106.163V106.168Z" fill="#B7B7B9"/>
<path fill-rule="evenodd" clip-rule="evenodd" d="M85.7247 54.9343C85.7247 54.9343 85.5809 56.6821 86.2369 57.6301C86.8928 58.5781 86.8928 58.5782 86.8928 58.5782L86.9647 57.1943L87.6926 58.1424C87.6926 58.1424 88.1284 57.5582 89.0046 57.0505C89.8807 56.5383 89.8807 56.5383 89.8807 56.5383L88.7125 58.2861C88.7125 58.2861 93.3763 58.4299 95.0522 58.4299C96.7281 58.4299 99.8597 57.5538 102.848 57.7739C105.835 57.9941 107.219 59.306 107.219 59.306C107.219 59.306 105.4 55.806 103.575 54.6423C101.756 53.4741 101.1 53.4741 101.1 53.4741L98.8398 54.5658L99.6395 53.2539L96.7236 54.2738V53.9099C96.7236 53.9099 94.0278 54.202 91.4038 54.4221C88.7799 54.6423 85.5 54.0582 85.5 54.0582L85.7202 54.9343H85.7247Z" fill="#151515"/>
<path fill-rule="evenodd" clip-rule="evenodd" d="M82.3727 87.7513C82.3727 87.7513 80.0408 87.6795 78.3649 87.2391C76.689 86.8033 75.741 87.675 73.8449 87.4593C71.9489 87.2391 71.0772 86.3675 70.7852 86.8752C70.4931 87.3874 71.1491 88.6948 73.0452 88.7712C74.9413 88.8431 77.1248 88.0434 77.7808 88.1153C78.4368 88.1871 79.4567 88.4792 80.7687 88.7712C82.0806 89.0633 82.4446 88.915 82.4446 88.915L82.3727 87.7468V87.7513Z" fill="#151515"/>
<path fill-rule="evenodd" clip-rule="evenodd" d="M78.6632 91.6872C78.6632 91.6872 81.2871 92.1994 83.9111 92.0512C86.535 91.9074 87.6268 91.3232 87.6268 91.3232C87.6268 91.3232 84.567 93.1429 82.1633 92.9273C79.7595 92.7071 78.0117 91.9074 78.0117 91.9074L78.6677 91.6872H78.6632Z" fill="#151515"/>
<path fill-rule="evenodd" clip-rule="evenodd" d="M82.2321 87.7513C82.2321 87.7513 84.564 87.6795 86.2399 87.2391C87.9158 86.8033 88.8638 87.675 90.7598 87.4593C92.6559 87.2391 93.5275 86.3675 93.8196 86.8752C94.1116 87.3874 93.4556 88.6948 91.5596 88.7712C89.6635 88.8431 87.4799 88.0434 86.8239 88.1153C86.1679 88.1871 85.1481 88.4792 83.8361 88.7712C82.5241 89.0633 82.1602 88.915 82.1602 88.915L82.2321 87.7468V87.7513Z" fill="#151515"/>
<path fill-rule="evenodd" clip-rule="evenodd" d="M53.8242 76.5785C53.8242 76.5785 53.8242 95.9839 58.3172 100.477C62.361 104.372 71.046 110.061 74.3439 111.561C77.6373 113.21 82.8492 112.532 82.8492 112.532V95.4043C82.8492 95.4043 79.1784 94.8562 77.79 94.4922C76.3433 94.1283 76.4152 95.6469 77.4665 96.6174C78.5179 97.5879 80.3915 98.6842 80.6251 99.5334C80.8588 100.383 81.5597 103.177 79.2188 103.177C76.8779 103.177 73.953 98.9268 71.9626 97.835C69.9722 96.7432 67.6313 94.4339 67.6313 91.3966C67.6313 88.3593 69.3881 85.933 72.313 84.958C75.238 83.9875 76.7611 82.6486 77.5788 83.1383C78.3966 83.6236 82.4313 84.657 82.7952 84.0504L82.7368 80.5279C80.041 80.2223 77.9697 78.8295 76.177 79.4944C74.4697 80.0426 72.313 81.3142 69.1544 82.2892C65.9958 83.2597 64.3559 84.1088 64.5895 86.297C64.8231 88.4851 65.0568 90.7899 62.015 90.3047C58.9732 89.8194 58.9148 87.2989 57.4186 83.7045C55.9225 80.11 54.7228 57.1956 54.0579 75.3654L53.8242 76.5785Z" fill="#151515"/>
<path fill-rule="evenodd" clip-rule="evenodd" d="M97.2695 30.0058C97.2696 30.0058 97.2698 30.0058 97.4584 29.3608C97.647 28.7157 97.6472 28.7158 97.6473 28.7158L97.6488 28.7163L97.652 28.7172L97.6624 28.7203C97.6711 28.7229 97.6833 28.7266 97.6988 28.7314C97.7298 28.741 97.7743 28.7549 97.8307 28.7733C97.9436 28.8101 98.1047 28.8646 98.3031 28.9374C98.6993 29.0827 99.2472 29.3017 99.8578 29.598C101.065 30.1835 102.58 31.1008 103.629 32.3979C104.058 32.9286 104.653 33.4329 105.382 34.0378C105.415 34.0658 105.449 34.0939 105.484 34.1222C106.172 34.693 106.952 35.339 107.703 36.1243C109.302 37.796 110.765 40.0878 111.24 43.7555C111.704 47.3249 111.633 52.1596 111.473 56.4154C111.421 57.8202 111.358 59.1719 111.301 60.3982C111.272 61.0321 111.244 61.6326 111.22 62.1895C111.148 63.845 111.111 65.09 111.154 65.7509L111.159 65.824C111.345 68.6751 111.699 74.0814 110.599 80.8414M110.599 80.8419L109.507 87.5809L109.507 87.5816L109.507 87.5822L109.507 87.5833C109.278 87.9861 108.844 88.1456 108.844 87.4735C108.844 86.8014 108.409 86.9609 108.181 87.3637L109.272 80.6265L109.272 80.6261C110.347 74.017 110.002 68.733 109.817 65.9043L109.813 65.8384C109.764 65.0885 109.806 63.7607 109.877 62.1314C109.901 61.5666 109.929 60.9622 109.959 60.3263C110.015 59.1039 110.078 57.7647 110.13 56.3651C110.29 52.1033 110.355 47.3726 109.907 43.9285L109.907 43.928C109.474 40.5822 108.161 38.5472 106.732 37.0535C106.035 36.3258 105.31 35.7241 104.612 35.1455C104.582 35.1211 104.553 35.0967 104.524 35.0724C103.815 34.4847 103.111 33.8961 102.583 33.2429C101.718 32.1721 100.41 31.3596 99.2711 30.8073C98.7091 30.5346 98.2039 30.3327 97.8403 30.1993C97.6587 30.1327 97.5132 30.0835 97.4144 30.0513C97.365 30.0352 97.3274 30.0234 97.3028 30.0159C97.2905 30.0121 97.2815 30.0093 97.2759 30.0077L97.2702 30.006L97.2695 30.0058" fill="#151515"/>
<path fill-rule="evenodd" clip-rule="evenodd" d="M67.0009 30.835C67.001 30.8349 67.0012 30.8349 67.1899 31.4799C67.3785 32.1249 67.3787 32.1249 67.3788 32.1249L67.378 32.1251L67.3719 32.1269C67.3661 32.1287 67.3566 32.1315 67.3438 32.1355C67.3181 32.1434 67.2788 32.1558 67.2272 32.1726C67.1241 32.2062 66.9723 32.2575 66.7829 32.327C66.4037 32.4661 65.8769 32.6768 65.2907 32.9612C64.1041 33.5371 62.7374 34.3855 61.8313 35.5056C61.2841 36.1837 60.554 36.795 59.8161 37.4074C59.7842 37.4339 59.7523 37.4603 59.7203 37.4869C58.995 38.0884 58.2396 38.715 57.5144 39.4727C56.0224 41.0316 54.6506 43.1555 54.1975 46.6451C53.7316 50.2331 53.7993 55.1605 53.9651 59.5974C54.0199 61.0628 54.0848 62.4648 54.1441 63.7433C54.1744 64.3976 54.2032 65.0196 54.2284 65.6012C54.3019 67.2983 54.3461 68.6788 54.2961 69.4576L54.2918 69.5243C54.1056 72.4201 53.7497 77.9556 56.8689 90.1267L55.5669 90.4604C52.3951 78.0842 52.7595 72.4106 52.9527 69.4028L52.9548 69.3714C52.9991 68.6809 52.9602 67.3825 52.8856 65.6594C52.8607 65.0855 52.8321 64.4674 52.8018 63.8151C52.7424 62.5327 52.6769 61.1183 52.6219 59.6476C52.4563 55.2164 52.3825 50.1851 52.8646 46.472C53.3595 42.6604 54.8813 40.28 56.5434 38.5433C57.3234 37.7282 58.1326 37.0573 58.8487 36.4634C58.8853 36.4331 58.9216 36.403 58.9577 36.373C59.7164 35.7435 60.3375 35.2165 60.7855 34.6613L60.786 34.6607C61.8748 33.3144 63.4486 32.3611 64.7039 31.752C65.3387 31.4439 65.9082 31.2162 66.32 31.0651C66.5261 30.9895 66.6935 30.9328 66.8107 30.8946C66.8694 30.8755 66.9155 30.861 66.9477 30.8511C66.9638 30.8461 66.9764 30.8423 66.9854 30.8396L66.9961 30.8364L66.9994 30.8354L67.0009 30.835Z" fill="#151515"/>
<path fill-rule="evenodd" clip-rule="evenodd" d="M111.33 52.0278C111.33 52.0278 113.352 37.2008 111.106 30.6859C108.635 24.171 101.918 21.4033 101.918 21.4033L101.823 22.8276C101.823 22.8276 99.8328 19.6015 95.7531 17.0405C91.6735 14.4795 90.3481 14.1965 90.3481 14.1965L92.626 16.6632C92.626 16.6632 89.7819 14.6728 86.7446 13.5315C83.7119 12.3948 82.2875 12.8666 82.2875 12.8666L84.1836 14.2908C84.1836 14.2908 80.7689 13.8146 75.1751 13.8146C69.5813 13.8146 68.7276 14.3852 68.7276 14.3852L71.0999 15.0501C71.0999 15.0501 67.4965 14.1964 61.997 18.2761C56.4976 22.3558 51.5777 28.664 52.027 36.9761C52.701 45.7375 51.1284 50.2305 52.4763 50.2305C52.4763 50.2305 52.8942 42.3632 57.3513 38.2836C61.8083 34.2039 63.8931 32.5954 66.7417 32.8784C69.5858 33.1615 72.0524 32.9729 77.5519 34.1096C83.0513 35.2464 88.8384 33.6333 88.8384 33.6333L87.8903 31.1667L90.357 32.9684C90.357 32.9684 92.2531 33.6334 95.0972 32.3034C97.9413 30.9735 103.346 34.5813 103.346 34.5813C103.346 34.5813 108.415 38.7688 109.313 41.0154C110.436 43.4865 108.864 52.4726 111.335 52.0233L111.33 52.0278Z" fill="#151515"/>
<path fill-rule="evenodd" clip-rule="evenodd" d="M76.9833 61.823C76.9833 61.823 74.1392 59.6349 71.6636 59.1272C69.1879 58.615 64.96 60.6593 63.2122 61.459C61.4644 62.2588 61.8283 62.6991 61.8283 62.6991C61.8283 62.6991 63.9401 62.479 64.6724 62.6273C65.4003 62.7711 66.7841 62.9911 66.7841 62.9911L65.0364 61.9712C65.0364 61.9712 69.9562 59.7832 71.2323 60.2415C72.4184 60.6054 75.3883 61.6792 75.3883 61.6792L74.3684 62.3352L76.9923 61.823H76.9833Z" fill="#151515"/>
<path fill-rule="evenodd" clip-rule="evenodd" d="M80.0415 53.4802C80.0415 53.4802 80.1853 55.228 79.5293 56.176C78.8733 57.124 78.8733 57.1241 78.8733 57.1241L78.8014 55.7402L78.0735 56.6883C78.0735 56.6883 77.6378 56.1041 76.7616 55.5964C75.8855 55.0842 75.8854 55.0842 75.8854 55.0842L77.0536 56.832C77.0536 56.832 72.3899 56.9758 70.714 56.9758C69.0381 56.9758 65.9064 56.0997 62.9186 56.3198C59.9307 56.54 58.5469 57.8519 58.5469 57.8519C58.5469 57.8519 60.3665 54.3519 62.1907 53.1882C64.0104 52.02 64.6664 52.02 64.6664 52.02L66.9264 53.1117L66.1266 51.7998L69.0426 52.8197V52.4558C69.0426 52.4558 71.7384 52.7479 74.3623 52.968C76.9862 53.1882 80.2661 52.6041 80.2661 52.6041L80.046 53.4802H80.0415Z" fill="#151515"/>
<path fill-rule="evenodd" clip-rule="evenodd" d="M94.3962 30.3273C94.3962 30.3273 91.7004 29.8151 88.7126 26.5397C85.7247 23.2598 85.1406 20.1281 83.1008 17.8681C81.0609 15.6081 78.9492 14.6602 78.9492 14.6602C78.9492 14.6602 83.5411 15.096 86.7446 20.9279C89.9526 26.7599 91.1882 27.6315 92.4283 28.6514C93.6684 29.6713 94.3962 30.3273 94.3962 30.3273Z" fill="#B7B7B9"/>
<path fill-rule="evenodd" clip-rule="evenodd" d="M95.786 26.9027C95.786 26.9027 95.0582 21.803 92.8701 18.8871C90.682 15.9711 88.0625 14.9512 88.0625 14.9512C88.0625 14.9512 91.4143 17.355 93.2385 21.0707C95.0581 24.7865 95.7905 26.9027 95.7905 26.9027H95.786Z" fill="#B7B7B9"/>
<path fill-rule="evenodd" clip-rule="evenodd" d="M86.9674 31.2744C86.9674 31.2744 82.4474 27.6305 80.3356 23.6227C78.2239 19.6149 76.3998 17.283 74.944 16.2631C73.4883 15.2432 73.4883 15.2432 73.4883 15.2432C73.4883 15.2432 77.9319 16.4833 79.9762 20.4911C82.016 24.4989 82.1643 25.0829 83.9121 27.4148C85.6599 29.7467 85.6599 29.7467 85.6599 29.7467L86.9719 31.2789L86.9674 31.2744Z" fill="#B7B7B9"/>
<path fill-rule="evenodd" clip-rule="evenodd" d="M80.2618 32.2223C80.2618 32.2223 78.2219 31.2743 76.1102 27.3384C73.9985 23.4025 74.2142 21.9467 72.0306 19.9069C69.8425 17.8671 68.3867 17.7188 68.3867 17.7188C68.3867 17.7188 72.7584 18.0109 75.3104 20.8505C77.8625 23.6946 79.3901 27.4822 80.4864 28.7941C81.5782 30.1061 83.3305 31.3461 83.3305 31.3461C83.3305 31.3461 81.0705 30.6901 79.6866 28.7222C78.3028 26.7542 75.1667 22.5264 75.1667 22.5264C75.1667 22.5264 76.6988 26.8262 77.8625 28.9379C79.0307 31.0497 80.2663 32.2178 80.2663 32.2178L80.2618 32.2223Z" fill="#B7B7B9"/>
<path fill-rule="evenodd" clip-rule="evenodd" d="M71.0086 29.6704C71.0086 29.6704 67.3648 25.0785 64.961 24.4226C62.5573 23.7666 61.4609 23.7666 61.4609 23.7666C61.4609 23.7666 64.7409 24.4225 67.6568 26.9746C70.5728 29.5266 70.3527 29.6704 70.3527 29.6704H71.0086Z" fill="#B7B7B9"/>
<path fill-rule="evenodd" clip-rule="evenodd" d="M67.5814 29.5256C67.5814 29.5256 65.9056 28.2856 64.7374 28.1418C63.5692 27.9981 62.2617 28.2855 62.2617 28.2855L65.4697 28.8696L67.5814 29.5256Z" fill="#B7B7B9"/>
<path fill-rule="evenodd" clip-rule="evenodd" d="M69.9537 63.2424C68.7451 63.2424 67.7656 62.263 67.7656 61.0544C67.7656 59.8458 68.8574 59.7783 70.1335 59.7783C71.3196 59.7783 72.1373 59.8458 72.1373 61.0544C72.1373 62.263 71.1579 63.2424 69.9492 63.2424H69.9537Z" fill="#151515"/>
<path fill-rule="evenodd" clip-rule="evenodd" d="M88.0592 62.1863C88.0592 62.1863 90.9033 59.9982 93.379 59.4905C95.8546 58.9783 100.083 61.0226 101.83 61.8223C103.578 62.6221 103.214 63.0624 103.214 63.0624C103.214 63.0624 101.102 62.8422 100.37 62.9904C99.6422 63.1342 98.2584 63.3544 98.2584 63.3544L100.006 62.3345C100.006 62.3345 95.0863 60.1464 93.8103 60.6047C92.6241 60.9687 89.6587 62.0425 89.6587 62.0425L90.6787 62.6984L88.0547 62.1863H88.0592Z" fill="#151515"/>
<path fill-rule="evenodd" clip-rule="evenodd" d="M95.0899 63.6077C96.2985 63.6077 97.278 62.6281 97.278 61.4195C97.278 60.2109 96.1861 60.1436 94.9101 60.1436C93.724 60.1436 92.9062 60.2109 92.9062 61.4195C92.9062 62.6281 93.8857 63.6077 95.0944 63.6077H95.0899Z" fill="#151515"/>
<path fill-rule="evenodd" clip-rule="evenodd" d="M75.4734 76.766C75.4734 76.766 79.4857 79.2505 82.1546 79.4931C84.8279 79.7358 89.622 76.8063 89.622 76.4918C89.622 76.1818 88.8491 75.9841 87.4383 76.8423C86.032 77.696 83.6507 78.289 82.2309 78.1677C80.8156 78.0509 79.1981 77.6959 77.5807 76.8018C75.9632 75.9077 75.8913 76.0651 75.469 76.2178C75.0466 76.3751 75.469 76.7615 75.469 76.7615L75.4734 76.766Z" fill="#151515"/>
<path fill-rule="evenodd" clip-rule="evenodd" d="M73.1718 58.6872C73.1718 58.6872 69.0426 59.2938 65.1562 60.2643C61.2697 61.2348 61.1484 61.5987 61.1484 61.5987C61.1484 61.5987 67.4656 58.5614 70.9881 58.3188C74.5107 58.0761 75.2386 58.4401 75.2386 58.4401L73.1718 58.6827V58.6872Z" fill="#151515"/>
<path fill-rule="evenodd" clip-rule="evenodd" d="M91.9926 59.7829C91.9926 59.7829 96.1217 60.3895 100.008 61.36C103.895 62.3305 104.016 62.6944 104.016 62.6944C104.016 62.6944 97.6987 59.6571 94.1762 59.4145C90.6536 59.1718 89.9258 59.5358 89.9258 59.5358L91.9926 59.7784V59.7829Z" fill="#151515"/>
<path fill-rule="evenodd" clip-rule="evenodd" d="M111.085 61.5642C111.014 61.5946 110.954 61.62 110.909 61.638L110.412 60.3892C110.436 60.3797 110.474 60.3632 110.525 60.3414C110.842 60.2054 111.645 59.8603 112.479 59.6834C112.965 59.5802 113.523 59.5189 114.046 59.6129C114.589 59.7103 115.13 59.9844 115.466 60.565C115.988 61.4684 116.09 62.4049 116.003 63.7549C115.946 64.6443 115.8 65.778 115.608 67.2699C115.514 67.9963 115.41 68.8075 115.299 69.7168C114.955 72.5471 114.523 74.7462 114.005 76.3837C113.494 77.9987 112.87 79.1652 112.074 79.816C111.485 80.2973 111.323 80.5585 111.243 80.7076C111.231 80.7302 111.218 80.7584 111.202 80.7909C111.12 80.965 110.979 81.266 110.634 81.5261L109.824 80.4531C109.855 80.4297 109.872 80.4172 109.885 80.4018C109.916 80.366 109.929 80.3143 110.058 80.073C110.24 79.7335 110.532 79.341 111.223 78.7754C111.708 78.3794 112.234 77.5262 112.724 75.9782C113.206 74.4525 113.626 72.3451 113.965 69.5546C114.081 68.6017 114.188 67.7692 114.282 67.0357C114.47 65.5804 114.607 64.5144 114.662 63.6684C114.742 62.4238 114.629 61.8034 114.302 61.2376C114.213 61.0836 114.069 60.9825 113.809 60.9359C113.53 60.8858 113.167 60.9115 112.758 60.9982C112.076 61.1429 111.436 61.415 111.085 61.5642Z" fill="#151515"/>
<path fill-rule="evenodd" clip-rule="evenodd" d="M46.0625 113.709C46.0622 113.709 46.062 113.708 46.6344 113.356C47.2067 113.004 47.2066 113.003 47.2064 113.003L47.2086 113.007C47.2109 113.01 47.2151 113.017 47.221 113.026C47.2329 113.045 47.252 113.074 47.2785 113.114C47.3317 113.193 47.4148 113.313 47.5299 113.469C47.7601 113.783 48.1183 114.242 48.6215 114.811C49.6278 115.949 51.2141 117.528 53.5156 119.259C58.1161 122.719 65.5876 126.797 77.0227 129.174L77.3125 129.234L82.586 138.112L88.0033 129.224L88.3014 129.17C98.6956 127.315 105.804 123.954 110.581 120.881C112.971 119.343 114.784 117.872 116.14 116.689C116.677 116.221 117.14 115.799 117.543 115.431C117.652 115.333 117.756 115.238 117.855 115.148C118.315 114.731 118.716 114.375 119.039 114.151L119.804 115.256C119.568 115.42 119.235 115.711 118.758 116.143C118.662 116.231 118.56 116.324 118.453 116.421C118.049 116.789 117.572 117.223 117.024 117.702C115.634 118.915 113.768 120.428 111.308 122.011C106.433 125.148 99.2495 128.541 88.8362 130.44L82.5712 140.719L76.4589 130.429C64.9939 128.003 57.4275 123.883 52.7077 120.333C50.3291 118.544 48.6768 116.903 47.6144 115.701C47.0833 115.1 46.6998 114.61 46.4467 114.265C46.3202 114.093 46.2263 113.958 46.1629 113.863C46.1312 113.816 46.1071 113.779 46.0904 113.753C46.082 113.74 46.0755 113.73 46.0708 113.722L46.0651 113.713L46.0632 113.71L46.0625 113.709Z" fill="#151515"/>
<path fill-rule="evenodd" clip-rule="evenodd" d="M57.4353 104.722C57.4355 104.722 57.4355 104.722 57.7892 105.293C58.1429 105.864 58.1428 105.865 58.1427 105.865L57.9272 105.998C57.7859 106.085 57.5778 106.213 57.3101 106.378C56.7747 106.708 56.0009 107.184 55.047 107.768C53.1392 108.936 50.5106 110.537 47.6275 112.271C41.8679 115.734 35.0713 119.737 30.9833 121.858C30.5868 122.063 30.1955 122.266 29.8096 122.466C22.2362 126.388 16.6955 129.257 12.7681 133.185C11.829 134.124 11.0817 135.112 9.92098 137.972C8.77696 140.791 7.25351 145.373 4.7661 153.414C14.6411 157.528 43.1161 165.374 82.4946 165.374C121.835 165.374 149.237 157.255 158.571 152.995C158.345 152.354 158.115 151.695 157.88 151.026C156.762 147.835 155.559 144.401 154.405 141.397C153.671 139.485 152.962 137.76 152.314 136.392C151.652 134.994 151.092 134.057 150.674 133.639C146.747 129.712 141.206 126.842 133.633 122.92C133.247 122.721 132.856 122.518 132.459 122.312C128.371 120.192 121.574 116.189 115.815 112.726C112.932 110.992 110.303 109.391 108.395 108.223C107.441 107.638 106.668 107.163 106.132 106.833C105.864 106.668 105.656 106.54 105.515 106.452L105.3 106.32L105.3 106.319C105.299 106.319 105.299 106.319 105.653 105.748C106.007 105.176 106.007 105.176 106.007 105.176L106.008 105.177L106.01 105.178L106.221 105.309C106.362 105.396 106.57 105.524 106.837 105.688C107.372 106.018 108.144 106.493 109.097 107.076C111.003 108.243 113.628 109.842 116.507 111.574C122.272 115.04 129.033 119.021 133.078 121.119C133.51 121.343 133.937 121.564 134.358 121.782C141.824 125.647 147.545 128.609 151.625 132.689C152.227 133.291 152.872 134.432 153.529 135.816C154.198 137.23 154.921 138.991 155.66 140.915C156.821 143.94 158.034 147.4 159.153 150.593C159.457 151.461 159.754 152.309 160.041 153.123L160.243 153.693L159.697 153.953C150.709 158.238 122.792 166.718 82.4946 166.718C42.1994 166.718 13.2007 158.538 3.67764 154.412L3.125 154.172L3.30266 153.597C5.89376 145.204 7.47893 140.415 8.67552 137.466C9.88263 134.492 10.7169 133.335 11.8176 132.234C15.8978 128.154 21.6182 125.193 29.0842 121.328C29.5054 121.11 29.9322 120.889 30.3645 120.665C34.4089 118.566 41.1699 114.585 46.9349 111.119C49.8141 109.388 52.4395 107.788 54.3451 106.622C55.2979 106.038 56.0707 105.563 56.6052 105.234C56.8724 105.069 57.0801 104.941 57.2209 104.854L57.4347 104.722L57.4353 104.722Z" fill="#151515"/>
<path fill-rule="evenodd" clip-rule="evenodd" d="M81.3806 145.707C81.3806 145.707 75.5397 137.92 76.5865 138.217C77.6334 138.518 88.4167 137.619 88.2684 138.666C88.1201 139.713 82.7285 146.902 82.7285 146.902L81.3806 145.702V145.707Z" fill="#151515"/>
<path fill-rule="evenodd" clip-rule="evenodd" d="M53.4356 59.8921C53.4865 59.914 53.5248 59.9305 53.5487 59.94L53.0517 61.1888C53.0063 61.1708 52.9467 61.1454 52.8751 61.115C52.5243 60.9658 51.8843 60.6937 51.2023 60.549C50.7937 60.4623 50.4309 60.4366 50.1517 60.4866C49.8917 60.5333 49.7477 60.6343 49.6586 60.7884C49.3316 61.3542 49.2184 61.9745 49.2987 63.2192C49.3533 64.0653 49.4906 65.1314 49.6781 66.5869C49.7726 67.3203 49.8798 68.1526 49.9955 69.1054C50.3346 71.8959 50.754 74.0033 51.2367 75.529C51.7265 77.077 52.2527 77.9301 52.7371 78.3262C53.4289 78.8918 53.7203 79.2843 53.9022 79.6238C54.0314 79.865 54.0441 79.9168 54.0752 79.9526C54.0885 79.968 54.1053 79.9805 54.1363 80.0038L53.3268 81.0769C52.982 80.8168 52.8401 80.5159 52.758 80.3417C52.7427 80.3092 52.7294 80.281 52.7173 80.2584C52.6375 80.1093 52.4751 79.8481 51.8864 79.3668C51.0903 78.716 50.4662 77.5495 49.9552 75.9344C49.4371 74.297 49.0051 72.0979 48.6612 69.2675C48.5507 68.3585 48.4463 67.5474 48.3528 66.8211C48.1607 65.329 48.0147 64.1951 47.9574 63.3057C47.8703 61.9556 47.9728 61.0191 48.4949 60.1158C48.8305 59.5352 49.3716 59.261 49.9143 59.1637C50.4379 59.0697 50.9952 59.131 51.4813 59.2341C52.3154 59.4111 53.1188 59.7561 53.4356 59.8921Z" fill="#151515"/>
<path fill-rule="evenodd" clip-rule="evenodd" d="M58.6018 113.106L57.3438 98.2875L58.6831 98.1738L59.9411 112.992L58.6018 113.106Z" fill="#151515"/>
<path fill-rule="evenodd" clip-rule="evenodd" d="M110.701 76.5785C110.701 76.5785 110.701 95.9839 106.208 100.477C102.164 104.372 93.479 110.061 90.1811 111.561C86.8877 113.21 81.6758 112.532 81.6758 112.532V95.4043C81.6758 95.4043 85.3466 94.8562 86.7349 94.4922C88.1817 94.1283 88.1098 95.6469 87.0584 96.6174C86.0071 97.5879 84.1334 98.6842 83.8998 99.5334C83.6662 100.383 82.9653 103.177 85.3061 103.177C87.647 103.177 90.572 98.9268 92.5624 97.835C94.5528 96.7432 96.8937 94.4339 96.8937 91.3966C96.8937 88.3593 95.1369 85.933 92.2119 84.958C89.2869 83.9875 87.7638 82.6486 86.9461 83.1383C86.1284 83.6236 82.0936 84.657 81.7297 84.0504L81.7881 80.5279C84.4839 80.2223 86.5552 78.8295 88.3479 79.4944C90.0553 80.0426 92.2119 81.3142 95.3705 82.2892C98.5291 83.2597 100.169 84.1088 99.9354 86.297C99.7018 88.4851 99.4682 90.7899 102.51 90.3047C105.552 89.8194 105.61 87.2989 107.106 83.7045C108.602 80.11 109.802 57.1956 110.467 75.3654L110.701 76.5785Z" fill="#151515"/>
<path fill-rule="evenodd" clip-rule="evenodd" d="M104.52 112.992L105.778 98.1738L107.117 98.2875L105.859 113.106L104.52 112.992Z" fill="#151515"/>
<path fill-rule="evenodd" clip-rule="evenodd" d="M83 164.656C128.097 164.656 164.656 128.097 164.656 83C164.656 37.9027 128.097 1.34413 83 1.34413C37.9027 1.34413 1.34413 37.9027 1.34413 83C1.34413 128.097 37.9027 164.656 83 164.656ZM83 166C128.84 166 166 128.84 166 83C166 37.1604 128.84 0 83 0C37.1604 0 0 37.1604 0 83C0 128.84 37.1604 166 83 166Z" fill="#151515"/>
</g>
</svg>
