<svg width="24" height="24" viewBox="0 0 24 24" fill="none" xmlns="http://www.w3.org/2000/svg">
<path d="M18.464 21.8855C18.3022 21.9697 18.1206 22.0082 17.9386 21.9969C17.7566 21.9856 17.5811 21.925 17.431 21.8215L4.43099 12.8215C4.29816 12.7295 4.1896 12.6067 4.11462 12.4635C4.03965 12.3203 4.00048 12.1611 4.00048 11.9995C4.00048 11.8379 4.03965 11.6787 4.11462 11.5356C4.1896 11.3924 4.29816 11.2696 4.43099 11.1775L17.431 2.17754C17.5809 2.07299 17.7565 2.0116 17.9389 2.00004C18.1213 1.98849 18.3033 2.02722 18.4651 2.11202C18.627 2.19682 18.7625 2.32442 18.8568 2.48092C18.9511 2.63743 19.0006 2.81682 19 2.99954V20.9995C19 21.1821 18.9501 21.3611 18.8556 21.5173C18.7611 21.6735 18.6257 21.8008 18.464 21.8855ZM17 4.90854L6.75699 11.9995L17 19.0905V4.90854Z" fill="#151515"/>
</svg>
