<svg width="120" height="23" viewBox="0 0 120 23" fill="none" xmlns="http://www.w3.org/2000/svg">
<path d="M18.1458 22.0794V16.1814H6.00882V22.0794H0V0.882477H24.1546V22.0794H18.1458ZM6.00882 11.0232H18.145V6.04144H6.00882V11.0232Z" fill="white"/>
<path d="M27.9453 6.04144V0.882477H53.0744V6.04144H43.5216V22.0794H37.4982V6.04144H27.9453Z" fill="white"/>
<path d="M56.8672 22.0794V0.882477H81.0218V22.0794H56.8672ZM62.876 6.01216V16.9651H75.0122V6.01216H62.876Z" fill="white"/>
<path d="M104.798 22.1168V14.3767L97.8163 21.5183L90.82 14.3767V22.1168H84.8125V0.882477L97.8171 13.4424L110.807 0.882477V22.1175H104.798V22.1168Z" fill="white"/>
<path d="M120.001 5.42028H114.598V0.882477H120.001V5.42028Z" fill="#E15D13"/>
</svg>
