<svg width="13" height="13" viewBox="0 0 13 13" fill="none" xmlns="http://www.w3.org/2000/svg">
<path d="M12.5359 11.7792C12.3007 5.75042 7.4286 0.880403 1.40211 0.645467C1.17548 0.636628 0.988803 0.818708 0.989687 1.04551L0.99446 2.25131C0.995167 2.46768 1.16752 2.64463 1.38372 2.654C6.3264 2.87038 10.3111 6.85404 10.5275 11.7978C10.5369 12.014 10.714 12.1862 10.9302 12.187L12.136 12.1918C12.3626 12.1925 12.5447 12.0058 12.5359 11.7792ZM3.48436 9.69696C2.85945 9.07206 1.84652 9.07206 1.22162 9.69696C0.596712 10.3219 0.596712 11.3348 1.22162 11.9597C1.84652 12.5846 2.85945 12.5846 3.48436 11.9597C4.10927 11.3348 4.10927 10.3219 3.48436 9.69696ZM8.54477 11.802C8.30913 7.96261 5.21447 4.87184 1.3793 4.63655C1.14949 4.62241 0.958398 4.80573 0.959989 5.03572L0.967944 6.2454C0.969358 6.45612 1.13305 6.63395 1.34359 6.64933C4.1105 6.85051 6.33135 9.07701 6.53181 11.8376C6.54719 12.0481 6.72485 12.212 6.93575 12.2132L8.14543 12.2212C8.37559 12.2229 8.55891 12.0315 8.54477 11.802Z" fill="#E15D13"/>
</svg>
