<svg width="48" height="48" viewBox="0 0 48 48" fill="none" xmlns="http://www.w3.org/2000/svg">
<rect width="48" height="48" rx="24" fill="#DFDFDF"/>
<path fill-rule="evenodd" clip-rule="evenodd" d="M36 12H12V36H36V12ZM21.2544 17.5103C21.2544 18.1905 20.703 18.7418 20.0229 18.7418C19.3427 18.7418 18.7913 18.1905 18.7913 17.5103C18.7913 16.8301 19.3427 16.2787 20.0229 16.2787C20.703 16.2787 21.2544 16.8301 21.2544 17.5103ZM16.6637 22.1462L17.0439 20.5117H20.7394L20.2467 22.1462C19.5599 24.1543 18.5536 28.1706 20.0228 28.1706C21.4919 28.1706 22.1429 27.3046 22.2848 26.8716L23.4941 22.1462H21.7025L22.2848 20.5117H25.4202L25.1962 21.9669C25.5844 21.3174 26.8311 20.0185 28.7124 20.0185C31.1312 20.0185 31.2811 21.9743 31.0571 22.9597C30.9981 23.2195 30.879 23.6415 30.6785 24.2901C30.1241 26.0836 29.5146 28.1706 30.3392 28.1706C31.1851 28.1706 31.8852 27.4783 32.2937 27.0743L32.363 27.006C31.9084 28.2767 30.4997 29.8055 29.2456 29.8055C27.2747 29.8055 27.4829 28.3155 27.8637 27.1285C28.0409 26.5758 28.0857 26.3669 28.1845 25.9055L28.1845 25.9055L28.1845 25.9054C28.2244 25.7188 28.2733 25.4908 28.3433 25.182C28.4211 24.8386 28.4974 24.5612 28.5713 24.2926L28.5713 24.2925L28.5713 24.2924C28.6195 24.1173 28.6666 23.946 28.7124 23.7626C28.978 22.7003 28.1301 22.1462 27.2119 22.1462C26.2936 22.1462 25.4202 22.8824 25.1962 23.9798C25.0171 24.8577 24.3303 28.0437 23.8973 29.8055H21.7025L22.2848 27.7451C20.8738 29.4024 19.8436 29.8055 19.0597 29.8055C18.2759 29.8055 17.0439 29.4696 17.0439 27.7451C17.0439 26.3655 17.8055 23.4376 18.1863 22.1462H16.6637Z" fill="#151515"/>
</svg>
