<svg width="48" height="48" viewBox="0 0 48 48" fill="none" xmlns="http://www.w3.org/2000/svg">
<rect width="48" height="48" rx="24" fill="#151515"/>
<path fill-rule="evenodd" clip-rule="evenodd" d="M36 12H12V36H36V12ZM18.0011 29.7755H16V19H20.4731C20.6791 19 21.0764 19.015 21.3559 19.0599C23.2541 19.3592 24.0928 20.751 24.0928 22.5619C24.0928 24.3728 23.2393 25.7646 21.3559 26.0639C21.0764 26.1088 20.6644 26.1238 20.4731 26.1238H18.0011V29.7755ZM18.0011 20.9007V24.2231H20.3848C20.5908 24.2231 20.8557 24.2082 21.0617 24.1483C21.8709 23.9238 22.0769 23.1456 22.0769 22.5619C22.0769 21.9782 21.8709 21.2 21.0617 20.9755C20.8557 20.9156 20.5908 20.9007 20.3848 20.9007H18.0011ZM31.6066 27.3361C31.6066 28.9973 30.3559 30 28.2812 30H28.2768H28.2689C28.0724 30 25.6834 30 25.6442 29.9992V28.2494L28.4284 28.249C29.1494 28.249 29.5614 27.9497 29.5614 27.4408C29.5614 26.9619 29.3701 26.8571 27.6485 26.3932C25.7063 25.8844 25 25.2558 25 24.0136C25 22.4584 26.2339 21.471 28.1587 21.4694H30.4225V23.2179H28.1587C27.4505 23.1876 26.9864 23.4553 26.9864 23.9088C26.9864 24.3279 27.2513 24.4626 29.1052 24.9415C30.9151 25.4204 31.6066 26.0789 31.6066 27.3361Z" fill="#DFDFDF"/>
</svg>
