<svg width="48" height="48" viewBox="0 0 48 48" fill="none" xmlns="http://www.w3.org/2000/svg">
<rect width="48" height="48" rx="24" fill="#DFDFDF"/>
<path opacity="0.5" d="M16 16C16 13.7909 17.7909 12 20 12H24V20H20C17.7909 20 16 18.2091 16 16Z" fill="#151515"/>
<path d="M16 24C16 21.7909 17.7909 20 20 20H24V28H20C17.7909 28 16 26.2091 16 24Z" fill="#151515"/>
<path opacity="0.5" d="M16 32C16 29.7909 17.7909 28 20 28H24V32C24 34.2091 22.2091 36 20 36C17.7909 36 16 34.2091 16 32Z" fill="#151515"/>
<path d="M32 16C32 13.7909 30.2091 12 28 12H24V20H28C30.2091 20 32 18.2091 32 16Z" fill="#151515"/>
<rect width="8" height="8" rx="4" transform="matrix(-1 0 0 1 32 20)" fill="#151515"/>
</svg>
