<svg width="269" height="60" viewBox="0 0 269 60" fill="none" xmlns="http://www.w3.org/2000/svg">
<g clip-path="url(#clip0)">
<path d="M2.71346 1.13672C2.71346 1.13672 -2.49613 34.9389 18.8322 56.0578C18.8322 56.0578 10.7728 42.1695 13.5126 19.0058" stroke="#B8B8B8" stroke-width="0.5" stroke-linecap="round" stroke-linejoin="round"/>
<path d="M1.76562 43.374C1.76562 43.374 7.76515 54.0619 18.8343 56.0572C19.0879 54.4251 19.818 52.9016 20.9352 51.6734C22.0524 50.4452 23.5081 49.5657 25.1238 49.1427C24.0239 54.6743 15.9045 61.1147 6.94522 58.3291C9.705 54.299 20.4142 55.9486 22.884 57.5982" stroke="#B8B8B8" stroke-width="0.5" stroke-linecap="round" stroke-linejoin="round"/>
<path d="M0.684991 43.5813C0.726557 43.7922 0.830503 43.9862 0.983688 44.1388C1.13687 44.2914 1.33242 44.3957 1.5456 44.4385C1.75878 44.4813 1.98002 44.4607 2.18135 44.3793C2.38268 44.2979 2.55507 44.1594 2.6767 43.9812C2.79834 43.8031 2.86376 43.5933 2.86471 43.3784C2.86566 43.1635 2.80208 42.9532 2.68202 42.774C2.56196 42.5948 2.39081 42.4548 2.1902 42.3717C1.98959 42.2886 1.76854 42.2661 1.55499 42.3071C1.27108 42.3667 1.0217 42.5329 0.859412 42.7706C0.697118 43.0083 0.634585 43.299 0.684991 43.5813Z" fill="#8C8C8C"/>
<path d="M4.14479 49.7848C4.18411 49.9963 4.28608 50.1915 4.43779 50.3457C4.5895 50.5 4.78413 50.6062 4.99703 50.6511C5.20993 50.696 5.43153 50.6775 5.63377 50.5979C5.83602 50.5184 6.00981 50.3813 6.13314 50.2041C6.25647 50.0269 6.3238 49.8175 6.3266 49.6025C6.3294 49.3875 6.26755 49.1765 6.14887 48.9962C6.0302 48.8159 5.86004 48.6745 5.65993 48.5898C5.45983 48.5051 5.23879 48.4809 5.02479 48.5204C4.88245 48.5453 4.74655 48.598 4.62501 48.6753C4.50346 48.7525 4.39869 48.8529 4.3168 48.9706C4.2349 49.0883 4.17752 49.2209 4.14799 49.3606C4.11846 49.5004 4.11737 49.6446 4.14479 49.7848Z" fill="#8C8C8C"/>
<path d="M0.025268 8.88984C0.0515775 9.03056 0.106022 9.16469 0.185418 9.28439C0.264814 9.40408 0.36757 9.50694 0.487678 9.58696C0.607786 9.66697 0.742836 9.72253 0.884935 9.75039C1.02704 9.77825 1.17333 9.77785 1.31527 9.74921C1.45773 9.72323 1.59352 9.66945 1.7147 9.59102C1.83587 9.51259 1.94001 9.41109 2.02101 9.29245C2.10201 9.17381 2.15826 9.04041 2.18646 8.90005C2.21467 8.75968 2.21426 8.61517 2.18527 8.47497C2.12714 8.19732 1.96239 7.95271 1.72559 7.79248C1.4888 7.63225 1.19837 7.56885 0.915268 7.61559C0.771015 7.63927 0.633059 7.69137 0.509614 7.7688C0.386169 7.84622 0.279757 7.9474 0.196716 8.06629C0.113675 8.18518 0.0557014 8.31937 0.0262471 8.46085C-0.00320735 8.60233 -0.0035403 8.74823 0.025268 8.88984Z" fill="#8C8C8C"/>
<path d="M9.64523 52.0765C9.70093 52.3594 9.86813 52.6089 10.11 52.77C10.352 52.9312 10.6488 52.9908 10.9352 52.9358C11.2217 52.8808 11.4742 52.7157 11.6374 52.4767C11.8005 52.2377 11.8609 51.9445 11.8052 51.6616C11.7776 51.5215 11.7224 51.3881 11.6426 51.2691C11.5629 51.1501 11.4602 51.0478 11.3404 50.968C11.2206 50.8882 11.0861 50.8325 10.9445 50.804C10.8029 50.7756 10.657 50.775 10.5152 50.8022C10.3734 50.8294 10.2384 50.884 10.1179 50.9628C9.99744 51.0416 9.89385 51.143 9.81306 51.2613C9.73228 51.3797 9.67587 51.5126 9.64708 51.6524C9.61828 51.7923 9.61765 51.9364 9.64523 52.0765Z" fill="#8C8C8C"/>
<path d="M6.63533 42.4748C6.66164 42.6156 6.71609 42.7497 6.79548 42.8694C6.87488 42.9891 6.97764 43.0919 7.09774 43.172C7.21785 43.252 7.3529 43.3075 7.495 43.3354C7.6371 43.3633 7.78339 43.3629 7.92533 43.3342C8.21177 43.2792 8.46434 43.114 8.6275 42.8751C8.79066 42.6361 8.85103 42.3429 8.79533 42.06C8.73964 41.777 8.57244 41.5275 8.33052 41.3664C8.08859 41.2052 7.79177 41.1456 7.50533 41.2006C7.36287 41.2266 7.22708 41.2804 7.10591 41.3588C6.98473 41.4372 6.8806 41.5387 6.7996 41.6574C6.71859 41.776 6.66235 41.9094 6.63414 42.0498C6.60594 42.1901 6.60634 42.3346 6.63533 42.4748Z" fill="#8C8C8C"/>
<path d="M5.15689 34.9383C5.21727 35.2187 5.38551 35.465 5.62615 35.6254C5.8668 35.7857 6.16105 35.8474 6.44689 35.7976C6.66043 35.7566 6.85684 35.6539 7.0113 35.5026C7.16576 35.3513 7.27133 35.1581 7.31467 34.9476C7.358 34.737 7.33716 34.5184 7.25476 34.3196C7.17237 34.1207 7.03213 33.9504 6.85177 33.8303C6.67141 33.7101 6.45904 33.6455 6.2415 33.6445C6.02396 33.6436 5.81103 33.7064 5.62962 33.825C5.44821 33.9436 5.30648 34.1127 5.22233 34.3108C5.13819 34.509 5.11542 34.7273 5.15689 34.9383Z" fill="#8C8C8C"/>
<path d="M3.7447 16.98C3.53217 16.9342 3.31067 16.9517 3.10819 17.0302C2.9057 17.1087 2.73134 17.2447 2.60713 17.4211C2.48291 17.5975 2.41444 17.8064 2.41035 18.0212C2.40627 18.236 2.46676 18.4472 2.58417 18.6281C2.70159 18.809 2.87066 18.9514 3.07002 19.0374C3.26937 19.1234 3.49006 19.149 3.70417 19.1111C3.91829 19.0732 4.11622 18.9735 4.27295 18.8245C4.42968 18.6755 4.53817 18.4839 4.5847 18.274C4.61561 18.1346 4.6184 17.9905 4.59291 17.8499C4.56742 17.7094 4.51415 17.5753 4.43614 17.4551C4.35813 17.3349 4.25692 17.2311 4.13828 17.1496C4.01963 17.0681 3.88589 17.0104 3.7447 16.98Z" fill="#8C8C8C"/>
<path d="M14.2964 32.1622C14.0157 32.113 13.7266 32.1733 13.49 32.3304C13.2535 32.4876 13.0879 32.7293 13.0283 33.0047C12.9686 33.2801 13.0195 33.5676 13.1703 33.8066C13.321 34.0456 13.5598 34.2175 13.8364 34.286C13.9796 34.3215 14.1286 34.3281 14.2745 34.3055C14.4204 34.2828 14.5602 34.2314 14.6856 34.1543C14.8109 34.0771 14.9193 33.9759 15.0041 33.8565C15.089 33.7371 15.1487 33.602 15.1796 33.4594C15.2105 33.3167 15.212 33.1694 15.184 33.0261C15.156 32.8829 15.0991 32.7467 15.0167 32.6256C14.9343 32.5046 14.828 32.4012 14.7043 32.3216C14.5805 32.2419 14.4418 32.1878 14.2964 32.1622Z" fill="#8C8C8C"/>
<path d="M17.9144 50.5854C17.7712 50.5499 17.6222 50.5433 17.4763 50.5659C17.3304 50.5885 17.1906 50.6399 17.0652 50.7171C16.9399 50.7942 16.8315 50.8955 16.7467 51.0149C16.6618 51.1343 16.6021 51.2693 16.5712 51.412C16.5403 51.5546 16.5388 51.702 16.5668 51.8452C16.5948 51.9885 16.6517 52.1247 16.7341 52.2457C16.8165 52.3668 16.9228 52.4702 17.0466 52.5498C17.1703 52.6294 17.309 52.6836 17.4544 52.7091C17.7351 52.7584 18.0242 52.6981 18.2608 52.5409C18.4973 52.3838 18.6629 52.142 18.7225 51.8666C18.7822 51.5913 18.7313 51.3038 18.5805 51.0648C18.4298 50.8257 18.191 50.6539 17.9144 50.5854Z" fill="#8C8C8C"/>
<path d="M10.7842 26.4632C10.8258 26.6741 10.9297 26.8681 11.0829 27.0207C11.2361 27.1733 11.4316 27.2775 11.6448 27.3203C11.858 27.3631 12.0792 27.3426 12.2806 27.2612C12.4819 27.1798 12.6543 27.0412 12.7759 26.8631C12.8975 26.6849 12.963 26.4752 12.9639 26.2603C12.9649 26.0454 12.9013 25.8351 12.7812 25.6559C12.6612 25.4767 12.49 25.3367 12.2894 25.2536C12.0888 25.1704 11.8677 25.1479 11.6542 25.1889C11.369 25.2463 11.1181 25.4119 10.9553 25.6503C10.7926 25.8886 10.7312 26.1805 10.7842 26.4632Z" fill="#8C8C8C"/>
<path d="M12.4539 43.542C12.479 43.6823 12.5324 43.8163 12.6108 43.9359C12.6891 44.0555 12.791 44.1584 12.9103 44.2385C13.0296 44.3186 13.164 44.3743 13.3054 44.4023C13.4469 44.4303 13.5926 44.43 13.7339 44.4014C13.8767 44.3753 14.0128 44.3216 14.1344 44.2433C14.256 44.165 14.3607 44.0637 14.4425 43.9453C14.5243 43.8268 14.5816 43.6935 14.611 43.5531C14.6404 43.4127 14.6414 43.2679 14.6139 43.1271C14.5535 42.8467 14.3853 42.6004 14.1447 42.4401C13.904 42.2797 13.6098 42.218 13.3239 42.2678C13.1821 42.295 13.0471 42.3495 12.9266 42.4283C12.8061 42.5071 12.7025 42.6085 12.6217 42.7269C12.5409 42.8452 12.4845 42.9781 12.4557 43.1179C12.4269 43.2578 12.4263 43.4019 12.4539 43.542Z" fill="#8C8C8C"/>
<path d="M12.315 18.5706C12.3565 18.7815 12.4605 18.9755 12.6137 19.1281C12.7668 19.2807 12.9624 19.3849 13.1756 19.4277C13.3887 19.4706 13.61 19.45 13.8113 19.3686C14.0127 19.2872 14.185 19.1487 14.3067 18.9705C14.4283 18.7923 14.4937 18.5826 14.4947 18.3677C14.4956 18.1528 14.432 17.9425 14.312 17.7633C14.1919 17.5841 14.0208 17.4441 13.8202 17.361C13.6196 17.2778 13.3985 17.2554 13.185 17.2963C13.0425 17.3223 12.9067 17.3761 12.7855 17.4545C12.6644 17.5329 12.5602 17.6344 12.4792 17.7531C12.3982 17.8717 12.342 18.0051 12.3138 18.1455C12.2856 18.2859 12.286 18.4304 12.315 18.5706Z" fill="#8C8C8C"/>
<path d="M1.91477 1.29423C1.94107 1.43495 1.99552 1.56908 2.07492 1.68878C2.15431 1.80847 2.25707 1.91134 2.37718 1.99135C2.49728 2.07136 2.63233 2.12692 2.77443 2.15478C2.91653 2.18264 3.06283 2.18224 3.20477 2.15361C3.48994 2.09627 3.74091 1.93059 3.90363 1.69226C4.06635 1.45393 4.12781 1.16201 4.07477 0.87936C4.01907 0.596424 3.85187 0.346932 3.60995 0.185767C3.36803 0.0246032 3.0712 -0.0350306 2.78477 0.0199847C2.49833 0.075 2.24575 0.240158 2.0826 0.479125C1.91944 0.718093 1.85907 1.0113 1.91477 1.29423Z" fill="#8C8C8C"/>
<path d="M1.71366 25.9895C1.73978 26.1323 1.79485 26.2684 1.87554 26.3896C1.95624 26.5108 2.06091 26.6147 2.18327 26.695C2.30562 26.7752 2.44314 26.8303 2.58755 26.8567C2.73197 26.8832 2.88031 26.8805 3.02366 26.8489C3.31275 26.7913 3.56682 26.6226 3.72997 26.3799C3.89313 26.1372 3.95201 25.8405 3.89366 25.5549C3.83532 25.2694 3.66452 25.0184 3.41885 24.8572C3.17317 24.6961 2.87275 24.6379 2.58366 24.6955C2.43913 24.7213 2.30136 24.7757 2.17863 24.8554C2.05591 24.9352 1.95076 25.0385 1.8695 25.1594C1.78824 25.2803 1.73255 25.4161 1.70577 25.5588C1.67899 25.7014 1.68168 25.8479 1.71366 25.9895Z" fill="#8C8C8C"/>
<path d="M39.9766 32.9657C39.9766 37.7449 43.4996 40.2301 47.9511 40.2301C52.43 40.2301 55.9257 37.7449 55.9257 32.9657C55.9257 28.1864 52.43 25.7012 47.9511 25.7012C43.4996 25.7012 39.9766 28.1864 39.9766 32.9657ZM47.9511 26.1109C51.3649 26.1109 53.2493 28.241 53.2493 32.9657C53.2493 37.6357 51.5834 39.8205 47.9511 39.8205C44.2643 39.8205 42.653 37.6357 42.653 32.9657C42.653 28.241 44.592 26.1109 47.9511 26.1109ZM65.465 40.2301C69.698 40.2301 71.6916 38.1546 72.1559 37.7722L71.9374 37.4991C70.1896 39.0285 67.9502 39.7659 65.465 39.7659C62.2424 39.7659 60.6038 36.8164 60.6038 32.9657C60.6038 28.4322 62.8432 26.1655 65.465 26.1655C69.1518 26.1655 70.5992 27.7768 70.8723 29.5519L71.3366 29.4427C71.0362 27.449 69.2337 25.7285 65.465 25.7285C60.5492 25.7285 57.8455 28.7872 57.8455 32.9657C57.8455 37.1441 60.3034 40.2301 65.465 40.2301ZM78.2456 26.5751V39.7932H80.8401V26.5751H86.1928V26.1382H72.8382V26.5751H78.2456ZM90.1598 46.9211C90.1598 46.9211 90.1598 39.3835 90.1598 39.1377C90.8972 39.5201 92.4538 40.1755 94.7479 40.1755C99.2267 40.1755 102.859 39.1377 102.859 33.0749C102.859 28.5141 100.292 25.7012 96.3592 25.7012C93.3278 25.7012 91.8257 27.1759 90.706 30.5897C90.4329 31.409 90.2964 32.2283 90.1598 33.0476V26.1382H87.5654V46.9211H90.1598ZM91.1157 30.7536C92.1534 27.3125 93.9559 26.1382 96.3865 26.1382C99.336 26.1382 100.156 29.115 100.156 33.1022C100.156 38.8646 98.1343 39.7932 94.7479 39.7932C92.4538 39.7932 90.8972 39.1104 90.1598 38.7281C90.1871 36.0244 90.2964 33.4846 91.1157 30.7536ZM104.758 32.9657C104.758 37.7449 108.281 40.2301 112.733 40.2301C117.212 40.2301 120.707 37.7449 120.707 32.9657C120.707 28.1864 117.212 25.7012 112.733 25.7012C108.281 25.7012 104.758 28.1864 104.758 32.9657ZM112.733 26.1109C116.146 26.1109 118.031 28.241 118.031 32.9657C118.031 37.6357 116.365 39.8205 112.733 39.8205C109.046 39.8205 107.435 37.6357 107.435 32.9657C107.435 28.241 109.374 26.1109 112.733 26.1109ZM123.037 26.1382V39.7932H129.536C132.841 39.7932 136.5 39.8751 136.5 36.0517C136.5 33.3207 135.162 32.6106 132.786 32.3922C134.316 32.0644 135.408 31.1905 135.408 29.0876C135.408 26.1109 132.513 25.7558 130.301 25.7558C127.133 25.7558 125.959 27.531 125.631 28.678V26.1382H123.037ZM130.356 32.6106C132.704 32.6106 133.715 33.3207 133.715 36.079C133.715 39.3289 132.131 39.3562 129.345 39.3562H125.631V32.6106H130.356ZM130.246 26.1382C131.858 26.1382 132.759 26.7117 132.759 29.115C132.759 31.8733 131.667 32.201 130.028 32.201H125.631C125.631 31.1086 125.058 26.1382 130.246 26.1382ZM149.76 26.1382V39.7385H152.327V32.7745H161.367V39.7385H163.934V26.1382H161.367V32.3648H152.327V26.1382H149.76ZM173.878 40.2301C178.112 40.2301 180.105 38.1546 180.569 37.7722L180.351 37.4991C178.603 39.0285 176.364 39.7659 173.878 39.7659C171.011 39.7659 169.4 37.4445 169.072 34.2492H180.214C180.214 29.6885 179.614 25.7285 173.878 25.7285C168.963 25.7285 166.259 28.7872 166.259 32.9657C166.259 37.1441 168.717 40.2301 173.878 40.2301ZM173.878 26.1655C178.904 26.1655 179.696 29.6885 179.696 33.8123H169.045C168.826 30.617 169.891 26.1655 173.878 26.1655ZM182.617 26.1382V39.7932H189.117C192.422 39.7932 196.081 39.8751 196.081 36.0517C196.081 33.3207 194.743 32.6106 192.367 32.3922C193.896 32.0644 194.989 31.1905 194.989 29.0876C194.989 26.1109 192.094 25.7558 189.882 25.7558C186.714 25.7558 185.539 27.531 185.212 28.678V26.1382H182.617ZM189.936 32.6106C192.285 32.6106 193.295 33.3207 193.295 36.079C193.295 39.3289 191.711 39.3562 188.926 39.3562H185.212V32.6106H189.936ZM189.827 26.1382C191.438 26.1382 192.34 26.7117 192.34 29.115C192.34 31.8733 191.247 32.201 189.609 32.201H185.212C185.212 31.1086 184.638 26.1382 189.827 26.1382ZM205.616 40.2301C209.849 40.2301 211.842 38.1546 212.307 37.7722L212.088 37.4991C210.34 39.0285 208.101 39.7659 205.616 39.7659C202.748 39.7659 201.137 37.4445 200.809 34.2492H211.952C211.952 29.6885 211.351 25.7285 205.616 25.7285C200.7 25.7285 197.996 28.7872 197.996 32.9657C197.996 37.1441 200.454 40.2301 205.616 40.2301ZM205.616 26.1655C210.641 26.1655 211.433 29.6885 211.433 33.8123H200.782C200.563 30.617 201.628 26.1655 205.616 26.1655ZM221.564 40.2301C225.797 40.2301 227.791 38.1546 228.255 37.7722L228.037 37.4991C226.289 39.0285 224.05 39.7659 221.564 39.7659C218.342 39.7659 216.703 36.8164 216.703 32.9657C216.703 28.4322 218.943 26.1655 221.564 26.1655C225.251 26.1655 226.699 27.7768 226.972 29.5519L227.436 29.4427C227.136 27.449 225.333 25.7285 221.564 25.7285C216.649 25.7285 213.945 28.7872 213.945 32.9657C213.945 37.1441 216.403 40.2301 221.564 40.2301ZM234.345 26.5751V39.7932H236.939V26.5751H242.292V26.1382H228.938V26.5751H234.345Z" fill="#151515"/>
<path d="M43.8213 55.0545C43.1973 55.0545 42.6333 54.9165 42.1293 54.6405C41.6313 54.3645 41.2383 53.9835 40.9503 53.4975C40.6683 53.0055 40.5273 52.4565 40.5273 51.8505C40.5273 51.2445 40.6683 50.6985 40.9503 50.2125C41.2383 49.7205 41.6343 49.3365 42.1383 49.0605C42.6423 48.7845 43.2063 48.6465 43.8303 48.6465C44.2983 48.6465 44.7303 48.7245 45.1263 48.8805C45.5223 49.0365 45.8583 49.2645 46.1343 49.5645L45.7113 49.9875C45.2193 49.4895 44.5983 49.2405 43.8483 49.2405C43.3503 49.2405 42.8973 49.3545 42.4893 49.5825C42.0813 49.8105 41.7603 50.1225 41.5263 50.5185C41.2983 50.9145 41.1843 51.3585 41.1843 51.8505C41.1843 52.3425 41.2983 52.7865 41.5263 53.1825C41.7603 53.5785 42.0813 53.8905 42.4893 54.1185C42.8973 54.3465 43.3503 54.4605 43.8483 54.4605C44.6043 54.4605 45.2253 54.2085 45.7113 53.7045L46.1343 54.1275C45.8583 54.4275 45.5193 54.6585 45.1173 54.8205C44.7213 54.9765 44.2893 55.0545 43.8213 55.0545Z" fill="#B8B8B8"/>
<path d="M52.8088 48.7002V55.0002H52.1518V49.2762H48.1648V55.0002H47.5078V48.7002H52.8088Z" fill="#B8B8B8"/>
<path d="M57.2916 48.7002C58.0956 48.7002 58.7256 48.8922 59.1816 49.2762C59.6376 49.6602 59.8656 50.1882 59.8656 50.8602C59.8656 51.5322 59.6376 52.0602 59.1816 52.4442C58.7256 52.8222 58.0956 53.0112 57.2916 53.0112H55.5996V55.0002H54.9336V48.7002H57.2916ZM57.2736 52.4262C57.8976 52.4262 58.3746 52.2912 58.7046 52.0212C59.0346 51.7452 59.1996 51.3582 59.1996 50.8602C59.1996 50.3502 59.0346 49.9602 58.7046 49.6902C58.3746 49.4142 57.8976 49.2762 57.2736 49.2762H55.5996V52.4262H57.2736Z" fill="#B8B8B8"/>
<path d="M64.9512 53.3172H61.4412L60.6852 55.0002H59.9922L62.8722 48.7002H63.5292L66.4092 55.0002H65.7072L64.9512 53.3172ZM64.7082 52.7772L63.1962 49.3932L61.6842 52.7772H64.7082Z" fill="#B8B8B8"/>
<path d="M71.3522 51.7512C71.7902 51.8412 72.1232 52.0182 72.3512 52.2822C72.5792 52.5402 72.6932 52.8792 72.6932 53.2992C72.6932 53.8452 72.4982 54.2652 72.1082 54.5592C71.7242 54.8532 71.1572 55.0002 70.4072 55.0002H67.6172V48.7002H70.2362C70.9082 48.7002 71.4332 48.8382 71.8112 49.1142C72.1892 49.3902 72.3782 49.7892 72.3782 50.3112C72.3782 50.6652 72.2882 50.9652 72.1082 51.2112C71.9282 51.4512 71.6762 51.6312 71.3522 51.7512ZM68.2742 51.5532H70.2002C70.6862 51.5532 71.0582 51.4542 71.3162 51.2562C71.5802 51.0582 71.7122 50.7702 71.7122 50.3922C71.7122 50.0142 71.5802 49.7262 71.3162 49.5282C71.0582 49.3302 70.6862 49.2312 70.2002 49.2312H68.2742V51.5532ZM70.4072 54.4692C71.4932 54.4692 72.0362 54.0642 72.0362 53.2542C72.0362 52.4622 71.4932 52.0662 70.4072 52.0662H68.2742V54.4692H70.4072Z" fill="#B8B8B8"/>
<path d="M77.1206 55.0545C76.4966 55.0545 75.9296 54.9165 75.4196 54.6405C74.9156 54.3585 74.5196 53.9745 74.2316 53.4885C73.9496 53.0025 73.8086 52.4565 73.8086 51.8505C73.8086 51.2445 73.9496 50.6985 74.2316 50.2125C74.5196 49.7265 74.9156 49.3455 75.4196 49.0695C75.9296 48.7875 76.4966 48.6465 77.1206 48.6465C77.7446 48.6465 78.3056 48.7845 78.8036 49.0605C79.3076 49.3365 79.7036 49.7205 79.9916 50.2125C80.2796 50.6985 80.4236 51.2445 80.4236 51.8505C80.4236 52.4565 80.2796 53.0055 79.9916 53.4975C79.7036 53.9835 79.3076 54.3645 78.8036 54.6405C78.3056 54.9165 77.7446 55.0545 77.1206 55.0545ZM77.1206 54.4605C77.6186 54.4605 78.0686 54.3495 78.4706 54.1275C78.8726 53.8995 79.1876 53.5875 79.4156 53.1915C79.6436 52.7895 79.7576 52.3425 79.7576 51.8505C79.7576 51.3585 79.6436 50.9145 79.4156 50.5185C79.1876 50.1165 78.8726 49.8045 78.4706 49.5825C78.0686 49.3545 77.6186 49.2405 77.1206 49.2405C76.6226 49.2405 76.1696 49.3545 75.7616 49.5825C75.3596 49.8045 75.0416 50.1165 74.8076 50.5185C74.5796 50.9145 74.4656 51.3585 74.4656 51.8505C74.4656 52.3425 74.5796 52.7895 74.8076 53.1915C75.0416 53.5875 75.3596 53.8995 75.7616 54.1275C76.1696 54.3495 76.6226 54.4605 77.1206 54.4605Z" fill="#B8B8B8"/>
<path d="M86.3286 48.7002V55.0002H85.6806V52.3902C84.9966 52.6842 84.3336 52.8312 83.6916 52.8312C82.9536 52.8312 82.3776 52.6512 81.9636 52.2912C81.5556 51.9312 81.3516 51.4272 81.3516 50.7792V48.7002H82.0086V50.7072C82.0086 51.1932 82.1616 51.5712 82.4676 51.8412C82.7736 52.1112 83.2026 52.2462 83.7546 52.2462C84.3846 52.2462 85.0266 52.0962 85.6806 51.7962V48.7002H86.3286Z" fill="#B8B8B8"/>
<path d="M93.7298 48.7002V55.0002H93.0728V52.0932H89.1308V55.0002H88.4648V48.7002H89.1308V51.5082H93.0728V48.7002H93.7298Z" fill="#B8B8B8"/>
<path d="M98.4925 50.9502C99.2365 50.9502 99.8035 51.1182 100.193 51.4542C100.589 51.7902 100.787 52.2822 100.787 52.9302C100.787 53.6082 100.577 54.1242 100.157 54.4782C99.7435 54.8262 99.1435 55.0002 98.3575 55.0002H95.8555V48.7002H96.5125V50.9502H98.4925ZM98.3395 54.4692C98.9215 54.4692 99.3625 54.3402 99.6625 54.0822C99.9685 53.8242 100.121 53.4432 100.121 52.9392C100.121 51.9732 99.5275 51.4902 98.3395 51.4902H96.5125V54.4692H98.3395ZM101.876 48.7002H102.533V55.0002H101.876V48.7002Z" fill="#B8B8B8"/>
<path d="M104.656 48.7001H105.313V53.9201L109.345 48.7001H109.948V55.0001H109.291V49.7891L105.259 55.0001H104.656V48.7001ZM107.284 48.2411C106.834 48.2411 106.477 48.1391 106.213 47.9351C105.955 47.7311 105.823 47.4461 105.817 47.0801H106.312C106.318 47.3201 106.408 47.5091 106.582 47.6471C106.756 47.7851 106.99 47.8541 107.284 47.8541C107.572 47.8541 107.803 47.7851 107.977 47.6471C108.157 47.5091 108.25 47.3201 108.256 47.0801H108.751C108.745 47.4461 108.61 47.7311 108.346 47.9351C108.082 48.1391 107.728 48.2411 107.284 48.2411Z" fill="#B8B8B8"/>
<path d="M117.181 55.0545C116.557 55.0545 115.993 54.9165 115.489 54.6405C114.991 54.3645 114.598 53.9835 114.31 53.4975C114.028 53.0055 113.887 52.4565 113.887 51.8505C113.887 51.2445 114.028 50.6985 114.31 50.2125C114.598 49.7205 114.994 49.3365 115.498 49.0605C116.002 48.7845 116.566 48.6465 117.19 48.6465C117.658 48.6465 118.09 48.7245 118.486 48.8805C118.882 49.0365 119.218 49.2645 119.494 49.5645L119.071 49.9875C118.579 49.4895 117.958 49.2405 117.208 49.2405C116.71 49.2405 116.257 49.3545 115.849 49.5825C115.441 49.8105 115.12 50.1225 114.886 50.5185C114.658 50.9145 114.544 51.3585 114.544 51.8505C114.544 52.3425 114.658 52.7865 114.886 53.1825C115.12 53.5785 115.441 53.8905 115.849 54.1185C116.257 54.3465 116.71 54.4605 117.208 54.4605C117.964 54.4605 118.585 54.2085 119.071 53.7045L119.494 54.1275C119.218 54.4275 118.879 54.6585 118.477 54.8205C118.081 54.9765 117.649 55.0545 117.181 55.0545Z" fill="#B8B8B8"/>
<path d="M124.606 51.7512C125.044 51.8412 125.377 52.0182 125.605 52.2822C125.833 52.5402 125.947 52.8792 125.947 53.2992C125.947 53.8452 125.752 54.2652 125.362 54.5592C124.978 54.8532 124.411 55.0002 123.661 55.0002H120.871V48.7002H123.49C124.162 48.7002 124.687 48.8382 125.065 49.1142C125.443 49.3902 125.632 49.7892 125.632 50.3112C125.632 50.6652 125.542 50.9652 125.362 51.2112C125.182 51.4512 124.93 51.6312 124.606 51.7512ZM121.528 51.5532H123.454C123.94 51.5532 124.312 51.4542 124.57 51.2562C124.834 51.0582 124.966 50.7702 124.966 50.3922C124.966 50.0142 124.834 49.7262 124.57 49.5282C124.312 49.3302 123.94 49.2312 123.454 49.2312H121.528V51.5532ZM123.661 54.4692C124.747 54.4692 125.29 54.0642 125.29 53.2542C125.29 52.4622 124.747 52.0662 123.661 52.0662H121.528V54.4692H123.661Z" fill="#B8B8B8"/>
<path d="M131.643 53.3172H128.133L127.377 55.0002H126.684L129.564 48.7002H130.221L133.101 55.0002H132.399L131.643 53.3172ZM131.4 52.7772L129.888 49.3932L128.376 52.7772H131.4Z" fill="#B8B8B8"/>
<path d="M140.113 54.4242V56.4132H139.492V55.0002H133.993L133.984 56.4132H133.363L133.372 54.4242H133.687C134.101 54.4002 134.389 54.0732 134.551 53.4432C134.713 52.8072 134.812 51.9072 134.848 50.7432L134.92 48.7002H139.168V54.4242H140.113ZM135.442 50.8062C135.412 51.7662 135.337 52.5582 135.217 53.1822C135.103 53.8002 134.908 54.2142 134.632 54.4242H138.511V49.2762H135.496L135.442 50.8062Z" fill="#B8B8B8"/>
<path d="M145.928 54.4242V55.0002H141.473V48.7002H145.793V49.2762H142.139V51.5172H145.397V52.0842H142.139V54.4242H145.928Z" fill="#B8B8B8"/>
<path d="M147.406 48.7002H152.014V49.2672H148.063V51.3282H150.124C150.868 51.3282 151.432 51.4812 151.816 51.7872C152.206 52.0932 152.401 52.5372 152.401 53.1192C152.401 53.7252 152.191 54.1902 151.771 54.5142C151.357 54.8382 150.76 55.0002 149.98 55.0002H147.406V48.7002ZM149.971 54.4692C150.553 54.4692 150.991 54.3582 151.285 54.1362C151.585 53.9142 151.735 53.5842 151.735 53.1462C151.735 52.7142 151.588 52.3932 151.294 52.1832C151.006 51.9672 150.565 51.8592 149.971 51.8592H148.063V54.4692H149.971Z" fill="#B8B8B8"/>
<path d="M159.21 48.7002V55.0002H158.553V52.0932H154.611V55.0002H153.945V48.7002H154.611V51.5082H158.553V48.7002H159.21Z" fill="#B8B8B8"/>
<path d="M163.973 50.9502C164.717 50.9502 165.284 51.1182 165.674 51.4542C166.07 51.7902 166.268 52.2822 166.268 52.9302C166.268 53.6082 166.058 54.1242 165.638 54.4782C165.224 54.8262 164.624 55.0002 163.838 55.0002H161.336V48.7002H161.993V50.9502H163.973ZM163.82 54.4692C164.402 54.4692 164.843 54.3402 165.143 54.0822C165.449 53.8242 165.602 53.4432 165.602 52.9392C165.602 51.9732 165.008 51.4902 163.82 51.4902H161.993V54.4692H163.82ZM167.357 48.7002H168.014V55.0002H167.357V48.7002Z" fill="#B8B8B8"/>
<path d="M170.133 48.7001H170.79V53.9201L174.822 48.7001H175.425V55.0001H174.768V49.7891L170.736 55.0001H170.133V48.7001ZM172.761 48.2411C172.311 48.2411 171.954 48.1391 171.69 47.9351C171.432 47.7311 171.3 47.4461 171.294 47.0801H171.789C171.795 47.3201 171.885 47.5091 172.059 47.6471C172.233 47.7851 172.467 47.8541 172.761 47.8541C173.049 47.8541 173.28 47.7851 173.454 47.6471C173.634 47.5091 173.727 47.3201 173.733 47.0801H174.228C174.222 47.4461 174.087 47.7311 173.823 47.9351C173.559 48.1391 173.205 48.2411 172.761 48.2411Z" fill="#B8B8B8"/>
<path d="M185.207 48.7002V55.0002H184.55V49.2762H180.563V55.0002H179.906V48.7002H185.207Z" fill="#B8B8B8"/>
<path d="M190.097 55.0545C189.473 55.0545 188.906 54.9165 188.396 54.6405C187.892 54.3585 187.496 53.9745 187.208 53.4885C186.926 53.0025 186.785 52.4565 186.785 51.8505C186.785 51.2445 186.926 50.6985 187.208 50.2125C187.496 49.7265 187.892 49.3455 188.396 49.0695C188.906 48.7875 189.473 48.6465 190.097 48.6465C190.721 48.6465 191.282 48.7845 191.78 49.0605C192.284 49.3365 192.68 49.7205 192.968 50.2125C193.256 50.6985 193.4 51.2445 193.4 51.8505C193.4 52.4565 193.256 53.0055 192.968 53.4975C192.68 53.9835 192.284 54.3645 191.78 54.6405C191.282 54.9165 190.721 55.0545 190.097 55.0545ZM190.097 54.4605C190.595 54.4605 191.045 54.3495 191.447 54.1275C191.849 53.8995 192.164 53.5875 192.392 53.1915C192.62 52.7895 192.734 52.3425 192.734 51.8505C192.734 51.3585 192.62 50.9145 192.392 50.5185C192.164 50.1165 191.849 49.8045 191.447 49.5825C191.045 49.3545 190.595 49.2405 190.097 49.2405C189.599 49.2405 189.146 49.3545 188.738 49.5825C188.336 49.8045 188.018 50.1165 187.784 50.5185C187.556 50.9145 187.442 51.3585 187.442 51.8505C187.442 52.3425 187.556 52.7895 187.784 53.1915C188.018 53.5875 188.336 53.8995 188.738 54.1275C189.146 54.3495 189.599 54.4605 190.097 54.4605Z" fill="#B8B8B8"/>
<path d="M197.346 48.7002C198.15 48.7002 198.78 48.8922 199.236 49.2762C199.692 49.6602 199.92 50.1882 199.92 50.8602C199.92 51.5322 199.692 52.0602 199.236 52.4442C198.78 52.8222 198.15 53.0112 197.346 53.0112H195.654V55.0002H194.988V48.7002H197.346ZM197.328 52.4262C197.952 52.4262 198.429 52.2912 198.759 52.0212C199.089 51.7452 199.254 51.3582 199.254 50.8602C199.254 50.3502 199.089 49.9602 198.759 49.6902C198.429 49.4142 197.952 49.2762 197.328 49.2762H195.654V52.4262H197.328Z" fill="#B8B8B8"/>
<path d="M205.202 49.2762H202.988V55.0002H202.331V49.2762H200.117V48.7002H205.202V49.2762Z" fill="#B8B8B8"/>
<path d="M210.084 53.3172H206.574L205.818 55.0002H205.125L208.005 48.7002H208.662L211.542 55.0002H210.84L210.084 53.3172ZM209.841 52.7772L208.329 49.3932L206.817 52.7772H209.841Z" fill="#B8B8B8"/>
<path d="M217.709 48.7002V55.0002H217.052V49.2762H214.01L213.938 51.3822C213.908 52.2522 213.836 52.9542 213.722 53.4882C213.614 54.0162 213.446 54.4122 213.218 54.6762C212.99 54.9342 212.687 55.0632 212.309 55.0632C212.147 55.0632 211.979 55.0422 211.805 55.0002L211.859 54.4062C211.961 54.4302 212.06 54.4422 212.156 54.4422C212.42 54.4422 212.633 54.3372 212.795 54.1272C212.963 53.9172 213.089 53.5932 213.173 53.1552C213.257 52.7112 213.314 52.1262 213.344 51.4002L213.434 48.7002H217.709Z" fill="#B8B8B8"/>
</g>
<defs>
<clipPath id="clip0">
<rect width="268" height="60" fill="white" transform="translate(0.00390625)"/>
</clipPath>
</defs>
</svg>
