<svg width="98" height="28" viewBox="0 0 98 28" fill="none" xmlns="http://www.w3.org/2000/svg">
<g clip-path="url(#clip0)">
<path d="M50.973 23.0655C49.1553 25.0446 46.8553 26.2041 44.2431 26.701C40.1878 27.4755 36.2141 27.2934 32.5204 25.2267C29.1277 23.3274 27.3663 20.2938 26.7844 16.5437C26.3612 13.8153 26.5416 11.113 27.5823 8.53029C29.0479 4.89735 31.7659 2.59565 35.5289 1.5853C39.4264 0.541123 43.3169 0.63999 47.0556 2.26002C51.019 3.97719 53.214 7.11232 53.959 11.2934C54.1177 12.1814 54.1455 13.0929 54.2313 13.994C54.1758 17.3928 53.3268 20.5002 50.973 23.0655ZM46.4442 12.4217C46.2187 9.39928 44.7184 6.80618 40.7923 6.60585C37.8558 6.45581 35.6 7.50866 34.6426 10.7062C34.32 11.7825 34.1934 13.6254 34.1873 14.0122C34.1812 14.3999 34.2263 15.118 34.2844 15.6288C34.6166 18.535 35.8351 21.0092 39.3839 21.4116C42.4991 21.7629 45.3853 20.7031 46.2144 17.0337C46.5492 15.5507 46.5604 13.9498 46.4442 12.4217ZM97.1327 22.4177C95.8206 25.2102 93.4157 26.5085 90.4323 26.577C85.9295 26.6811 81.4215 26.6056 76.9153 26.6117C76.2882 26.6126 75.9153 26.322 75.9153 25.7002C75.9153 20.991 75.9196 16.2818 75.924 11.5726C75.8789 11.1659 75.8546 10.7834 75.8546 10.4304C75.8561 9.80941 75.798 9.18967 75.6812 8.57972C75.4669 7.47744 74.8087 6.89638 73.6917 6.85822C72.3682 6.81225 71.0405 6.84694 69.6546 6.84694C69.6546 8.17384 69.6754 9.4834 69.6503 10.7912C69.5913 13.9775 69.397 17.1543 68.5029 20.2356C67.7744 22.7481 66.5906 24.9795 64.014 26.0445C63.0322 26.4423 61.9919 26.6762 60.9343 26.7366C59.3871 26.8268 57.827 26.6932 56.2459 26.6551C55.7733 24.6465 55.8002 22.7741 56.3171 20.9858C57.0542 20.9858 57.7281 21.0431 58.3881 20.9737C60.1191 20.7881 61.3931 19.8593 61.9403 18.2392C62.4295 16.7848 62.8319 15.2559 62.9516 13.7321C63.1198 11.5752 62.9949 9.39234 62.9949 7.03601H58.421C58.2389 5.5131 58.1079 5.2165 58.1079 4.32843C58.1079 3.36231 58.0819 2.46123 58.421 1.43006H59.3637C64.5976 1.43006 69.8315 1.39017 75.0645 1.45781C76.3411 1.47342 77.6836 1.64687 78.8718 2.0805C81.4085 3.00326 82.4666 5.14192 82.8724 7.64829C82.9965 8.41147 83.039 9.19461 83.0416 9.9682V10.2154C83.0608 10.2438 83.0738 10.276 83.0797 10.3099C85.1264 10.3099 87.076 10.2787 89.023 10.322C90.1375 10.3463 91.2692 10.3845 92.3559 10.603C95.1623 11.1685 96.9497 12.8839 97.6392 15.6643C98.209 17.9626 98.1492 20.2556 97.1327 22.4177ZM90.7185 16.9002C90.3872 16.1552 89.7732 15.6496 88.9883 15.621C87.0474 15.5525 85.1022 15.5993 83.1179 15.5993V21.3171C85.1169 21.3171 87.0674 21.3934 89.0057 21.2685C89.546 21.2347 90.206 20.7152 90.5347 20.233C91.2267 19.2105 91.2259 18.0398 90.7185 16.9002ZM14.5387 21.481C17.464 21.5643 20.1967 20.8774 22.7647 19.4993C22.8982 19.4282 23.0404 19.3727 23.233 19.2851C23.9727 20.6858 24.2425 22.1662 24.2633 23.7003C24.285 25.4149 24.2789 25.4322 22.638 25.9795C19.8932 26.8927 17.0581 27.1399 14.1806 27.0835C11.146 27.0228 8.24939 26.44 5.62594 24.846C2.52116 22.9588 0.783181 20.1402 0.228137 16.6157C-0.221969 13.765 -0.0450488 10.9421 1.11014 8.24236C2.74058 4.42903 5.76123 2.30079 9.70465 1.41879C14.498 0.345123 19.1491 0.869813 23.6007 2.96857C23.8218 3.07264 24.1358 3.31981 24.1358 3.50107C24.1427 5.62064 23.7186 7.64395 22.684 9.45218C21.2019 8.70287 19.8047 7.90846 18.3382 7.2745C16.5838 6.50608 14.629 6.32124 12.7617 6.74721C9.67776 7.42887 7.84004 9.65165 7.73164 12.9793C7.69435 14.1787 7.79842 15.4276 8.09762 16.5871C8.86774 19.5696 11.3628 21.3917 14.5387 21.481Z" fill="#151515"/>
</g>
<defs>
<clipPath id="clip0">
<rect width="98" height="26.246" fill="white" transform="translate(0 0.876953)"/>
</clipPath>
</defs>
</svg>
