<svg width="164" height="34" viewBox="0 0 164 34" fill="none" xmlns="http://www.w3.org/2000/svg">
<g clip-path="url(#clip0)">
<path d="M47.1556 17.7793V14.1706H54.8208C54.5388 13.142 53.9581 12.3373 53.0787 11.7566C52.216 11.1593 51.1292 10.8606 49.8185 10.8606C48.9225 10.8606 48.01 11.0348 47.0809 11.3833C46.1684 11.7317 45.3969 12.2958 44.7664 13.0756L42.2279 10.5869C43.0575 9.4752 44.1608 8.64563 45.5379 8.09811C46.915 7.534 48.3916 7.25195 49.9678 7.25195C52.7054 7.25195 54.8706 8.04834 56.4634 9.64112C58.0561 11.2339 58.8525 13.3825 58.8525 16.0869C58.8525 18.7416 58.0396 20.9068 56.4136 22.5825C54.8042 24.2417 52.5893 25.0712 49.7687 25.0712C46.3177 25.0712 43.7294 23.8269 42.0039 21.3381L44.5673 19.1481C45.6789 20.6911 47.4459 21.4626 49.8683 21.4626C51.2122 21.4626 52.3321 21.1308 53.228 20.4671C54.1406 19.8034 54.6881 18.9075 54.8706 17.7793H47.1556Z" fill="#151515"/>
<path d="M61.2188 24.8722V7.45117H65.0762V14.2454L71.771 7.45117H76.7981L69.2325 15.1662L77.2959 24.8722H72.2188L66.3206 17.7545L65.0762 19.0237V24.8722H61.2188Z" fill="#151515"/>
<path d="M76.6797 16.1615C76.6797 13.6396 77.5424 11.5076 79.2679 9.76549C81.01 8.02339 83.1421 7.15234 85.664 7.15234C88.1693 7.15234 90.2847 8.0151 92.0102 9.74061C93.7523 11.4495 94.6234 13.5898 94.6234 16.1615C94.6234 18.7166 93.7523 20.8569 92.0102 22.5824C90.2847 24.3079 88.1693 25.1707 85.664 25.1707C83.1586 25.1707 81.0349 24.3162 79.2928 22.6073C77.5507 20.8818 76.6797 18.7332 76.6797 16.1615ZM82.13 12.3538C81.1677 13.3327 80.6865 14.6019 80.6865 16.1615C80.6865 17.7211 81.1677 18.9904 82.13 19.9693C83.1089 20.9481 84.2869 21.4376 85.664 21.4376C87.0742 21.4376 88.2522 20.9564 89.1979 19.9941C90.1437 19.0152 90.6165 17.7377 90.6165 16.1615C90.6165 14.6019 90.1188 13.3327 89.1233 12.3538C88.1444 11.3749 86.9913 10.8854 85.664 10.8854C84.2869 10.8854 83.1089 11.3749 82.13 12.3538Z" fill="#151515"/>
<path d="M96.9922 24.8712V7.4502H104.782C108.797 7.4502 110.804 8.93514 110.804 11.905C110.804 13.4148 110.24 14.6592 109.112 15.6381C110.622 16.3515 111.377 17.7037 111.377 19.6947C111.377 21.4534 110.763 22.7558 109.535 23.602C108.307 24.4481 106.657 24.8712 104.583 24.8712H96.9922ZM104.384 17.7286H100.85V21.2626H104.184C105.329 21.2626 106.142 21.1299 106.623 20.8644C107.105 20.5823 107.345 20.1178 107.345 19.4707C107.345 18.8568 107.121 18.4171 106.673 18.1517C106.225 17.8696 105.462 17.7286 104.384 17.7286ZM104.135 11.0588H100.85V14.2444H104.458C105.221 14.2444 105.802 14.12 106.2 13.8711C106.599 13.6056 106.798 13.2406 106.798 12.776C106.798 12.1788 106.607 11.7474 106.225 11.4819C105.844 11.1999 105.147 11.0588 104.135 11.0588Z" fill="#151515"/>
<path d="M112.242 11.0588V7.4502H127.274V11.0588H121.675V24.8712H117.817V11.0588H112.242Z" fill="#151515"/>
<path d="M127.156 16.1615C127.156 13.6396 128.019 11.5076 129.744 9.76549C131.486 8.02339 133.618 7.15234 136.14 7.15234C138.646 7.15234 140.761 8.0151 142.487 9.74061C144.229 11.4495 145.1 13.5898 145.1 16.1615C145.1 18.7166 144.229 20.8569 142.487 22.5824C140.761 24.3079 138.646 25.1707 136.14 25.1707C133.635 25.1707 131.511 24.3162 129.769 22.6073C128.027 20.8818 127.156 18.7332 127.156 16.1615ZM132.606 12.3538C131.644 13.3327 131.163 14.6019 131.163 16.1615C131.163 17.7211 131.644 18.9904 132.606 19.9693C133.585 20.9481 134.763 21.4376 136.14 21.4376C137.551 21.4376 138.729 20.9564 139.674 19.9941C140.62 19.0152 141.093 17.7377 141.093 16.1615C141.093 14.6019 140.595 13.3327 139.6 12.3538C138.621 11.3749 137.468 10.8854 136.14 10.8854C134.763 10.8854 133.585 11.3749 132.606 12.3538Z" fill="#151515"/>
<path d="M151.331 24.8712H147.473V7.4502H154.691C156.101 7.4502 157.312 7.62441 158.324 7.97284C159.336 8.32126 160.099 8.79411 160.614 9.39141C161.145 9.9887 161.518 10.6192 161.734 11.2828C161.966 11.9465 162.082 12.6682 162.082 13.448C162.082 15.1071 161.485 16.5174 160.29 17.6788C159.096 18.8236 157.229 19.396 154.691 19.396H151.331V24.8712ZM154.79 11.0588H151.331V15.7874H154.641C156.93 15.7874 158.075 14.9993 158.075 13.4231C158.075 11.8469 156.98 11.0588 154.79 11.0588Z" fill="#151515"/>
<path fill-rule="evenodd" clip-rule="evenodd" d="M10.8338 7.35916L12.8037 6.78314L13.2898 8.77722L13.655 10.2749L15.4604 7.13601C15.7391 6.6516 16.228 6.40929 16.7169 6.40929C17.2052 6.40929 17.6934 6.65094 17.9723 7.13444L22.2776 14.5977L19.4964 16.204L27.4081 18.5161L29.3593 10.5078L26.5683 12.1197L21.0077 2.48019C20.1127 0.927765 18.5085 0.000588434 16.7166 0H16.715C14.9238 0 13.3197 0.926196 12.424 2.47744L9.3699 7.78721L10.8338 7.35916ZM32.7569 22.8261L29.6768 17.4896L28.8274 20.9747L25.3865 19.9691L27.2105 23.1295C27.7689 24.0958 27.0712 25.3034 25.9558 25.3034H17.332V22.086L11.3731 27.7807L17.332 33.4754V30.258H28.4658C30.2573 30.258 31.8611 29.3322 32.7568 27.7807C33.6526 26.2292 33.6526 24.3769 32.7569 22.8261ZM11.1264 30.258H5.03399C3.25234 30.258 1.5804 29.3356 0.684405 27.7956C-0.220019 26.2413 -0.222896 24.3821 0.675644 22.8257L6.25682 13.1624L3.47267 11.555L11.384 9.24184L13.3364 17.2499L10.5479 15.64L6.22256 23.1289C5.66446 24.0951 6.36175 25.3032 7.47762 25.3032H11.1266L10.0181 26.3625L8.53458 27.7807L10.0181 29.1988L11.1264 30.258Z" fill="#4D4D4D"/>
</g>
<defs>
<clipPath id="clip0">
<rect width="163" height="34" fill="white" transform="translate(0.00390625)"/>
</clipPath>
</defs>
</svg>
