<svg width="80" height="38" viewBox="0 0 80 38" fill="none" xmlns="http://www.w3.org/2000/svg">
<g clip-path="url(#clip0)">
<path d="M76.6111 0.333008H3.38889C1.51726 0.333008 0 1.85026 0 3.72189V34.2775C0 36.1491 1.51726 37.6663 3.38889 37.6663H76.6111C78.4827 37.6663 80 36.1491 80 34.2775V3.72189C80 1.85026 78.4827 0.333008 76.6111 0.333008Z" fill="#151515"/>
<path d="M17.9049 9.99316H26.0259C26.8746 9.99316 27.6528 10.0811 28.3602 10.2572C29.0674 10.4331 29.6851 10.7142 30.2134 11.0998C30.7038 11.4518 31.0905 11.8964 31.3736 12.433C31.6567 12.9696 31.7982 13.6066 31.7982 14.3444C31.7982 15.4008 31.4727 16.2896 30.8219 17.0104C30.171 17.7316 29.2515 18.2428 28.0629 18.5447V18.62C30.1568 19.1403 31.194 20.3893 31.1757 22.3678C31.1757 23.8267 30.5533 25.0844 29.3081 26.1405C28.6101 26.7278 27.7846 27.1806 26.8322 27.4989C25.8793 27.8174 24.7144 27.9767 23.3377 27.9767H14L17.9049 9.99316ZM18.6971 24.9836H23.3661C24.4979 24.9836 25.3984 24.7616 26.0682 24.3171C26.7375 23.873 27.0727 23.1726 27.0727 22.2169C27.0727 21.4458 26.8083 20.8715 26.2805 20.4941C25.752 20.1167 25.0637 19.9282 24.2148 19.9282H19.8005L18.6971 24.9836ZM24.5826 17.262C24.9975 17.262 25.4034 17.2286 25.7993 17.1614C26.1955 17.0946 26.5444 16.9688 26.8464 16.784C27.1477 16.5998 27.3931 16.3481 27.582 16.0296C27.7704 15.7113 27.8649 15.3088 27.8649 14.8222C27.8649 14.2525 27.6811 13.7952 27.3131 13.4516C26.9453 13.108 26.3371 12.9358 25.4881 12.9358H21.3287L20.3948 17.262H24.5826Z" fill="white"/>
<path d="M40.5404 28.3789C39.3708 28.3789 38.2719 28.2615 37.2442 28.0269C36.2156 27.7921 35.329 27.432 34.5842 26.9454C33.8387 26.4592 33.2636 25.8432 32.8581 25.0966C32.4522 24.3509 32.278 23.4581 32.3346 22.418H36.2675C36.2296 22.9883 36.3146 23.4663 36.5222 23.8515C36.7295 24.2375 37.0317 24.5519 37.4277 24.7949C37.8236 25.0381 38.2951 25.2099 38.8426 25.3107C39.3895 25.4111 39.9928 25.4615 40.6534 25.4615C41.1627 25.4615 41.6484 25.4199 42.1106 25.3357C42.5728 25.252 42.983 25.1136 43.3416 24.9207C43.6999 24.728 43.9874 24.485 44.2047 24.1913C44.4213 23.8982 44.5299 23.5416 44.5299 23.1223C44.5299 22.804 44.4636 22.5274 44.3318 22.2922C44.1995 22.0576 43.964 21.8313 43.6246 21.6133C43.2848 21.3955 42.8322 21.1774 42.2663 20.9592C41.7004 20.7415 40.9928 20.4901 40.1442 20.2046C39.2388 19.9197 38.4322 19.6265 37.7247 19.3243C37.0175 19.0227 36.4182 18.6791 35.9281 18.2931C35.4372 17.9077 35.0649 17.4591 34.8102 16.9477C34.5556 16.4363 34.4282 15.8285 34.4282 15.1241C34.4282 14.2687 34.6025 13.5017 34.952 12.8227C35.3004 12.1435 35.8005 11.5693 36.4514 11.0997C37.1022 10.6304 37.8804 10.274 38.786 10.0308C39.6915 9.78782 40.7002 9.66602 41.8136 9.66602C42.8507 9.66602 43.8367 9.76675 44.7706 9.96808C45.7043 10.1692 46.515 10.4959 47.2039 10.9487C47.8922 11.4014 48.4346 11.9842 48.831 12.6967C49.227 13.4097 49.397 14.2687 49.3402 15.2749H45.4636C45.5012 14.3863 45.195 13.7074 44.5441 13.2376C43.8932 12.7685 42.9356 12.5333 41.672 12.5333C41.2946 12.5333 40.908 12.5671 40.512 12.6341C40.1156 12.7011 39.7524 12.8187 39.4226 12.986C39.0925 13.1539 38.8184 13.3721 38.6018 13.6401C38.3848 13.9085 38.2766 14.2437 38.2766 14.6461C38.2766 14.948 38.3377 15.2038 38.4603 15.4132C38.5829 15.6231 38.8002 15.8201 39.1114 16.0045C39.4226 16.1891 39.8468 16.3691 40.3847 16.545C40.9222 16.7211 41.5873 16.9351 42.3794 17.1865C43.3792 17.4883 44.2656 17.8113 45.0392 18.1549C45.8125 18.4986 46.4584 18.8843 46.9774 19.3117C47.4962 19.7394 47.8874 20.2214 48.1518 20.7581C48.4157 21.295 48.548 21.9236 48.548 22.6444C48.548 23.6003 48.3452 24.4347 47.9397 25.1471C47.5338 25.86 46.9774 26.455 46.2702 26.9327C45.5628 27.4107 44.7183 27.7715 43.7378 28.0143C42.7567 28.2573 41.6905 28.3789 40.5404 28.3789Z" fill="white"/>
<path d="M57.7162 28.3789C56.5466 28.3789 55.4477 28.2615 54.42 28.0269C53.3914 27.7921 52.5048 27.432 51.76 26.9454C51.0145 26.4592 50.4393 25.8432 50.0339 25.0966C49.628 24.3509 49.4538 23.4581 49.5104 22.418H53.4435C53.4056 22.9883 53.4906 23.4663 53.6981 23.8515C53.9055 24.2375 54.2077 24.5519 54.6037 24.7949C54.9999 25.0381 55.4711 25.2099 56.0185 25.3107C56.5655 25.4111 57.1691 25.4615 57.8294 25.4615C58.3387 25.4615 58.8243 25.4199 59.2866 25.3357C59.7488 25.252 60.159 25.1136 60.5175 24.9207C60.8759 24.728 61.1635 24.485 61.3807 24.1913C61.5973 23.8982 61.7059 23.5416 61.7059 23.1223C61.7059 22.804 61.6397 22.5274 61.5078 22.2922C61.3755 22.0576 61.14 21.8313 60.8006 21.6133C60.461 21.3955 60.0082 21.1774 59.4423 20.9592C58.8764 20.7415 58.169 20.4901 57.3203 20.2046C56.4147 19.9197 55.6081 19.6265 54.9007 19.3243C54.1935 19.0227 53.5943 18.6791 53.1041 18.2931C52.6133 17.9077 52.2409 17.4591 51.9863 16.9477C51.7316 16.4363 51.6045 15.8285 51.6045 15.1241C51.6045 14.2687 51.7785 13.5017 52.128 12.8227C52.4765 12.1435 52.9767 11.5693 53.6276 11.0997C54.2783 10.6304 55.0565 10.274 55.962 10.0308C56.8673 9.78782 57.8763 9.66602 58.9895 9.66602C60.0267 9.66602 61.0127 9.76675 61.9466 9.96808C62.8803 10.1692 63.6909 10.4959 64.3799 10.9487C65.0684 11.4014 65.6107 11.9842 66.0071 12.6967C66.403 13.4097 66.5729 14.2687 66.5161 15.2749H62.6396C62.6773 14.3863 62.371 13.7074 61.7201 13.2376C61.0693 12.7685 60.1117 12.5333 58.848 12.5333C58.4705 12.5333 58.084 12.5671 57.6881 12.6341C57.2919 12.7011 56.9283 12.8187 56.5987 12.986C56.2685 13.1539 55.9944 13.3721 55.7779 13.6401C55.5608 13.9085 55.4527 14.2437 55.4527 14.6461C55.4527 14.948 55.5137 15.2038 55.6365 15.4132C55.7589 15.6231 55.9762 15.8201 56.2874 16.0045C56.5987 16.1891 57.023 16.3691 57.5607 16.545C58.0983 16.7211 58.7633 16.9351 59.5555 17.1865C60.5552 17.4883 61.4415 17.8113 62.2153 18.1549C62.9885 18.4986 63.6344 18.8843 64.1534 19.3117C64.6722 19.7394 65.0635 20.2214 65.3278 20.7581C65.5917 21.295 65.724 21.9236 65.724 22.6444C65.724 23.6003 65.5211 24.4347 65.1157 25.1471C64.7099 25.86 64.1534 26.455 63.4462 26.9327C62.7388 27.4107 61.8943 27.7715 60.9137 28.0143C59.9325 28.2573 58.8665 28.3789 57.7162 28.3789Z" fill="white"/>
</g>
<defs>
<clipPath id="clip0">
<rect width="80" height="37.3333" fill="white" transform="translate(0 0.333008)"/>
</clipPath>
</defs>
</svg>
