<svg width="181" height="30" viewBox="0 0 181 30" fill="none" xmlns="http://www.w3.org/2000/svg">
<g clip-path="url(#clip0)">
<path fill-rule="evenodd" clip-rule="evenodd" d="M12.0582 29.4174L13.4982 26.187L14.0838 24.873C14.5267 23.8794 15.0719 23.297 16.2302 23.297L19.5675 23.2968L17.9329 19.6301H16.441C15.8819 19.6304 15.4247 19.6219 14.8685 19.7418C13.4321 20.0514 12.1613 20.9604 11.3404 22.17C11.0015 22.6698 10.7919 23.1772 10.5492 23.7215L8.01029 29.4174H12.0582ZM4.04787 29.4174L11.8904 11.8243C12.3333 10.8307 12.8784 10.2483 14.0365 10.2483L21.498 10.2477L19.8699 6.58105L14.2473 6.58134C13.6885 6.58134 13.2313 6.57287 12.6751 6.69302C11.2387 7.00269 9.96758 7.91168 9.14701 9.12131C8.80779 9.62107 8.59845 10.1284 8.35578 10.6728L0 29.4174H4.04787Z" fill="#B8B8B8"/>
<path fill-rule="evenodd" clip-rule="evenodd" d="M34.0076 29.4168L23.2567 5.29919C22.8138 4.30531 22.2687 3.7232 21.1103 3.72292L11.4219 3.72263L13.0499 0.0556641L20.8996 0.0562279C21.4587 0.0562279 21.9158 0.0477677 22.4721 0.16763C23.9084 0.477584 25.1793 1.38629 26.0001 2.59592C26.3391 3.09596 26.5487 3.60305 26.7914 4.14765L38.0554 29.4168H34.0076ZM24.5803 17.1967L30.0275 29.4168H25.9796L21.0457 18.3482C20.6028 17.3543 20.0576 16.7722 18.8993 16.7719L13.5859 16.7717L15.214 13.1047L18.6885 13.1052C19.2476 13.1052 19.7047 13.0968 20.261 13.2166C21.6973 13.5266 22.9682 14.4353 23.7891 15.6449C24.128 16.145 24.3376 16.6521 24.5803 17.1967Z" fill="#8C8C8C"/>
<path fill-rule="evenodd" clip-rule="evenodd" d="M53.9692 0.21875H54.358C54.4722 0.21875 54.5656 0.311256 54.5656 0.424352V5.24793L58.0868 0.32C58.123 0.259644 58.1897 0.21875 58.2654 0.21875H58.6542C58.7684 0.21875 58.8618 0.311256 58.8618 0.424352V6.40736C58.8618 6.52045 58.7684 6.61296 58.6542 6.61296H58.2654C58.1512 6.61296 58.0578 6.52045 58.0578 6.40736V1.68531L54.5428 6.50071C54.5084 6.56727 54.4383 6.61296 54.358 6.61296H53.9692C53.855 6.61296 53.7618 6.52045 53.7618 6.40736V0.424352C53.7618 0.311256 53.855 0.21875 53.9692 0.21875ZM61.415 0.21875C62.2774 0.21875 63.1401 0.21875 64.0026 0.21875C65.0755 0.21875 65.9533 1.08797 65.9533 2.15038C65.9533 3.21279 65.0755 4.08173 64.0026 4.08173H62.0114V6.40736C62.0114 6.52045 61.918 6.61296 61.8037 6.61296H61.415C61.3008 6.61296 61.2073 6.52045 61.2073 6.40736V0.424352C61.2073 0.311256 61.3008 0.21875 61.415 0.21875ZM62.0114 0.92665V3.37383H63.9137C64.5936 3.37383 65.1495 2.82331 65.1495 2.15038C65.1495 1.47717 64.5936 0.92665 63.9137 0.92665H62.0114ZM80.6489 0.21875H81.0377H84.1741C84.2883 0.21875 84.3815 0.311256 84.3815 0.424352V0.72133C84.3815 0.834141 84.2881 0.92665 84.1741 0.92665H81.245V6.40736C81.245 6.52045 81.1519 6.61296 81.0377 6.61296H80.6489C80.5347 6.61296 80.4413 6.52045 80.4413 6.40736V0.72133V0.424352V0.418993L80.4416 0.413634L80.4418 0.408557L80.4424 0.403198L80.443 0.398123L80.4436 0.393046L80.4447 0.387969L80.4455 0.382892L80.4467 0.378097L80.4478 0.373022L80.4492 0.368227L80.4507 0.363432L80.4524 0.358636L80.4538 0.353844L80.4558 0.349048L80.4578 0.344535L80.4598 0.340024V0.339742L80.4618 0.335511L80.4641 0.330998L80.4663 0.326487L80.4689 0.322256L80.4715 0.318024L80.474 0.313796L80.4769 0.309564L80.4797 0.305615L80.4826 0.301386L80.4857 0.297718L80.4888 0.293771L80.492 0.290104L80.4954 0.286155L80.4988 0.282772L80.5022 0.279104L80.5059 0.275721L80.5093 0.272335L80.5131 0.268952L80.517 0.265849L80.5207 0.262747L80.5247 0.259644L80.529 0.256825L80.533 0.254003L80.5373 0.251184L80.5415 0.248646L80.5458 0.246107L80.5501 0.243569L80.5546 0.241314L80.5592 0.239056L80.5635 0.237082H80.5637L80.5683 0.235109L80.5729 0.233133L80.5777 0.23116L80.5825 0.22975L80.5874 0.228056L80.5922 0.226646L80.5971 0.225237L80.6022 0.224109L80.607 0.222981L80.6122 0.222136L80.6173 0.221287L80.6224 0.220442L80.6275 0.219878L80.633 0.219314L80.6381 0.219032L80.6435 0.21875H80.6489ZM119.859 0.21875H120.248H123.622C123.736 0.21875 123.829 0.311538 123.829 0.424352V0.72133C123.829 0.834141 123.736 0.92665 123.622 0.92665H120.456V2.96883H123.414C123.528 2.96883 123.622 3.06163 123.622 3.17444V3.47141C123.622 3.58423 123.528 3.67673 123.414 3.67673H120.456V5.90506H123.622C123.736 5.90506 123.829 5.99785 123.829 6.11038V6.40764C123.829 6.52045 123.736 6.61296 123.622 6.61296H120.248H119.859H119.854L119.849 6.61268L119.843 6.6124L119.838 6.61183L119.833 6.61127L119.828 6.6107L119.823 6.60986L119.818 6.60873L119.813 6.6076L119.808 6.60647L119.803 6.60506L119.798 6.60365L119.793 6.60224L119.788 6.60055L119.784 6.59858L119.779 6.5966L119.774 6.59463L119.77 6.59265L119.765 6.5904L119.761 6.58814L119.756 6.5856L119.748 6.58053L119.744 6.57771H119.743L119.739 6.57489L119.735 6.57206L119.728 6.56586H119.727L119.724 6.56276L119.72 6.55937L119.716 6.55599L119.713 6.5526L119.709 6.54894L119.706 6.54555H119.706L119.703 6.54189L119.7 6.53794H119.699L119.696 6.53427H119.696L119.693 6.53033L119.69 6.52609H119.69L119.688 6.52215H119.687L119.685 6.51792L119.682 6.51397L119.68 6.50946H119.679L119.677 6.50522L119.675 6.50071L119.672 6.49648L119.67 6.49197V6.49169L119.668 6.48717L119.666 6.48266L119.664 6.47787L119.663 6.47307L119.661 6.46856L119.66 6.46348L119.659 6.45869L119.657 6.45361L119.656 6.44882L119.655 6.44374L119.654 6.43867L119.653 6.43359L119.653 6.42851L119.653 6.42315L119.652 6.41808L119.652 6.41272V6.40764V6.40736V6.11038V3.47141V3.17444V0.72133V0.424352V0.418993L119.652 0.413634L119.653 0.408557L119.653 0.403198L119.653 0.398123L119.654 0.393046L119.655 0.387969L119.656 0.382892L119.657 0.378097L119.659 0.373022L119.66 0.368227L119.661 0.363432L119.663 0.358636L119.664 0.353844L119.666 0.349048L119.668 0.344535L119.67 0.340024V0.339742L119.672 0.335511L119.675 0.330998L119.677 0.326487L119.679 0.322256L119.682 0.318024L119.685 0.313796L119.687 0.309564L119.69 0.305615L119.693 0.301386L119.696 0.297718L119.699 0.293771L119.703 0.290104L119.706 0.286155L119.709 0.282772L119.713 0.279104H119.713L119.716 0.275721L119.72 0.272335L119.724 0.268952L119.727 0.265849L119.731 0.262747L119.735 0.259644L119.739 0.256825L119.743 0.254003L119.748 0.251184L119.752 0.248646L119.756 0.246107L119.761 0.243569L119.765 0.241314L119.77 0.239056L119.774 0.237082L119.779 0.235109L119.784 0.233133L119.788 0.23116L119.793 0.22975L119.798 0.228056L119.803 0.226646L119.808 0.225237L119.813 0.224109L119.818 0.222981L119.823 0.222136H119.823L119.828 0.221287L119.833 0.220442L119.838 0.219878L119.843 0.219314L119.849 0.219032L119.854 0.21875H119.859ZM116.644 0.21875H117.033C117.147 0.21875 117.24 0.311256 117.24 0.424352V6.40736C117.24 6.52045 117.147 6.61296 117.033 6.61296H116.644C116.53 6.61296 116.436 6.52045 116.436 6.40736V4.0211C115.785 4.59954 114.098 4.72476 113.289 4.10147C113.089 3.9472 112.93 3.74639 112.817 3.49398C112.655 3.12818 112.667 2.92794 112.667 2.54635V0.424352C112.667 0.311256 112.761 0.21875 112.875 0.21875H113.264C113.378 0.21875 113.471 0.311256 113.471 0.424352V2.33765C113.471 2.60727 113.453 2.77903 113.572 3.03511C113.668 3.2393 113.818 3.39527 114.022 3.50413C114.683 3.85526 115.71 3.81013 116.192 3.19502C116.441 2.87717 116.436 2.64337 116.436 2.2725V0.424352C116.436 0.311256 116.53 0.21875 116.644 0.21875ZM86.1884 0.21875H86.5774C86.6914 0.21875 86.7848 0.311256 86.7848 0.424352V5.24793L90.306 0.32C90.3422 0.259644 90.4089 0.21875 90.4846 0.21875H90.8734C90.9876 0.21875 91.081 0.311256 91.081 0.424352V6.40736C91.081 6.52045 90.9876 6.61296 90.8734 6.61296H90.4846C90.3704 6.61296 90.277 6.52045 90.277 6.40736V1.68531L86.762 6.50071C86.7275 6.56727 86.6578 6.61296 86.5774 6.61296H86.1884C86.0745 6.61296 85.981 6.52045 85.981 6.40736V0.424352C85.981 0.311256 86.0745 0.21875 86.1884 0.21875ZM132.573 0.21875H132.962C133.076 0.21875 133.169 0.311256 133.169 0.424352V5.24793L136.69 0.32C136.727 0.259644 136.793 0.21875 136.869 0.21875H137.258C137.372 0.21875 137.465 0.311256 137.465 0.424352V6.40736C137.465 6.52045 137.372 6.61296 137.258 6.61296H136.869C136.755 6.61296 136.661 6.52045 136.661 6.40736V1.68531L133.146 6.50071C133.112 6.56727 133.042 6.61296 132.962 6.61296H132.573C132.459 6.61296 132.365 6.52045 132.365 6.40736V0.424352C132.365 0.311256 132.459 0.21875 132.573 0.21875ZM140.177 0.21875H140.565C140.68 0.21875 140.773 0.311256 140.773 0.424352V5.24793L144.294 0.32C144.331 0.259644 144.397 0.21875 144.473 0.21875H144.862C144.976 0.21875 145.069 0.311256 145.069 0.424352V6.40736C145.069 6.52045 144.976 6.61296 144.862 6.61296H144.473C144.359 6.61296 144.265 6.52045 144.265 6.40736V1.68531L140.75 6.50071C140.716 6.56727 140.646 6.61296 140.565 6.61296H140.177C140.062 6.61296 139.969 6.52045 139.969 6.40736V0.424352C139.969 0.311256 140.062 0.21875 140.177 0.21875ZM67.8499 6.08782V6.38508C67.8499 6.49789 67.9433 6.5904 68.0573 6.5904C69.3692 6.5904 69.8311 6.18202 70.3336 4.97464L70.4623 4.68528L72.3475 0.446631C72.3982 0.332692 72.3504 0.241314 72.2362 0.241314H71.8178C71.7038 0.241314 71.5651 0.332974 71.5141 0.446631L69.9716 3.87669L67.9807 0.446631C67.9149 0.33382 67.7679 0.241314 67.6537 0.241314H67.2353C67.1211 0.241314 67.0835 0.332692 67.1473 0.446631L69.5634 4.78427C69.0895 5.53842 68.9787 5.8825 68.0573 5.8825C67.9433 5.8825 67.8499 5.97529 67.8499 6.08782ZM74.239 0.21875C75.1017 0.21875 75.9642 0.21875 76.8269 0.21875C77.8995 0.21875 78.7774 1.08797 78.7774 2.15038C78.7774 3.21279 77.8995 4.08173 76.8269 4.08173H74.8354V6.40736C74.8354 6.52045 74.742 6.61296 74.6281 6.61296H74.239C74.1251 6.61296 74.0317 6.52045 74.0317 6.40736V0.424352C74.0317 0.311256 74.1251 0.21875 74.239 0.21875ZM74.8354 0.92665V3.37383H76.738C77.4176 3.37383 77.9736 2.82331 77.9736 2.15038C77.9736 1.47717 77.4176 0.92665 76.738 0.92665H74.8354ZM97.6983 0.21875C96.9805 0.21875 96.2631 0.21875 95.5453 0.21875C94.4727 0.21875 93.5949 1.08797 93.5949 2.15038C93.5949 3.00804 94.1671 3.73991 94.9523 3.98979C94.465 4.78624 93.989 5.59229 93.4436 6.40736C93.3701 6.51707 93.4129 6.61296 93.5271 6.61296H94.0477C94.1619 6.61296 94.3109 6.52045 94.3793 6.40736L95.7817 4.08173H97.1018V4.4196V6.40736C97.1018 6.52045 97.1953 6.61296 97.3095 6.61296H97.6983C97.8122 6.61296 97.9056 6.52045 97.9056 6.40736V0.424352C97.9056 0.311256 97.8122 0.21875 97.6983 0.21875ZM97.1018 0.92665V3.37383H95.6342C94.9546 3.37383 94.3986 2.82331 94.3986 2.15038C94.3986 1.47717 94.9546 0.92665 95.6342 0.92665H97.1018ZM46.8421 0.21875H47.383C47.4969 0.21875 47.659 0.310974 47.7416 0.424352L49.3816 2.67806L51.0213 0.424352C51.1039 0.310974 51.266 0.21875 51.3802 0.21875H51.9208C52.035 0.21875 52.0589 0.31041 51.9772 0.424352L49.8738 3.35437L52.0954 6.40736C52.178 6.52102 52.1532 6.61296 52.0392 6.61296H51.4394C51.3255 6.61296 51.1623 6.52158 51.0805 6.40736L49.3816 4.04027L47.6823 6.40736C47.6006 6.52158 47.4377 6.61296 47.3238 6.61296H46.7239C46.61 6.61296 46.5852 6.52102 46.6678 6.40736L48.8891 3.35437L46.786 0.424352C46.7043 0.31041 46.7282 0.21875 46.8421 0.21875ZM125.428 0.21875H125.969C126.083 0.21875 126.245 0.310974 126.327 0.424352L127.967 2.67806L129.607 0.424352C129.69 0.310974 129.852 0.21875 129.966 0.21875H130.506C130.621 0.21875 130.645 0.31041 130.563 0.424352L128.459 3.35437L130.681 6.40736C130.764 6.52102 130.739 6.61296 130.625 6.61296H130.025C129.911 6.61296 129.748 6.52158 129.666 6.40736L127.967 4.04027L126.268 6.40736C126.186 6.52158 126.023 6.61296 125.909 6.61296H125.31C125.196 6.61296 125.171 6.52102 125.254 6.40736L127.475 3.35437L125.372 0.424352C125.29 0.31041 125.314 0.21875 125.428 0.21875ZM103.444 0.21875C104.409 0.21875 105.375 0.21875 106.34 0.21875C107.217 0.21875 107.934 0.929187 107.934 1.79728C107.934 2.36529 107.627 2.86561 107.169 3.14398C107.692 3.48129 108.04 4.06537 108.04 4.72589C108.04 5.76377 107.182 6.61296 106.134 6.61296H103.737H103.444C103.33 6.61296 103.236 6.52045 103.236 6.40736V0.424352C103.236 0.311256 103.33 0.21875 103.444 0.21875ZM104.04 0.92665V2.83882H106.134H106.165C106.696 2.83882 107.13 2.40872 107.13 1.88273C107.13 1.35703 106.696 0.92665 106.165 0.92665H104.04ZM104.04 3.54672V5.90506H106.045C106.7 5.90506 107.236 5.37456 107.236 4.72589C107.236 4.0775 106.7 3.54672 106.045 3.54672H104.04ZM93.8412 12.9522H96.9036C97.1235 12.9522 97.3032 13.1301 97.3032 13.3479V26.6989V26.9875V29.2821C97.3032 29.4228 97.187 29.5379 97.0449 29.5379H95.0637C94.9218 29.5379 94.8355 29.4197 94.8056 29.2821L94.5248 28.0033C94.418 27.5154 94.1799 27.3854 93.8033 27.7608C93.1121 28.4501 92.3824 28.9605 91.6182 29.31C89.9113 30.0904 87.8076 30.0904 86.0896 29.341C84.2257 28.5279 83.2841 27.0929 82.8645 25.3178C82.6709 24.4988 82.6355 23.8747 82.6355 23.05V13.3479C82.6355 13.1301 82.8153 12.9522 83.0348 12.9522H86.0975C86.3171 12.9522 86.4968 13.1304 86.4968 13.3479V22.4761C86.4968 23.2393 86.4644 23.8538 86.7389 24.5939C86.8628 24.9278 87.0286 25.2112 87.232 25.449C88.1628 26.5376 89.7948 26.6603 91.0605 26.1278C92.3328 25.5928 92.8372 24.7084 93.1955 23.4358C93.2787 23.1411 93.3394 22.8453 93.3798 22.5483C93.4442 22.0779 93.4419 21.6452 93.4419 21.1776V13.3479C93.4419 13.1301 93.6216 12.9522 93.8412 12.9522ZM64.4324 29.8991H61.3697C61.1501 29.8991 60.9704 29.7212 60.9704 29.5037V16.1524V15.8641V13.208C60.9704 13.0672 61.0866 12.9522 61.2287 12.9522H63.2096C63.3517 12.9522 63.4304 13.0723 63.468 13.208L63.8721 14.6675C63.9353 14.8956 64.1048 15.4307 64.3364 15.4967C64.5226 15.5497 64.6693 15.4137 64.775 15.2863C65.1712 14.8074 65.5967 14.3843 66.0536 14.0219C67.2609 13.0644 68.6545 12.6109 70.2079 12.6411C70.4275 12.6411 70.6073 12.8191 70.6073 13.0365V15.6777C70.6073 15.8952 70.4275 16.0731 70.2079 16.0731C68.5469 16.1078 67.3139 16.6361 66.3221 17.9785C65.5947 18.9628 65.2598 20.1806 65.0524 21.4024C64.8744 22.4507 64.8317 23.2082 64.8317 24.2602V29.5037C64.8317 29.7212 64.652 29.8991 64.4324 29.8991ZM47.2517 16.5151L46.5342 14.0293C46.4738 13.8203 46.5972 13.6003 46.8082 13.5405C47.6855 13.2348 48.5801 12.9922 49.4984 12.8357C51.1235 12.5585 52.9393 12.5272 54.5383 12.953C55.9607 13.3321 57.1108 13.9486 57.9473 14.9312C58.7861 15.9166 59.1709 17.0859 59.3062 18.3187C59.3745 18.9445 59.3657 19.5576 59.3657 20.1843V26.6989V26.9875V29.2821C59.3657 29.4228 59.2495 29.5379 59.1074 29.5379H57.1264C56.9843 29.5379 56.9057 29.418 56.8681 29.2821L56.5611 28.1728C56.4543 27.6849 56.2161 27.5552 55.8396 27.9306C55.7593 28.0107 55.6781 28.0885 55.5967 28.1638C55.0558 28.7245 54.4101 29.1357 53.6727 29.4169C52.0435 30.0387 49.7949 30.0565 48.1557 29.4606C46.8185 28.9744 45.7792 28.0025 45.3229 26.6561C44.8598 25.2888 44.884 23.5413 45.5507 22.2457C46.3257 20.7385 47.6288 20.0664 49.2417 19.7477C51.2338 19.3537 53.5545 19.4809 55.5967 19.482C55.583 18.9104 55.4879 18.4061 55.3115 17.9695C54.8524 16.8326 53.7271 16.2954 52.518 16.1098C50.7191 15.8337 49.4403 16.3298 47.7453 16.7867C47.534 16.8465 47.3121 16.7243 47.2517 16.5151ZM55.5967 22.4879C54.5414 22.4879 53.4861 22.4879 52.4309 22.4879C51.6693 22.4879 50.8524 22.4383 50.123 22.6721C48.297 23.2582 48.3924 25.513 49.9529 26.2855C50.9042 26.7562 52.3796 26.6259 53.3389 26.2432C54.9735 25.5908 55.5739 24.1471 55.5967 22.4879ZM111.203 14.0924L110.433 16.6222C110.369 16.8307 110.145 16.9497 109.935 16.8868C109.07 16.6056 108.212 16.3712 107.366 16.2198C106.39 16.0452 104.856 15.894 103.904 16.1786C103.212 16.3851 102.511 16.8456 102.615 17.6539C102.739 18.6233 103.602 18.9053 104.415 19.1749C105.751 19.6177 107.135 19.7638 108.461 20.2325C110.026 20.7859 111.364 21.7019 111.798 23.5013C112.15 24.9613 111.94 26.3757 111.059 27.6161C109.947 29.1817 108.104 29.682 106.27 29.874C104.343 30.076 102.781 29.8157 100.929 29.3788C100.233 29.2147 99.5345 29.0291 98.8336 28.8181C98.6234 28.7552 98.5032 28.5333 98.5667 28.3251L99.3374 25.795C99.4006 25.5869 99.6248 25.4679 99.835 25.5308C100.424 25.7254 101.02 25.8858 101.621 26.0198C102.953 26.3162 104.603 26.6104 105.96 26.4209C106.892 26.2908 107.993 25.9563 108.099 24.8618C108.19 23.9254 107.423 23.4767 106.67 23.1651C105.229 22.5683 103.648 22.5054 102.144 21.9405C100.852 21.4554 99.7171 20.8005 99.1648 19.4815C98.6607 18.2781 98.7111 16.6581 99.2491 15.4744C99.9182 14.0019 101.206 13.2965 102.731 12.8819C104.3 12.4555 106.257 12.6352 107.852 12.8935C108.864 13.0577 109.893 13.2971 110.936 13.5994C111.147 13.6623 111.267 13.8843 111.203 14.0924ZM81.3501 12.9522C81.5697 12.9522 81.7497 13.1304 81.7497 13.3479V15.9431C81.7497 16.1606 81.5697 16.3385 81.3501 16.3385H77.5352V23.8778C77.5352 24.4655 77.5088 25.0739 77.7312 25.6303C78.1166 26.5951 78.8773 26.6143 79.7899 26.4285C79.9878 26.3343 80.2279 26.4177 80.3231 26.6135L81.3533 28.7332C81.4487 28.929 81.3647 29.1667 81.1667 29.2609C80.8252 29.4391 80.4564 29.5742 80.0639 29.6724C78.8867 29.9674 77.6796 29.9448 76.5495 29.4721C74.4429 28.5908 73.707 26.7254 73.707 24.6607V16.3385H72.0134C71.7941 16.3385 71.6141 16.1606 71.6141 15.9431V13.3479C71.6141 13.1304 71.7938 12.9522 72.0134 12.9522H73.707V9.0311C73.707 8.81365 73.8989 8.70732 74.1063 8.63569L77.1359 7.58512C77.343 7.5132 77.5352 7.76308 77.5352 7.98053V12.9522H81.3501ZM116.104 29.3131C116.104 29.4366 116.002 29.5379 115.877 29.5379H114.135C114.01 29.5379 113.908 29.4366 113.908 29.3131C113.908 24.0171 113.908 18.7211 113.908 13.4251C113.908 13.3013 114.01 13.2001 114.135 13.2001H115.424C115.549 13.2001 115.644 13.3016 115.651 13.4251L115.76 15.451C115.767 15.5866 115.763 15.6616 115.933 15.6969C116.103 15.7324 116.118 15.6408 116.205 15.5203C117.484 13.7388 119.315 12.7914 121.512 12.8453C122.972 12.8811 124.056 13.2463 125.092 14.2814C125.553 14.7417 125.927 15.2741 126.239 15.8579C126.376 16.114 126.726 16.1307 126.896 15.9005C128.463 13.7766 130.244 12.6253 132.95 12.8656C134.959 13.0436 136.412 13.842 137.339 15.6506C137.906 16.7582 138.112 17.8922 138.112 19.1182V29.3131C138.112 29.4366 138.01 29.5379 137.885 29.5379H136.143C136.018 29.5379 135.915 29.4366 135.915 29.3131V19.1704C135.915 18.1799 135.776 17.4413 135.241 16.5636C134.491 15.3328 133.369 14.8141 131.929 14.883C129.981 14.9755 128.626 16.0466 127.842 17.7865C127.083 19.4716 127.068 21.3519 127.068 23.1637V29.3131C127.068 29.4369 126.966 29.5379 126.841 29.5379H125.099C124.974 29.5379 124.872 29.4369 124.872 29.3131V20.0317C124.872 18.958 124.829 17.9971 124.399 16.9804C123.794 15.548 122.743 14.9464 121.19 14.8928C119.702 14.8418 118.635 15.3246 117.677 16.4248C116.827 17.4012 116.555 18.2174 116.337 19.4519C116.136 20.5896 116.088 21.7496 116.092 22.9025C116.099 25.0386 116.104 27.1756 116.104 29.3131ZM166.769 5.40981H168.511C168.636 5.40981 168.738 5.51107 168.738 5.63488C168.738 13.5275 168.738 21.4204 168.738 29.3131C168.738 29.4366 168.636 29.5379 168.511 29.5379H167.184C167.059 29.5379 166.964 29.4366 166.957 29.3131L166.839 27.1124C166.828 26.915 166.653 26.8287 166.535 26.9914C165.834 27.9605 165.054 28.6523 164.21 29.1182C162.353 30.1431 159.969 30.1521 158.065 29.2403C156.126 28.3119 155.205 26.8715 154.589 24.8801C153.936 22.7674 153.857 20.406 154.455 18.2724C155.053 16.1411 156.14 14.4667 158.228 13.5143C160.925 12.284 164 12.7784 166.542 14.1398V5.63488C166.542 5.51107 166.644 5.40981 166.769 5.40981ZM166.542 21.1435V16.3712C165.797 15.918 165.043 15.5722 164.28 15.3238C162.428 14.7197 160.547 14.6286 158.825 15.6831C156.969 16.8205 156.437 18.887 156.349 20.9221C156.259 22.9916 156.687 25.4123 158.409 26.7768C159.842 27.9128 161.907 28.1458 163.543 27.3045C165.671 26.2102 166.48 23.4378 166.542 21.1435ZM151.593 26.9618C148.931 27.941 145.302 28.5084 143.255 26.0734C142.595 25.2891 142.188 24.2963 142.028 23.2584C144.294 22.8915 149.795 22.348 151.58 21.2461C153.061 20.3324 153.557 18.8164 153.367 17.1505C153.17 15.4222 152.191 14.1539 150.588 13.4531C148.617 12.5903 146.301 12.6154 144.287 13.3205C142.569 13.9215 141.427 15.0107 140.609 16.6115C139.794 18.2061 139.565 20.0534 139.629 21.8223C139.697 23.7196 140.101 25.5618 141.236 27.129C143.354 30.054 147.051 30.1558 150.269 29.5266C150.909 29.4014 151.563 29.2398 152.237 29.026C152.31 28.9727 152.346 28.8785 152.322 28.7871L151.871 27.1209C151.838 27.0016 151.713 26.9299 151.593 26.9618ZM141.909 21.379C143.742 21.0716 148.662 20.5377 150.079 19.6772C151.955 18.5395 151.274 16.1623 149.44 15.3232C147.335 14.3589 144.496 14.9019 143.122 16.8064C142.201 18.0829 141.874 19.8199 141.909 21.379ZM176.72 14.9382V17.6432C176.72 17.7131 176.662 17.7707 176.591 17.7707H176.269C176.198 17.7707 176.14 17.7131 176.14 17.6432V14.2707C176.14 14.2004 176.198 14.1429 176.269 14.1429C176.435 14.1429 176.602 14.1429 176.769 14.1429C176.84 14.1429 176.921 14.1889 176.949 14.245L178.071 16.4632L179.192 14.245C179.22 14.1889 179.301 14.1429 179.372 14.1429C179.539 14.1429 179.706 14.1429 179.872 14.1429C179.943 14.1429 180.001 14.2004 180.001 14.2707V17.6432C180.001 17.7131 179.943 17.7707 179.872 17.7707H179.55C179.479 17.7707 179.422 17.7131 179.422 17.6432V14.9382L178.316 17.124C178.281 17.1945 178.195 17.2258 178.12 17.2258H178.015C177.943 17.2258 177.858 17.1903 177.825 17.124L176.72 14.9382ZM172.371 14.1429H175.349C175.407 14.1429 175.455 14.19 175.455 14.2473V14.5084C175.455 14.5657 175.407 14.6128 175.349 14.6128H174.15V17.6432C174.15 17.7131 174.092 17.7707 174.021 17.7707H173.699C173.628 17.7707 173.57 17.7131 173.57 17.6432V14.6128H172.371C172.313 14.6128 172.265 14.5657 172.265 14.5084V14.2473C172.265 14.19 172.313 14.1429 172.371 14.1429Z" fill="#151515"/>
</g>
<defs>
<clipPath id="clip0">
<rect width="180.001" height="29.8879" fill="white" transform="translate(0 0.0556641)"/>
</clipPath>
</defs>
</svg>
