<svg width="200" height="42" viewBox="0 0 200 42" fill="none" xmlns="http://www.w3.org/2000/svg">
<g clip-path="url(#clip0)">
<path d="M23.8244 41.0304L0.726615 17.5125C0.301991 17.0768 0.0525446 16.5001 0.0258288 15.8923C-0.000886936 15.2845 0.196997 14.6882 0.581756 14.2169L11.3665 1.23029C12.0691 0.361132 14.1406 0.361132 14.8576 0.897112L25.5917 9.87115L36.3258 0.897112C36.9414 0.361132 39.1143 0.556692 39.8386 1.23029L50.6234 14.2169C51.0097 14.6875 51.2085 15.2842 51.1818 15.8924C51.1551 16.5007 50.9046 17.0776 50.4785 17.5125L27.359 41.0304C26.8955 41.5012 24.288 41.5012 23.8244 41.0304ZM5.92706 15.6438L25.5917 35.772L45.4012 15.6438L37.5788 6.28588L27.1779 14.9774C26.6999 15.3686 24.4546 15.3468 24.0128 14.9774L13.6046 6.28588L5.92706 15.6438Z" fill="#151515"/>
<path d="M25.5906 15.478C27.2866 15.478 28.6616 14.103 28.6616 12.407C28.6616 10.7109 27.2866 9.33594 25.5906 9.33594C23.8945 9.33594 22.5195 10.7109 22.5195 12.407C22.5195 14.103 23.8945 15.478 25.5906 15.478Z" fill="#DFDFDF"/>
<path d="M25.5906 41.6391C27.2866 41.6391 28.6616 40.2642 28.6616 38.5681C28.6616 36.872 27.2866 35.4971 25.5906 35.4971C23.8945 35.4971 22.5195 36.872 22.5195 38.5681C22.5195 40.2642 23.8945 41.6391 25.5906 41.6391Z" fill="#DFDFDF"/>
<path d="M13.1609 6.50336C14.8569 6.50336 16.2319 5.12842 16.2319 3.43235C16.2319 1.73627 14.8569 0.361328 13.1609 0.361328C11.4648 0.361328 10.0898 1.73627 10.0898 3.43235C10.0898 5.12842 11.4648 6.50336 13.1609 6.50336Z" fill="#DFDFDF"/>
<path d="M38.0202 6.50336C39.7163 6.50336 41.0913 5.12842 41.0913 3.43235C41.0913 1.73627 39.7163 0.361328 38.0202 0.361328C36.3242 0.361328 34.9492 1.73627 34.9492 3.43235C34.9492 5.12842 36.3242 6.50336 38.0202 6.50336Z" fill="#DFDFDF"/>
<path d="M48.1062 18.809C49.8023 18.809 51.1772 17.4341 51.1772 15.738C51.1772 14.0419 49.8023 12.667 48.1062 12.667C46.4101 12.667 45.0352 14.0419 45.0352 15.738C45.0352 17.4341 46.4101 18.809 48.1062 18.809Z" fill="#DFDFDF"/>
<path d="M3.07102 18.809C4.76709 18.809 6.14203 17.4341 6.14203 15.738C6.14203 14.0419 4.76709 12.667 3.07102 12.667C1.37494 12.667 0 14.0419 0 15.738C0 17.4341 1.37494 18.809 3.07102 18.809Z" fill="#DFDFDF"/>
<path fill-rule="evenodd" clip-rule="evenodd" d="M68.3302 23.43C68.8686 23.4311 69.4019 23.3255 69.8992 23.1191C70.3965 22.9127 70.848 22.6097 71.2274 22.2277L72.676 23.6762C71.818 24.5271 70.7274 25.1049 69.5416 25.3369C68.3557 25.5689 67.1278 25.4447 66.0124 24.98C64.8971 24.5152 63.9442 23.7308 63.274 22.7254C62.6038 21.72 62.2461 20.5388 62.2461 19.3305C62.2461 18.1222 62.6038 16.9409 63.274 15.9355C63.9442 14.9302 64.8971 14.1457 66.0124 13.681C67.1278 13.2162 68.3557 13.092 69.5416 13.324C70.7274 13.556 71.818 14.1339 72.676 14.9847L71.2274 16.4333C70.4565 15.6683 69.4162 15.2365 68.3302 15.2309C67.2775 15.2753 66.2826 15.7247 65.5534 16.4853C64.8242 17.2458 64.4171 18.2587 64.4171 19.3124C64.4171 20.366 64.8242 21.3789 65.5534 22.1395C66.2826 22.9 67.2775 23.3494 68.3302 23.3938V23.43ZM99.0983 23.908C98.2179 24.6964 97.1281 25.213 95.9605 25.3955C94.7929 25.578 93.5974 25.4185 92.5185 24.9363C91.4395 24.4542 90.5232 23.67 89.8803 22.6784C89.2373 21.6869 88.8952 20.5304 88.8952 19.3486C88.8952 18.1668 89.2373 17.0103 89.8803 16.0187C90.5232 15.0272 91.4395 14.2429 92.5185 13.7608C93.5974 13.2787 94.7929 13.1192 95.9605 13.3017C97.1281 13.4841 98.2179 14.0008 99.0983 14.7891V13.681H101.148V24.9872H99.0983V23.908ZM95.006 23.43C95.8137 23.4286 96.6027 23.1877 97.2736 22.738C97.9444 22.2883 98.4669 21.6498 98.7749 20.9032C99.083 20.1566 99.1629 19.3355 99.0044 18.5436C98.846 17.7516 98.4564 17.0244 97.8848 16.4538C97.3132 15.8833 96.5853 15.4949 95.7931 15.3379C95.0009 15.1809 94.1799 15.2622 93.4338 15.5716C92.6878 15.881 92.0502 16.4046 91.6017 17.0762C91.1531 17.7478 90.9137 18.5373 90.9137 19.3449C90.9137 19.882 91.0196 20.4138 91.2254 20.9099C91.4311 21.406 91.7327 21.8566 92.1128 22.2361C92.4929 22.6155 92.9441 22.9162 93.4405 23.1211C93.937 23.326 94.469 23.4309 95.006 23.43ZM103.574 13.681H105.624V14.7891C106.505 13.9982 107.596 13.4794 108.766 13.2954C109.935 13.1115 111.133 13.2703 112.214 13.7525C113.295 14.2348 114.214 15.02 114.858 16.0131C115.503 17.0062 115.845 18.1647 115.845 19.3486C115.845 20.5324 115.503 21.691 114.858 22.6841C114.214 23.6772 113.295 24.4623 112.214 24.9446C111.133 25.4269 109.935 25.5857 108.766 25.4017C107.596 25.2177 106.505 24.6989 105.624 23.908V29.5503H103.574V13.681ZM109.716 15.2672C108.909 15.2686 108.12 15.5094 107.449 15.9591C106.778 16.4089 106.256 17.0474 105.948 17.7939C105.64 18.5405 105.56 19.3616 105.718 20.1536C105.877 20.9455 106.266 21.6727 106.838 22.2433C107.409 22.8139 108.137 23.2022 108.929 23.3593C109.722 23.5163 110.543 23.435 111.289 23.1256C112.035 22.8162 112.672 22.2926 113.121 21.621C113.569 20.9493 113.809 20.1598 113.809 19.3522C113.809 18.8151 113.703 18.2833 113.497 17.7872C113.291 17.2912 112.99 16.8405 112.61 16.4611C112.23 16.0816 111.778 15.7809 111.282 15.576C110.786 15.3712 110.254 15.2662 109.716 15.2672ZM131.771 24.9872H129.729V15.7162H125.694V24.9872H123.645V15.7162H119.618V24.9872H117.568V13.681H131.771V24.9872ZM147.909 15.6293V13.6158H139.941V21.3657V22.923H137.819V24.9872H146.17V22.9157H141.962V15.6728L147.909 15.6293ZM154.536 13.1377C155.281 13.1358 156.02 13.2809 156.709 13.5646C157.398 13.8483 158.025 14.2651 158.553 14.7911C159.081 15.3172 159.5 15.9421 159.787 16.6303C160.073 17.3185 160.221 18.0564 160.222 18.8017V19.823H150.596C150.727 20.8224 151.227 21.7368 151.997 22.3867C152.768 23.0366 153.753 23.3751 154.76 23.3358C155.315 23.3362 155.863 23.2263 156.374 23.0124C156.885 22.7985 157.349 22.485 157.737 22.09L159.186 23.5386C158.013 24.7033 156.428 25.3569 154.775 25.3566C153.159 25.4093 151.587 24.8178 150.407 23.7122C149.227 22.6065 148.534 21.0773 148.481 19.4608C148.474 19.3644 148.474 19.2676 148.481 19.1711C148.487 17.576 149.124 16.048 150.253 14.9215C151.382 13.7949 152.912 13.1614 154.507 13.1595L154.536 13.1377ZM150.784 17.7805H158.027C157.808 17.0282 157.35 16.3674 156.723 15.8973C156.096 15.4272 155.334 15.173 154.55 15.173C153.733 15.1739 152.935 15.424 152.264 15.8898C151.592 16.3557 151.079 17.0152 150.791 17.7805H150.784ZM170.21 24.9872V16.7882L164.068 24.9872H162.025V13.6158H164.068V21.7786L170.21 13.6158H172.259V24.9872H170.21ZM195.683 23.3938C196.222 23.3949 196.755 23.2893 197.252 23.0829C197.75 22.8765 198.201 22.5735 198.58 22.1914L200.029 23.64C199.171 24.4908 198.08 25.0687 196.895 25.3007C195.709 25.5327 194.481 25.4085 193.365 24.9438C192.25 24.479 191.297 23.6946 190.627 22.6892C189.957 21.6838 189.599 20.5026 189.599 19.2942C189.599 18.0859 189.957 16.9047 190.627 15.8993C191.297 14.8939 192.25 14.1095 193.365 13.6447C194.481 13.18 195.709 13.0558 196.895 13.2878C198.08 13.5198 199.171 14.0977 200.029 14.9485L198.58 16.3971C197.807 15.6353 196.768 15.2041 195.683 15.1947C195.133 15.1715 194.583 15.2599 194.068 15.4546C193.553 15.6492 193.082 15.9461 192.684 16.3274C192.286 16.7087 191.97 17.1665 191.754 17.6732C191.538 18.18 191.426 18.7252 191.426 19.2761C191.426 19.8271 191.538 20.3723 191.754 20.8791C191.97 21.3858 192.286 21.8436 192.684 22.2249C193.082 22.6062 193.553 22.903 194.068 23.0977C194.583 23.2924 195.133 23.3807 195.683 23.3576V23.3938ZM167.139 11.2256C167.408 11.2256 167.672 11.3056 167.896 11.4556C168.12 11.6055 168.295 11.8186 168.397 12.0679C168.5 12.3171 168.527 12.5913 168.474 12.8556C168.421 13.1199 168.29 13.3625 168.099 13.5527C167.908 13.7428 167.665 13.8719 167.4 13.9237C167.135 13.9754 166.861 13.9474 166.613 13.8432C166.364 13.739 166.152 13.5634 166.003 13.3385C165.854 13.1136 165.776 12.8496 165.777 12.58C165.779 12.2201 165.923 11.8756 166.178 11.6218C166.434 11.368 166.779 11.2256 167.139 11.2256ZM83.707 13.681L80.8098 20.1996L77.9126 13.681H74.4795V24.9872H76.522V15.383L79.5061 21.6192C79.6152 21.8849 79.8009 22.1122 80.0395 22.2721C80.278 22.432 80.5588 22.5174 80.846 22.5174C81.1333 22.5174 81.414 22.432 81.6526 22.2721C81.8912 22.1122 82.0768 21.8849 82.186 21.6192L85.1701 15.383V24.9872H87.2126V13.681H83.707ZM184.384 13.681L181.444 20.1996L178.546 13.681H175.113V24.9872H177.163V15.383L180.14 21.6192C180.279 21.9724 180.551 22.2567 180.898 22.4111C181.245 22.5655 181.638 22.5777 181.994 22.4449C182.183 22.373 182.354 22.2624 182.498 22.1202C182.641 21.978 182.753 21.8073 182.827 21.6192L185.804 15.383V24.9872H187.854V13.681H184.42H184.384Z" fill="#252831"/>
</g>
<defs>
<clipPath id="clip0">
<rect width="200" height="41.2777" fill="white" transform="translate(0 0.361328)"/>
</clipPath>
</defs>
</svg>
