<svg width="130" height="58" viewBox="0 0 130 58" fill="none" xmlns="http://www.w3.org/2000/svg">
<path fill-rule="evenodd" clip-rule="evenodd" d="M16.6778 24.1109C18.4667 24.6051 20.3576 25.0992 22.0956 25.5933L22.1002 25.5887C21.8128 25.4409 18.3462 23.6399 15.1947 22.0466L10.5694 15.6091C13.4057 16.7729 15.9687 17.7334 20.5383 19.6915C17.3822 17.835 11.589 14.3068 8.15477 12.2518L0.0859375 1.02539L25.7986 18.0613C28.5005 19.8531 30.3451 21.1785 31.5733 22.3515C32.2778 22.841 32.871 23.3951 33.2649 23.9816C34.1594 25.3162 34.0667 25.5333 34.0714 26.226C34.0759 26.2352 34.0853 26.2398 34.0853 26.249L34.1362 26.3229C34.5209 26.7709 34.7572 26.8956 35.2439 27.5883C35.9854 28.6458 36.5277 29.9481 35.4802 31.038C35.1604 31.3658 34.3123 31.8969 33.9416 31.9339C34.127 31.6014 34.3077 31.4074 34.2335 30.9918C34.1872 30.7147 34.0157 30.493 33.733 30.2945C33.4271 30.082 33.0286 29.9019 32.5836 29.768C31.995 29.6017 29.5804 29.2924 27.569 30.7655H31.4435L34.8963 36.1639L38.3444 30.7655H47.8036L47.7897 30.7794H60.4421L57.8282 35.6606H44.6752L38.7662 44.9105V51.6067H52.0627L49.4442 56.4879H31.0496H31.0218V44.9105L26.3455 37.554L19.7829 28.4288L19.6856 28.2903L16.6778 24.1109ZM25.261 27.2004C25.0061 27.8469 24.8763 28.6319 24.8763 29.4863C26.8043 28.3179 29.0613 27.6714 32.6624 28.7336C32.6346 28.6643 32.6995 28.7105 32.5697 28.6181C30.4749 27.1681 27.8749 26.7893 25.261 27.2004Z" fill="#151515"/>
<path fill-rule="evenodd" clip-rule="evenodd" d="M53.6067 44.8649H43.9297L47.0488 39.9883H56.2206L53.6067 44.8649Z" fill="#8C8C8C"/>
<path d="M72.6282 31.2002L69.0134 36.8619V41.4938H65.9128V36.8619L62.3164 31.2002H66.0843L67.4654 33.3615L68.8418 31.2002H72.6282ZM82.5791 41.4938H75.6919V39.2633H78.2036L76.549 35.3195L73.9727 41.4938H70.5475L74.8347 31.2002H78.2731L82.5791 41.4938ZM91.1855 40.464C91.1855 40.7364 91.0833 40.9766 90.8748 41.1844C90.6711 41.3876 90.4347 41.4938 90.1608 41.4938H83.6121L82.5791 39.2633H88.0891V37.2037H83.6121C83.3389 37.2037 83.0977 37.1021 82.8892 36.8943C82.6806 36.6865 82.5791 36.4463 82.5791 36.1738V32.23C82.5791 31.9576 82.6806 31.7174 82.8892 31.5096C83.0977 31.3064 83.3389 31.2002 83.6121 31.2002H91.1855V33.4307H85.6796V35.4904H90.1608C90.4347 35.4904 90.6711 35.592 90.8748 35.7998C91.0833 36.0076 91.1855 36.2477 91.1855 36.5202V40.464ZM100.821 33.4307H98.072V41.4938H94.9715V33.4307H92.2144V31.2002H100.821V33.4307ZM110.808 41.4938H108.06L105.298 35.4904H107.365V33.4307H104.954V41.4938H101.859V31.2002H109.441C109.714 31.2002 109.951 31.3064 110.154 31.5096C110.363 31.7174 110.465 31.9576 110.465 32.23V36.1738C110.465 36.4509 110.363 36.6911 110.15 36.8943C109.951 37.1021 109.714 37.2037 109.436 37.2037H108.834L110.808 41.4938ZM120.1 39.2633L119.076 41.4938H111.499V31.2002H120.1L119.076 33.4307H114.595V35.4904H119.076V37.2037H114.595V39.2633H120.1ZM129.397 40.464C129.397 40.7364 129.296 40.9766 129.087 41.1844C128.883 41.3876 128.646 41.4938 128.373 41.4938H120.791V31.2002H128.373C128.646 31.2002 128.883 31.3064 129.087 31.5096C129.296 31.7174 129.397 31.9576 129.397 32.23V35.3195C129.397 35.5966 129.296 35.8367 129.087 36.04C128.883 36.2477 128.646 36.3493 128.373 36.3493C128.628 36.3632 128.865 36.4463 129.082 36.6033C129.291 36.7511 129.397 36.9543 129.397 37.2037V40.464ZM126.302 35.4904V33.4307H123.891V35.4904H126.302ZM126.302 39.2633V37.2037H123.891V39.2633H126.302Z" fill="#151515"/>
<path d="M65.9104 54.2584L64.8861 56.4889H57.3086V46.1953H65.9104L64.8861 48.4258H60.4045V50.4855H64.8861V52.1987H60.4045V54.2584H65.9104ZM76.9266 56.4889H73.1447L71.7683 54.3276L70.3876 56.4889H66.601L69.8774 51.3444L66.601 46.1953H70.3876L71.7683 48.3565L73.1447 46.1953H76.9266L73.6592 51.3444L76.9266 56.4889ZM86.5716 51.857C86.5716 52.1294 86.4694 52.3696 86.2608 52.5774C86.0572 52.7852 85.8208 52.8868 85.5469 52.8868H81.0657V56.4889H77.9652V46.1953H85.5469C85.8208 46.1953 86.0572 46.3015 86.2608 46.5047C86.4694 46.7125 86.5716 46.9526 86.5716 47.2251V51.857ZM83.4752 51.1736V48.4258H81.0657V51.1736H83.4752ZM96.5545 56.4889H93.8057L91.0437 50.4855H93.1154V48.4258H90.7052V56.4889H87.6046V46.1953H95.1871C95.4603 46.1953 95.6966 46.3015 95.901 46.5047C96.1096 46.7125 96.2111 46.9526 96.2111 47.2251V51.1736C96.2111 51.446 96.1096 51.6861 95.901 51.894C95.6966 52.0971 95.4603 52.1987 95.1822 52.1987H94.5802L96.5545 56.4889ZM105.846 54.2584L104.822 56.4889H97.2448V46.1953H105.846L104.822 48.4258H100.34V50.4855H104.822V52.1987H100.34V54.2584H105.846ZM115.144 55.459C115.144 55.7315 115.042 55.9717 114.838 56.1795C114.634 56.3873 114.393 56.4889 114.119 56.4889H107.57L106.537 54.2584H112.047V52.1987H107.57C107.297 52.1987 107.056 52.0971 106.847 51.894C106.644 51.6815 106.537 51.4414 106.537 51.1736V47.2251C106.537 46.9526 106.644 46.7125 106.847 46.5047C107.056 46.3015 107.297 46.1953 107.57 46.1953H115.144V48.4258H109.638V50.4855H114.119C114.393 50.4855 114.634 50.587 114.838 50.7949C115.042 51.0027 115.144 51.2428 115.144 51.5152V55.459ZM124.783 55.459C124.783 55.7315 124.682 55.9717 124.473 56.1795C124.269 56.3873 124.032 56.4889 123.759 56.4889H117.211L116.177 54.2584H121.688V52.1987H117.211C116.937 52.1987 116.696 52.0971 116.488 51.894C116.284 51.6815 116.177 51.4414 116.177 51.1736V47.2251C116.177 46.9526 116.284 46.7125 116.488 46.5047C116.696 46.3015 116.937 46.1953 117.211 46.1953H124.783V48.4258H119.277V50.4855H123.759C124.032 50.4855 124.269 50.587 124.473 50.7949C124.682 51.0027 124.783 51.2428 124.783 51.5152V55.459Z" fill="#8C8C8C"/>
</svg>
