<svg width="141" height="44" viewBox="0 0 141 44" fill="none" xmlns="http://www.w3.org/2000/svg">
<path fill-rule="evenodd" clip-rule="evenodd" d="M75.3948 9.12695L74.3815 15.1003H76.8349L72.9414 36.2736H78.8615L83.6079 9.12695H75.3948Z" fill="#B8B8B8"/>
<path fill-rule="evenodd" clip-rule="evenodd" d="M123.183 9.22949C130.65 9.22949 136.676 15.3094 136.676 22.7761C136.676 30.1895 130.65 36.2695 123.183 36.2695C115.717 36.2695 109.637 30.1895 109.637 22.7761C109.637 15.3094 115.717 9.22949 123.183 9.22949ZM123.183 14.7228C127.61 14.7228 131.183 18.3495 131.183 22.7761C131.183 27.2028 127.61 30.7762 123.183 30.7762C118.756 30.7762 115.13 27.2028 115.13 22.7761C115.13 18.3495 118.756 14.7228 123.183 14.7228Z" fill="#B8B8B8"/>
<path fill-rule="evenodd" clip-rule="evenodd" d="M96.3006 9.22949C103.714 9.22949 109.794 15.3094 109.794 22.7761C109.794 30.1895 103.714 36.2695 96.3006 36.2695C88.8344 36.2695 82.7539 30.1895 82.7539 22.7761C82.7539 15.3094 88.8344 9.22949 96.3006 9.22949ZM96.3006 14.7228C100.728 14.7228 104.301 18.3495 104.301 22.7761C104.301 27.2028 100.728 30.7762 96.3006 30.7762C91.8743 30.7762 88.2472 27.2028 88.2472 22.7761C88.2472 18.3495 91.8743 14.7228 96.3006 14.7228Z" fill="#B8B8B8"/>
<path fill-rule="evenodd" clip-rule="evenodd" d="M55.0164 36.0561L58.8563 13.7628H50.5898L51.3898 9.22949H73.6296L72.8827 13.7628H64.7762L60.9362 36.0561H55.0164Z" fill="#151515"/>
<path fill-rule="evenodd" clip-rule="evenodd" d="M25.9453 36.0561L30.5853 9.22949H49.1986L47.492 13.7628H34.9053L33.8387 20.0561H44.0786L43.172 24.5361H33.092L31.8653 31.5761H44.8786L44.0786 36.0561H25.9453Z" fill="#151515"/>
<path fill-rule="evenodd" clip-rule="evenodd" d="M7.97595 9.22949H17.6826C19.6026 9.22949 20.9893 9.33612 21.896 9.4961C22.8026 9.70943 23.6026 10.0828 24.2426 10.6161C24.8826 11.2028 25.3626 11.9494 25.736 12.8561C26.0559 13.8161 26.1093 14.8295 25.8959 16.0028C25.6826 17.2828 25.2026 18.4028 24.4026 19.4695C23.6026 20.5361 22.6426 21.2828 21.5226 21.8161C22.9093 22.2961 23.9226 23.0962 24.5093 24.2694C25.096 25.3894 25.256 26.7761 24.9893 28.3228C24.7759 29.4961 24.2959 30.7228 23.6026 31.8428C22.9093 33.0161 22.0026 33.9228 21.0426 34.6161C20.0293 35.3095 18.8559 35.7361 17.5226 35.8962C16.6693 36.0028 14.6959 36.0561 11.6026 36.0561H3.33594L7.97595 9.22949ZM10.2693 24.3761L8.98925 31.5761H13.5226C15.2826 31.5761 16.4559 31.5228 16.9359 31.4162C17.6826 31.2561 18.3226 30.8828 18.9093 30.3494C19.4426 29.7628 19.8159 29.0161 19.9759 28.0562C20.0826 27.2561 20.0293 26.5628 19.8159 25.9761C19.5493 25.4428 19.1226 25.0161 18.4826 24.7494C17.8426 24.5361 16.4026 24.3761 14.2159 24.3761H10.2693ZM12.0826 13.7095L11.0159 19.8961H14.2159C16.136 19.8961 17.3093 19.8961 17.7893 19.8428C18.6426 19.7362 19.3893 19.4161 19.9226 18.8828C20.5093 18.3495 20.8826 17.6561 21.0426 16.7495C21.1493 15.9495 21.0959 15.2562 20.776 14.7228C20.4559 14.2428 19.8693 13.9228 19.0692 13.8161C18.5893 13.7628 17.2026 13.7095 14.9093 13.7095H12.0826Z" fill="#151515"/>
</svg>
