<svg width="141" height="40" viewBox="0 0 141 40" fill="none" xmlns="http://www.w3.org/2000/svg">
<g clip-path="url(#clip0)">
<path d="M47.6403 0H60.387L59.7106 3.37821H51.2128L50.7135 5.87734H54.681C56.2516 5.87734 57.4591 6.23173 58.3079 6.94972C59.1568 7.6631 59.5835 8.69405 59.5835 10.0334C59.5835 11.138 59.2839 12.0999 58.6893 12.9145C58.0946 13.7337 57.2412 14.3597 56.129 14.8061C55.0169 15.2526 53.705 15.4689 52.1979 15.4689H44.5898L47.6403 0ZM52.5429 12.33C53.3418 12.33 53.9773 12.1551 54.4494 11.8099C54.9215 11.4647 55.1576 10.9907 55.1576 10.3878C55.1576 9.9137 54.9987 9.56392 54.681 9.3384C54.3587 9.10827 53.8684 8.99321 53.2011 8.99321H50.1052L49.4516 12.33H52.5429Z" fill="#151515"/>
<path d="M73.6576 10.5169H64.9873C65.1325 11.8148 66.0268 12.4637 67.6655 12.4637C68.1876 12.4637 68.696 12.3809 69.1908 12.2198C69.6856 12.0587 70.1259 11.8148 70.5208 11.4926L72.2413 14.1206C70.8613 15.1516 69.1817 15.667 67.2071 15.667C65.9587 15.667 64.8556 15.4461 63.9069 14.9951C62.9536 14.544 62.2228 13.9089 61.7053 13.0943C61.1923 12.275 60.9336 11.3177 60.9336 10.2085C60.9336 8.89681 61.2332 7.71858 61.8369 6.66462C62.4407 5.61066 63.2805 4.78682 64.3654 4.1885C65.4458 3.59018 66.685 3.29102 68.0786 3.29102C69.2543 3.29102 70.2848 3.50733 71.1609 3.94457C72.0415 4.3772 72.7134 4.99393 73.1855 5.79015C73.6576 6.58638 73.8936 7.50687 73.8936 8.55163C73.8981 9.12233 73.8164 9.78049 73.6576 10.5169ZM66.2038 6.8165C65.7544 7.1801 65.4276 7.67256 65.2233 8.3077H70.085C70.0987 7.67256 69.9035 7.1801 69.4949 6.8165C69.0864 6.45291 68.5507 6.27341 67.8834 6.27341C67.2161 6.27341 66.6532 6.45291 66.2038 6.8165Z" fill="#151515"/>
<path d="M86.4011 6.82507H82.5653L80.9084 15.4639H76.7685L78.4253 6.82507H74.6758L75.3522 3.48828H87.0729L86.4011 6.82507Z" fill="#151515"/>
<path d="M96.8855 6.82507H93.0497L91.3928 15.4639H87.2528L88.9097 6.82507H85.1602L85.8365 3.48828H97.5573L96.8855 6.82507Z" fill="#151515"/>
<path d="M99.171 3.49316H103.288L101.981 9.85377L108.15 3.49316H112.049L109.675 15.4688H105.535L106.865 9.08516L100.696 15.4642H96.7969L99.171 3.49316Z" fill="#151515"/>
<path d="M114.838 3.49316H118.956L118.066 7.93454H122.315L123.209 3.49316H127.326L124.952 15.4688H120.835L121.661 11.2713H117.412L116.586 15.4688H112.469L114.838 3.49316Z" fill="#151515"/>
<path d="M139.351 6.82507H133.531L131.879 15.4639H127.762L130.136 3.48828H140.005L139.351 6.82507Z" fill="#151515"/>
<path d="M59.6244 32.2496H61.7352L60.4279 38.8771H56.4604L57.0505 35.7199H44.5898L47.6403 20.2556H51.8892L49.5151 32.2542H55.3755L57.7269 20.251H61.9985L59.6244 32.2496Z" fill="#8C8C8C"/>
<path d="M75.8568 30.7679H67.1865C67.3318 32.0657 68.226 32.7147 69.8648 32.7147C70.3868 32.7147 70.8952 32.6319 71.39 32.4708C71.8848 32.3097 72.3251 32.0658 72.72 31.7436L74.4405 34.3716C73.0605 35.4025 71.3809 35.918 69.4063 35.918C68.1579 35.918 67.0549 35.6971 66.1061 35.2461C65.1528 34.795 64.422 34.1599 63.9045 33.3452C63.3916 32.526 63.1328 31.5687 63.1328 30.4595C63.1328 29.1478 63.4324 27.9696 64.0362 26.9156C64.6399 25.8616 65.4797 25.0378 66.5646 24.4395C67.645 23.8412 68.8842 23.542 70.2778 23.542C71.4535 23.542 72.484 23.7583 73.3601 24.1955C74.2408 24.6282 74.9126 25.2449 75.3847 26.0411C75.8568 26.8374 76.0928 27.7578 76.0928 28.8026C76.0974 29.3733 76.0157 30.0315 75.8568 30.7679ZM68.4031 27.0675C67.9537 27.4311 67.6268 27.9235 67.4226 28.5587H72.2843C72.2979 27.9235 72.1027 27.4311 71.6941 27.0675C71.2856 26.7039 70.7499 26.5244 70.0827 26.5244C69.4154 26.5244 68.8525 26.7039 68.4031 27.0675Z" fill="#8C8C8C"/>
<path d="M79.1046 23.7441H83.2218L82.3276 28.1855H86.5765L87.4707 23.7441H91.588L89.2138 35.7197H85.0966L85.9228 31.5223H81.6739L80.8477 35.7197H76.7305L79.1046 23.7441Z" fill="#8C8C8C"/>
<path d="M104.268 27.076H100.432L98.7756 35.7149H94.6356L96.2925 27.076H92.543L93.2193 23.7393H104.94L104.268 27.076Z" fill="#8C8C8C"/>
<path d="M116.089 24.1953C116.852 24.6279 117.464 25.2584 117.928 26.0823C118.391 26.9061 118.627 27.8726 118.627 28.9772C118.627 30.2889 118.341 31.4718 117.764 32.5211C117.188 33.5751 116.411 34.4035 115.431 35.0064C114.45 35.6094 113.379 35.9085 112.217 35.9085C110.501 35.9085 109.298 35.3654 108.599 34.2747L107.464 39.9955H103.324L106.529 23.735H110.451L110.211 24.8626C111.155 23.9789 112.294 23.5371 113.633 23.5371C114.509 23.5417 115.326 23.7626 116.089 24.1953ZM113.66 31.6052C114.182 30.9885 114.446 30.1831 114.446 29.1981C114.446 28.4894 114.246 27.9325 113.847 27.5182C113.447 27.1086 112.898 26.9015 112.203 26.9015C111.377 26.9015 110.701 27.2099 110.179 27.8312C109.657 28.4525 109.393 29.2626 109.393 30.2613C109.393 30.9701 109.593 31.5224 109.993 31.9274C110.392 32.3324 110.941 32.5349 111.64 32.5349C112.462 32.5349 113.138 32.2266 113.66 31.6052Z" fill="#8C8C8C"/>
<path d="M36.3423 0H27.4314L26.0469 7.05557H34.9487L36.3423 0Z" fill="#8C8C8C"/>
<path d="M36.2829 18.5939C35.9107 16.9094 35.1026 15.5471 33.8634 14.5024C32.0885 13.0066 29.5646 12.2656 26.2916 12.2656H12.8141L13.8446 7.05097H21.5707L22.9779 0H6.3727L0.00390625 32.2817H26.0193L24.7891 38.877H33.069L35.0709 28.7332L36.2693 22.2897C36.4962 21.0655 36.5507 19.8044 36.2829 18.5939ZM28.0938 22.124L27.3856 25.7324H10.1495L11.5295 18.7688H24.0946C25.4882 18.7688 26.5186 19.0082 27.1859 19.4868C27.6308 19.8044 27.9258 20.2324 28.0756 20.7755C28.1937 21.2127 28.1846 21.6776 28.0938 22.124Z" fill="#151515"/>
</g>
<defs>
<clipPath id="clip0">
<rect width="140" height="40" fill="white" transform="translate(0.00390625)"/>
</clipPath>
</defs>
</svg>
