<svg width="142" height="36" viewBox="0 0 142 36" fill="none" xmlns="http://www.w3.org/2000/svg">
<g clip-path="url(#clip0)">
<path d="M0.417969 34.8963L17.8511 34.8769L17.8422 17.8613C14.2141 24.6482 7.40948 29.0643 0.426918 30.7522C0.446536 32.0377 0.417969 34.8963 0.417969 34.8963Z" fill="#151515"/>
<path d="M5.99219 26.3299C12.5714 23.0539 15.7438 17.0625 15.7438 17.0625C15.7438 17.0625 15.721 15.0953 15.721 15.0536C12.0957 13.798 8.80938 11.9591 5.99873 9.20605C6.01353 13.8754 5.99219 26.3299 5.99219 26.3299Z" fill="#151515"/>
<path d="M6.93014 0.582031C6.93014 0.582031 6.92841 5.78481 6.92188 7.08245C8.6497 8.66548 9.51844 9.40626 11.3151 10.5383L11.3292 3.56348C9.27578 2.45078 8.4838 1.85931 6.93014 0.582031Z" fill="#151515"/>
<path d="M32.7934 6.06426C32.6451 5.1348 32.1129 4.51414 31.2143 4.2196C30.7868 4.07945 30.2929 3.99427 29.7022 3.96C29.3426 3.9393 28.9825 3.96577 28.6346 3.9919C28.5878 3.99597 28.5406 3.99902 28.4938 4.00276V1.96535L30.1717 1.97214L32.0272 2.23343L32.0985 0.578125H26.365L26.5932 2.64403L26.6149 7.26722L26.3516 9.46106L26.6837 9.45801C26.6844 9.45733 27.4695 9.4502 27.8409 9.4597C28.0419 9.46445 28.2429 9.47565 28.4432 9.48516C28.7227 9.50043 29.0087 9.51502 29.2958 9.51502C29.3618 9.51502 29.4283 9.51434 29.4933 9.51264C30.5734 9.4838 31.3967 9.22115 32.0111 8.70942C32.9648 7.91333 32.9142 6.81793 32.7934 6.06426ZM30.9272 6.51795C30.9265 6.71138 30.9131 6.87969 30.8866 7.03307C30.8123 7.45623 30.5889 7.74875 30.2209 7.90111C29.7349 8.10573 29.207 8.16003 28.4869 8.07757V5.43817C29.1405 5.35198 29.7756 5.32924 30.3707 5.62684C30.7462 5.81484 30.9279 6.10633 30.9272 6.51795Z" fill="#151515"/>
<path d="M38.4912 1.59811L38.2155 0.5L36.328 0.523415L36.1101 1.4885L33.8278 7.31771L32.832 9.40907L34.8139 9.43893L35.1587 7.8464L35.633 6.63292L38.4771 6.62749L39.13 8.17488L39.4773 9.41789L42.0367 9.42026L41.1642 7.93938L38.4912 1.59811ZM37.9357 5.28098C37.6373 5.28505 37.333 5.29218 37.0284 5.2993C36.7293 5.30643 36.4298 5.3139 36.1362 5.31729C36.3083 4.89413 36.4911 4.46894 36.6728 4.04646C36.8091 3.72917 36.9451 3.41392 37.0749 3.10139L37.9357 5.28098Z" fill="#151515"/>
<path d="M56.8194 9.43092L59.4263 9.40445L55.2791 4.77652L59.1667 0.552734L56.8796 0.569362L56.1957 1.51375C56.1957 1.51375 54.4417 3.41304 53.4921 4.44905L53.4931 2.149L53.7616 0.576828H51.3653L51.5109 2.12762L51.5454 7.59407L51.3633 9.41531H53.7547L53.4911 7.60764L53.4921 5.43382L56.8194 9.43092Z" fill="#151515"/>
<path d="M49.7366 6.77265C49.7314 6.1788 49.7627 2.18747 49.7606 2.18815L49.9723 0.597656H47.6053L47.7984 2.13487C47.7984 2.13487 47.8043 3.30424 47.8053 3.99718H44.4591C44.4412 2.99273 44.446 1.96249 44.7052 0.960073L44.7974 0.60071H42.3351L42.3761 0.924442C42.3909 1.03948 42.531 2.27163 42.5485 2.84036C42.5843 4.03315 42.574 5.24969 42.5633 6.42686L42.5612 6.68951C42.5571 7.19479 42.4422 8.73336 42.3881 9.00789L42.3203 9.35164H44.6938L44.6567 9.03063C44.6329 8.82533 44.6064 8.62172 44.5803 8.41778C44.5207 7.95865 44.4646 7.52497 44.4385 7.08349C44.4137 6.63929 44.4188 6.18118 44.4261 5.73698C44.4271 5.63111 44.4285 5.52659 44.4295 5.42004H47.8353C47.8353 5.64061 47.8387 5.86152 47.8421 6.08141C47.8566 7.09027 47.87 8.04348 47.6074 8.98889L47.5069 9.35266H49.993L49.9266 9.01095C49.7689 8.19958 49.7424 7.38822 49.7366 6.77265Z" fill="#151515"/>
<path d="M79.564 13.8004L79.6345 13.4502H74.5605L74.6008 13.779C74.7839 15.2792 74.914 16.6872 74.9973 18.0822C75.0579 19.0836 75.0438 20.1149 75.0293 21.1129C75.0241 21.4675 75.019 21.8217 75.0172 22.1787H65.5255C65.4736 19.4321 65.4471 16.5996 66.1616 13.8221L66.2549 13.457H61.0284L61.0707 13.7882C61.0748 13.8174 61.4669 17.1612 61.5154 18.7487C61.6094 21.8075 61.5822 24.9226 61.556 27.9357L61.5502 28.651C61.5381 29.9636 61.2373 33.9674 61.0962 34.6845L61.0273 35.0337H66.0639L66.026 34.7069C65.9654 34.1856 65.8987 33.6681 65.8319 33.152C65.6839 32.0135 65.5314 30.8353 65.4657 29.6822C65.3989 28.5268 65.4154 27.3411 65.4306 26.1955C65.4364 25.7774 65.4419 25.359 65.4436 24.941H75.0909C75.0857 25.6573 75.0968 26.3774 75.1067 27.0764C75.1439 29.7006 75.1807 32.1788 74.4886 34.6685L74.3853 35.0408H79.6308L79.5626 34.6913C79.1516 32.5697 79.0825 30.4607 79.0687 28.8604C79.0546 27.2651 79.0694 20.199 79.1358 18.2468C79.2012 16.3716 79.3409 14.9172 79.564 13.8004Z" fill="#151515"/>
<path d="M48.6046 32.4002V24.7521C51.0294 24.8193 55.6525 25.1803 55.7007 25.1834L56.0215 25.2082L56.0349 21.6994L48.6039 22.1147V16.0877C50.8219 16.0612 54.9649 16.0402 57.1209 16.6985L57.4578 16.801L57.5046 16.4569C57.6543 15.3476 57.5504 13.8009 57.5452 13.7354L57.5263 13.4629H44.1133L44.1673 13.8005C44.6154 16.634 44.5876 19.5086 44.5604 22.2875C44.5538 22.9309 44.5469 23.5756 44.5469 24.2227C44.5834 28.3345 44.1284 34.6398 44.1236 34.7023L44.1016 35.0155L57.4361 35.0793L57.4458 34.7932C57.4671 34.0935 57.5297 32.2183 57.5607 31.9461L57.6075 31.5447L57.2055 31.6241C54.5532 32.1565 52.043 32.3846 48.6046 32.4002Z" fill="#151515"/>
<path d="M37.2102 22.9439C37.2092 22.9432 37.2074 22.9426 37.2057 22.9416C37.2704 22.9039 37.3306 22.8659 37.3899 22.8262C38.5938 22.0172 39.9871 20.8285 40.0697 18.8026C40.185 15.9979 38.6344 14.0206 35.8142 13.3752C33.3787 12.8193 30.8713 12.9072 28.148 13.6439L28.1126 13.6541C26.794 14.0118 26.5685 14.1278 26.6095 14.4356C26.6839 15.0023 26.7974 15.6399 26.9076 16.2575C26.9878 16.7099 27.069 17.166 27.1375 17.6057C27.1626 17.7686 27.2779 17.9006 27.4383 17.9509C27.5966 17.9987 27.7677 17.9559 27.882 17.8372L28.052 17.66C29.3276 16.3339 30.9948 15.7068 33.1223 15.7512C34.4735 15.7764 35.5963 16.6186 35.8541 17.7978C36.2076 19.425 35.6111 20.8363 34.3345 21.3948C33.7235 21.6609 33.0121 21.8648 32.1592 22.0148C31.3328 22.1604 29.6965 22.2669 29.6793 22.2683L29.3888 22.2873L29.511 25.0349L29.805 25.0248C29.8194 25.0244 31.2736 24.9779 32.4903 24.9776H32.4924C33.0417 24.9776 34.8012 25.0964 35.6985 25.6257C36.4922 26.0954 37.0622 26.8603 37.2219 27.6737C37.4639 28.897 37.6752 31.8187 34.4439 32.515C31.6488 33.1164 29.3727 32.511 27.6775 30.7131C27.5326 30.5594 27.3863 30.4057 27.216 30.2282L27.0377 30.0409C26.9303 29.9293 26.7727 29.8906 26.6247 29.9377C26.477 29.9853 26.3731 30.1088 26.3541 30.2608L26.2701 30.9327C26.1886 31.5924 26.1132 32.2141 26.0127 32.8249C25.927 33.3542 26.1066 33.6966 26.616 33.9722C28.5029 34.9882 30.5794 35.5002 32.8039 35.5002C33.2293 35.5002 33.6595 35.4822 34.0953 35.4446C35.8851 35.2912 37.5265 34.6465 38.842 33.5809C40.7595 32.0305 41.6299 30.1475 41.4275 27.9886C41.1969 25.525 39.7789 23.8272 37.2102 22.9439Z" fill="#151515"/>
<path d="M101.125 25.6261C101.127 25.1676 101.128 24.7115 101.128 24.2589C101.128 23.8367 101.126 23.4129 101.124 22.9884C101.111 19.9319 101.098 16.773 101.651 13.8048L101.716 13.459H96.4886L96.5554 13.8061C96.7313 14.7261 96.8831 15.7047 97.0066 16.7156C97.0441 17.0265 97.0035 17.1829 96.8369 17.3573C95.1762 19.1104 93.5513 20.894 91.9797 22.6192C90.5452 24.1944 89.0631 25.8205 87.5555 27.4215C87.59 26.0709 87.5621 24.7227 87.5356 23.4119C87.4685 20.1057 87.4048 16.982 88.2336 13.8397L88.3306 13.4715H82.9727L83.0911 13.8506C83.5915 15.4563 83.5936 17.036 83.5949 18.7072L83.5998 20.3147C83.6094 23.1234 83.6194 26.0275 83.5919 28.8824C83.5877 29.3123 83.5991 29.7464 83.6104 30.1675C83.6311 30.9551 83.6521 31.7705 83.5691 32.5592C83.5196 33.0346 83.4084 33.5018 83.29 33.9976C83.2363 34.225 83.1823 34.453 83.1334 34.6848L83.0587 35.037H88.2147L88.1603 34.6984C88.0491 33.9983 87.973 33.3003 87.9001 32.6243C87.8577 32.2307 87.8154 31.8391 87.7662 31.4465C87.7462 31.2866 87.8216 31.042 87.9242 30.9327C89.3956 29.3609 90.8463 27.7693 92.2489 26.2294C93.8394 24.4828 95.4836 22.6782 97.1594 20.9028C97.1601 21.0836 97.1601 21.2632 97.1608 21.4393C97.1629 22.2747 97.1653 23.0678 97.156 23.8601C97.1446 24.8161 97.1567 25.7859 97.168 26.7242C97.1849 28.1667 97.2028 29.6588 97.1378 31.1207C97.1013 31.9307 96.9622 32.7234 96.8156 33.5629C96.7492 33.9406 96.6834 34.3183 96.627 34.6984L96.5771 35.0346H101.718L101.65 34.6872C101.104 31.8391 101.115 28.6812 101.125 25.6261Z" fill="#151515"/>
<path d="M114.323 16.3314C114.323 16.2904 114.327 16.2242 114.334 16.1512L120.937 16.9891L120.514 13.4209H104.006L103.641 16.9877L110.71 16.1478V16.5272C110.71 19.225 110.705 29.2719 110.705 29.7626L110.023 35.0315H115.029L114.403 29.8555C114.402 29.7656 114.339 20.7873 114.323 16.3314Z" fill="#151515"/>
</g>
<defs>
<clipPath id="clip0">
<rect width="142" height="35" fill="white" transform="translate(0 0.5)"/>
</clipPath>
</defs>
</svg>
