<svg width="90" height="50" viewBox="0 0 90 50" fill="none" xmlns="http://www.w3.org/2000/svg">
<g clip-path="url(#clip0)">
<path d="M60.5885 30.5311H55.0273C55.0273 32.033 55.0987 33.1569 55.2382 33.9062C55.4933 35.5445 56.1804 36.3653 57.296 36.3653C58.6294 36.3653 59.296 35.3265 59.296 33.2524C59.296 33.0616 59.2892 32.8368 59.2756 32.5848C59.262 32.3327 59.2382 32.0739 59.1974 31.8116L60.6396 32.36V32.83C60.6396 35.9361 59.3437 37.4858 56.7518 37.4858C55.1871 37.4858 53.9559 36.8829 53.0579 35.6807C52.1599 34.4785 51.7109 32.7755 51.7109 30.5787C51.7109 28.2764 52.1565 26.4031 53.0477 24.9522C53.9389 23.5047 55.1055 22.7793 56.5409 22.7793C57.7994 22.7793 58.7859 23.3719 59.5035 24.5572C60.2212 25.7424 60.5817 27.3738 60.5817 29.4479V30.5311H60.5885ZM55.2382 26.4236C55.1871 26.8254 55.1464 27.2478 55.1123 27.6939C55.0817 28.1401 55.0647 28.6408 55.0647 29.1993H57.9524C57.9524 28.2593 57.9253 27.4453 57.8743 26.7676C57.8232 26.0863 57.7382 25.5381 57.6226 25.1191C57.4287 24.2813 57.0885 23.8623 56.6022 23.8623C55.9252 23.8589 55.4694 24.7138 55.2382 26.4236Z" fill="#8C8C8C"/>
<path d="M68.0254 24.8542V18.4172C69.1104 18.4172 70.4982 18.2503 71.5322 17.9199V37.1222H68.158L68.0084 35.4465L67.6478 36.3082C67.2328 37.0916 66.5764 37.4867 65.6818 37.4867C64.573 37.4867 63.6819 36.8498 63.0151 35.5759C62.3451 34.3021 62.0117 32.5856 62.0117 30.4228C62.0117 28.0694 62.3451 26.2063 63.0151 24.8372C63.6853 23.4681 64.5866 22.7835 65.7193 22.7835C66.0866 22.7835 66.4573 22.8959 66.8349 23.1241C67.3247 23.4409 67.7227 24.0164 68.0254 24.8542ZM65.3757 26.6594C65.3621 26.799 65.3349 27.252 65.2907 28.0217C65.2465 28.7881 65.2261 29.5135 65.2261 30.1946L65.2056 30.7703C65.2056 32.5141 65.3076 33.7844 65.5084 34.578C65.7091 35.3716 66.0628 35.77 66.5696 35.77C67.2873 35.77 67.7431 35.0275 67.9301 33.546C68.0322 32.7082 68.0798 31.5059 68.0798 29.9358C68.0798 28.3998 68.022 27.2418 67.9097 26.455C67.5832 25.0246 67.1274 24.3094 66.5492 24.3094C65.9573 24.3059 65.5662 25.0892 65.3757 26.6594Z" fill="#8C8C8C"/>
<path d="M73.4102 20.0689C73.4102 18.8836 74.1176 18.291 75.5292 18.291C76.0972 18.291 76.553 18.4511 76.8965 18.7747C77.24 19.0983 77.4101 19.5478 77.4101 20.1234C77.4101 20.6649 77.2196 21.0839 76.8353 21.3802C76.451 21.6765 75.9305 21.8264 75.2707 21.8264C74.7434 21.8264 74.3012 21.6663 73.9441 21.3428C73.5904 21.0123 73.4102 20.5901 73.4102 20.0689ZM73.7468 37.1254V23.3624C74.8557 23.3624 75.9782 23.1887 77.1142 22.8379V37.122H73.7468V37.1254Z" fill="#8C8C8C"/>
<path d="M81.4107 27.9421L79.7235 27.3938C79.6862 27.1486 79.6522 26.9272 79.6283 26.7263C79.6011 26.5253 79.5909 26.338 79.5909 26.1643C79.5909 25.1357 79.9549 24.3081 80.6828 23.678C81.4379 23.0854 82.4719 22.7891 83.7916 22.7891C85.0059 22.7891 85.9855 23.0412 86.727 23.5486C87.0978 23.8108 87.3665 24.1446 87.5331 24.5567C87.6998 24.9654 87.7814 25.5546 87.7814 26.3244V34.1476C87.7814 34.7062 87.8086 35.1456 87.8596 35.4691C87.9107 35.7927 88.0705 35.9528 88.3392 35.9528C88.4787 35.9528 88.6794 35.8642 88.9345 35.6905L89.2236 36.7122L88.5705 37.1039C88.0705 37.3662 87.4719 37.4956 86.7678 37.4956C86.2304 37.4956 85.7712 37.2947 85.3868 36.8928C85.1181 36.6135 84.9141 36.1435 84.7746 35.4793C84.1998 36.8213 83.3223 37.4956 82.1454 37.4956C81.1998 37.4956 80.4413 37.1278 79.8732 36.3955C79.3052 35.6633 79.0195 34.6619 79.0195 33.3881C79.0195 31.9747 79.3699 30.9189 80.0739 30.2241C80.4311 29.8937 81.0705 29.5088 81.9923 29.0729C82.9005 28.7051 83.5467 28.3236 83.9311 27.9217C84.3902 27.4687 84.6216 26.8046 84.6216 25.9327C84.6216 24.5363 84.0841 23.8381 83.0093 23.8381C82.4719 23.8381 82.0264 24.0424 81.676 24.4545C81.3256 24.8633 81.1488 25.4082 81.1488 26.0894C81.142 26.4845 81.2304 27.1043 81.4107 27.9421ZM84.6318 32.2846V28.3611C84.4004 28.797 84.0059 29.2126 83.4413 29.6042C82.8801 29.9959 82.5263 30.3773 82.3868 30.7418C82.1454 31.3515 82.0229 32.3017 82.0229 33.5925C82.0229 35.2307 82.3562 36.0515 83.0195 36.0515C83.4549 36.0515 83.8324 35.6939 84.1522 34.9786C84.4719 34.2124 84.6318 33.3132 84.6318 32.2846Z" fill="#8C8C8C"/>
<path d="M6.5625 10.8725V7.39844H29.0115V10.8725H22.7939V45.9461H14.1V10.8725H6.5625Z" fill="#151515"/>
<path d="M22.9234 46.0759H13.971V10.9989H6.43359V7.26953H29.1377V10.9989H22.9234V46.0759ZM14.2261 45.8206H22.6649V10.7435H28.8826V7.52497H6.6887V10.7435H14.2261V45.8206Z" fill="#151515"/>
<path d="M28.875 37.7787V7.23828H35.1913L39.1709 26.8459L42.9974 7.23828H49.528V37.7787H43.6743V15.3273L39.0791 37.7787H35.5825L31.2083 15.5827V37.7787H28.875Z" fill="#8C8C8C"/>
<path d="M24.5938 38.7361C24.5938 38.2355 24.9441 37.9834 25.6413 37.9834C25.9237 37.9834 26.1482 38.0515 26.3183 38.1877C26.4883 38.324 26.5734 38.5148 26.5734 38.7566C26.5734 38.9848 26.4781 39.1618 26.2877 39.2878C26.0971 39.4138 25.8387 39.4752 25.5121 39.4752C25.2502 39.4752 25.0325 39.4071 24.8557 39.2709C24.6788 39.1346 24.5938 38.9575 24.5938 38.7361ZM24.7604 45.9463V40.1291C25.3081 40.1291 25.8659 40.0542 26.4271 39.9077V45.9463H24.7604Z" fill="#151515"/>
<path d="M26.5151 46.0312H24.6784V40.0436H24.7634C25.3009 40.0436 25.8553 39.9687 26.4063 39.8257L26.5117 39.7984V46.0312H26.5151ZM24.8485 45.8609H26.3451V40.0199C25.8417 40.1425 25.3416 40.2106 24.8485 40.2174V45.8609ZM25.5185 39.5634C25.2396 39.5634 25.0015 39.4885 24.811 39.3421C24.6138 39.1888 24.5117 38.9879 24.5117 38.7392C24.5117 38.3578 24.709 37.9014 25.6443 37.9014C25.9437 37.9014 26.1886 37.9763 26.3722 38.1228C26.5628 38.2761 26.658 38.4906 26.658 38.7597C26.658 39.0185 26.5491 39.2194 26.3349 39.3625C26.1342 39.4953 25.8587 39.5634 25.5185 39.5634ZM25.6443 38.0716C24.9947 38.0716 24.6818 38.2897 24.6818 38.7392C24.6818 38.9333 24.7566 39.0866 24.9131 39.2092C25.0729 39.3352 25.2771 39.3966 25.5185 39.3966C25.8246 39.3966 26.0695 39.3387 26.2464 39.2229C26.4131 39.1139 26.4914 38.964 26.4914 38.7631C26.4914 38.5451 26.4199 38.3816 26.2668 38.259C26.1138 38.133 25.9029 38.0716 25.6443 38.0716Z" fill="#151515"/>
<path d="M27.4453 45.9458V40.1763C27.6733 40.1763 27.9249 40.1593 28.1936 40.1218C28.4657 40.0843 28.7446 40.0333 29.0303 39.9685L29.1086 41.0584C29.5134 40.2956 30.0508 39.9141 30.7175 39.9141C31.095 39.9141 31.4011 40.0401 31.629 40.2888C31.7786 40.4419 31.8876 40.694 31.9521 41.038C32.3841 40.2955 32.9249 39.9277 33.578 39.9277C34.0474 39.9277 34.4011 40.0912 34.6358 40.4215C34.7345 40.5611 34.7956 40.711 34.8228 40.8677C34.8501 41.0244 34.8637 41.3036 34.8637 41.6987V45.9458H33.2072V41.256C33.2072 40.9188 33.0916 40.7485 32.8637 40.7485C32.7277 40.7485 32.5848 40.8439 32.442 41.0346C32.1222 41.4603 31.9623 41.9371 31.9623 42.4651V45.9458H30.3535V41.2662C30.3535 40.9222 30.2447 40.7485 30.0303 40.7485C29.8807 40.7485 29.7378 40.8302 29.5984 40.9903C29.2583 41.4296 29.0882 41.9576 29.0882 42.574V45.9458H27.4453Z" fill="#151515"/>
<path d="M34.9478 46.0307H33.1213V41.2556C33.1213 40.8332 32.9342 40.8332 32.8628 40.8332C32.754 40.8332 32.6349 40.9184 32.509 41.0853C32.2029 41.494 32.0464 41.9572 32.0464 42.4647V46.0273H30.271V41.2624C30.271 40.8298 30.0975 40.8298 30.0328 40.8298C29.9104 40.8298 29.7846 40.9014 29.6655 41.0411C29.3424 41.4599 29.1757 41.9776 29.1757 42.5702V46.0238H27.3594V40.084H27.4444C27.669 40.084 27.9172 40.067 28.1825 40.0295C28.4512 39.992 28.7301 39.941 29.0124 39.8762L29.1077 39.8558L29.1723 40.7686C29.5737 40.1385 30.0907 39.8184 30.7132 39.8184C31.1145 39.8184 31.4445 39.9546 31.6859 40.2202C31.8152 40.3496 31.9138 40.5472 31.9852 40.8061C32.4138 40.1589 32.9478 39.8286 33.5737 39.8286C34.0703 39.8286 34.4512 40.0056 34.7029 40.3598C34.8083 40.5097 34.8764 40.6698 34.9036 40.84C34.9309 41.0036 34.9444 41.2795 34.9444 41.6848V46.0307H34.9478ZM33.2914 45.8603H34.7778V41.6949C34.7778 41.3067 34.7642 41.0308 34.7404 40.8775C34.7165 40.7345 34.6587 40.5948 34.5669 40.4654C34.3458 40.1555 34.0227 40.0056 33.5771 40.0056C32.958 40.0056 32.4376 40.3666 32.0227 41.0751L31.907 41.2726L31.8628 41.0479C31.8016 40.7208 31.6995 40.4824 31.5635 40.3428C31.3492 40.1078 31.0703 39.9954 30.7132 39.9954C30.0737 39.9954 29.5737 40.3564 29.1825 41.0955L29.043 41.3578L28.9512 40.0704C28.6962 40.1248 28.4444 40.1692 28.2029 40.2032C27.9615 40.2338 27.7335 40.2543 27.5261 40.2577V45.8569H29.0022V42.5736C29.0022 41.9402 29.1791 41.3884 29.5295 40.9355C29.6859 40.7515 29.8526 40.6596 30.0294 40.6596C30.2165 40.6596 30.4377 40.7652 30.4377 41.2624V45.8569H31.8764V42.4647C31.8764 41.9198 32.043 41.4225 32.373 40.9831C32.5328 40.772 32.6961 40.663 32.8628 40.663C33.0567 40.663 33.2914 40.7652 33.2914 41.2556V45.8603Z" fill="#151515"/>
<path d="M40.1668 43.0922H37.4389C37.4389 43.7087 37.4729 44.1685 37.5443 44.475C37.6701 45.1493 38.0069 45.4831 38.5545 45.4831C39.2076 45.4831 39.3878 44.9246 39.3878 44.0731C39.3878 43.9947 39.3878 43.7325 39.3878 43.7325L40.1974 43.8415V44.0356C40.1974 45.3094 39.5613 45.9463 38.2892 45.9463C37.5205 45.9463 36.9184 45.7011 36.4763 45.2073C36.0341 44.7134 35.8164 44.0152 35.8164 43.1127C35.8164 42.1692 36.0342 41.3995 36.4729 40.8035C36.9117 40.2109 37.4797 39.9111 38.1872 39.9111C38.8028 39.9111 39.2892 40.1529 39.6396 40.6399C39.9933 41.127 40.1668 41.7946 40.1668 42.646V43.0922ZM37.5443 41.4063C37.5205 41.5698 37.5001 41.7435 37.4831 41.9274C37.4661 42.1114 37.4593 42.3157 37.4593 42.5439H38.8743C38.8743 42.159 38.8606 41.8252 38.8368 41.5459C38.813 41.2666 38.7722 41.0419 38.7144 40.8682C38.6192 40.5241 38.4525 40.3539 38.2144 40.3539C37.8811 40.3539 37.6565 40.7047 37.5443 41.4063Z" fill="#151515"/>
<path d="M38.2883 46.0312C37.4992 46.0312 36.8666 45.7723 36.4142 45.2614C35.9618 44.7539 35.7305 44.0319 35.7305 43.1124C35.7305 42.1553 35.9584 41.3618 36.404 40.7555C36.8564 40.1424 37.455 39.8291 38.1863 39.8291C38.8291 39.8291 39.3428 40.0879 39.7101 40.5954C40.0707 41.0961 40.2543 41.7874 40.2543 42.6525V43.177H37.5264C37.5298 43.7424 37.5638 44.1716 37.6285 44.4577C37.7475 45.0946 38.0503 45.4011 38.557 45.4011C39.0809 45.4011 39.3053 45.0026 39.3053 44.0762V43.6368L40.2849 43.7696V44.0387C40.2815 45.3602 39.6115 46.0312 38.2883 46.0312ZM38.1829 39.9994C37.5094 39.9994 36.9584 40.2889 36.54 40.8543C36.1149 41.4298 35.9006 42.1894 35.9006 43.1124C35.9006 43.9877 36.1149 44.6722 36.54 45.149C36.9618 45.6224 37.5502 45.8608 38.2883 45.8608C39.5129 45.8608 40.1115 45.2648 40.1115 44.0353V43.9161L39.472 43.831V44.0728C39.472 44.771 39.3666 45.568 38.5536 45.568C37.9618 45.568 37.5945 45.2036 37.4618 44.4883C37.3937 44.1784 37.3563 43.7084 37.3563 43.0885V43.0033H40.0843V42.6491C40.0843 41.8215 39.9108 41.1608 39.5706 40.6908C39.2305 40.2276 38.7782 39.9994 38.1829 39.9994ZM38.9584 42.6287H37.3733V42.5436C37.3733 42.312 37.3801 42.1042 37.3972 41.9203C37.4142 41.7364 37.4346 41.5593 37.4584 41.3957C37.5774 40.6499 37.8325 40.2718 38.2135 40.2718C38.4958 40.2718 38.6897 40.466 38.7952 40.8509C38.8529 41.0245 38.8938 41.2562 38.921 41.5422C38.9448 41.8249 38.9584 42.1621 38.9584 42.547V42.6287ZM37.5434 42.4584H38.7884C38.785 42.1145 38.7747 41.8079 38.7509 41.5524C38.7271 41.28 38.6863 41.0586 38.6319 40.8951C38.5468 40.5852 38.4108 40.4387 38.2135 40.4387C37.9312 40.4387 37.7339 40.7691 37.6285 41.4196C37.6047 41.5831 37.5843 41.7534 37.5672 41.9339C37.5536 42.0906 37.5434 42.2642 37.5434 42.4584Z" fill="#151515"/>
<path d="M41.043 43.896L41.8593 43.7665L41.8253 44.1651C41.8253 44.5227 41.9308 44.8224 42.1416 45.0608C42.3525 45.2992 42.6144 45.4218 42.9342 45.4218C43.1518 45.4218 43.3287 45.3571 43.4647 45.2243C43.6008 45.0915 43.6689 44.9143 43.6689 44.693C43.6689 44.3796 43.4545 44.1072 43.0294 43.8755L42.6586 43.6814C42.128 43.4021 41.7471 43.1093 41.5191 42.8061C41.2913 42.5029 41.1791 42.1453 41.1791 41.7367C41.1791 41.1917 41.3559 40.7524 41.7096 40.4152C42.0634 40.078 42.5192 39.9111 43.0736 39.9111C43.5702 39.9111 43.9885 40.0644 44.3321 40.3744C44.509 40.5241 44.628 40.6911 44.6927 40.8716C44.7573 41.0521 44.7845 41.3143 44.7845 41.6481L44.0123 41.7435L44.0294 41.4335C44.0294 41.1474 43.9376 40.8988 43.7539 40.6877C43.5702 40.4765 43.3525 40.371 43.0974 40.371C42.8899 40.371 42.7232 40.439 42.5906 40.5753C42.4614 40.7115 42.3967 40.8784 42.3967 41.0794C42.3967 41.2734 42.458 41.4438 42.5838 41.5936C42.6858 41.7094 42.9715 41.8831 43.4443 42.1182C43.8388 42.3123 44.111 42.4655 44.2606 42.5779C44.7504 42.956 44.9953 43.443 44.9953 44.039C44.9953 44.5976 44.8151 45.054 44.4511 45.4082C44.0872 45.7624 43.6144 45.9395 43.0362 45.9395C42.4035 45.9395 41.8967 45.7556 41.5123 45.3911C41.3355 45.2209 41.213 45.0233 41.145 44.8054C41.077 44.5942 41.043 44.2911 41.043 43.896Z" fill="#151515"/>
<path d="M43.0426 46.0317C42.3895 46.0317 41.8589 45.8409 41.4576 45.4594C41.2705 45.2756 41.1378 45.0678 41.0664 44.8361C40.995 44.6114 40.9609 44.2947 40.9609 43.8928V43.8213L41.9575 43.6646L41.9134 44.1721C41.9134 44.499 42.012 44.7817 42.2059 45.0031C42.3997 45.2244 42.6378 45.3334 42.9372 45.3334C43.1344 45.3334 43.2909 45.2756 43.4099 45.1598C43.529 45.044 43.5868 44.8907 43.5868 44.6898C43.5868 44.4105 43.3862 44.1618 42.9915 43.9507L42.6208 43.7565C42.08 43.4738 41.6854 43.1707 41.4508 42.8573C41.2127 42.5406 41.0936 42.1626 41.0936 41.7368C41.0936 41.1715 41.2807 40.7049 41.6515 40.354C42.0222 40.0032 42.4984 39.8262 43.0766 39.8262C43.5936 39.8262 44.0358 39.9896 44.393 40.3098C44.58 40.4665 44.7093 40.647 44.7773 40.8445C44.842 41.0352 44.8759 41.3077 44.8759 41.6517V41.7266L43.9304 41.8458L43.9542 41.4337C43.9542 41.1715 43.8725 40.9467 43.699 40.7491C43.5324 40.555 43.3385 40.4631 43.1073 40.4631C42.9236 40.4631 42.7773 40.5209 42.6617 40.6401C42.546 40.7593 42.4916 40.9058 42.4916 41.0864C42.4916 41.26 42.546 41.4133 42.6583 41.5461C42.7194 41.6176 42.9168 41.7641 43.4916 42.0502C43.8963 42.2477 44.1684 42.401 44.3215 42.5202C44.8317 42.9153 45.0902 43.4296 45.0902 44.046C45.0902 44.625 44.8997 45.1052 44.5188 45.4765C44.1378 45.8443 43.6412 46.0317 43.0426 46.0317ZM41.131 43.9676C41.1344 44.3151 41.1685 44.5909 41.2297 44.7885C41.2909 44.9928 41.4099 45.1768 41.5766 45.3368C41.944 45.6843 42.4371 45.8613 43.0426 45.8613C43.597 45.8613 44.0528 45.691 44.3964 45.3538C44.7398 45.0167 44.9167 44.5773 44.9167 44.046C44.9167 43.4738 44.6855 43.0209 44.2127 42.653C44.0698 42.544 43.8011 42.3908 43.4133 42.2001C42.9236 41.9583 42.6344 41.7777 42.5256 41.6551C42.3861 41.4882 42.3181 41.2975 42.3181 41.083C42.3181 40.8615 42.3929 40.6708 42.5358 40.5209C42.682 40.3676 42.8725 40.2893 43.1039 40.2893C43.3828 40.2893 43.6242 40.4051 43.8249 40.6367C44.0222 40.8615 44.1209 41.134 44.1209 41.4372L44.1073 41.6517L44.7025 41.5768C44.6991 41.2873 44.6685 41.0591 44.614 40.9024C44.5562 40.7355 44.4439 40.5823 44.2807 40.4426C43.9542 40.1497 43.5494 39.9998 43.0766 39.9998C42.546 39.9998 42.1072 40.1599 41.7705 40.48C41.4337 40.7968 41.2637 41.2225 41.2637 41.7402C41.2637 42.1285 41.3725 42.4691 41.5868 42.7586C41.8045 43.0515 42.1786 43.3376 42.699 43.61L43.0698 43.8042C43.5256 44.0495 43.7535 44.3491 43.7535 44.6965C43.7535 44.9418 43.6753 45.1393 43.5256 45.2892C43.3726 45.4357 43.1752 45.5105 42.9338 45.5105C42.5902 45.5105 42.3011 45.3811 42.0766 45.1223C41.8555 44.8668 41.7399 44.5467 41.7399 44.1687L41.7671 43.8723L41.131 43.9676Z" fill="#151515"/>
<path d="M63.9336 41.6309C63.9336 41.5015 63.9778 41.4027 64.0696 41.3312C64.158 41.2597 64.284 41.2256 64.4472 41.2256C64.5799 41.2256 64.6887 41.2631 64.7736 41.338C64.8587 41.4129 64.9029 41.5151 64.9029 41.6445C64.9029 41.7671 64.8587 41.8659 64.7634 41.9374C64.6716 42.009 64.5458 42.043 64.3825 42.043C64.2499 42.043 64.1445 42.0056 64.0594 41.9272C63.9744 41.8489 63.9336 41.7501 63.9336 41.6309ZM64.0356 46.2867V42.53C64.209 42.53 64.3315 42.5232 64.4064 42.513C64.4811 42.5028 64.6172 42.4654 64.8111 42.404V46.2867H64.0356Z" fill="#151515"/>
<path d="M64.8957 46.3725H63.9502V42.4456H64.0352C64.2018 42.4456 64.3243 42.4388 64.3924 42.4286C64.4603 42.4183 64.5897 42.3843 64.7835 42.323L64.8957 42.2889V46.3725ZM64.1203 46.2023H64.7257V42.5171C64.5795 42.5614 64.4807 42.5853 64.4196 42.5955C64.3549 42.6057 64.2563 42.6124 64.1203 42.6124V46.2023ZM64.3855 42.1322C64.2325 42.1322 64.1032 42.0846 64.0046 41.9926C63.9025 41.8972 63.8516 41.778 63.8516 41.635C63.8516 41.4784 63.9093 41.3558 64.0182 41.2705C64.1237 41.1888 64.2665 41.1445 64.4468 41.1445C64.5999 41.1445 64.7291 41.1888 64.8311 41.2808C64.9365 41.3727 64.9876 41.4987 64.9876 41.652C64.9876 41.8019 64.9297 41.9245 64.8175 42.0096C64.7087 42.088 64.5624 42.1322 64.3855 42.1322ZM64.4468 41.3114C64.3074 41.3114 64.1984 41.3421 64.1237 41.4C64.0556 41.4545 64.0216 41.5294 64.0216 41.6315C64.0216 41.727 64.0556 41.8019 64.1203 41.8632C64.1882 41.9279 64.2767 41.9586 64.3855 41.9586C64.5284 41.9586 64.6372 41.9279 64.7121 41.87C64.7835 41.8155 64.8175 41.7439 64.8175 41.6452C64.8175 41.543 64.7835 41.4613 64.7189 41.4034C64.644 41.3421 64.5556 41.3114 64.4468 41.3114Z" fill="#151515"/>
<path d="M65.4688 46.2864V42.557C65.6728 42.557 65.8225 42.5468 65.9245 42.523C66.0402 42.4855 66.1388 42.4548 66.217 42.431L66.2443 43.2416C66.3395 42.9759 66.4688 42.7682 66.632 42.6183C66.7987 42.4685 66.9858 42.3936 67.1899 42.3936C67.445 42.3936 67.6389 42.4991 67.7715 42.7069C67.8259 42.792 67.8599 42.8908 67.8803 43.0066C67.9008 43.119 67.911 43.2756 67.911 43.4766V46.2864H67.1388V43.2382C67.1388 43.1564 67.1286 43.0917 67.1116 43.0406C67.0742 42.8908 66.9994 42.8124 66.8872 42.8124C66.7749 42.8124 66.6626 42.8942 66.5538 43.0542C66.3429 43.3574 66.2375 43.6809 66.2375 44.0283V46.2864H65.4688Z" fill="#151515"/>
<path d="M68.0019 46.3718H67.0597V43.2384C67.0597 43.1669 67.0529 43.109 67.0359 43.0682C66.9917 42.8978 66.9202 42.8978 66.8897 42.8978C66.808 42.8978 66.7196 42.966 66.6277 43.1022C66.4271 43.3917 66.3285 43.7017 66.3285 44.0286V46.3718H65.3828V42.4722H65.4679C65.6617 42.4722 65.808 42.4619 65.9033 42.4381C66.0121 42.4006 66.1107 42.3699 66.1924 42.3461L66.2978 42.3155L66.3182 42.8774C66.393 42.7514 66.4781 42.6424 66.5767 42.5539C66.757 42.3904 66.9644 42.3086 67.1924 42.3086C67.4781 42.3086 67.6991 42.4278 67.8454 42.6594C67.9033 42.7548 67.944 42.8637 67.9678 42.9864C67.9883 43.1056 68.0019 43.2623 68.0019 43.4701V46.3718ZM67.8352 46.2016V43.4735C67.8352 43.2793 67.825 43.126 67.8046 43.0204C67.7876 42.9183 67.7536 42.8264 67.706 42.7514C67.5903 42.5675 67.4236 42.479 67.1958 42.479C67.0087 42.479 66.8454 42.5436 66.6923 42.6799C66.5393 42.8195 66.4169 43.017 66.325 43.2657L66.274 43.4087C66.3284 43.2691 66.3998 43.1362 66.4883 43.0068C66.6142 42.8229 66.7468 42.7276 66.8897 42.7276C66.9985 42.7276 67.1379 42.7786 67.1958 43.0204C67.2161 43.075 67.2263 43.1499 67.2263 43.2418V46.2016H67.8352ZM65.5563 46.2016H66.1618V44.0286C66.1618 43.8481 66.189 43.671 66.2468 43.5007L66.1788 43.6914L66.1379 42.5436C66.0835 42.5607 66.0223 42.5811 65.9542 42.6016C65.8556 42.6253 65.7264 42.639 65.5563 42.6424V46.2016Z" fill="#151515"/>
<path d="M70.7738 43.8858L70.3691 43.7938C70.3827 43.6474 70.3895 43.5044 70.3895 43.3647C70.3895 43.1468 70.3452 42.973 70.2534 42.8436C70.165 42.7142 70.0425 42.6495 69.8861 42.6495C69.665 42.6495 69.4983 42.7925 69.3929 43.0786C69.2875 43.3647 69.233 43.8143 69.233 44.4205C69.233 44.9962 69.2841 45.4116 69.3827 45.6602C69.4813 45.9089 69.6514 46.0349 69.8827 46.0349C70.0765 46.0349 70.2262 45.9498 70.3282 45.7794C70.4337 45.6092 70.4847 45.3674 70.4847 45.0574L70.4576 44.6011L70.8351 44.7883L70.8419 44.9962C70.8419 45.4014 70.7467 45.7216 70.5562 45.9464C70.3657 46.1711 70.097 46.2869 69.7535 46.2869C69.335 46.2869 69.0188 46.1337 68.7942 45.8237C68.5732 45.5138 68.4609 45.0676 68.4609 44.4887C68.4609 43.8484 68.5834 43.3375 68.8249 42.9628C69.0663 42.5882 69.3963 42.3975 69.8078 42.3975C70.1174 42.3975 70.3657 42.5133 70.5562 42.7449C70.6377 42.847 70.6956 42.9526 70.7228 43.065C70.7603 43.1705 70.7738 43.6746 70.7738 43.8858Z" fill="#151515"/>
<path d="M69.7604 46.3718C69.3182 46.3718 68.9712 46.205 68.7332 45.8712C68.5018 45.5476 68.3828 45.0811 68.3828 44.485C68.3828 43.8311 68.5086 43.2997 68.7604 42.9115C69.0189 42.5096 69.3726 42.3086 69.8147 42.3086C70.1481 42.3086 70.4236 42.4347 70.6277 42.6867C70.7195 42.7991 70.7808 42.9149 70.8113 43.0375C70.8454 43.1703 70.8556 43.7357 70.8556 43.8855V43.9911L70.2739 43.8617L70.2808 43.7868C70.2944 43.6437 70.3012 43.5007 70.3012 43.3644C70.3012 43.1669 70.2603 43.0068 70.1821 42.891C70.1073 42.7855 70.0121 42.7343 69.8862 42.7343C69.7025 42.7343 69.5665 42.857 69.4747 43.109C69.3726 43.3849 69.3216 43.8277 69.3216 44.4237C69.3216 44.9856 69.3692 45.3944 69.4679 45.6328C69.5563 45.8473 69.6923 45.953 69.8896 45.953C70.0529 45.953 70.1753 45.8814 70.2637 45.7383C70.359 45.5817 70.4066 45.3534 70.4066 45.0606L70.3726 44.4612L70.9271 44.737L70.9339 44.9958C70.9339 45.425 70.8318 45.7622 70.6277 46.004C70.4202 46.2458 70.1311 46.3718 69.7604 46.3718ZM69.8147 42.479C69.4304 42.479 69.1311 42.6492 68.9032 43.0034C68.6719 43.3644 68.5529 43.8617 68.5529 44.485C68.5529 45.047 68.6583 45.4795 68.8726 45.7724C69.0801 46.0619 69.3692 46.2016 69.7638 46.2016C70.0834 46.2016 70.325 46.0993 70.5019 45.8916C70.6787 45.6805 70.7672 45.3807 70.7672 44.9958L70.7638 44.8426L70.5631 44.7438L70.5801 45.0572C70.5801 45.3875 70.5222 45.643 70.41 45.8269C70.291 46.0244 70.1141 46.1232 69.8896 46.1232C69.6209 46.1232 69.4236 45.9767 69.3114 45.6975C69.2059 45.4353 69.1549 45.0197 69.1549 44.4271C69.1549 43.8106 69.2093 43.3475 69.3182 43.0545C69.4372 42.7344 69.6311 42.5709 69.8896 42.5709C70.0733 42.5709 70.2195 42.6492 70.325 42.8025C70.4236 42.9456 70.4747 43.1362 70.4747 43.3712C70.4747 43.4904 70.4713 43.6096 70.4611 43.7357L70.6889 43.7868C70.6855 43.5245 70.6685 43.1669 70.6482 43.0886C70.6243 42.9898 70.5733 42.8944 70.4985 42.8025C70.3216 42.5845 70.1005 42.479 69.8147 42.479Z" fill="#151515"/>
<path d="M73.5379 44.4273H71.9597C71.9597 44.6657 71.9631 44.8463 71.9699 44.9689C71.9767 45.0915 71.9937 45.2175 72.0175 45.3503C72.0618 45.5853 72.1331 45.7591 72.2386 45.8715C72.3406 45.9838 72.4766 46.0383 72.6467 46.0383C72.8338 46.0383 72.9801 45.9668 73.0821 45.8237C73.1841 45.6807 73.2352 45.4764 73.2352 45.2107C73.2352 45.1188 73.225 44.9893 73.2011 44.8258L73.5685 44.9655V45.1527C73.5685 45.507 73.4767 45.7862 73.293 45.9873C73.1094 46.1882 72.8542 46.2903 72.5345 46.2903C72.1059 46.2903 71.776 46.1303 71.5413 45.8135C71.3066 45.4968 71.1875 45.0438 71.1875 44.4546C71.1875 43.8415 71.3032 43.3443 71.5413 42.9662C71.776 42.5882 72.0855 42.3975 72.4698 42.3975C72.81 42.3975 73.0719 42.5507 73.259 42.8607C73.446 43.1705 73.5379 43.5997 73.5379 44.1515V44.4273ZM72.0209 43.3375C71.9903 43.5554 71.9733 43.7019 71.9699 43.7768C71.9631 43.8518 71.9631 43.971 71.9631 44.1277H72.9052V44.0731C72.9052 43.5725 72.8712 43.208 72.7998 42.9764C72.7283 42.7449 72.6195 42.6291 72.4664 42.6291C72.2454 42.6291 72.0958 42.8675 72.0209 43.3375Z" fill="#151515"/>
<path d="M72.5379 46.3713C72.0855 46.3713 71.7284 46.1976 71.4767 45.8604C71.2318 45.53 71.1094 45.0566 71.1094 44.4538C71.1094 43.8271 71.2318 43.3094 71.4733 42.9211C71.725 42.5159 72.0583 42.3115 72.4733 42.3115C72.8441 42.3115 73.1332 42.4818 73.3338 42.8155C73.5277 43.1358 73.6263 43.5853 73.6263 44.1506V44.5151H72.0481C72.0481 44.7058 72.0515 44.8557 72.0583 44.9647C72.0651 45.0839 72.0821 45.2065 72.106 45.3359C72.1468 45.5539 72.2148 45.714 72.3033 45.8127C72.3917 45.9081 72.5039 45.9524 72.6501 45.9524C72.81 45.9524 72.929 45.8944 73.0141 45.7752C73.1025 45.6492 73.1502 45.4585 73.1502 45.2099C73.1502 45.1214 73.14 44.9954 73.1196 44.8352L73.1025 44.6956L73.6603 44.9033V45.1485C73.6603 45.5232 73.5583 45.8229 73.361 46.0409C73.157 46.2589 72.8815 46.3713 72.5379 46.3713ZM72.4698 42.4784C72.1162 42.4784 71.8339 42.6521 71.6161 43.0063C71.3917 43.3707 71.276 43.8544 71.276 44.4504C71.276 45.0157 71.3883 45.4551 71.6127 45.7583C71.8339 46.0579 72.1366 46.201 72.5379 46.201C72.8372 46.201 73.0651 46.1125 73.2352 45.9251C73.4053 45.7412 73.4903 45.479 73.4903 45.1451V45.0157L73.3067 44.9476C73.3169 45.0532 73.3236 45.1384 73.3236 45.2065C73.3236 45.4892 73.2658 45.714 73.157 45.8707C73.0379 46.0375 72.8713 46.1193 72.6535 46.1193C72.4596 46.1193 72.2999 46.0545 72.1807 45.9217C72.0685 45.7991 71.9869 45.6084 71.9393 45.3598C71.912 45.2235 71.895 45.0941 71.8882 44.9681C71.8814 44.8387 71.878 44.6547 71.878 44.4231V44.338H73.4563V44.1439C73.4563 43.6092 73.3678 43.1902 73.1875 42.8974C73.0175 42.618 72.7828 42.4784 72.4698 42.4784ZM72.9903 44.212H71.8746V44.1269C71.8746 43.9668 71.878 43.8475 71.8848 43.7692C71.8916 43.6909 71.9086 43.5444 71.9359 43.323V43.3196C72.0209 42.7951 72.1943 42.5396 72.4631 42.5396C72.6569 42.5396 72.7964 42.6759 72.8781 42.9484C72.9495 43.1868 72.9869 43.5648 72.9869 44.0689V44.212H72.9903ZM72.0447 44.0416H72.8168C72.8168 43.5682 72.7794 43.2175 72.7148 42.9995C72.6263 42.7134 72.5039 42.7134 72.4631 42.7134C72.2488 42.7134 72.1502 43.0574 72.1025 43.3469C72.0753 43.5614 72.0583 43.7045 72.0515 43.7794C72.0515 43.8441 72.0481 43.9293 72.0447 44.0416Z" fill="#151515"/>
<path d="M60.8624 44.6347L61.2978 44.4746C61.2433 44.6994 61.2161 44.88 61.2161 45.0128C61.2161 45.292 61.2978 45.5237 61.4644 45.7076C61.6276 45.8915 61.8386 45.9834 62.0936 45.9834C62.3216 45.9834 62.5086 45.9017 62.6514 45.7382C62.7943 45.5747 62.8658 45.3636 62.8658 45.1013C62.8658 44.9004 62.8181 44.7403 62.7229 44.6177C62.6073 44.478 62.3589 44.3111 61.978 44.1204C61.7297 43.9978 61.5529 43.8957 61.444 43.807C61.0562 43.504 60.8624 43.085 60.8624 42.5469C60.8624 42.1007 60.9814 41.7363 61.2195 41.4638C61.4576 41.1913 61.7671 41.0518 62.1515 41.0518C62.495 41.0518 62.7841 41.1573 63.012 41.3719C63.2433 41.5864 63.3589 41.8555 63.3589 42.1824L63.342 42.4686L62.9235 42.615C62.9372 42.5503 62.9474 42.4788 62.9576 42.4039C62.9644 42.3289 62.9678 42.2642 62.9678 42.2131C62.9678 41.9713 62.8896 41.767 62.7331 41.6001C62.5767 41.4332 62.3862 41.348 62.1583 41.348C61.944 41.348 61.7671 41.4264 61.6242 41.5796C61.4814 41.7329 61.4134 41.9304 61.4134 42.1723C61.4134 42.4039 61.4916 42.598 61.6481 42.7513L61.8181 42.8977C61.859 42.9216 61.8963 42.9454 61.9372 42.9692C62.0121 43.0101 62.1447 43.0782 62.3317 43.1668C62.5188 43.2588 62.6548 43.3268 62.7467 43.378C62.8351 43.429 62.9167 43.4869 62.995 43.5516C63.1617 43.681 63.2909 43.8514 63.3861 44.0625C63.4814 44.2703 63.529 44.4985 63.529 44.7471C63.529 45.2035 63.3998 45.5713 63.1447 45.8574C62.8896 46.1401 62.5528 46.2831 62.1413 46.2831C61.7535 46.2831 61.4406 46.1639 61.1991 45.9289C60.961 45.6905 60.842 45.384 60.842 45.0026C60.8352 44.8902 60.8454 44.7642 60.8624 44.6347Z" fill="#151515"/>
<path d="M62.1343 46.3719C61.7261 46.3719 61.3895 46.2425 61.1343 45.9905C60.8792 45.7384 60.75 45.4047 60.75 45.0028C60.75 44.8836 60.7602 44.7541 60.7772 44.6213L60.784 44.5702L61.4166 44.3386L61.3793 44.4953C61.3282 44.7132 61.301 44.887 61.301 45.013C61.301 45.2718 61.3759 45.483 61.5255 45.6533C61.6752 45.8201 61.8588 45.9019 62.0901 45.9019C62.2942 45.9019 62.4574 45.8304 62.5833 45.6873C62.7126 45.5409 62.7772 45.3467 62.7772 45.1083C62.7772 44.9278 62.7363 44.7848 62.6548 44.6792C62.5493 44.5498 62.3078 44.3931 61.9405 44.2058C61.6854 44.0797 61.5051 43.9742 61.3929 43.8822C60.988 43.5654 60.7806 43.1193 60.7806 42.5574C60.7806 42.0907 60.9065 41.7058 61.1581 41.4164C61.4132 41.1235 61.7466 40.9736 62.1547 40.9736C62.5187 40.9736 62.8282 41.0894 63.0765 41.3177C63.3248 41.5458 63.4472 41.8421 63.4472 42.1896L63.4269 42.5369L62.8112 42.7549L62.8453 42.605C62.8589 42.5438 62.869 42.4756 62.8758 42.4041C62.8826 42.3325 62.886 42.2713 62.886 42.2201C62.886 41.9988 62.818 41.8183 62.6752 41.665C62.5357 41.5152 62.3656 41.4403 62.1615 41.4403C61.9711 41.4403 61.818 41.5049 61.6922 41.6446C61.5629 41.7842 61.5017 41.9579 61.5017 42.1793C61.5017 42.3905 61.5697 42.5608 61.7091 42.6969L61.8758 42.84C61.903 42.8536 61.9405 42.8775 61.9813 42.9014C62.0561 42.9422 62.1853 43.0069 62.369 43.0989C62.5561 43.1908 62.6956 43.2624 62.7874 43.3135C62.8826 43.3679 62.9677 43.4293 63.0459 43.4974C63.2194 43.6336 63.3588 43.8141 63.4608 44.0355C63.5595 44.2535 63.6105 44.4953 63.6105 44.7541C63.6105 45.2309 63.4744 45.6226 63.2057 45.919C62.9302 46.2186 62.5697 46.3719 62.1343 46.3719ZM60.9405 44.6962C60.9269 44.8018 60.9201 44.9074 60.9201 45.0028C60.9201 45.3638 61.0289 45.6465 61.2534 45.8679C61.4779 46.0892 61.767 46.1982 62.1343 46.1982C62.5255 46.1982 62.835 46.0688 63.0731 45.7997C63.3146 45.5341 63.4337 45.1798 63.4337 44.7473C63.4337 44.5123 63.3894 44.2944 63.301 44.1002C63.2126 43.9061 63.0901 43.7426 62.9336 43.6234C62.8589 43.5621 62.7806 43.5042 62.6956 43.4565C62.6105 43.4088 62.471 43.3373 62.2874 43.2453C62.1003 43.1534 61.9677 43.0886 61.8894 43.0444C61.8486 43.0206 61.8078 42.9967 61.767 42.9728L61.5867 42.8162C61.4099 42.6425 61.3248 42.428 61.3248 42.1725C61.3248 41.9102 61.4031 41.6889 61.5595 41.522C61.7159 41.3516 61.9166 41.2631 62.1547 41.2631C62.4065 41.2631 62.6207 41.355 62.7942 41.539C62.9643 41.7229 63.0493 41.9477 63.0493 42.2099C63.0493 42.2644 63.0459 42.3291 63.0391 42.4075C63.0357 42.4348 63.0323 42.4585 63.0289 42.4824L63.2568 42.4007L63.2704 42.1691C63.2704 41.8694 63.1649 41.6241 62.9507 41.4266C62.7363 41.2256 62.471 41.1269 62.1479 41.1269C61.7874 41.1269 61.5017 41.2529 61.2806 41.5117C61.0595 41.7706 60.9439 42.1146 60.9439 42.5403C60.9439 43.0546 61.1241 43.4428 61.4915 43.7324C61.5969 43.8175 61.7704 43.9197 62.0084 44.0389C62.4031 44.2364 62.6582 44.4068 62.7806 44.5566C62.8894 44.6928 62.9405 44.8733 62.9405 45.0947C62.9405 45.3774 62.8622 45.609 62.7058 45.7861C62.5459 45.9666 62.3384 46.0585 62.0833 46.0585C61.8044 46.0585 61.5731 45.9564 61.3929 45.7555C61.216 45.5545 61.1241 45.3025 61.1241 45.0028C61.1241 44.8938 61.1411 44.761 61.1717 44.5974L60.9405 44.6962Z" fill="#151515"/>
<path d="M75.625 46.2871V45.7251C75.7814 45.4799 75.9209 45.2687 76.0433 45.0916C76.1658 44.9145 76.295 44.7442 76.4209 44.5705L76.6998 44.1992C77.0094 43.8042 77.2202 43.4806 77.3358 43.2286C77.4515 42.9731 77.5093 42.7041 77.5093 42.4214C77.5093 42.1183 77.4481 41.8696 77.3222 41.6756C77.1964 41.4814 77.0331 41.3826 76.8325 41.3826C76.6147 41.3826 76.4379 41.4882 76.3018 41.696C76.1658 41.9037 76.0978 42.1762 76.0978 42.5066C76.0978 42.6598 76.1352 42.9017 76.2134 43.2388L75.7474 43.0889C75.7168 42.9663 75.6964 42.8539 75.6862 42.7586C75.676 42.6598 75.6692 42.5712 75.6692 42.4861C75.6692 42.0638 75.7916 41.7198 76.0399 41.4541C76.2882 41.1885 76.6045 41.0557 76.9924 41.0557C77.3903 41.0557 77.7168 41.1817 77.9651 41.4372C78.2134 41.6926 78.3392 42.0229 78.3392 42.4317C78.3392 42.6633 78.2917 42.8846 78.1964 43.0923C78.1216 43.2627 78.0297 43.4228 77.9243 43.5691C77.8189 43.7156 77.6386 43.9302 77.3869 44.2095C77.2815 44.3321 77.1862 44.441 77.108 44.5365C77.0026 44.6659 76.8428 44.877 76.6285 45.17L76.4753 45.3913H78.2883V46.2871H75.625Z" fill="#151515"/>
<path d="M75.5391 46.3719V45.701L75.5527 45.6806C75.7057 45.4388 75.8486 45.2241 75.9745 45.0437C76.1003 44.8665 76.2261 44.6929 76.3554 44.5226L76.6343 44.1513C76.937 43.763 77.1479 43.4429 77.2602 43.1943C77.3724 42.9525 77.4268 42.6936 77.4268 42.4211C77.4268 42.135 77.369 41.9 77.2534 41.7196C77.1445 41.5492 77.005 41.4675 76.835 41.4675C76.6479 41.4675 76.4982 41.5561 76.3758 41.7434C76.25 41.9375 76.1853 42.1964 76.1853 42.5097C76.1853 42.6527 76.2227 42.8945 76.2975 43.225L76.3315 43.3713L75.6785 43.1636L75.6683 43.1193C75.6377 42.9933 75.6139 42.8775 75.6037 42.7787C75.5934 42.6766 75.5866 42.5812 75.5866 42.496C75.5866 42.0533 75.7193 41.6855 75.9813 41.4062C76.2432 41.1235 76.5866 40.9805 76.9949 40.9805C77.4166 40.9805 77.7635 41.1167 78.0288 41.3857C78.2942 41.6548 78.4268 42.009 78.4268 42.4382C78.4268 42.6834 78.3758 42.915 78.2772 43.1363C78.1989 43.3135 78.1037 43.477 77.9949 43.6268C77.8859 43.7767 77.7023 43.9946 77.454 44.2739C77.3486 44.3965 77.2568 44.5055 77.1751 44.6009C77.0697 44.7269 76.9166 44.9313 76.6989 45.2309L76.6411 45.3162H78.3758V46.3719H75.5391ZM78.1955 46.2017V45.4762H76.3043L76.5527 45.122C76.7703 44.8189 76.9302 44.6111 77.0356 44.4816C77.1173 44.3863 77.2091 44.2773 77.3145 44.1547C77.5629 43.8788 77.7397 43.6643 77.8452 43.5212C77.9472 43.3816 78.0356 43.225 78.1105 43.0615C78.1989 42.8639 78.2465 42.6527 78.2465 42.4348C78.2465 42.0533 78.1275 41.7366 77.8962 41.5015C77.6649 41.2665 77.3588 41.1473 76.9847 41.1473C76.6173 41.1473 76.3281 41.2699 76.0935 41.5186C75.8621 41.7672 75.7465 42.0942 75.7465 42.4927C75.7465 42.5744 75.7533 42.6629 75.7635 42.7583C75.7737 42.8401 75.7908 42.932 75.8146 43.0342L76.0969 43.1227C76.039 42.8503 76.0118 42.6527 76.0118 42.5165C76.0118 42.1691 76.0867 41.8796 76.2295 41.6582C76.3826 41.4232 76.5866 41.3074 76.8316 41.3074C77.0628 41.3074 77.2534 41.4198 77.3928 41.6378C77.5254 41.8456 77.5935 42.1113 77.5935 42.4314C77.5935 42.7277 77.5323 43.0103 77.4132 43.276C77.2942 43.5349 77.0765 43.8686 76.7669 44.2637L76.488 44.6315C76.3588 44.8019 76.2329 44.9755 76.1105 45.1492C75.9915 45.3196 75.8553 45.5273 75.7057 45.7589V46.2017H78.1955Z" fill="#151515"/>
<path d="M79.0156 43.6675C79.0156 43.1974 79.0462 42.8091 79.1109 42.4992C79.1754 42.1893 79.2809 41.91 79.4305 41.6512C79.5394 41.4638 79.6789 41.3208 79.849 41.2118C80.0156 41.1062 80.1924 41.0518 80.3795 41.0518C80.5734 41.0518 80.7639 41.1164 80.951 41.2459C81.4747 41.6171 81.7366 42.4481 81.7366 43.7322C81.7366 44.5734 81.6006 45.2239 81.3251 45.6837C81.2094 45.8711 81.07 46.0175 80.9033 46.1231C80.7366 46.2287 80.5598 46.2831 80.3795 46.2831C80.1822 46.2831 79.9918 46.2184 79.8013 46.089C79.2775 45.7144 79.0156 44.9072 79.0156 43.6675ZM79.9306 42.0224C79.8931 42.2233 79.8693 42.4515 79.849 42.7104C79.8319 42.9692 79.8217 43.2894 79.8217 43.6641C79.8217 44.2737 79.8387 44.7267 79.8795 45.0298C79.9169 45.3329 79.9816 45.5713 80.0734 45.7484C80.155 45.9051 80.2571 45.9869 80.3795 45.9869C80.4747 45.9869 80.5632 45.9255 80.6448 45.8063C80.7264 45.6871 80.7843 45.5237 80.8217 45.3227C80.8592 45.1218 80.8863 44.8936 80.9033 44.6381C80.9203 44.3827 80.9305 44.0591 80.9305 43.6708C80.9305 42.8568 80.8863 42.2711 80.8013 41.9032C80.7129 41.5388 80.5734 41.3548 80.3829 41.3548C80.2843 41.3548 80.1924 41.4162 80.1143 41.5354C80.0292 41.6546 79.968 41.818 79.9306 42.0224Z" fill="#151515"/>
<path d="M80.3786 46.3712C80.1677 46.3712 79.9569 46.2997 79.7528 46.1601C79.2052 45.7684 78.9297 44.9272 78.9297 43.6636C78.9297 43.1936 78.9637 42.7951 79.0283 42.4784C79.0929 42.1616 79.2052 41.8687 79.3582 41.6065C79.4739 41.4089 79.6235 41.2523 79.8038 41.1399C80.1711 40.9048 80.6031 40.9015 80.9977 41.1773C81.5453 41.5656 81.8208 42.4238 81.8208 43.7352C81.8208 44.5866 81.678 45.2575 81.3957 45.731C81.2766 45.9285 81.1236 46.0852 80.9467 46.1976C80.7664 46.3134 80.576 46.3712 80.3786 46.3712ZM80.3786 41.1399C80.2086 41.1399 80.0487 41.1875 79.8956 41.2863C79.7392 41.3851 79.6099 41.5247 79.5045 41.6984C79.3616 41.9436 79.2562 42.2195 79.195 42.5192C79.1338 42.8224 79.0998 43.2072 79.0998 43.6704C79.0998 44.8761 79.3514 45.6697 79.8515 46.0273C80.1847 46.2554 80.5419 46.2623 80.8583 46.0579C81.0147 45.9592 81.1474 45.8195 81.2528 45.6458C81.5181 45.2031 81.6507 44.5628 81.6507 43.7386C81.6507 42.4886 81.3991 41.6746 80.899 41.3204C80.729 41.2012 80.5521 41.1399 80.3786 41.1399ZM80.3786 46.0716C80.2222 46.0716 80.0963 45.9762 79.9977 45.7889C79.899 45.605 79.8311 45.353 79.7936 45.043C79.7562 44.7399 79.7358 44.2766 79.7358 43.667C79.7358 43.2855 79.746 42.9654 79.763 42.7066C79.78 42.4443 79.8072 42.2093 79.8447 42.0084C79.8854 41.7938 79.9501 41.6201 80.0351 41.4907C80.1304 41.3442 80.246 41.2727 80.3752 41.2727C80.6099 41.2727 80.78 41.4771 80.8786 41.8858C80.9671 42.2536 81.0113 42.8564 81.0113 43.6704C81.0113 44.0689 81.0011 44.389 80.9841 44.6445C80.9671 44.9033 80.9365 45.1383 80.899 45.3393C80.8583 45.5505 80.797 45.7242 80.7086 45.8536C80.6167 45.9966 80.5045 46.0716 80.3786 46.0716ZM80.0113 42.039C79.9773 42.2366 79.9501 42.4648 79.9331 42.7202C79.916 42.9756 79.9058 43.2923 79.9058 43.6704C79.9058 44.2732 79.9229 44.7297 79.9603 45.0259C79.9977 45.3155 80.0589 45.547 80.1474 45.714C80.246 45.9047 80.3446 45.9047 80.3752 45.9047C80.4399 45.9047 80.5045 45.857 80.5692 45.7616C80.6439 45.6526 80.6984 45.4993 80.7324 45.3086C80.7698 45.1145 80.797 44.8863 80.814 44.6308C80.831 44.3822 80.8413 44.0587 80.8413 43.667C80.8413 42.8633 80.797 42.2774 80.712 41.9198C80.6337 41.5997 80.5215 41.4362 80.3752 41.4362C80.3038 41.4362 80.2392 41.4839 80.1745 41.5792C80.1066 41.6916 80.0487 41.8449 80.0113 42.039Z" fill="#151515"/>
<path d="M82.5195 42.5843V42.1211C82.71 42.0871 82.8494 42.053 82.9412 42.0189C83.0331 41.9849 83.1454 41.9236 83.2746 41.8385C83.4141 41.7397 83.5161 41.6477 83.5807 41.566C83.6454 41.4843 83.7202 41.348 83.8053 41.1572H84.397V46.2865H83.4719V42.1518C83.2848 42.2982 83.1283 42.4004 83.0127 42.4549C82.8937 42.5094 82.7304 42.5537 82.5195 42.5843Z" fill="#151515"/>
<path d="M84.4851 46.3713H83.3898V42.3217C83.2572 42.4171 83.145 42.4886 83.0498 42.5295C82.9239 42.5874 82.7572 42.6317 82.5361 42.6692L82.4375 42.6862V42.0527L82.509 42.0391C82.6926 42.0084 82.8286 41.9743 82.9137 41.9403C82.9987 41.9062 83.1041 41.8483 83.23 41.7666C83.3593 41.6747 83.4545 41.586 83.5158 41.5111C83.5769 41.4363 83.6484 41.3034 83.73 41.1195L83.7538 41.0684H84.4851V46.3713ZM84.315 46.201V41.2387H83.8626C83.7845 41.4124 83.713 41.535 83.6518 41.6167C83.5803 41.7052 83.4749 41.8007 83.3287 41.9062C83.1858 41.9982 83.0736 42.0595 82.9749 42.0969C82.8899 42.131 82.7674 42.1617 82.6076 42.1923V42.4818C82.764 42.4511 82.8865 42.4171 82.9783 42.3728C83.0905 42.3217 83.2368 42.2229 83.4205 42.0799L83.5565 41.9743V46.201H84.315Z" fill="#151515"/>
<path d="M85.4766 45.1119V44.642L87.4596 41.1543H88.0888V44.6692H88.5378V45.1119H88.0888V46.287H87.2215V45.1119H85.4766ZM87.2215 42.2817L85.895 44.6692H87.2215V42.2817Z" fill="#151515"/>
<path d="M88.1729 46.3718H87.1355V45.1968H85.3906V44.6178L85.4008 44.5973L87.4076 41.0654H88.1729V44.5803H88.6219V45.1899H88.1729V46.3718ZM88.0029 46.2015V45.0264H88.4518V44.7574H88.0029V41.2426H87.5063L85.5573 44.6688V45.0298H87.3023V46.2015H88.0029ZM87.3057 44.7574H85.7512L87.3057 41.9544V44.7574ZM86.0404 44.5871H87.1355V42.6117L86.0404 44.5871Z" fill="#151515"/>
<path d="M59.2847 49.011H0.78125V0.988281H59.2847V19.0393H58.6044V1.66945H1.46152V48.3298H58.6044V43.5615H59.2847V49.011Z" fill="#151515"/>
<path d="M59.4147 49.1405H0.65625V0.862305H59.4147V19.1689H58.4794V1.79891H1.59162V48.2039H58.4794V43.4357H59.4147V49.1405ZM0.911351 48.8851H59.1596V43.6911H58.7345V48.4593H1.33652V1.54348H58.7345V18.9134H59.1596V1.11774H0.911351V48.8851Z" fill="#151515"/>
</g>
<defs>
<clipPath id="clip0">
<rect width="90" height="49.5918" fill="white" transform="translate(0 0.204102)"/>
</clipPath>
</defs>
</svg>
