<svg width="171" height="40" viewBox="0 0 171 40" fill="none" xmlns="http://www.w3.org/2000/svg">
<g clip-path="url(#clip0)">
<path d="M4.36112 7.51701L6.90443 4.87614C8.30419 5.66647 10.6479 7.77862 11.9695 7.77862C12.73 7.77862 13.6686 7.23613 14.2754 6.9938C15.1709 6.63305 15.6294 6.49536 16.1256 5.64995C16.5167 4.98354 16.8349 2.8824 17.0345 1.86626C17.1073 1.4945 17.2692 0.896926 17.2692 0.448059H21.0315C21.0315 1.25492 21.8919 5.14326 22.1427 5.59488C22.5769 6.3742 23.0166 6.60276 23.9012 6.94423C26.9461 8.11734 26.253 8.35692 30.126 5.7188C30.5575 5.42689 30.9405 5.13499 31.3747 4.89817L33.9611 7.49498C33.1871 8.92695 31.1185 11.3172 31.1185 12.6666C31.1185 13.3 32.0921 15.7123 32.3726 16.0978C33.3489 17.4361 34.8296 17.4141 36.909 17.8382C37.2758 17.9125 37.8584 18.0805 38.298 18.0805V21.9193C37.5078 21.9193 33.6995 22.7978 33.2572 23.0566C32.494 23.4972 32.2701 23.9461 31.9357 24.8493C30.7867 27.9611 30.5521 27.2506 33.1359 31.2078C33.4217 31.6457 33.7076 32.0367 33.9396 32.4828L31.3963 35.1209C29.9938 34.3306 27.6528 32.2184 26.3312 32.2184C25.568 32.2184 24.6294 32.7609 24.0225 33.006C23.3051 33.2952 22.6767 33.4962 22.1751 34.3471C21.784 35.0135 21.4658 37.1147 21.2662 38.1336C21.1934 38.5053 21.0315 39.1029 21.0315 39.5518H17.2692C17.2692 38.7421 16.4088 34.8538 16.158 34.4022C15.7238 33.6256 15.2841 33.3971 14.3995 33.0556C11.3545 31.8825 12.0477 31.6429 8.17204 34.2783C7.74321 34.5729 7.36023 34.8648 6.926 35.0989L4.33954 32.5021C4.57958 32.056 4.87086 31.6539 5.12977 31.2601C5.79864 30.233 7.18222 28.4347 7.18222 27.3305C7.18222 26.5539 6.6509 25.5956 6.41087 24.976C6.05756 24.0617 5.9254 23.5936 5.09741 23.0869C4.44472 22.6876 2.38688 22.3627 1.38898 22.1589C1.02488 22.0845 0.439618 21.9193 0 21.9193V18.0805C0.79293 18.0805 4.60115 17.1993 5.04347 16.9432C5.80403 16.5026 6.02789 16.051 6.36232 15.1477C7.51126 12.0387 7.7459 12.7492 5.16483 8.79202C4.87625 8.35141 4.59036 7.96037 4.36112 7.51701Z" stroke="#151515" stroke-width="8.5039" stroke-miterlimit="22.9256"/>
<path d="M24.3887 29.0711L17.9518 29.1527C17.9517 29.1527 17.9516 29.1527 17.9516 29.1527C15.1353 29.1896 12.898 26.8306 12.898 24.0154C12.898 22.2099 13.8357 20.444 15.3906 19.5135L24.3887 29.0711ZM24.3887 29.0711C22.8533 29.9995 21.0624 30.5321 19.1481 30.5321C13.4681 30.5321 8.84375 25.8255 8.84375 20.0004C8.84375 17.0987 9.99155 14.4728 11.8475 12.5696L19.6131 12.4684C17.9829 12.7935 16.7629 14.2588 16.7629 15.9992C16.7629 17.188 17.3307 18.248 18.2092 18.9049C18.1409 18.895 18.0692 18.8869 17.9957 18.882C17.0756 18.8169 16.1788 19.0417 15.3906 19.5135L24.3887 29.0711ZM29.4524 20.0004C29.4524 22.9103 28.2994 25.5417 26.4331 27.4477L18.6242 27.549C20.2565 27.224 21.4767 25.7583 21.4767 24.0154C21.4767 22.8281 20.909 21.7691 20.0301 21.1125C20.0986 21.1223 20.1702 21.1305 20.2439 21.1354C21.1637 21.2004 22.0605 20.9758 22.8465 20.5037C24.4046 19.5728 25.3389 17.8066 25.3389 15.9992C25.3389 13.1867 23.1015 10.8276 20.2878 10.8646C20.2878 10.8646 20.2878 10.8646 20.2878 10.8646L13.8788 10.9485C15.4206 10.0076 17.2222 9.46875 19.1481 9.46875C24.8307 9.46875 29.4524 14.1726 29.4524 20.0004ZM16.7947 20.61C16.5969 20.6788 16.4071 20.765 16.2271 20.8667C16.4101 20.7601 16.5998 20.6743 16.7947 20.61ZM22.001 19.1558C21.8152 19.2638 21.6215 19.3501 21.4224 19.4142C21.6241 19.3454 21.8176 19.2587 22.001 19.1558Z" fill="#151515" stroke="#151515"/>
<path d="M45.7122 28.7757L45.7117 28.7787C45.6873 28.9147 45.6459 29.0202 45.5819 29.1084C45.5953 29.0626 45.6061 29.0159 45.6145 28.9686L45.6147 28.9686L45.6166 28.9563C45.6561 28.6973 45.6241 28.3746 45.3634 28.1373C45.202 27.9904 45.003 27.9256 44.8124 27.9C45.2367 27.9089 45.4716 28.0283 45.5873 28.1485C45.6961 28.2616 45.7726 28.4515 45.7122 28.7757ZM45.3953 30.9259C45.4297 30.7023 45.4243 30.4101 45.2396 30.1657L45.2971 30.2006C45.4459 30.291 45.4962 30.3773 45.5195 30.4514C45.5479 30.5421 45.5527 30.6712 45.5178 30.8618L45.5178 30.8618L45.5173 30.8645C45.4553 31.2142 45.3153 31.4401 45.1124 31.5884C45.0127 31.6613 44.8844 31.7252 44.7201 31.7726C44.8062 31.7388 44.8882 31.6954 44.9646 31.6405C45.2178 31.4586 45.3414 31.2013 45.3917 30.9468L45.3937 30.9364L45.3953 30.9259ZM43.2093 31.6841C43.3642 31.7711 43.5404 31.8218 43.7288 31.8484C43.382 31.8208 43.1364 31.7417 42.971 31.6407C42.8314 31.5554 42.7349 31.4469 42.6765 31.3056L42.8013 31.2624C42.8869 31.4316 43.0201 31.5778 43.2093 31.6841Z" fill="#151515" stroke="#151515"/>
<path d="M49.1261 29.3926C49.0852 29.3221 49.0318 29.2663 48.9724 29.2242C49.0822 29.2447 49.1725 29.2689 49.2411 29.2924L49.1921 29.5775C49.1825 29.5173 49.162 29.4544 49.1261 29.3926ZM47.1589 31.6881C47.2134 31.7425 47.2725 31.7863 47.3342 31.8213C47.1751 31.7787 47.087 31.7069 47.0371 31.6413C46.9718 31.5553 46.9189 31.4108 46.9263 31.1877C46.9447 31.362 47.0105 31.5397 47.1589 31.6881Z" fill="#151515" stroke="#151515"/>
<path d="M52.708 29.7035C52.6929 29.5456 52.6287 29.3974 52.5177 29.278C52.5654 29.3014 52.6015 29.3262 52.6279 29.3496C52.6971 29.4113 52.7438 29.5009 52.7137 29.6743L52.7135 29.6755C52.7119 29.6853 52.71 29.6946 52.708 29.7035ZM50.4459 31.7727L50.4801 31.5748C50.4941 31.6552 50.5277 31.7337 50.581 31.8016C50.5314 31.7928 50.4865 31.7831 50.4459 31.7727ZM52.6332 31.1762C52.6227 31.2498 52.6068 31.3139 52.5858 31.3702C52.5944 31.3415 52.6016 31.3122 52.6075 31.2822L52.6092 31.2735L52.6106 31.2647C52.624 31.1806 52.6263 31.0878 52.6085 30.9923C52.6283 31.0252 52.6473 31.0807 52.6336 31.1737L52.6332 31.1762ZM50.4256 31.8908C50.4256 31.8908 50.4256 31.8904 50.4257 31.8894L50.4256 31.8908ZM51.4405 31.6612C51.441 31.6599 51.4416 31.6584 51.4422 31.6568C51.4415 31.6587 51.441 31.6601 51.4405 31.6612Z" fill="#151515" stroke="#151515"/>
<path d="M56.1493 29.3532C56.1129 29.3154 56.0742 29.2824 56.0339 29.2537C56.1389 29.2961 56.2075 29.3497 56.2515 29.4006C56.3281 29.4891 56.3902 29.6389 56.3772 29.8839C56.3646 29.7024 56.3029 29.5126 56.1493 29.3532ZM54.2795 31.6743C54.3169 31.7137 54.3568 31.7481 54.3985 31.778C54.2949 31.7366 54.226 31.6846 54.1814 31.6346C54.1054 31.5495 54.0421 31.4049 54.0565 31.1634C54.0712 31.3398 54.134 31.5208 54.2795 31.6743Z" fill="#151515" stroke="#151515"/>
<path d="M58.4411 27.7731C58.441 27.773 58.4425 27.7728 58.4459 27.7727C58.4428 27.7731 58.4411 27.7732 58.4411 27.7731ZM59.9853 28.2319C59.8664 28.0694 59.7182 27.9676 59.5913 27.8982C59.6241 27.9099 59.6539 27.9223 59.6807 27.9356L59.6809 27.9357C59.8223 28.0054 59.9197 28.0961 59.9853 28.2319ZM57.755 31.6323C57.6717 31.5387 57.6043 31.3738 57.6371 31.088C57.6384 31.2837 57.6933 31.494 57.8567 31.67C57.8955 31.7117 57.937 31.7479 57.9806 31.7791C57.8716 31.7368 57.8003 31.6832 57.755 31.6323Z" fill="#151515" stroke="#151515"/>
<path d="M65.3714 28.2375C65.1744 28.0308 64.9147 27.9349 64.6508 27.9007C65.1194 27.9161 65.3825 28.0673 65.5231 28.2398C65.675 28.4262 65.7641 28.7359 65.6855 29.1993L65.6854 29.1994L65.4565 30.5497C65.3748 31.0096 65.1879 31.321 64.9337 31.5223C64.9058 31.5444 64.8765 31.5657 64.8457 31.5861C64.8544 31.5796 64.8631 31.573 64.8717 31.5663C65.1561 31.3449 65.3204 31.03 65.384 30.6769L65.3841 30.6769L65.3854 30.6688L65.4258 30.421L65.5178 29.8574H65.5263L65.5956 29.439L65.6276 29.2453C65.6277 29.245 65.6277 29.2447 65.6278 29.2443C65.686 28.8994 65.6431 28.5224 65.3714 28.2375ZM63.0928 31.6662C63.254 31.772 63.4358 31.8299 63.6225 31.8559C63.2741 31.8393 63.0346 31.758 62.8785 31.6528C62.7554 31.5698 62.6633 31.4587 62.6066 31.306L62.7341 31.2619C62.8135 31.4222 62.9325 31.561 63.0928 31.6662ZM62.6397 30.9739C62.6356 30.9648 62.6339 30.9593 62.6339 30.9593C62.634 30.9593 62.6355 30.9642 62.6378 30.9755C62.6378 30.9757 62.6378 30.9759 62.6379 30.9761L62.6404 30.9756C62.6402 30.975 62.6399 30.9744 62.6397 30.9739ZM62.8175 28.4042C62.8132 28.4025 62.8114 28.4015 62.8115 28.4015C62.8117 28.4015 62.8138 28.4023 62.8175 28.4042Z" fill="#151515" stroke="#151515"/>
<path d="M67.6315 29.2739C67.6315 29.2739 67.6312 29.2738 67.6304 29.2738L67.6315 29.2739ZM67.1055 29.2743C67.1054 29.2743 67.107 29.274 67.1106 29.2738C67.1074 29.2743 67.1056 29.2744 67.1055 29.2743ZM66.5068 31.7565C66.5068 31.7565 66.5072 31.7566 66.508 31.7566L66.5068 31.7565ZM67.0343 31.7561C67.0344 31.7562 67.0328 31.7564 67.0292 31.7566C67.0324 31.7562 67.0342 31.7561 67.0343 31.7561ZM68.7533 31.757L68.6984 31.5416L68.7653 31.757H68.7533Z" fill="#151515" stroke="#151515"/>
<path d="M72.4453 29.4828C72.4186 29.4397 72.388 29.3988 72.3535 29.3603C72.3901 29.3954 72.4208 29.4361 72.4453 29.4828ZM72.6372 29.4341C72.6372 29.4342 72.636 29.4348 72.6333 29.4361C72.6357 29.4347 72.6371 29.4341 72.6372 29.4341ZM70.395 31.6401C70.3374 31.5675 70.2886 31.4474 70.2852 31.2588C70.3056 31.4052 70.3612 31.5543 70.4756 31.6862C70.499 31.7132 70.5236 31.738 70.5491 31.7606C70.4741 31.7228 70.4261 31.6794 70.395 31.6401ZM72.0193 31.4528C72.0193 31.4527 72.0207 31.453 72.0239 31.4539C72.0209 31.4533 72.0194 31.4529 72.0193 31.4528Z" fill="#151515" stroke="#151515"/>
<path d="M74.047 29.3874L74.0471 29.387C74.0472 29.3866 74.0472 29.3863 74.0473 29.3859C74.051 29.3844 74.055 29.3828 74.0593 29.3812C74.0666 29.3784 74.074 29.3756 74.0815 29.3728C74.0659 29.394 74.0509 29.4174 74.0374 29.4431L74.047 29.3874ZM75.7389 29.3676C75.6603 29.285 75.5708 29.2262 75.4778 29.1848C75.7145 29.2167 75.8201 29.3011 75.8702 29.3676C75.9355 29.4542 75.9922 29.6224 75.9583 29.9214C75.9529 29.735 75.8981 29.5352 75.7389 29.3676ZM75.8373 31.7568C75.8373 31.7569 75.8362 31.757 75.8336 31.7571L75.8373 31.7568ZM73.8087 31.7569C73.8087 31.7569 73.8075 31.757 73.8048 31.7572L73.8087 31.7569Z" fill="#151515" stroke="#151515"/>
<mask id="path-12-inside-1" fill="white">
<path d="M76.9728 30.046L76.8353 30.7895C76.6842 31.6349 77.0133 32.3592 78.1406 32.3592C78.8877 32.3592 79.3921 32.1499 79.6995 31.7478C79.8371 31.5689 79.8236 31.4532 79.6672 31.3541L79.3732 31.1723C79.2033 31.0649 79.117 31.1062 78.9794 31.2604C78.8365 31.4201 78.5991 31.5275 78.2836 31.5275C77.9168 31.5275 77.7253 31.3596 77.7927 30.9988L77.817 30.8253C78.0678 30.8584 78.2917 30.8832 78.5398 30.8832C79.4784 30.8832 80.0151 30.583 80.1257 29.9331C80.2497 29.1703 79.6995 28.6719 78.7906 28.6719C77.7711 28.6719 77.1292 29.1703 76.9728 30.046ZM79.1628 29.8395C79.1251 30.046 78.9282 30.1534 78.5803 30.1534C78.3618 30.1534 78.1541 30.1259 77.9438 30.1011L77.9626 30.013C78.0354 29.6853 78.2836 29.476 78.6585 29.476C79.0253 29.476 79.1952 29.6109 79.1628 29.8395Z"/>
</mask>
<path d="M76.9728 30.046L76.8353 30.7895C76.6842 31.6349 77.0133 32.3592 78.1406 32.3592C78.8877 32.3592 79.3921 32.1499 79.6995 31.7478C79.8371 31.5689 79.8236 31.4532 79.6672 31.3541L79.3732 31.1723C79.2033 31.0649 79.117 31.1062 78.9794 31.2604C78.8365 31.4201 78.5991 31.5275 78.2836 31.5275C77.9168 31.5275 77.7253 31.3596 77.7927 30.9988L77.817 30.8253C78.0678 30.8584 78.2917 30.8832 78.5398 30.8832C79.4784 30.8832 80.0151 30.583 80.1257 29.9331C80.2497 29.1703 79.6995 28.6719 78.7906 28.6719C77.7711 28.6719 77.1292 29.1703 76.9728 30.046ZM79.1628 29.8395C79.1251 30.046 78.9282 30.1534 78.5803 30.1534C78.3618 30.1534 78.1541 30.1259 77.9438 30.1011L77.9626 30.013C78.0354 29.6853 78.2836 29.476 78.6585 29.476C79.0253 29.476 79.1952 29.6109 79.1628 29.8395Z" fill="#151515"/>
<path d="M76.9728 30.046L77.9562 30.2279L77.9572 30.2219L76.9728 30.046ZM76.8353 30.7895L75.8519 30.6076L75.8509 30.6137L76.8353 30.7895ZM79.6995 31.7478L78.9066 31.1385L78.9052 31.1404L79.6995 31.7478ZM79.6672 31.3541L80.2025 30.5093L80.193 30.5035L79.6672 31.3541ZM79.3732 31.1723L78.8389 32.0177L78.8473 32.0229L79.3732 31.1723ZM78.9794 31.2604L79.7246 31.9273L79.7257 31.9261L78.9794 31.2604ZM77.7927 30.9988L78.7757 31.1825L78.7799 31.16L78.7831 31.1374L77.7927 30.9988ZM77.817 30.8253L77.9476 29.8339L76.9641 29.7043L76.8266 30.6868L77.817 30.8253ZM80.1257 29.9331L81.1115 30.1008L81.1127 30.0936L80.1257 29.9331ZM79.1628 29.8395L80.1465 30.0193L80.1501 29.9996L80.1529 29.9797L79.1628 29.8395ZM77.9438 30.1011L76.9659 29.8916L76.7358 30.9657L77.8267 31.0942L77.9438 30.1011ZM77.9626 30.013L76.9864 29.796L76.9848 29.8035L77.9626 30.013ZM75.9895 29.8641L75.852 30.6076L77.8186 30.9714L77.9561 30.2279L75.9895 29.8641ZM75.8509 30.6137C75.7492 31.1824 75.7756 31.8842 76.1941 32.4717C76.6403 33.0979 77.36 33.3592 78.1406 33.3592V31.3592C77.9632 31.3592 77.8724 31.3304 77.8377 31.3154C77.8098 31.3033 77.8147 31.2995 77.823 31.3111C77.8329 31.3251 77.7703 31.242 77.8197 30.9654L75.8509 30.6137ZM78.1406 33.3592C79.07 33.3592 79.9305 33.0919 80.4939 32.3553L78.9052 31.1404C78.8536 31.2079 78.7054 31.3592 78.1406 31.3592V33.3592ZM80.4924 32.3572C80.6032 32.2131 80.8301 31.8814 80.7896 31.4314C80.7434 30.9189 80.3969 30.6326 80.2025 30.5094L79.1319 32.1987C79.0939 32.1747 78.8323 31.9958 78.7976 31.6106C78.7825 31.4428 78.8212 31.3128 78.8513 31.2405C78.8663 31.2043 78.8809 31.1783 78.8902 31.1631C78.8996 31.1477 78.9059 31.1394 78.9066 31.1385L80.4924 32.3572ZM80.193 30.5035L79.899 30.3217L78.8473 32.0229L79.1413 32.2046L80.193 30.5035ZM79.9075 30.327C79.7271 30.213 79.3611 30.0295 78.9039 30.1527C78.5294 30.2537 78.3007 30.519 78.2331 30.5948L79.7257 31.9261C79.7453 31.904 79.7324 31.9214 79.6967 31.9498C79.6579 31.9806 79.5658 32.0457 79.4245 32.0838C79.0872 32.1747 78.8494 32.0242 78.8389 32.0176L79.9075 30.327ZM78.2343 30.5935C78.273 30.5502 78.3089 30.5318 78.3238 30.5258C78.3382 30.52 78.3282 30.5275 78.2836 30.5275V32.5275C78.8246 32.5275 79.3558 32.3393 79.7246 31.9273L78.2343 30.5935ZM78.2836 30.5275C78.2159 30.5275 78.4016 30.5067 78.5897 30.6988C78.8144 30.9281 78.7767 31.1773 78.7757 31.1825L76.8097 30.8151C76.7413 31.181 76.7657 31.6946 77.1609 32.0982C77.5196 32.4644 77.9844 32.5275 78.2836 32.5275V30.5275ZM78.7831 31.1374L78.8073 30.9639L76.8266 30.6868L76.8024 30.8603L78.7831 31.1374ZM77.6864 31.8168C77.9473 31.8511 78.2239 31.8832 78.5398 31.8832V29.8832C78.3594 29.8832 78.1884 29.8656 77.9476 29.8339L77.6864 31.8168ZM78.5398 31.8832C79.0939 31.8832 79.6672 31.7983 80.1507 31.5135C80.6833 31.1998 81.0094 30.7007 81.1115 30.1008L79.1398 29.7654C79.1328 29.8064 79.1252 29.8098 79.1339 29.797C79.1433 29.7829 79.1505 29.7815 79.1357 29.7902C79.0886 29.8179 78.9243 29.8832 78.5398 29.8832V31.8832ZM81.1127 30.0936C81.222 29.4213 81.0346 28.7584 80.5278 28.2854C80.0523 27.8415 79.412 27.6719 78.7906 27.6719V29.6719C79.0782 29.6719 79.1674 29.7514 79.1632 29.7475C79.158 29.7427 79.1479 29.729 79.1431 29.7137C79.139 29.7007 79.1479 29.7156 79.1386 29.7726L81.1127 30.0936ZM78.7906 27.6719C78.1218 27.6719 77.4761 27.8361 76.9523 28.2349C76.4182 28.6415 76.1043 29.2215 75.9884 29.8702L77.9572 30.2219C77.9978 29.9949 78.083 29.8877 78.1638 29.8262C78.255 29.7568 78.44 29.6719 78.7906 29.6719V27.6719ZM78.1791 29.6596C78.1954 29.5708 78.2339 29.4706 78.3035 29.3774C78.3721 29.2855 78.4504 29.2277 78.5123 29.1942C78.6199 29.1361 78.6714 29.1534 78.5803 29.1534V31.1534C78.8371 31.1534 79.161 31.1171 79.4634 30.9536C79.8099 30.7663 80.0696 30.44 80.1465 30.0193L78.1791 29.6596ZM78.5803 29.1534C78.4341 29.1534 78.294 29.1354 78.0608 29.108L77.8267 31.0942C78.0142 31.1163 78.2895 31.1534 78.5803 31.1534V29.1534ZM78.9216 30.3106L78.9404 30.2225L76.9848 29.8035L76.9659 29.8916L78.9216 30.3106ZM78.9388 30.2299C78.9318 30.2614 78.902 30.3392 78.8174 30.406C78.7785 30.4369 78.7394 30.4557 78.7073 30.466C78.6761 30.476 78.6578 30.476 78.6585 30.476V28.476C78.281 28.476 77.8974 28.5839 77.5771 28.8371C77.2566 29.0905 77.0663 29.4369 76.9864 29.796L78.9388 30.2299ZM78.6585 30.476C78.755 30.476 78.6336 30.5001 78.4659 30.3762C78.3672 30.3032 78.2716 30.1912 78.2151 30.0431C78.1606 29.9005 78.1618 29.776 78.1727 29.6993L80.1529 29.9797C80.2135 29.5522 80.0731 29.0771 79.6548 28.7679C79.3185 28.5193 78.9287 28.476 78.6585 28.476V30.476Z" fill="#151515" mask="url(#path-12-inside-1)"/>
<path d="M80.7127 33.2326C80.7128 33.2326 80.7112 33.2329 80.7077 33.233C80.7109 33.2326 80.7126 33.2325 80.7127 33.2326ZM83.0305 29.3709C83.093 29.4537 83.1468 29.6098 83.1209 29.8798C83.1072 29.6959 83.0408 29.5102 82.8909 29.3558C82.8221 29.285 82.7453 29.2309 82.6646 29.1901C82.882 29.2258 82.9821 29.3068 83.0305 29.3709ZM81.2185 29.3494C81.2317 29.3447 81.2453 29.3399 81.2592 29.3352C81.2353 29.3666 81.2168 29.3978 81.2025 29.426L81.2144 29.3574C81.2148 29.355 81.2152 29.3527 81.2157 29.3505C81.2166 29.3502 81.2176 29.3498 81.2185 29.3494Z" fill="#151515" stroke="#151515"/>
<path d="M86.6127 29.2742C86.6126 29.2741 86.6141 29.2739 86.6174 29.2737C86.6144 29.2741 86.6128 29.2742 86.6127 29.2742ZM86.3315 31.6597C86.3522 31.632 86.3693 31.6039 86.3835 31.5762L86.3719 31.6433L86.3718 31.6438C86.3718 31.6438 86.3718 31.6439 86.3718 31.644C86.369 31.6451 86.366 31.6462 86.3629 31.6473L86.3554 31.65L86.3481 31.653C86.3426 31.6552 86.3371 31.6574 86.3315 31.6597ZM84.9448 31.8451C84.7119 31.8123 84.6081 31.7274 84.5585 31.6605C84.4955 31.5755 84.4423 31.4164 84.4669 31.145C84.4787 31.3203 84.5361 31.506 84.6854 31.6631C84.7635 31.7453 84.8524 31.8038 84.9448 31.8451ZM84.5861 29.2741C84.586 29.274 84.5874 29.2738 84.5905 29.2737C84.5877 29.2741 84.5861 29.2741 84.5861 29.2741Z" fill="#151515" stroke="#151515"/>
<path d="M90.7609 29.5732L90.9724 29.2734H91.037L90.9855 29.5732H90.7609ZM88.5497 29.2734L88.6574 29.5732H88.5609H88.5285H88.3911L88.4428 29.2734H88.5497ZM87.8734 31.9395C87.8733 31.9394 87.8736 31.9381 87.8744 31.9357C87.8738 31.9383 87.8734 31.9395 87.8734 31.9395ZM88.0942 31.7564C88.0943 31.7565 88.093 31.7566 88.0902 31.7568C88.0928 31.7565 88.0942 31.7564 88.0942 31.7564Z" fill="#151515" stroke="#151515"/>
<mask id="path-17-inside-2" fill="white">
<path d="M91.9638 30.046L91.8235 30.7895C91.6725 31.6349 92.0016 32.3592 93.1289 32.3592C93.8787 32.3592 94.383 32.1499 94.6905 31.7478C94.828 31.5689 94.8146 31.4532 94.6581 31.3541L94.3642 31.1723C94.1942 31.0649 94.1079 31.1062 93.9704 31.2604C93.8247 31.4201 93.5901 31.5275 93.2746 31.5275C92.9078 31.5275 92.7163 31.3596 92.781 30.9988L92.808 30.8253C93.0588 30.8584 93.2799 30.8832 93.5308 30.8832C94.4666 30.8832 95.0034 30.583 95.1139 29.9331C95.2407 29.1703 94.6905 28.6719 93.7789 28.6719C92.7621 28.6719 92.1202 29.1703 91.9638 30.046ZM94.1538 29.8395C94.1133 30.046 93.9164 30.1534 93.5685 30.1534C93.3528 30.1534 93.1424 30.1259 92.932 30.1011L92.9536 30.013C93.0237 29.6853 93.2746 29.476 93.6494 29.476C94.0162 29.476 94.1862 29.6109 94.1538 29.8395Z"/>
</mask>
<path d="M91.9638 30.046L91.8235 30.7895C91.6725 31.6349 92.0016 32.3592 93.1289 32.3592C93.8787 32.3592 94.383 32.1499 94.6905 31.7478C94.828 31.5689 94.8146 31.4532 94.6581 31.3541L94.3642 31.1723C94.1942 31.0649 94.1079 31.1062 93.9704 31.2604C93.8247 31.4201 93.5901 31.5275 93.2746 31.5275C92.9078 31.5275 92.7163 31.3596 92.781 30.9988L92.808 30.8253C93.0588 30.8584 93.2799 30.8832 93.5308 30.8832C94.4666 30.8832 95.0034 30.583 95.1139 29.9331C95.2407 29.1703 94.6905 28.6719 93.7789 28.6719C92.7621 28.6719 92.1202 29.1703 91.9638 30.046ZM94.1538 29.8395C94.1133 30.046 93.9164 30.1534 93.5685 30.1534C93.3528 30.1534 93.1424 30.1259 92.932 30.1011L92.9536 30.013C93.0237 29.6853 93.2746 29.476 93.6494 29.476C94.0162 29.476 94.1862 29.6109 94.1538 29.8395Z" fill="#151515"/>
<path d="M91.9638 30.046L92.9465 30.2314L92.9482 30.2219L91.9638 30.046ZM91.8235 30.7895L90.8408 30.6042L90.8391 30.6137L91.8235 30.7895ZM94.6905 31.7478L93.8976 31.1385L93.8962 31.1404L94.6905 31.7478ZM94.6581 31.3541L95.1935 30.5093L95.184 30.5035L94.6581 31.3541ZM94.3642 31.1723L93.8298 32.0177L93.8383 32.0229L94.3642 31.1723ZM93.9704 31.2604L94.7094 31.9343L94.7167 31.9261L93.9704 31.2604ZM92.781 30.9988L93.7653 31.1754L93.7673 31.164L93.7691 31.1524L92.781 30.9988ZM92.808 30.8253L92.9386 29.8339L91.9699 29.7063L91.8198 30.6717L92.808 30.8253ZM95.1139 29.9331L96.0998 30.1008L96.1004 30.097L95.1139 29.9331ZM94.1538 29.8395L95.1351 30.0317L95.1402 30.0058L95.1439 29.9797L94.1538 29.8395ZM92.932 30.1011L91.9607 29.8633L91.6917 30.9619L92.815 31.0942L92.932 30.1011ZM92.9536 30.013L93.9249 30.2508L93.9284 30.2366L93.9315 30.2222L92.9536 30.013ZM90.9811 29.8607L90.8409 30.6042L92.8062 30.9749L92.9465 30.2314L90.9811 29.8607ZM90.8391 30.6137C90.7375 31.1824 90.7639 31.8842 91.1824 32.4717C91.6286 33.0979 92.3483 33.3592 93.1289 33.3592V31.3592C92.9515 31.3592 92.8607 31.3304 92.826 31.3154C92.7981 31.3033 92.803 31.2995 92.8113 31.3111C92.8212 31.3251 92.7585 31.242 92.808 30.9654L90.8391 30.6137ZM93.1289 33.3592C94.0602 33.3592 94.9212 33.0924 95.4848 32.3553L93.8962 31.1404C93.8449 31.2074 93.6972 31.3592 93.1289 31.3592V33.3592ZM95.4834 32.3572C95.5942 32.2131 95.821 31.8814 95.7805 31.4314C95.7344 30.9189 95.3878 30.6326 95.1934 30.5094L94.1228 32.1987C94.0849 32.1747 93.8232 31.9958 93.7886 31.6106C93.7735 31.4428 93.8122 31.3128 93.8422 31.2405C93.8573 31.2043 93.8719 31.1783 93.8812 31.1631C93.8905 31.1477 93.8969 31.1394 93.8976 31.1385L95.4834 32.3572ZM95.184 30.5035L94.89 30.3217L93.8383 32.0229L94.1323 32.2046L95.184 30.5035ZM94.8984 30.327C94.7181 30.213 94.3521 30.0295 93.8948 30.1527C93.5204 30.2537 93.2917 30.519 93.2241 30.5948L94.7167 31.9261C94.7363 31.904 94.7234 31.9214 94.6877 31.9498C94.6488 31.9806 94.5568 32.0457 94.4154 32.0838C94.0782 32.1747 93.8403 32.0242 93.8299 32.0176L94.8984 30.327ZM93.2315 30.5866C93.2651 30.5498 93.2971 30.5325 93.3128 30.5262C93.3278 30.5202 93.3188 30.5275 93.2746 30.5275V32.5275C93.8213 32.5275 94.3429 32.336 94.7093 31.9342L93.2315 30.5866ZM93.2746 30.5275C93.2077 30.5275 93.3919 30.507 93.579 30.6973C93.8017 30.9239 93.7662 31.1702 93.7653 31.1754L91.7967 30.8222C91.7311 31.1881 91.7589 31.6989 92.1529 32.0996C92.5113 32.4641 92.9747 32.5275 93.2746 32.5275V30.5275ZM93.7691 31.1524L93.7961 30.9789L91.8198 30.6717L91.7929 30.8452L93.7691 31.1524ZM92.6773 31.8168C92.9378 31.8511 93.212 31.8832 93.5308 31.8832V29.8832C93.3479 29.8832 93.1798 29.8657 92.9386 29.8339L92.6773 31.8168ZM93.5308 31.8832C94.084 31.8832 94.6566 31.7982 95.1398 31.5132C95.6717 31.1995 95.9977 30.7005 96.0998 30.1008L94.1281 29.7654C94.1211 29.8064 94.1135 29.8099 94.122 29.7972C94.1314 29.7832 94.1386 29.7818 94.1238 29.7905C94.0771 29.8181 93.9135 29.8832 93.5308 29.8832V31.8832ZM96.1004 30.097C96.2122 29.4241 96.0261 28.7596 95.5181 28.2854C95.0421 27.841 94.4007 27.6719 93.7789 27.6719V29.6719C94.0687 29.6719 94.1582 29.7519 94.1535 29.7475C94.1479 29.7423 94.1373 29.728 94.1323 29.7118C94.128 29.698 94.1369 29.7123 94.1275 29.7692L96.1004 30.097ZM93.7789 27.6719C93.1108 27.6719 92.4658 27.8364 91.9426 28.2352C91.4091 28.6418 91.0952 29.2215 90.9794 29.8702L92.9482 30.2219C92.9888 29.9948 93.0741 29.8874 93.1549 29.8259C93.2459 29.7566 93.4302 29.6719 93.7789 29.6719V27.6719ZM93.1724 29.6473C93.1894 29.5606 93.228 29.4631 93.2966 29.3724C93.3643 29.283 93.4411 29.2264 93.5022 29.1935C93.6085 29.1362 93.6591 29.1534 93.5685 29.1534V31.1534C93.8258 31.1534 94.1488 31.1169 94.4507 30.9543C94.7955 30.7685 95.0539 30.4465 95.1351 30.0317L93.1724 29.6473ZM93.5685 29.1534C93.4249 29.1534 93.2816 29.1354 93.049 29.108L92.815 31.0942C93.0032 31.1164 93.2807 31.1534 93.5685 31.1534V29.1534ZM93.9033 30.3389L93.9249 30.2508L91.9823 29.7751L91.9607 29.8633L93.9033 30.3389ZM93.9315 30.2222C93.9234 30.2597 93.8914 30.3399 93.8063 30.4069C93.7673 30.4377 93.7285 30.4562 93.6972 30.4662C93.6666 30.476 93.6488 30.476 93.6494 30.476V28.476C93.2726 28.476 92.8887 28.5836 92.5682 28.8363C92.2465 29.0899 92.0539 29.4385 91.9757 29.8037L93.9315 30.2222ZM93.6494 30.476C93.746 30.476 93.6246 30.5001 93.4569 30.3762C93.3582 30.3032 93.2626 30.1912 93.206 30.0431C93.1516 29.9005 93.1528 29.776 93.1637 29.6993L95.1439 29.9797C95.2044 29.5522 95.064 29.0771 94.6457 28.7679C94.3095 28.5193 93.9197 28.476 93.6494 28.476V30.476Z" fill="#151515" mask="url(#path-17-inside-2)"/>
<path d="M97.9856 31.7565C97.9857 31.7565 97.9844 31.7567 97.9817 31.7568C97.9842 31.7565 97.9856 31.7564 97.9856 31.7565ZM98.0485 29.2741C98.0484 29.2741 98.0499 29.2739 98.0531 29.2737C98.0501 29.2741 98.0485 29.2742 98.0485 29.2741ZM96.0392 29.2741C96.0391 29.2741 96.0406 29.2739 96.0438 29.2737C96.0409 29.2741 96.0392 29.2742 96.0392 29.2741ZM95.4411 31.7566C95.4411 31.7566 95.4416 31.7566 95.4426 31.7567L95.4411 31.7566ZM95.9767 31.7565C95.9767 31.7565 95.9754 31.7567 95.9725 31.7568C95.9752 31.7565 95.9766 31.7564 95.9767 31.7565ZM96.5753 29.2736C96.5767 29.2736 96.5773 29.2737 96.5773 29.2737C96.5772 29.2737 96.5766 29.2737 96.5753 29.2736Z" fill="#151515" stroke="#151515"/>
<path d="M99.8837 29.3747C99.8782 29.3768 99.8728 29.3789 99.8674 29.3809L99.8837 29.3747ZM99.8837 29.3747C99.877 29.3846 99.8714 29.3936 99.8667 29.4014C99.8561 29.4191 99.8475 29.4359 99.841 29.4498L99.8512 29.3903C99.8514 29.3892 99.8516 29.3881 99.8518 29.387C99.8566 29.3851 99.8617 29.3831 99.8673 29.381L99.8837 29.3747ZM101.477 29.2743L101.644 29.3978L101.656 29.68C101.659 29.7394 101.654 29.8189 101.64 29.9189C101.638 29.7365 101.592 29.5374 101.442 29.369C101.366 29.2829 101.278 29.223 101.188 29.1816C101.345 29.1999 101.432 29.2408 101.477 29.2743ZM103.367 29.4068C103.282 29.3006 103.18 29.2281 103.073 29.1798C103.322 29.2061 103.419 29.2923 103.464 29.3548C103.524 29.4404 103.576 29.6103 103.543 29.9125C103.538 29.7456 103.493 29.5656 103.367 29.4068ZM103.42 31.7567C103.42 31.7567 103.419 31.7569 103.416 31.7571C103.419 31.7567 103.42 31.7566 103.42 31.7567ZM101.519 31.7568C101.519 31.7568 101.518 31.757 101.515 31.7571C101.517 31.7568 101.519 31.7567 101.519 31.7568ZM99.6148 31.7568C99.6149 31.7568 99.6135 31.757 99.6107 31.7571C99.6133 31.7568 99.6147 31.7567 99.6148 31.7568Z" fill="#151515" stroke="#151515"/>
<path d="M107.066 29.3812C107.025 29.3148 106.973 29.263 106.918 29.2238C107.028 29.2444 107.118 29.2686 107.186 29.2919L107.138 29.574C107.127 29.5088 107.104 29.4433 107.066 29.3812ZM105.106 31.6888C105.161 31.7432 105.22 31.7869 105.282 31.8219C105.121 31.7794 105.033 31.7072 104.982 31.6413C104.917 31.5551 104.864 31.4101 104.872 31.1859C104.89 31.3616 104.957 31.5402 105.106 31.6888Z" fill="#151515" stroke="#151515"/>
<path d="M109.073 29.274C109.073 29.274 109.074 29.2738 109.077 29.2737C109.074 29.274 109.073 29.2741 109.073 29.274ZM108.297 32.0548L108.297 32.0546L108.297 32.0548ZM110.584 31.7565C110.584 31.7565 110.583 31.7567 110.58 31.7568C110.583 31.7565 110.584 31.7564 110.584 31.7565Z" fill="#151515" stroke="#151515"/>
<path d="M114.08 31.0732C114.088 31.0415 114.095 31.0086 114.101 30.9743C114.123 30.8406 114.126 30.7333 114.117 30.647M114.08 31.0732L114.123 31.0823C114.129 31.0501 114.134 31.0164 114.137 30.9815L114.593 31.0591M114.08 31.0732L113.631 30.9985M114.08 31.0732L112.732 30.5634C112.856 30.5414 112.999 30.5221 113.159 30.5221C113.533 30.5221 113.69 30.657 113.631 30.9985M114.117 30.647C114.145 30.761 114.147 30.8755 114.137 30.9797L114.593 31.0591M114.117 30.647C114.102 30.5011 114.052 30.4156 114.005 30.3647C113.987 30.3453 113.965 30.3258 113.938 30.3071M114.117 30.647C114.089 30.5291 114.034 30.4118 113.938 30.3071M114.593 31.0591C114.75 30.1393 114.245 29.6849 113.407 29.6767M114.593 31.0591C114.448 31.8962 113.887 32.3589 113.007 32.3589C112.357 32.3589 111.991 32.257 111.734 32.1496M113.407 29.6767L111.994 31.781C111.974 31.7413 111.949 31.7138 111.931 31.697L111.877 31.8214L111.876 31.8234L111.734 32.1496M113.407 29.6767V30.0399C113.576 30.0666 113.758 30.1301 113.906 30.2739C113.917 30.2848 113.928 30.2958 113.938 30.3071M113.407 29.6767L113.404 30.1767M111.734 32.1496L111.872 31.8226L111.872 31.8206L111.926 31.6927L111.538 31.7613C111.497 31.9816 111.538 32.0642 111.734 32.1496ZM113.938 30.3071C113.838 30.238 113.671 30.1797 113.404 30.1767M113.404 30.1767C113.328 30.1769 113.248 30.1861 113.159 30.201C113.101 30.2105 113.04 30.2225 112.974 30.2357L112.685 30.2938L112.291 30.3728L112.272 30.4812L113.404 30.1767ZM113.631 30.9985C113.581 31.2945 113.373 31.4611 113.078 31.4741L113.631 30.9985ZM112.05 31.7346L112.093 31.4907C112.098 31.5179 112.105 31.546 112.116 31.5747C112.145 31.6586 112.195 31.7328 112.259 31.7917C112.179 31.7742 112.11 31.7547 112.05 31.7346ZM112.296 29.2741C112.295 29.2741 112.297 29.2739 112.3 29.2737C112.297 29.2741 112.296 29.2742 112.296 29.2741Z" fill="#151515" stroke="#151515"/>
<path d="M117.888 32.0091L118.4 29.0213C118.432 28.834 118.387 28.7734 118.209 28.7734H117.699C117.513 28.7734 117.443 28.834 117.408 29.0213M117.888 32.0091L117.604 31.9602L117.419 31.9282L117.429 31.8722C117.44 31.8573 117.455 31.8412 117.473 31.8254C117.528 31.778 117.581 31.7628 117.604 31.7582C117.608 31.7575 117.611 31.7571 117.613 31.7568M117.888 32.0091C117.855 32.1964 117.782 32.257 117.604 32.257H117.095C116.911 32.257 116.863 32.1964 116.898 32.0091L116.994 31.4517H117.081V30.9517L116.589 30.8662L116.574 30.9517H116.064L115.878 32.0091C115.846 32.1964 115.776 32.257 115.598 32.257H115.085C114.902 32.257 114.856 32.1964 114.888 32.0091L115.401 29.0213M117.888 32.0091L117.604 31.9606L117.419 31.9288L117.39 32.0946L117.389 32.1012L117.389 32.1012C117.387 32.112 117.387 32.1169 117.387 32.1169C117.387 32.1169 117.387 32.111 117.387 32.1008C117.387 32.0987 117.387 32.0964 117.387 32.094C117.387 32.0921 117.387 32.0902 117.386 32.0881C117.384 32.0536 117.37 31.9732 117.306 31.8919C117.24 31.8091 117.161 31.7759 117.12 31.7642C117.11 31.7612 117.101 31.7593 117.095 31.7582C117.087 31.7569 117.083 31.7566 117.083 31.7566C117.083 31.7567 117.087 31.757 117.095 31.757H117.424L117.548 31.0326L117.635 30.5264H117.238H117.081H116.221H116.064H115.65L115.591 30.8684L115.439 31.757H115.598C115.602 31.757 115.604 31.7569 115.607 31.7568M117.613 31.7568C117.616 31.7567 117.618 31.7565 117.618 31.7565C117.617 31.7564 117.616 31.7565 117.613 31.7568ZM117.613 31.7568C117.611 31.7569 117.608 31.757 117.604 31.757H117.449L117.574 31.0371L117.675 30.4517H117.673L117.731 30.1097L117.872 29.2734H118.209C118.212 29.2734 118.215 29.2735 118.216 29.2736C118.215 29.2734 118.212 29.2731 118.209 29.2726C118.201 29.2715 118.189 29.2692 118.175 29.2649C118.131 29.2516 118.052 29.216 117.987 29.1321C117.925 29.0515 117.913 28.9737 117.91 28.9429C117.91 28.9409 117.91 28.939 117.91 28.9372C117.91 28.937 117.91 28.9368 117.91 28.9366C117.909 28.9251 117.91 28.9184 117.91 28.9184C117.91 28.9184 117.909 28.9239 117.907 28.9361L117.907 28.9368L117.879 29.101L117.699 29.0705L117.408 29.0213M117.408 29.0213L117.699 29.0758L117.878 29.1093L117.87 29.1556C117.858 29.1719 117.842 29.1899 117.821 29.2075C117.771 29.25 117.723 29.2658 117.699 29.2714C117.693 29.2726 117.689 29.2733 117.686 29.2737M117.408 29.0213L117.238 30.0264H116.728L116.714 30.1097L116.221 30.0264V29.5264H116.305L116.391 29.0213C116.423 28.834 116.377 28.7734 116.202 28.7734H115.69C115.506 28.7734 115.433 28.834 115.401 29.0213M115.401 29.0213L115.69 29.0712L115.87 29.1023L115.861 29.1572C115.849 29.1731 115.833 29.1904 115.813 29.2075C115.762 29.2508 115.714 29.2664 115.69 29.2716C115.685 29.2727 115.681 29.2733 115.678 29.2737M115.401 29.0213L115.69 29.0708L115.87 29.1017L115.898 28.9379L115.898 28.9361L115.898 28.9361C115.9 28.9238 115.901 28.9183 115.901 28.9183C115.901 28.9183 115.9 28.925 115.901 28.9366C115.901 28.9372 115.901 28.9378 115.901 28.9385C115.901 28.9397 115.901 28.9409 115.901 28.9423C115.903 28.9723 115.915 29.0495 115.976 29.1299C116.04 29.214 116.119 29.2505 116.165 29.2644C116.181 29.2693 116.194 29.2717 116.202 29.2728C116.205 29.2732 116.207 29.2734 116.208 29.2735M115.607 31.7568C115.604 31.7571 115.601 31.7575 115.598 31.7582C115.574 31.7627 115.519 31.7783 115.462 31.8279C115.444 31.8437 115.43 31.8597 115.419 31.8746L115.41 31.9267L115.41 31.9281L115.381 32.0937L115.381 32.0943C115.379 32.1064 115.379 32.1118 115.379 32.1118C115.379 32.1118 115.379 32.1052 115.379 32.0938C115.379 32.0936 115.379 32.0934 115.379 32.0932C115.378 32.091 115.378 32.0887 115.378 32.0862C115.376 32.0541 115.363 31.9749 115.299 31.894C115.233 31.8107 115.154 31.7767 115.112 31.7645C115.101 31.7612 115.092 31.7593 115.085 31.7582C115.078 31.7569 115.074 31.7566 115.074 31.7566C115.074 31.7567 115.077 31.757 115.085 31.757H115.415L115.572 30.865L115.632 30.5264H115.629L115.728 29.9431L115.841 29.2734H115.69C115.684 29.2734 115.681 29.2736 115.678 29.2737M115.607 31.7568C115.609 31.7567 115.611 31.7565 115.611 31.7565C115.611 31.7564 115.609 31.7565 115.607 31.7568ZM115.678 29.2737C115.675 29.2739 115.673 29.2741 115.673 29.2741C115.673 29.2742 115.675 29.2741 115.678 29.2737ZM116.208 29.2735C116.207 29.2735 116.205 29.2734 116.202 29.2734H115.865L115.749 29.9467L115.663 30.4517H116.064H116.221H117.081H117.238H117.647L117.707 30.1057L117.85 29.2734H117.699C117.693 29.2734 117.689 29.2736 117.686 29.2737M116.208 29.2735C116.21 29.2737 116.211 29.2737 116.211 29.2737L116.208 29.2735ZM117.686 29.2737C117.683 29.2739 117.681 29.2741 117.682 29.2742C117.682 29.2742 117.683 29.2741 117.686 29.2737ZM115.898 29.0873C115.898 29.0873 115.897 29.0891 115.896 29.0921C115.897 29.0887 115.898 29.0872 115.898 29.0873ZM117.391 31.9434C117.391 31.9433 117.391 31.9416 117.392 31.9385C117.391 31.942 117.391 31.9435 117.391 31.9434Z" fill="#151515" stroke="#151515"/>
<path d="M121.196 29.3532C121.16 29.3155 121.122 29.2827 121.081 29.2541C121.186 29.2964 121.254 29.3497 121.297 29.4003C121.373 29.4883 121.435 29.6368 121.424 29.8789C121.41 29.6989 121.348 29.5111 121.196 29.3532ZM119.326 31.6743C119.364 31.7142 119.405 31.7489 119.447 31.7791C119.342 31.7375 119.272 31.6851 119.228 31.6349C119.152 31.55 119.089 31.4053 119.103 31.1631C119.118 31.3395 119.181 31.5208 119.326 31.6743Z" fill="#151515" stroke="#151515"/>
<path d="M125.161 27.733C125.161 27.7332 125.16 27.7353 125.157 27.7389C125.158 27.7384 125.158 27.7378 125.158 27.7373C125.16 27.7342 125.161 27.7329 125.161 27.733ZM123.481 28.0149C123.481 28.0148 123.483 28.0139 123.488 28.0122C123.483 28.0141 123.481 28.0149 123.481 28.0149ZM124.914 29.2748C124.914 29.2747 124.915 29.2745 124.918 29.2744C124.916 29.2747 124.914 29.2748 124.914 29.2748ZM124.634 31.6604C124.655 31.6326 124.672 31.6044 124.686 31.5767L124.675 31.6411C124.675 31.6423 124.674 31.6435 124.674 31.6447C124.671 31.6457 124.668 31.6468 124.665 31.648L124.658 31.6507L124.651 31.6537C124.645 31.6559 124.639 31.6582 124.634 31.6604ZM123.247 31.8458C123.014 31.813 122.91 31.7281 122.86 31.6608C122.796 31.5741 122.742 31.411 122.769 31.1317C122.778 31.3111 122.835 31.5025 122.988 31.6638C123.066 31.7459 123.155 31.8044 123.247 31.8458ZM122.888 29.2748C122.888 29.2747 122.89 29.2745 122.893 29.2744C122.89 29.2748 122.888 29.2748 122.888 29.2748Z" fill="#151515" stroke="#151515"/>
<path d="M131.497 28.4615L131.822 28.002H131.954L131.874 28.4615H131.497ZM128.579 28.002L128.743 28.4615H128.615H128.564H128.32L128.4 28.002H128.579ZM127.752 31.7577L128.071 29.9051C128.06 30.0739 128.04 30.2272 128.012 30.3901C128.012 30.3901 128.012 30.3902 128.012 30.3902L127.773 31.7577H127.752ZM127.741 31.9341C127.741 31.934 127.742 31.9324 127.743 31.9296C127.742 31.9328 127.742 31.9342 127.741 31.9341ZM127.945 31.7572C127.948 31.7567 127.95 31.7566 127.95 31.7567C127.95 31.7567 127.949 31.757 127.945 31.7572ZM128.232 28.0024C128.23 28.0027 128.229 28.0028 128.229 28.0028C128.229 28.0027 128.23 28.0026 128.232 28.0024ZM131.569 30.2309L131.306 31.7577H131.296L131.503 30.5553L131.503 30.5553L131.503 30.5516C131.52 30.4495 131.541 30.3441 131.569 30.2309ZM131.277 31.9214C131.276 31.9239 131.276 31.925 131.276 31.9249C131.276 31.9249 131.276 31.9236 131.277 31.9214ZM131.474 31.7573C131.476 31.7569 131.477 31.7568 131.478 31.7569C131.478 31.7569 131.476 31.7571 131.474 31.7573Z" fill="#151515" stroke="#151515"/>
<mask id="path-28-inside-3" fill="white">
<path d="M132.703 30.046L132.566 30.7895C132.415 31.6349 132.741 32.3592 133.869 32.3592C134.618 32.3592 135.123 32.1499 135.43 31.7478C135.568 31.5689 135.554 31.4532 135.398 31.3541L135.104 31.1723C134.934 31.0649 134.848 31.1062 134.71 31.2604C134.564 31.4201 134.33 31.5275 134.014 31.5275C133.647 31.5275 133.456 31.3596 133.523 30.9988L133.548 30.8253C133.798 30.8584 134.02 30.8832 134.27 30.8832C135.209 30.8832 135.746 30.583 135.856 29.9331C135.98 29.1703 135.43 28.6719 134.519 28.6719C133.502 28.6719 132.86 29.1703 132.703 30.046ZM134.893 29.8395C134.856 30.046 134.659 30.1534 134.311 30.1534C134.092 30.1534 133.882 30.1259 133.672 30.1011L133.693 30.013C133.766 29.6853 134.014 29.476 134.389 29.476C134.756 29.476 134.926 29.6109 134.893 29.8395Z"/>
</mask>
<path d="M132.703 30.046L132.566 30.7895C132.415 31.6349 132.741 32.3592 133.869 32.3592C134.618 32.3592 135.123 32.1499 135.43 31.7478C135.568 31.5689 135.554 31.4532 135.398 31.3541L135.104 31.1723C134.934 31.0649 134.848 31.1062 134.71 31.2604C134.564 31.4201 134.33 31.5275 134.014 31.5275C133.647 31.5275 133.456 31.3596 133.523 30.9988L133.548 30.8253C133.798 30.8584 134.02 30.8832 134.27 30.8832C135.209 30.8832 135.746 30.583 135.856 29.9331C135.98 29.1703 135.43 28.6719 134.519 28.6719C133.502 28.6719 132.86 29.1703 132.703 30.046ZM134.893 29.8395C134.856 30.046 134.659 30.1534 134.311 30.1534C134.092 30.1534 133.882 30.1259 133.672 30.1011L133.693 30.013C133.766 29.6853 134.014 29.476 134.389 29.476C134.756 29.476 134.926 29.6109 134.893 29.8395Z" fill="#151515"/>
<path d="M132.703 30.046L133.687 30.2279L133.688 30.2219L132.703 30.046ZM132.566 30.7895L131.583 30.6076L131.581 30.6137L132.566 30.7895ZM135.43 31.7478L134.637 31.1385L134.636 31.1404L135.43 31.7478ZM135.398 31.3541L135.933 30.5093L135.924 30.5035L135.398 31.3541ZM135.104 31.1723L134.569 32.0177L134.578 32.0229L135.104 31.1723ZM134.71 31.2604L135.449 31.9343L135.456 31.9261L134.71 31.2604ZM133.523 30.9988L134.506 31.1825L134.511 31.16L134.514 31.1374L133.523 30.9988ZM133.548 30.8253L133.678 29.8339L132.695 29.7043L132.557 30.6868L133.548 30.8253ZM135.856 29.9331L136.842 30.1008L136.843 30.0936L135.856 29.9331ZM134.893 29.8395L135.877 30.0193L135.881 29.9996L135.884 29.9797L134.893 29.8395ZM133.672 30.1011L132.7 29.8633L132.431 30.9619L133.555 31.0942L133.672 30.1011ZM133.693 30.013L134.665 30.2508L134.667 30.2404L134.669 30.2299L133.693 30.013ZM131.72 29.8641L131.583 30.6076L133.549 30.9714L133.687 30.2279L131.72 29.8641ZM131.581 30.6137C131.48 31.181 131.505 31.8826 131.923 32.4704C132.368 33.0978 133.088 33.3592 133.869 33.3592V31.3592C133.691 31.3592 133.601 31.3304 133.567 31.3156C133.539 31.3037 133.545 31.3004 133.553 31.3124C133.563 31.3267 133.501 31.2435 133.55 30.9654L131.581 30.6137ZM133.869 33.3592C134.8 33.3592 135.661 33.0924 136.225 32.3553L134.636 31.1404C134.585 31.2074 134.437 31.3592 133.869 31.3592V33.3592ZM136.223 32.3572C136.334 32.2131 136.561 31.8814 136.52 31.4314C136.474 30.9189 136.127 30.6326 135.933 30.5094L134.862 32.1987C134.825 32.1747 134.563 31.9958 134.528 31.6106C134.513 31.4428 134.552 31.3128 134.582 31.2405C134.597 31.2043 134.612 31.1783 134.621 31.1631C134.63 31.1477 134.637 31.1394 134.637 31.1385L136.223 32.3572ZM135.924 30.5035L135.63 30.3217L134.578 32.0229L134.872 32.2046L135.924 30.5035ZM135.638 30.327C135.458 30.213 135.092 30.0295 134.634 30.1527C134.26 30.2537 134.031 30.519 133.964 30.5948L135.456 31.9261C135.476 31.904 135.463 31.9214 135.427 31.9498C135.388 31.9806 135.296 32.0457 135.155 32.0838C134.818 32.1747 134.58 32.0242 134.57 32.0176L135.638 30.327ZM133.971 30.5866C134.005 30.5498 134.037 30.5325 134.052 30.5262C134.067 30.5202 134.058 30.5275 134.014 30.5275V32.5275C134.561 32.5275 135.083 32.336 135.449 31.9342L133.971 30.5866ZM134.014 30.5275C133.947 30.5275 134.132 30.5067 134.32 30.6988C134.545 30.9281 134.507 31.1773 134.506 31.1825L132.54 30.8151C132.472 31.181 132.496 31.6946 132.892 32.0982C133.25 32.4644 133.715 32.5275 134.014 32.5275V30.5275ZM134.514 31.1374L134.538 30.9639L132.557 30.6868L132.533 30.8603L134.514 31.1374ZM133.417 31.8168C133.677 31.8511 133.952 31.8832 134.27 31.8832V29.8832C134.088 29.8832 133.919 29.8657 133.678 29.8339L133.417 31.8168ZM134.27 31.8832C134.825 31.8832 135.398 31.7983 135.881 31.5135C136.414 31.1998 136.74 30.7007 136.842 30.1008L134.87 29.7654C134.863 29.8064 134.856 29.8098 134.864 29.797C134.874 29.7829 134.881 29.7815 134.866 29.7902C134.819 29.8179 134.655 29.8832 134.27 29.8832V31.8832ZM136.843 30.0936C136.953 29.4212 136.765 28.758 136.258 28.2849C135.781 27.8411 135.141 27.6719 134.519 27.6719V29.6719C134.808 29.6719 134.898 29.7518 134.894 29.748C134.889 29.7432 134.879 29.7294 134.874 29.7139C134.87 29.7008 134.879 29.7156 134.869 29.7726L136.843 30.0936ZM134.519 27.6719C133.851 27.6719 133.205 27.8364 132.682 28.2352C132.149 28.6418 131.835 29.2215 131.719 29.8702L133.688 30.2219C133.728 29.9948 133.814 29.8874 133.895 29.8259C133.986 29.7566 134.17 29.6719 134.519 29.6719V27.6719ZM133.91 29.6596C133.926 29.5708 133.965 29.4706 134.034 29.3774C134.103 29.2855 134.181 29.2277 134.243 29.1942C134.351 29.1361 134.402 29.1534 134.311 29.1534V31.1534C134.568 31.1534 134.892 31.1171 135.194 30.9536C135.541 30.7663 135.8 30.44 135.877 30.0193L133.91 29.6596ZM134.311 29.1534C134.164 29.1534 134.021 29.1353 133.789 29.108L133.555 31.0942C133.743 31.1165 134.02 31.1534 134.311 31.1534V29.1534ZM134.643 30.3389L134.665 30.2508L132.722 29.7751L132.7 29.8633L134.643 30.3389ZM134.669 30.2299C134.662 30.2614 134.633 30.3392 134.548 30.406C134.509 30.4369 134.47 30.4557 134.438 30.466C134.407 30.476 134.388 30.476 134.389 30.476V28.476C134.012 28.476 133.628 28.5839 133.308 28.8371C132.987 29.0905 132.797 29.4369 132.717 29.796L134.669 30.2299ZM134.389 30.476C134.486 30.476 134.364 30.5001 134.197 30.3762C134.098 30.3032 134.002 30.1912 133.946 30.0431C133.891 29.9005 133.892 29.776 133.903 29.6993L135.884 29.9797C135.944 29.5522 135.804 29.0771 135.385 28.7679C135.049 28.5193 134.659 28.476 134.389 28.476V30.476Z" fill="#151515" mask="url(#path-28-inside-3)"/>
<path d="M138.558 29.2721L138.73 29.4019L138.742 29.68C138.745 29.7379 138.74 29.8151 138.726 29.9099C138.723 29.7299 138.675 29.5346 138.528 29.369C138.452 29.2829 138.364 29.223 138.274 29.1816C138.43 29.2 138.516 29.2406 138.558 29.2721ZM140.452 29.4068C140.368 29.3006 140.266 29.2281 140.159 29.1798C140.407 29.2061 140.505 29.2923 140.55 29.3548C140.61 29.4404 140.662 29.6103 140.629 29.9125C140.624 29.7456 140.579 29.5656 140.452 29.4068ZM140.504 31.7566C140.504 31.7567 140.502 31.7569 140.499 31.757C140.502 31.7566 140.504 31.7566 140.504 31.7566ZM138.603 31.7569C138.603 31.7569 138.602 31.757 138.6 31.7572L138.603 31.7569ZM136.953 29.381C136.959 29.3789 136.964 29.3768 136.97 29.3747C136.963 29.3846 136.957 29.3936 136.953 29.4014C136.942 29.4191 136.933 29.4359 136.927 29.4498L136.937 29.3903C136.937 29.3892 136.938 29.3881 136.938 29.3869C136.942 29.3852 136.947 29.3835 136.952 29.3816L136.952 29.3816L136.953 29.381ZM136.7 31.7568C136.7 31.7569 136.699 31.757 136.696 31.7571C136.699 31.7568 136.7 31.7568 136.7 31.7568Z" fill="#151515" stroke="#151515"/>
<path d="M144.155 29.3812C144.115 29.3148 144.063 29.263 144.007 29.2238C144.118 29.2444 144.208 29.2686 144.276 29.2919L144.228 29.574C144.217 29.5088 144.194 29.4433 144.155 29.3812ZM142.196 31.6888C142.25 31.7432 142.31 31.7869 142.372 31.8219C142.211 31.7794 142.122 31.7072 142.072 31.6413C142.007 31.5551 141.954 31.4101 141.962 31.186C141.98 31.3616 142.047 31.5402 142.196 31.6888Z" fill="#151515" stroke="#151515"/>
<path d="M146.16 29.2741C146.16 29.274 146.161 29.2738 146.164 29.2737C146.161 29.274 146.16 29.2741 146.16 29.2741ZM145.384 32.0548L145.384 32.0548C145.387 32.0612 145.387 32.062 145.384 32.0548ZM147.67 31.7565C147.67 31.7566 147.669 31.7567 147.666 31.7568L147.67 31.7565Z" fill="#151515" stroke="#151515"/>
<path d="M149.799 29.274C149.799 29.274 149.8 29.2738 149.803 29.2737C149.801 29.274 149.799 29.2741 149.799 29.274ZM149.026 32.0548L149.026 32.0548L149.026 32.0548ZM151.311 31.7565C151.311 31.7565 151.309 31.7567 151.306 31.7568C151.309 31.7565 151.311 31.7564 151.311 31.7565Z" fill="#151515" stroke="#151515"/>
<path d="M152.766 33.109C152.797 33.1434 152.831 33.1764 152.868 33.2072C152.855 33.201 152.842 33.1946 152.83 33.1882C152.795 33.1693 152.764 33.1478 152.737 33.123L152.766 33.109ZM152.612 32.9372C152.612 32.9372 152.612 32.9374 152.612 32.9376L152.612 32.9372ZM152.53 33.2248C152.53 33.2248 152.531 33.224 152.534 33.2224C152.531 33.2241 152.53 33.2248 152.53 33.2248ZM152.627 32.9071C152.624 32.9036 152.623 32.9016 152.623 32.9016C152.623 32.9015 152.625 32.9041 152.628 32.9099C152.628 32.9103 152.628 32.9107 152.629 32.9111L152.63 32.9105L152.627 32.9071ZM155.029 29.2741C155.029 29.2741 155.03 29.2739 155.034 29.2737C155.031 29.2741 155.029 29.2742 155.029 29.2741ZM153.144 31.4674C153.222 31.5475 153.311 31.6047 153.403 31.6453C153.164 31.6135 153.059 31.5268 153.009 31.4581C152.947 31.3725 152.894 31.2139 152.916 30.9468C152.93 31.1256 152.991 31.3116 153.144 31.4674ZM153.001 29.2741C153.001 29.2741 153.002 29.2739 153.006 29.2737C153.003 29.2741 153.001 29.2742 153.001 29.2741Z" fill="#151515" stroke="#151515"/>
<path d="M156.861 29.3545L156.861 29.3539C156.861 29.3528 156.861 29.3516 156.861 29.3505C156.862 29.3502 156.863 29.3499 156.864 29.3495C156.877 29.3449 156.89 29.3402 156.904 29.3355C156.896 29.3459 156.888 29.356 156.882 29.3658C156.868 29.3863 156.857 29.4057 156.849 29.4221L156.861 29.3545ZM158.537 29.3573C158.468 29.286 158.391 29.2316 158.311 29.1906C158.526 29.2265 158.625 29.3071 158.674 29.3709C158.736 29.4536 158.79 29.6094 158.764 29.8785C158.751 29.6962 158.685 29.5115 158.537 29.3573ZM155.824 33.233C155.824 33.2329 155.824 33.233 155.825 33.2331L155.824 33.233ZM156.357 33.2326C156.357 33.2327 156.356 33.2329 156.352 33.2331C156.355 33.2327 156.357 33.2326 156.357 33.2326Z" fill="#151515" stroke="#151515"/>
<mask id="path-36-inside-4" fill="white">
<path d="M159.87 29.3906C159.746 29.5724 159.773 29.6715 159.937 29.7458L160.263 29.9001C160.436 29.9744 160.493 29.9469 160.619 29.7927C160.738 29.6522 160.927 29.5311 161.261 29.5311C161.65 29.5311 161.768 29.6054 161.741 29.7789C161.701 30.0212 161.407 30.0791 161.013 30.1204C160.112 30.2002 159.576 30.4756 159.438 31.2384C159.311 31.9103 159.786 32.3592 160.749 32.3592C161.59 32.3592 162.087 32.0783 162.364 31.5744C162.462 31.4009 162.429 31.2852 162.259 31.2274L161.919 31.098C161.76 31.0374 161.682 31.0649 161.572 31.2384C161.453 31.4064 161.229 31.5138 160.886 31.5138C160.506 31.5138 160.309 31.4532 160.35 31.2329C160.39 30.985 160.711 30.8969 161.137 30.8584C161.847 30.7978 162.507 30.6574 162.664 29.7651C162.769 29.1483 162.356 28.6719 161.431 28.6719C160.644 28.6719 160.172 28.9473 159.87 29.3906Z"/>
</mask>
<path d="M159.87 29.3906C159.746 29.5724 159.773 29.6715 159.937 29.7458L160.263 29.9001C160.436 29.9744 160.493 29.9469 160.619 29.7927C160.738 29.6522 160.927 29.5311 161.261 29.5311C161.65 29.5311 161.768 29.6054 161.741 29.7789C161.701 30.0212 161.407 30.0791 161.013 30.1204C160.112 30.2002 159.576 30.4756 159.438 31.2384C159.311 31.9103 159.786 32.3592 160.749 32.3592C161.59 32.3592 162.087 32.0783 162.364 31.5744C162.462 31.4009 162.429 31.2852 162.259 31.2274L161.919 31.098C161.76 31.0374 161.682 31.0649 161.572 31.2384C161.453 31.4064 161.229 31.5138 160.886 31.5138C160.506 31.5138 160.309 31.4532 160.35 31.2329C160.39 30.985 160.711 30.8969 161.137 30.8584C161.847 30.7978 162.507 30.6574 162.664 29.7651C162.769 29.1483 162.356 28.6719 161.431 28.6719C160.644 28.6719 160.172 28.9473 159.87 29.3906Z" fill="#151515"/>
<path d="M159.87 29.3906L160.696 29.9544L160.696 29.9537L159.87 29.3906ZM159.937 29.7458L160.364 28.8417L160.357 28.8381L160.349 28.8346L159.937 29.7458ZM160.263 29.9001L159.836 30.8042L159.852 30.8116L159.868 30.8185L160.263 29.9001ZM160.619 29.7927L159.856 29.1472L159.847 29.1577L160.619 29.7927ZM161.741 29.7789L162.728 29.9436L162.73 29.9325L161.741 29.7789ZM161.013 30.1204L161.102 31.1165L161.11 31.1157L161.118 31.1149L161.013 30.1204ZM159.438 31.2384L160.421 31.4238L160.422 31.4159L159.438 31.2384ZM162.364 31.5744L161.492 31.086L161.489 31.0916L162.364 31.5744ZM162.259 31.2274L161.903 32.1619L161.92 32.1683L161.937 32.1741L162.259 31.2274ZM161.919 31.098L162.275 30.1634L162.275 30.1634L161.919 31.098ZM161.572 31.2384L162.388 31.8154L162.402 31.796L162.415 31.7759L161.572 31.2384ZM160.35 31.2329L161.333 31.4135L161.335 31.4038L161.337 31.394L160.35 31.2329ZM161.137 30.8584L161.052 29.862L161.047 29.8624L161.137 30.8584ZM162.664 29.7651L163.649 29.9378L163.65 29.9332L162.664 29.7651ZM159.044 28.8268C158.954 28.9581 158.716 29.3303 158.816 29.8119C158.928 30.352 159.358 30.5817 159.525 30.6571L160.349 28.8346C160.351 28.8357 160.686 28.9786 160.774 29.4051C160.814 29.598 160.779 29.7532 160.751 29.8367C160.736 29.8785 160.722 29.9088 160.712 29.9261C160.703 29.9436 160.696 29.9533 160.696 29.9544L159.044 28.8268ZM159.51 30.65L159.836 30.8042L160.691 28.9959L160.364 28.8417L159.51 30.65ZM159.868 30.8185C159.986 30.8693 160.344 31.0215 160.769 30.8825C161.135 30.763 161.348 30.481 161.392 30.4277L159.847 29.1577C159.823 29.1868 159.835 29.1692 159.868 29.1396C159.906 29.1055 160 29.03 160.148 28.9816C160.47 28.8764 160.714 29.0052 160.659 28.9816L159.868 30.8185ZM161.383 30.4381C161.374 30.449 161.36 30.4637 161.34 30.479C161.321 30.4946 161.299 30.5077 161.278 30.5174C161.233 30.5384 161.217 30.5311 161.261 30.5311V28.5311C160.637 28.5311 160.167 28.7788 159.856 29.1472L161.383 30.4381ZM161.261 30.5311C161.331 30.5311 161.358 30.5347 161.357 30.5346C161.356 30.5343 161.339 30.5318 161.312 30.5239C161.285 30.5161 161.239 30.5004 161.183 30.4705C161.061 30.4046 160.905 30.2748 160.813 30.0599C160.728 29.8624 160.742 29.6947 160.753 29.6253L162.73 29.9325C162.754 29.7764 162.763 29.5343 162.652 29.2741C162.533 28.9964 162.328 28.8155 162.131 28.7093C161.814 28.5387 161.457 28.5311 161.261 28.5311V30.5311ZM160.755 29.6142C160.779 29.4711 160.849 29.3335 160.952 29.2282C161.043 29.1358 161.127 29.101 161.146 29.0936C161.166 29.0859 161.16 29.0905 161.111 29.0994C161.063 29.108 160.999 29.1163 160.909 29.1258L161.118 31.1149C161.304 31.0953 161.604 31.0619 161.874 30.9565C162.184 30.8352 162.628 30.5425 162.728 29.9436L160.755 29.6142ZM160.925 29.1243C160.417 29.1693 159.859 29.278 159.389 29.5886C158.866 29.9332 158.565 30.448 158.454 31.0609L160.422 31.4159C160.438 31.3271 160.459 31.2909 160.464 31.2821C160.468 31.2764 160.472 31.2701 160.49 31.258C160.547 31.2202 160.709 31.1513 161.102 31.1165L160.925 29.1243ZM158.455 31.053C158.337 31.6816 158.497 32.3379 159.025 32.8018C159.501 33.2206 160.139 33.3592 160.749 33.3592V31.3592C160.583 31.3592 160.471 31.3396 160.403 31.3196C160.336 31.2997 160.327 31.2841 160.345 31.2997C160.368 31.3197 160.396 31.3576 160.41 31.4048C160.423 31.4474 160.414 31.46 160.421 31.4238L158.455 31.053ZM160.749 33.3592C161.276 33.3592 161.776 33.2718 162.219 33.0485C162.675 32.8182 163.011 32.4726 163.24 32.0571L161.489 31.0916C161.44 31.1801 161.389 31.2269 161.318 31.263C161.232 31.3061 161.063 31.3592 160.749 31.3592V33.3592ZM163.237 32.0627C163.333 31.8912 163.503 31.5178 163.371 31.0725C163.223 30.5761 162.82 30.362 162.581 30.2807L161.937 32.1741C161.868 32.1506 161.567 32.0232 161.453 31.6425C161.404 31.4748 161.416 31.3306 161.436 31.2399C161.455 31.1532 161.484 31.0999 161.492 31.086L163.237 32.0627ZM162.615 30.2929L162.275 30.1634L161.564 32.0325L161.903 32.1619L162.615 30.2929ZM162.275 30.1634C162.127 30.107 161.769 29.989 161.361 30.1501C160.993 30.2949 160.801 30.5862 160.728 30.7009L162.415 31.7759C162.424 31.7618 162.408 31.7904 162.366 31.8327C162.321 31.8791 162.232 31.9564 162.094 32.0107C161.95 32.0676 161.814 32.0752 161.711 32.0647C161.622 32.0555 161.566 32.0333 161.564 32.0325L162.275 30.1634ZM160.755 30.6614C160.813 30.5785 160.883 30.5351 160.925 30.5175C160.961 30.5024 160.957 30.5138 160.886 30.5138V32.5138C161.426 32.5138 162.019 32.3383 162.388 31.8154L160.755 30.6614ZM160.886 30.5138C160.814 30.5138 160.776 30.5106 160.763 30.509C160.744 30.5064 160.798 30.5099 160.882 30.5493C160.977 30.5935 161.144 30.7 161.254 30.9151C161.363 31.1283 161.35 31.3209 161.333 31.4135L159.366 31.0523C159.329 31.255 159.326 31.5378 159.472 31.8243C159.62 32.1128 159.852 32.2757 160.038 32.3625C160.351 32.5082 160.699 32.5138 160.886 32.5138V30.5138ZM161.337 31.394C161.312 31.546 161.239 31.6778 161.147 31.7718C161.067 31.8543 160.996 31.885 160.984 31.89C160.97 31.8957 160.981 31.8896 161.03 31.8801C161.077 31.871 161.142 31.8621 161.227 31.8543L161.047 29.8624C160.813 29.8836 160.5 29.9249 160.214 30.0443C159.913 30.1699 159.461 30.468 159.363 31.0718L161.337 31.394ZM161.222 31.8547C161.581 31.8241 162.119 31.7653 162.599 31.4946C163.156 31.1807 163.523 30.6527 163.649 29.9378L161.679 29.5924C161.66 29.7007 161.634 29.7381 161.632 29.7411C161.632 29.7419 161.631 29.7424 161.631 29.7427C161.631 29.743 161.631 29.7432 161.631 29.7432C161.631 29.7432 161.631 29.7432 161.631 29.7432C161.631 29.7432 161.631 29.7432 161.631 29.7433C161.631 29.7434 161.627 29.7468 161.617 29.7526C161.593 29.7658 161.542 29.7884 161.441 29.8102C161.339 29.8323 161.215 29.8481 161.052 29.862L161.222 31.8547ZM163.65 29.9332C163.749 29.3524 163.609 28.7258 163.124 28.2637C162.669 27.8293 162.047 27.6719 161.431 27.6719V29.6719C161.579 29.6719 161.671 29.6912 161.72 29.707C161.767 29.7224 161.765 29.7313 161.744 29.7107C161.719 29.6874 161.697 29.6519 161.686 29.6142C161.676 29.5803 161.683 29.5705 161.678 29.597L163.65 29.9332ZM161.431 27.6719C160.362 27.6719 159.558 28.0725 159.043 28.8276L160.696 29.9537C160.76 29.8595 160.826 29.8033 160.908 29.7634C160.996 29.7203 161.153 29.6719 161.431 29.6719V27.6719Z" fill="#151515" mask="url(#path-36-inside-4)"/>
<path d="M165.34 31.6524C165.334 31.6549 165.328 31.6574 165.321 31.66C165.343 31.6314 165.36 31.6022 165.375 31.5733L165.363 31.6406C165.363 31.6417 165.363 31.6428 165.363 31.6439C165.359 31.6452 165.356 31.6466 165.352 31.648L165.352 31.6478L165.34 31.6524ZM166.135 29.2738C166.135 29.2738 166.135 29.2738 166.134 29.2737L166.135 29.2738ZM165.602 29.2741C165.602 29.2741 165.603 29.2739 165.607 29.2737C165.604 29.2741 165.602 29.2742 165.602 29.2741ZM163.676 31.6631C163.755 31.7455 163.844 31.8041 163.937 31.8455C163.702 31.813 163.598 31.7278 163.547 31.6601C163.483 31.5731 163.428 31.4091 163.457 31.1279C163.466 31.3082 163.522 31.5008 163.676 31.6631ZM163.577 29.2741C163.576 29.2741 163.578 29.2739 163.581 29.2737C163.578 29.2741 163.577 29.2742 163.577 29.2741Z" fill="#151515" stroke="#151515"/>
<path d="M169.245 29.2742C169.245 29.2741 169.247 29.2739 169.25 29.2737C169.247 29.2742 169.245 29.2742 169.245 29.2742ZM168.963 31.6611C168.984 31.6329 169.002 31.6043 169.016 31.5761L169.005 31.6433L169.005 31.6438C169.005 31.6442 169.005 31.6446 169.004 31.645C169.002 31.646 168.999 31.647 168.997 31.648L168.997 31.6478L168.985 31.6524C168.978 31.6553 168.971 31.6582 168.963 31.6611ZM167.578 31.8451C167.345 31.8123 167.241 31.7274 167.191 31.6605C167.128 31.5755 167.075 31.4164 167.1 31.145C167.112 31.3203 167.169 31.506 167.318 31.6631C167.396 31.7453 167.485 31.8038 167.578 31.8451ZM167.22 29.2742C167.22 29.2741 167.221 29.2739 167.225 29.2737C167.222 29.2741 167.22 29.2742 167.22 29.2742Z" fill="#151515" stroke="#151515"/>
<path d="M47.3021 16.9269L47.7419 17.7562L48.1847 16.9284L51.1834 11.3219C51.3014 11.1149 51.3402 11.0928 51.3427 11.0913L51.3428 11.0913C51.3428 11.0912 51.3798 11.0654 51.6275 11.0654H52.7845C52.8602 11.0654 52.9109 11.0702 52.9435 11.0756C52.9488 11.1078 52.9534 11.1577 52.9534 11.2318V21.7238C52.9534 21.7981 52.9487 21.8478 52.9434 21.8798C52.911 21.8853 52.8604 21.8902 52.7845 21.8902H51.5628C51.4957 21.8902 51.4501 21.886 51.4203 21.8813C51.4148 21.8488 51.4101 21.7986 51.4101 21.7238V17.9428C51.4101 16.9765 51.5321 15.9193 51.932 14.3159L52.0868 13.6949H51.4468H51.3012H50.9301L50.8226 14.0501C50.4902 15.1483 50.0452 16.1851 49.573 17.0536C49.5729 17.0537 49.5728 17.0539 49.5727 17.0541L48.4163 19.1678L48.4162 19.1678L48.4107 19.1783C48.3266 19.3411 48.2907 19.3684 48.2853 19.3722C48.2846 19.3727 48.2838 19.3733 48.2816 19.3742C48.2793 19.3752 48.2735 19.3776 48.2625 19.3802C48.2391 19.386 48.1956 19.3925 48.1187 19.3925H47.3689C47.2422 19.3925 47.1986 19.3793 47.1888 19.3753C47.1847 19.3722 47.1468 19.3407 47.0637 19.1791L47.0601 19.1721L47.0563 19.1653L45.8831 17.0504L45.8832 17.0503L45.8779 17.0411C45.3855 16.1964 45.0409 15.26 44.7206 14.0654L44.6212 13.6949H44.2376H44.092H43.4638L43.6047 14.3071C43.989 15.9765 44.0801 16.8885 44.0801 17.9593V21.7238C44.0801 21.7986 44.0754 21.8488 44.07 21.8813C44.0401 21.886 43.9945 21.8902 43.9275 21.8902H42.7704C42.6937 21.8902 42.6438 21.8848 42.6128 21.8789C42.607 21.8485 42.6016 21.7993 42.6016 21.7238V11.2318C42.6016 11.1565 42.6069 11.1071 42.6126 11.0765C42.6439 11.0707 42.694 11.0654 42.7704 11.0654H43.8304C44.0851 11.0654 44.1513 11.093 44.1706 11.1036L44.1708 11.1037C44.1807 11.1091 44.2207 11.131 44.3199 11.3047L47.3021 16.9269ZM47.1865 19.3741C47.1866 19.3741 47.1875 19.3744 47.1888 19.3752C47.1871 19.3746 47.1865 19.3741 47.1865 19.3741Z" fill="#151515" stroke="#151515"/>
<path d="M64.0289 19.909V20.409H64.5289H65.249C65.3264 20.409 65.3752 20.4152 65.4038 20.4213C65.4109 20.4525 65.4179 20.506 65.4179 20.5919V24.2545C65.4179 24.3393 65.4116 24.3936 65.4049 24.4264C65.3744 24.4321 65.325 24.4374 65.249 24.4374H64.0408C63.9744 24.4374 63.9293 24.4334 63.8999 24.4288C63.8936 24.3937 63.8881 24.3384 63.8881 24.2545V22.3902V21.8902H63.3881H56.1142C56.0381 21.8902 55.9887 21.8848 55.9583 21.8791C55.9516 21.8463 55.9453 21.792 55.9453 21.7072V11.2484C55.9453 11.1638 55.9515 11.1094 55.9581 11.0763C55.9889 11.0706 56.0383 11.0654 56.1142 11.0654H57.4357C57.5117 11.0654 57.5611 11.0707 57.5916 11.0764C57.5983 11.1092 57.6046 11.1635 57.6046 11.2484V19.909V20.409H58.1046H61.8885H62.3885V19.909V11.2484C62.3885 11.1652 62.3939 11.1103 62.4 11.0755C62.4321 11.0701 62.4823 11.0654 62.5574 11.0654H63.8628C63.9364 11.0654 63.9857 11.07 64.0175 11.0752C64.0236 11.1101 64.0289 11.1651 64.0289 11.2484V19.909Z" fill="#151515" stroke="#151515"/>
<path d="M69.3624 19.909V20.409H69.8624H74.593C74.6704 20.409 74.7191 20.4152 74.7478 20.4213C74.7548 20.4524 74.7619 20.506 74.7619 20.5919V21.7072C74.7619 21.7923 74.7554 21.8464 74.7487 21.8789C74.7185 21.8847 74.6692 21.8902 74.593 21.8902H67.872C67.7958 21.8902 67.7465 21.8848 67.7163 21.8789C67.7096 21.8464 67.7031 21.7923 67.7031 21.7072V11.2484C67.7031 11.1635 67.7095 11.1092 67.7161 11.0764C67.7467 11.0707 67.796 11.0654 67.872 11.0654H74.4312C74.5049 11.0654 74.5542 11.07 74.5859 11.0752C74.592 11.1101 74.5974 11.1651 74.5974 11.2484V12.3636C74.5974 12.438 74.5927 12.4878 74.5873 12.5199C74.5554 12.5253 74.5056 12.5301 74.4312 12.5301H69.8624H69.3624V13.0301V15.178V15.678H69.8624H73.614C73.6899 15.678 73.7405 15.6829 73.7728 15.6884C73.7782 15.7204 73.7829 15.7701 73.7829 15.8444V16.9597C73.7829 17.0429 73.7775 17.0978 73.7714 17.1326C73.7393 17.138 73.6891 17.1426 73.614 17.1426H69.8624H69.3624V17.6426V19.909Z" fill="#151515" stroke="#151515"/>
<path d="M83.322 15.6615H83.822V15.1615V11.2484C83.822 11.1652 83.8274 11.1103 83.8335 11.0755C83.8656 11.0701 83.9158 11.0654 83.9909 11.0654H85.3098C85.3761 11.0654 85.4212 11.0694 85.4509 11.074C85.4571 11.1093 85.4624 11.1647 85.4624 11.2484V21.7072C85.4624 21.791 85.457 21.8463 85.4507 21.8814C85.4213 21.8861 85.3762 21.8902 85.3098 21.8902H83.9909C83.9156 21.8902 83.8655 21.8854 83.8336 21.8799C83.8274 21.8453 83.822 21.7906 83.822 21.7072V17.6426V17.1426H83.322H79.3898H78.8898V17.6426V21.7072C78.8898 21.792 78.8835 21.8463 78.8768 21.8791C78.8463 21.8848 78.7969 21.8902 78.7209 21.8902H77.3993C77.3232 21.8902 77.2739 21.8848 77.2437 21.8789C77.2369 21.8464 77.2305 21.7923 77.2305 21.7072V11.2484C77.2305 11.1635 77.2368 11.1092 77.2435 11.0764C77.274 11.0707 77.3234 11.0654 77.3993 11.0654H78.7209C78.7967 11.0654 78.8462 11.0706 78.877 11.0763C78.8836 11.1094 78.8898 11.1638 78.8898 11.2484V15.1615V15.6615H79.3898H83.322Z" fill="#151515" stroke="#151515"/>
<path d="M96.5735 19.6621L96.5733 19.6621L96.5691 19.6741C96.2848 20.4784 95.8136 21.0821 95.1581 21.4907C94.4965 21.9031 93.6119 22.1386 92.4717 22.1386C91.0206 22.1386 89.9542 21.7366 89.2536 21.0734C88.5564 20.4135 88.1602 19.4371 88.1602 18.161V14.7958C88.1602 13.5197 88.5564 12.5425 89.2538 11.8818C89.9544 11.218 91.0208 10.8154 92.4717 10.8154C93.6116 10.8154 94.4963 11.0515 95.1579 11.4642C95.8137 11.8733 96.2849 12.4771 96.5691 13.2801L96.569 13.2802L96.5735 13.2919C96.601 13.3639 96.6117 13.411 96.6155 13.4385C96.5896 13.4559 96.5425 13.4811 96.4625 13.5107L95.2203 13.9544C95.1475 13.9761 95.0969 13.9872 95.0626 13.9924C95.0455 13.9614 95.023 13.9128 94.995 13.8382L94.9943 13.8365C94.8055 13.3384 94.4988 12.9374 94.05 12.6693C93.61 12.4063 93.0761 12.2966 92.4717 12.2966C91.6926 12.2966 91.0125 12.4789 90.5254 12.926C90.0306 13.3802 89.8194 14.0295 89.8194 14.7793V18.1775C89.8194 18.9262 90.0308 19.5748 90.5256 20.0286C91.0126 20.4751 91.6926 20.6574 92.4717 20.6574C93.0761 20.6574 93.6098 20.5477 94.0497 20.2853C94.4983 20.0177 94.8051 19.6176 94.9941 19.1208L94.995 19.1186C95.0259 19.0362 95.0518 18.9836 95.0713 18.9513C95.0974 18.9575 95.1357 18.9692 95.1888 18.9907L95.1984 18.9946L95.2082 18.9981L96.4628 19.4461C96.4632 19.4463 96.4636 19.4464 96.464 19.4466C96.5427 19.4752 96.5893 19.4997 96.6153 19.5167C96.6114 19.5444 96.6006 19.5911 96.5735 19.6621Z" fill="#151515" stroke="#151515"/>
<path d="M105.141 17.8401L107.221 21.8902H106.008C105.589 21.8902 105.416 21.8597 105.325 21.8188C105.277 21.7973 105.219 21.7622 105.122 21.5582L105.122 21.5582L105.12 21.5554L103.59 18.3942C103.404 17.9972 103.192 17.6386 102.836 17.4045C102.477 17.1683 102.049 17.1096 101.555 17.1096H101.132H100.632V17.6096V21.7072C100.632 21.7923 100.625 21.8464 100.619 21.8789C100.589 21.8847 100.539 21.8902 100.463 21.8902H99.1415C99.0653 21.8902 99.0161 21.8848 98.9859 21.8789C98.9791 21.8464 98.9727 21.7923 98.9727 21.7072V11.2484C98.9727 11.1635 98.979 11.1092 98.9857 11.0764C99.0162 11.0707 99.0656 11.0654 99.1415 11.0654H100.463C100.539 11.0654 100.588 11.0707 100.619 11.0764C100.626 11.1092 100.632 11.1635 100.632 11.2484V15.178V15.678H101.132H101.539H101.797L101.946 15.4683L104.832 11.4202L104.833 11.4196C104.994 11.1926 105.059 11.1489 105.112 11.1254C105.191 11.0911 105.333 11.0654 105.73 11.0654H106.978L103.695 15.5663L103.37 16.0114L103.844 16.2915C104.35 16.59 104.738 17.064 105.141 17.8391C105.141 17.8394 105.141 17.8398 105.141 17.8401Z" fill="#151515" stroke="#151515"/>
<path d="M111.586 12.5301H111.086V13.0301V21.7072C111.086 21.792 111.08 21.8463 111.073 21.8791C111.043 21.8848 110.993 21.8902 110.917 21.8902H109.599C109.523 21.8902 109.473 21.8848 109.443 21.8791C109.436 21.8463 109.43 21.792 109.43 21.7072V11.2484C109.43 11.1638 109.436 11.1094 109.442 11.0763C109.473 11.0706 109.523 11.0654 109.599 11.0654H117.428C117.493 11.0654 117.537 11.0693 117.566 11.0737C117.573 11.1091 117.578 11.1646 117.578 11.2484V21.7072C117.578 21.7911 117.573 21.8465 117.566 21.8817C117.537 21.8862 117.493 21.8902 117.428 21.8902H116.107C116.031 21.8902 115.981 21.8854 115.949 21.8799C115.943 21.8453 115.938 21.7906 115.938 21.7072V13.0301V12.5301H115.438H111.586Z" fill="#151515" stroke="#151515"/>
<path d="M122.745 18.0431H122.245V18.5431V21.7072C122.245 21.792 122.239 21.8463 122.232 21.8791C122.202 21.8848 122.152 21.8902 122.076 21.8902H120.755C120.679 21.8902 120.629 21.8848 120.599 21.8789C120.592 21.8464 120.586 21.7923 120.586 21.7072V11.2484C120.586 11.1635 120.592 11.1092 120.599 11.0764C120.629 11.0707 120.679 11.0654 120.755 11.0654H125.127C126.239 11.0654 127.102 11.4063 127.685 11.9825C128.268 12.5577 128.624 13.4187 128.624 14.5612C128.624 15.7064 128.274 16.563 127.697 17.1331C127.119 17.7042 126.257 18.0431 125.127 18.0431H122.745ZM122.245 16.062V16.562H122.745H124.849C125.418 16.562 125.936 16.3948 126.313 16.0247C126.692 15.6533 126.867 15.1372 126.867 14.5612C126.867 13.9906 126.698 13.4699 126.326 13.0903C125.953 12.7092 125.432 12.5301 124.849 12.5301H122.745H122.245V13.0301V16.062Z" fill="#151515" stroke="#151515"/>
<path d="M130.699 18.161V14.7958C130.699 13.5197 131.095 12.5425 131.793 11.8818C132.493 11.218 133.56 10.8154 135.011 10.8154C136.47 10.8154 137.541 11.2184 138.243 11.8822C138.942 12.5428 139.338 13.5197 139.338 14.7958V18.161C139.338 19.4371 138.942 20.4132 138.243 21.073C137.541 21.7362 136.471 22.1386 135.011 22.1386C133.56 22.1386 132.493 21.7366 131.793 21.0734C131.095 20.4135 130.699 19.4371 130.699 18.161ZM137.679 18.2105V14.7463C137.679 13.9935 137.449 13.3527 136.945 12.9088C136.453 12.4747 135.774 12.2966 135.011 12.2966C134.255 12.2966 133.58 12.4753 133.089 12.9097C132.588 13.3534 132.358 13.9936 132.358 14.7463V18.2105C132.358 18.9621 132.589 19.6016 133.089 20.0448C133.58 20.4787 134.255 20.6574 135.011 20.6574C135.774 20.6574 136.452 20.4794 136.945 20.0457C137.449 19.6023 137.679 18.9622 137.679 18.2105Z" fill="#151515" stroke="#151515"/>
<path d="M148.188 17.8401L150.268 21.8902H149.055C148.636 21.8902 148.463 21.8597 148.372 21.8188C148.324 21.7973 148.266 21.7622 148.169 21.5582L148.169 21.5582L148.167 21.5554L146.637 18.3941C146.451 17.9972 146.239 17.6386 145.883 17.4045C145.524 17.1683 145.096 17.1096 144.602 17.1096H144.179H143.679V17.6096V21.7072C143.679 21.7923 143.672 21.8464 143.666 21.8789C143.635 21.8847 143.586 21.8902 143.51 21.8902H142.188C142.112 21.8902 142.063 21.8848 142.033 21.8789C142.026 21.8464 142.02 21.7923 142.02 21.7072V11.2484C142.02 11.1635 142.026 11.1092 142.033 11.0764C142.063 11.0707 142.112 11.0654 142.188 11.0654H143.51C143.586 11.0654 143.635 11.0707 143.666 11.0764C143.672 11.1092 143.679 11.1635 143.679 11.2484V15.178V15.678H144.179H144.586H144.844L144.993 15.4684L147.882 11.4204L147.882 11.4196C148.044 11.1917 148.108 11.1483 148.161 11.1251C148.239 11.0912 148.38 11.0654 148.777 11.0654H150.027L146.744 15.5663L146.42 16.0105L146.893 16.291C147.397 16.5895 147.785 17.0639 148.187 17.8391C148.188 17.8394 148.188 17.8398 148.188 17.8401Z" fill="#151515" stroke="#151515"/>
<path d="M157.422 11.2565L157.422 11.2566L157.427 11.2691L161.322 21.8902H160.132C159.725 21.8902 159.571 21.8514 159.507 21.8185C159.506 21.8181 159.505 21.8177 159.504 21.8172C159.489 21.8098 159.453 21.7927 159.402 21.6262L159.402 21.6262L159.4 21.6201L158.895 20.0532L158.784 19.7064H158.419H154.393H154.033L153.919 20.0481L153.396 21.6142C153.395 21.6143 153.395 21.6145 153.395 21.6146C153.334 21.7979 153.297 21.8154 153.285 21.8209C153.284 21.8212 153.284 21.8215 153.283 21.8218C153.229 21.8509 153.087 21.8902 152.68 21.8902H151.587L155.482 11.3026L155.482 11.3026L155.485 11.2942C155.539 11.1406 155.576 11.0986 155.584 11.0912C155.588 11.0893 155.632 11.0654 155.828 11.0654H157.082C157.291 11.0654 157.339 11.0924 157.344 11.0952C157.344 11.0954 157.344 11.0956 157.346 11.0967C157.347 11.0981 157.351 11.1025 157.358 11.1123C157.372 11.1334 157.395 11.1758 157.422 11.2565ZM156.977 13.034L156.977 13.0329L156.977 13.0328L156.977 13.0327L156.977 13.0326L156.977 13.0325L156.964 12.5466H156.478H156.316H155.808L155.816 13.0541L155.816 13.0541L155.816 13.0543L155.816 13.0544L155.816 13.0546L155.816 13.0552L155.816 13.0625L155.816 13.096C155.816 13.1265 155.815 13.1728 155.813 13.2327C155.809 13.3527 155.799 13.5262 155.778 13.7354C155.736 14.1562 155.648 14.7086 155.466 15.2543L155.466 15.2543L155.466 15.2571L154.619 17.8539L154.405 18.5089H155.094H157.734H158.425L158.209 17.8525L157.361 15.276C157.186 14.7147 157.089 14.1523 157.037 13.7261C157.011 13.5136 156.996 13.3376 156.987 13.2157C156.983 13.1548 156.981 13.1076 156.979 13.0764L156.978 13.0418L156.977 13.034Z" fill="#151515" stroke="#151515"/>
<path d="M164.642 13.0301V12.5301H164.142H161.583C161.507 12.5301 161.456 12.5252 161.424 12.5196C161.419 12.4877 161.414 12.438 161.414 12.3636V11.2484C161.414 11.1652 161.419 11.1103 161.426 11.0755C161.458 11.0701 161.508 11.0654 161.583 11.0654H169.332C169.407 11.0654 169.457 11.0702 169.489 11.0756C169.495 11.1102 169.5 11.1649 169.5 11.2484V12.3636C169.5 12.4381 169.496 12.4878 169.49 12.5195C169.458 12.5251 169.408 12.5301 169.332 12.5301H166.786H166.286V13.0301V21.7072C166.286 21.7906 166.28 21.8453 166.274 21.8799C166.242 21.8854 166.192 21.8902 166.117 21.8902H164.795C164.729 21.8902 164.684 21.886 164.654 21.8813C164.648 21.8465 164.642 21.7913 164.642 21.7072V13.0301Z" fill="#151515" stroke="#151515"/>
</g>
<defs>
<clipPath id="clip0">
<rect width="170.001" height="39.1037" fill="white" transform="translate(0 0.448242)"/>
</clipPath>
</defs>
</svg>
