<svg width="187" height="32" viewBox="0 0 187 32" fill="none" xmlns="http://www.w3.org/2000/svg">
<g clip-path="url(#clip0)">
<path fill-rule="evenodd" clip-rule="evenodd" d="M15.3499 32.0238C23.8436 32.0238 30.7292 25.1449 30.7292 16.6594C30.7292 8.17381 23.8436 1.29271 15.3499 1.29492C6.85624 1.29492 -0.0292969 8.17381 -0.0292969 16.6594C-0.0292969 25.1449 6.85624 32.0238 15.3499 32.0238ZM12.5073 17.1978H17.1065C18.7632 17.1978 19.7264 15.6861 19.7264 14.2958C19.7264 12.9076 18.898 11.4754 17.0535 11.4754H12.5073V17.1978ZM12.5073 8.85796H17.345C19.6977 8.85796 22.5075 10.6919 22.5075 14.1369C22.5075 17.317 20.3405 19.7358 17.1065 19.7358H12.5073V24.5115H9.72613V8.85796H12.5073Z" fill="#151515"/>
<path fill-rule="evenodd" clip-rule="evenodd" d="M49.6527 32.0238C58.1464 32.0238 65.0319 25.1449 65.0319 16.6594C65.0319 8.17381 58.1464 1.29271 49.6527 1.29492C41.159 1.29492 34.2734 8.17381 34.2734 16.6594C34.2734 25.1449 41.159 32.0238 49.6527 32.0238ZM56.9888 12.3294L54.6627 14.0927C54.6627 14.0927 53.1915 11.0494 50.0105 11.045C46.644 11.045 44.6404 13.9294 44.6404 16.6814C44.6404 19.4334 46.7765 22.2649 49.984 22.2649C53.1937 22.2649 54.8527 19.1929 54.8527 19.1929L56.9911 20.8216C56.9911 20.8216 55.0648 24.8558 49.9332 24.8558C45.2523 24.8558 41.8327 21.4086 41.8327 16.6814C41.8327 11.9565 45.1706 8.4563 50.1983 8.4563C55.2238 8.4563 56.9888 12.3294 56.9888 12.3294Z" fill="#151515"/>
<path d="M133.466 17.6348H140.557V15.0152H133.46V11.3518H141.198V8.84473H130.656V24.4762H141.253V21.8919H133.466V17.6348Z" fill="#151515"/>
<path d="M143.441 11.4224H148.226V24.4762H150.987V11.3959H155.691V8.84473H143.441V11.4224Z" fill="#151515"/>
<path d="M168.282 8.85742L160.986 19.7903V8.85742H158.207V24.5087H160.986L168.282 13.5647V24.5087H171.064V8.85742H168.282Z" fill="#151515"/>
<path d="M121.344 11.0489C124.525 11.0489 125.996 14.0944 125.996 14.0944L128.322 12.3311C128.322 12.3311 126.557 8.45801 121.532 8.45801C116.504 8.45801 113.164 11.9582 113.164 16.6831C113.164 21.4103 116.584 24.8575 121.265 24.8575C126.396 24.8575 128.322 20.8233 128.322 20.8233L126.184 19.1946C126.184 19.1946 124.523 22.2644 121.315 22.2644C118.11 22.2644 115.972 19.4329 115.972 16.6831C115.972 13.9333 117.975 11.0489 121.344 11.0489Z" fill="#151515"/>
<path fill-rule="evenodd" clip-rule="evenodd" d="M83.9596 32.024C92.4533 32.024 99.341 25.1429 99.341 16.6574C99.341 8.17187 92.4555 1.29297 83.9596 1.29297C75.4637 1.29297 68.5781 8.17187 68.5781 16.6574C68.5781 25.1451 75.4637 32.024 83.9596 32.024ZM91.1743 8.85822L85.1966 15.0529L91.5211 24.5095H87.9668L83.1378 17.1892L81.0083 19.0938V24.5095H78.2294V8.85822H81.0083V15.2935L87.2974 8.85822H91.1743Z" fill="#151515"/>
<path d="M168.22 30.417H118.473C110.901 30.417 104.74 24.2641 104.74 16.6967C104.74 9.13146 110.901 2.97643 118.473 2.97643H168.22C175.795 2.97643 181.956 9.12925 181.956 16.6967C181.956 24.2641 175.795 30.417 168.22 30.417ZM168.22 1.33008H118.473C109.977 1.33008 103.094 8.21118 103.094 16.6967C103.094 25.1844 109.979 32.0633 118.473 32.0633H168.22C176.716 32.0633 183.602 25.1844 183.602 16.6967C183.602 8.21118 176.716 1.33008 168.22 1.33008Z" fill="#151515"/>
<path d="M183.814 2.19304H183.158V1.45373H183.814C184.154 1.45373 184.291 1.58394 184.291 1.82008C184.291 2.0518 184.154 2.19304 183.814 2.19304ZM184.689 1.81787C184.689 1.35663 184.406 1.0918 183.871 1.0918H182.758V3.54145H183.156V2.53953H183.946L184.3 3.54145H184.711L184.324 2.44684C184.567 2.32766 184.689 2.12021 184.689 1.81787Z" fill="#151515"/>
<path d="M183.649 4.33143C182.529 4.33143 181.668 3.44646 181.668 2.31433C181.668 1.1844 182.527 0.297225 183.649 0.297225C184.767 0.297225 185.631 1.18219 185.631 2.31433C185.631 3.44867 184.767 4.33143 183.649 4.33143ZM183.649 -0.0625C182.328 -0.0625 181.281 0.996808 181.281 2.31433C181.281 3.63184 182.328 4.69116 183.649 4.69116C184.968 4.69116 186.017 3.63184 186.017 2.31433C186.017 0.996808 184.968 -0.0625 183.649 -0.0625Z" fill="#151515"/>
</g>
<defs>
<clipPath id="clip0">
<rect width="186" height="32" fill="white" transform="translate(0.00195312)"/>
</clipPath>
</defs>
</svg>
