<svg width="200" height="22" viewBox="0 0 200 22" fill="none" xmlns="http://www.w3.org/2000/svg">
<path d="M0 1.34082H7.55245C10.0867 1.34082 11.9245 1.83253 13.0657 2.81595C14.207 3.79936 14.7776 5.30083 14.7776 7.32034C14.7776 8.42668 14.6098 9.32229 14.2741 10.0072C13.9385 10.692 13.5776 11.2277 13.1916 11.614C12.7385 12.0706 12.2182 12.4042 11.6308 12.615L16.0112 19.7798H11.5301L7.65315 13.4316H3.97762V19.7798H0V1.34082ZM7.55245 9.92814C8.57622 9.92814 9.33986 9.73497 9.84336 9.34863C10.3636 8.94473 10.6238 8.29497 10.6238 7.39936C10.6238 6.48619 10.3636 5.83644 9.84336 5.4501C9.32308 5.04619 8.55944 4.84424 7.55245 4.84424H3.97762V9.92814H7.55245Z" fill="#151515"/>
<path d="M18.1562 1.34082H32.6066V4.84424H22.1339V8.63741H30.9702V12.0091H22.1339V16.2764H32.6066V19.7798H18.1562V1.34082Z" fill="#151515"/>
<path d="M35.5 1.34082H42.9014C45.5364 1.34082 47.458 1.92911 48.6664 3.1057C49.8916 4.28229 50.5042 5.97692 50.5042 8.18961C50.5042 10.3847 49.8916 12.0706 48.6664 13.2472C47.458 14.4238 45.5364 15.012 42.9014 15.012H39.4776V19.7798H35.5V1.34082ZM42.9014 11.5086C44.0259 11.5086 44.8818 11.2364 45.4692 10.692C46.0566 10.1477 46.3503 9.31351 46.3503 8.18961C46.3503 7.0657 46.0566 6.23156 45.4692 5.68717C44.8818 5.12522 44.0259 4.84424 42.9014 4.84424H39.4776V11.5086H42.9014Z" fill="#151515"/>
<path d="M52.9062 16.2764H57.2363V4.84424H52.9062V1.34082H65.544V4.84424H61.2139V16.2764H65.544V19.7798H52.9062V16.2764Z" fill="#151515"/>
<path d="M68.5703 1.34082H74.5619L80.906 13.5896L81.7116 15.934H82.0892L81.5353 13.5896V1.34082H85.513V19.7798H79.5214L73.1773 7.53107L72.3717 5.18668H71.9941L72.5479 7.53107V19.7798H68.5703V1.34082Z" fill="#151515"/>
<path d="M91.9289 20.0428C91.2912 20.0428 90.7709 19.8584 90.3681 19.4896C89.9821 19.1032 89.7891 18.5852 89.7891 17.9354C89.7891 17.2857 89.9821 16.7764 90.3681 16.4076C90.7709 16.0213 91.2912 15.8281 91.9289 15.8281C92.5667 15.8281 93.0786 16.0213 93.4646 16.4076C93.8674 16.7764 94.0688 17.2857 94.0688 17.9354C94.0688 18.5852 93.8674 19.1032 93.4646 19.4896C93.0786 19.8584 92.5667 20.0428 91.9289 20.0428Z" fill="#151515"/>
<path d="M105.349 20.043C104.342 20.043 103.385 19.9376 102.479 19.7269C101.589 19.4986 100.809 19.1649 100.138 18.7259C99.4831 18.2693 98.9545 17.7074 98.5517 17.04C98.1657 16.3552 97.9727 15.5649 97.9727 14.6693V13.6157H100.339V14.6693C100.339 15.2664 100.473 15.7669 100.742 16.1708C101.01 16.5747 101.371 16.8995 101.824 17.1454C102.294 17.3737 102.831 17.5405 103.436 17.6459C104.04 17.7337 104.678 17.7776 105.349 17.7776C106.02 17.7776 106.658 17.7249 107.262 17.6195C107.866 17.5142 108.395 17.3474 108.848 17.1191C109.318 16.8732 109.687 16.5571 109.956 16.1708C110.224 15.7669 110.359 15.2664 110.359 14.6693C110.359 14.0547 110.182 13.5718 109.83 13.2206C109.494 12.8518 109.05 12.562 108.496 12.3513C107.942 12.123 107.304 11.9474 106.582 11.8245C105.878 11.7015 105.156 11.5698 104.417 11.4293C103.679 11.2889 102.949 11.122 102.227 10.9289C101.522 10.7181 100.893 10.4196 100.339 10.0332C99.7852 9.64691 99.3321 9.14642 98.9796 8.53179C98.644 7.91715 98.4761 7.13569 98.4761 6.1874C98.4761 5.39715 98.644 4.68593 98.9796 4.05374C99.3153 3.42154 99.7769 2.88593 100.364 2.44691C100.968 2.00788 101.69 1.67422 102.529 1.44593C103.368 1.20007 104.292 1.07715 105.299 1.07715C106.306 1.07715 107.229 1.20007 108.068 1.44593C108.907 1.67422 109.62 2.01666 110.208 2.47325C110.812 2.92984 111.282 3.49179 111.617 4.1591C111.953 4.82642 112.121 5.59032 112.121 6.45081V6.97764H109.754V6.45081C109.754 5.88886 109.645 5.41471 109.427 5.02837C109.209 4.62447 108.907 4.29959 108.521 4.05374C108.135 3.80788 107.665 3.63227 107.111 3.52691C106.574 3.40398 105.97 3.34252 105.299 3.34252C103.956 3.34252 102.873 3.57081 102.051 4.0274C101.245 4.48398 100.843 5.20398 100.843 6.1874C100.843 6.80203 101.01 7.29374 101.346 7.66252C101.699 8.0313 102.152 8.33862 102.706 8.58447C103.259 8.81276 103.889 8.99715 104.594 9.13764C105.315 9.27813 106.045 9.4274 106.784 9.58545C107.522 9.74349 108.244 9.92788 108.949 10.1386C109.671 10.3493 110.308 10.6479 110.862 11.0342C111.416 11.403 111.861 11.8772 112.196 12.4567C112.549 13.0362 112.725 13.7737 112.725 14.6693C112.725 15.5649 112.524 16.3552 112.121 17.04C111.735 17.7074 111.206 18.2693 110.535 18.7259C109.88 19.1649 109.1 19.4986 108.194 19.7269C107.304 19.9376 106.356 20.043 105.349 20.043Z" fill="#151515"/>
<path d="M120.553 3.55351H114.234V1.34082H129.213V3.55351H122.92V19.7798H120.553V3.55351Z" fill="#151515"/>
<path d="M138.851 20.0432C137.81 20.0432 136.82 19.9115 135.88 19.6481C134.957 19.3847 134.151 18.9808 133.463 18.4364C132.775 17.892 132.23 17.2071 131.827 16.3818C131.424 15.5564 131.223 14.5818 131.223 13.4579V1.34082H133.589V13.3262C133.589 14.1164 133.732 14.8013 134.017 15.3808C134.302 15.9427 134.688 16.3993 135.175 16.7505C135.662 17.1018 136.216 17.3652 136.837 17.5408C137.474 17.6988 138.146 17.7779 138.851 17.7779C139.556 17.7779 140.219 17.6988 140.84 17.5408C141.478 17.3652 142.04 17.1018 142.527 16.7505C143.013 16.3818 143.399 15.9164 143.685 15.3545C143.97 14.7925 144.113 14.1164 144.113 13.3262V1.34082H146.479V13.4579C146.479 14.5818 146.278 15.5564 145.875 16.3818C145.472 17.2071 144.918 17.892 144.213 18.4364C143.525 18.9808 142.72 19.3847 141.797 19.6481C140.874 19.9115 139.892 20.0432 138.851 20.0432Z" fill="#151515"/>
<path d="M150.246 1.34082H156.817C158.176 1.34082 159.401 1.56033 160.492 1.99936C161.583 2.43839 162.506 3.0618 163.261 3.86961C164.017 4.67741 164.596 5.65205 164.999 6.79351C165.418 7.91741 165.628 9.17302 165.628 10.5603C165.628 11.9477 165.418 13.212 164.999 14.3535C164.596 15.4774 164.017 16.4432 163.261 17.251C162.506 18.0588 161.583 18.6822 160.492 19.1213C159.401 19.5603 158.176 19.7798 156.817 19.7798H150.246V1.34082ZM156.817 17.5671C157.807 17.5671 158.696 17.3915 159.485 17.0403C160.274 16.6891 160.937 16.2062 161.474 15.5915C162.028 14.9594 162.447 14.2218 162.733 13.3789C163.018 12.5184 163.161 11.5789 163.161 10.5603C163.161 9.5418 163.018 8.61107 162.733 7.76814C162.447 6.90766 162.028 6.17009 161.474 5.55546C160.937 4.92327 160.274 4.43156 159.485 4.08034C158.696 3.72912 157.807 3.55351 156.817 3.55351H152.613V17.5671H156.817Z" fill="#151515"/>
<path d="M167.914 17.5671H172.571V3.55351H167.914V1.34082H179.595V3.55351H174.938V17.5671H179.595V19.7798H167.914V17.5671Z" fill="#151515"/>
<path d="M190.686 20.0439C189.327 20.0439 188.102 19.8156 187.011 19.3591C185.92 18.8849 184.997 18.2264 184.241 17.3835C183.486 16.5405 182.899 15.5395 182.479 14.3806C182.076 13.2215 181.875 11.9484 181.875 10.5611C181.875 9.17374 182.076 7.90057 182.479 6.74154C182.899 5.58252 183.486 4.58154 184.241 3.73862C184.997 2.89569 185.92 2.24593 187.011 1.78934C188.102 1.3152 189.327 1.07812 190.686 1.07812C192.046 1.07812 193.271 1.3152 194.362 1.78934C195.453 2.24593 196.376 2.89569 197.131 3.73862C197.886 4.58154 198.465 5.58252 198.868 6.74154C199.288 7.90057 199.497 9.17374 199.497 10.5611C199.497 11.9484 199.288 13.2215 198.868 14.3806C198.465 15.5395 197.886 16.5405 197.131 17.3835C196.376 18.2264 195.453 18.8849 194.362 19.3591C193.271 19.8156 192.046 20.0439 190.686 20.0439ZM190.686 17.7786C191.693 17.7786 192.591 17.5942 193.38 17.2254C194.169 16.8566 194.832 16.3474 195.369 15.6976C195.923 15.0479 196.334 14.284 196.602 13.4059C196.888 12.5279 197.03 11.5796 197.03 10.5611C197.03 9.54252 196.888 8.59423 196.602 7.71618C196.334 6.83813 195.923 6.07423 195.369 5.42447C194.832 4.77471 194.169 4.26545 193.38 3.89667C192.591 3.52789 191.693 3.3435 190.686 3.3435C189.679 3.3435 188.781 3.52789 187.992 3.89667C187.204 4.26545 186.532 4.77471 185.979 5.42447C185.441 6.07423 185.03 6.83813 184.745 7.71618C184.476 8.59423 184.342 9.54252 184.342 10.5611C184.342 11.5796 184.476 12.5279 184.745 13.4059C185.03 14.284 185.441 15.0479 185.979 15.6976C186.532 16.3474 187.204 16.8566 187.992 17.2254C188.781 17.5942 189.679 17.7786 190.686 17.7786Z" fill="#151515"/>
</svg>
