<svg width="250" height="250" viewBox="0 0 250 250" fill="none" xmlns="http://www.w3.org/2000/svg">
<rect width="250" height="250" fill="#151515"/>
<path d="M76.1697 119.729V112.848H62.0102V119.729H55V95H83.1799V119.729H76.1697ZM62.0102 106.831H76.1688V101.019H62.0102V106.831Z" fill="white"/>
<path d="M87.6055 101.019V95H116.922V101.019H105.777V119.729H98.7503V101.019H87.6055Z" fill="white"/>
<path d="M121.348 119.729V95H149.528V119.729H121.348ZM128.358 100.985V113.763H142.516V100.985H128.358Z" fill="white"/>
<path d="M177.261 119.773V110.743L169.116 119.075L160.954 110.743V119.773H153.945V95L169.117 109.653L184.272 95V119.774H177.261V119.773Z" fill="white"/>
<path d="M195 100.294H188.695V95H195V100.294Z" fill="#E15D13"/>
<path d="M37.44 141.049H38.745V146.209L43.41 141.034H44.865L40.095 146.254L45.105 151.774H43.53L38.745 146.539V151.774H37.44V141.049ZM49.4991 150.874C50.2791 150.874 50.8991 150.604 51.3591 150.064C51.8291 149.524 52.0641 148.809 52.0641 147.919V147.814C52.0641 146.904 51.8291 146.179 51.3591 145.639C50.8991 145.099 50.2791 144.829 49.4991 144.829C48.7091 144.829 48.0841 145.099 47.6241 145.639C47.1641 146.179 46.9341 146.899 46.9341 147.799V147.919C46.9341 148.829 47.1591 149.549 47.6091 150.079C48.0691 150.609 48.6991 150.874 49.4991 150.874ZM49.4841 151.909C48.3741 151.909 47.4541 151.534 46.7241 150.784C46.0041 150.024 45.6441 149.069 45.6441 147.919V147.799C45.6441 146.629 46.0041 145.669 46.7241 144.919C47.4541 144.169 48.3791 143.794 49.4991 143.794C50.6191 143.794 51.5391 144.169 52.2591 144.919C52.9891 145.659 53.3541 146.614 53.3541 147.784V147.904C53.3541 149.084 52.9891 150.049 52.2591 150.799C51.5291 151.539 50.6041 151.909 49.4841 151.909ZM56.3318 145.159V151.774H55.2968V143.929H57.0518L59.2868 149.824L61.5818 143.929H63.2918V151.774H62.0618V145.159L59.4668 151.774H58.8968L56.3318 145.159ZM67.9737 151.909C67.2037 151.909 66.5737 151.719 66.0837 151.339C65.6037 150.949 65.3637 150.369 65.3637 149.599C65.3637 149.169 65.4687 148.794 65.6787 148.474C65.8987 148.144 66.1987 147.889 66.5787 147.709C66.9587 147.519 67.3737 147.384 67.8237 147.304C68.2737 147.214 68.7637 147.169 69.2937 147.169H70.4187V146.599C70.4187 145.969 70.2887 145.519 70.0287 145.249C69.7687 144.969 69.3387 144.829 68.7387 144.829C67.6587 144.829 67.0587 145.299 66.9387 146.239H65.6937C65.7737 145.399 66.0987 144.784 66.6687 144.394C67.2487 143.994 67.9587 143.794 68.7987 143.794C70.7087 143.794 71.6637 144.729 71.6637 146.599V151.774H70.4187V150.784C69.8187 151.534 69.0037 151.909 67.9737 151.909ZM68.0937 150.919C68.7737 150.919 69.3287 150.754 69.7587 150.424C70.1987 150.084 70.4187 149.619 70.4187 149.029V148.054H69.3387C67.5187 148.054 66.6087 148.569 66.6087 149.599C66.6087 150.479 67.1037 150.919 68.0937 150.919ZM79.2093 148.279H75.3543V151.774H74.1093V143.929H75.3543V147.229H79.2093V143.929H80.4543V151.774H79.2093V148.279ZM84.5916 148.744C84.4816 149.664 84.3116 150.324 84.0816 150.724H87.7566V144.949H84.8766C84.8266 146.169 84.7316 147.434 84.5916 148.744ZM83.0316 153.679H82.0266V150.724H82.5816C82.8616 150.654 83.0566 150.454 83.1666 150.124C83.2766 149.784 83.3716 149.299 83.4516 148.669C83.5416 147.859 83.6266 146.839 83.7066 145.609C83.7466 145.059 83.7766 144.499 83.7966 143.929H88.9716V150.724H90.1716V153.679H89.1666L89.0766 151.774H83.1216L83.0316 153.679ZM93.8784 151.909C93.1084 151.909 92.4784 151.719 91.9884 151.339C91.5084 150.949 91.2684 150.369 91.2684 149.599C91.2684 149.169 91.3734 148.794 91.5834 148.474C91.8034 148.144 92.1034 147.889 92.4834 147.709C92.8634 147.519 93.2784 147.384 93.7284 147.304C94.1784 147.214 94.6684 147.169 95.1984 147.169H96.3234V146.599C96.3234 145.969 96.1934 145.519 95.9334 145.249C95.6734 144.969 95.2434 144.829 94.6434 144.829C93.5634 144.829 92.9634 145.299 92.8434 146.239H91.5984C91.6784 145.399 92.0034 144.784 92.5734 144.394C93.1534 143.994 93.8634 143.794 94.7034 143.794C96.6134 143.794 97.5684 144.729 97.5684 146.599V151.774H96.3234V150.784C95.7234 151.534 94.9084 151.909 93.8784 151.909ZM93.9984 150.919C94.6784 150.919 95.2334 150.754 95.6634 150.424C96.1034 150.084 96.3234 149.619 96.3234 149.029V148.054H95.2434C93.4234 148.054 92.5134 148.569 92.5134 149.599C92.5134 150.479 93.0084 150.919 93.9984 150.919ZM104.164 143.929H105.409V145.249C105.639 144.849 105.999 144.509 106.489 144.229C106.979 143.939 107.504 143.794 108.064 143.794C109.114 143.794 109.969 144.149 110.629 144.859C111.299 145.569 111.634 146.529 111.634 147.739V147.859C111.634 149.069 111.304 150.049 110.644 150.799C109.994 151.539 109.134 151.909 108.064 151.909C106.864 151.909 105.979 151.434 105.409 150.484V154.504H104.164V143.929ZM107.944 150.874C108.724 150.874 109.319 150.624 109.729 150.124C110.139 149.614 110.344 148.879 110.344 147.919V147.799C110.344 146.849 110.114 146.119 109.654 145.609C109.204 145.089 108.629 144.829 107.929 144.829C107.169 144.829 106.549 145.084 106.069 145.594C105.599 146.094 105.364 146.829 105.364 147.799V147.919C105.364 148.889 105.594 149.624 106.054 150.124C106.524 150.624 107.154 150.874 107.944 150.874ZM115.623 151.909C114.853 151.909 114.223 151.719 113.733 151.339C113.253 150.949 113.013 150.369 113.013 149.599C113.013 149.169 113.118 148.794 113.328 148.474C113.548 148.144 113.848 147.889 114.228 147.709C114.608 147.519 115.023 147.384 115.473 147.304C115.923 147.214 116.413 147.169 116.943 147.169H118.068V146.599C118.068 145.969 117.938 145.519 117.678 145.249C117.418 144.969 116.988 144.829 116.388 144.829C115.308 144.829 114.708 145.299 114.588 146.239H113.343C113.423 145.399 113.748 144.784 114.318 144.394C114.898 143.994 115.608 143.794 116.448 143.794C118.358 143.794 119.313 144.729 119.313 146.599V151.774H118.068V150.784C117.468 151.534 116.653 151.909 115.623 151.909ZM115.743 150.919C116.423 150.919 116.978 150.754 117.408 150.424C117.848 150.084 118.068 149.619 118.068 149.029V148.054H116.988C115.168 148.054 114.258 148.569 114.258 149.599C114.258 150.479 114.753 150.919 115.743 150.919ZM126.814 145.969C126.814 146.359 126.699 146.719 126.469 147.049C126.249 147.369 125.934 147.569 125.524 147.649C126.034 147.739 126.439 147.934 126.739 148.234C127.039 148.534 127.189 148.929 127.189 149.419V149.464C127.189 150.194 126.919 150.784 126.379 151.234C125.849 151.684 125.124 151.909 124.204 151.909C123.254 151.909 122.509 151.689 121.969 151.249C121.439 150.799 121.154 150.169 121.114 149.359H122.329C122.389 149.859 122.559 150.239 122.839 150.499C123.129 150.749 123.584 150.874 124.204 150.874C125.324 150.874 125.884 150.429 125.884 149.539V149.494C125.884 149.054 125.749 148.734 125.479 148.534C125.219 148.334 124.814 148.234 124.264 148.234H123.079V147.244H124.054C124.574 147.244 124.944 147.149 125.164 146.959C125.394 146.769 125.509 146.459 125.509 146.029V145.984C125.509 145.214 125.059 144.829 124.159 144.829C123.289 144.829 122.769 145.239 122.599 146.059H121.399C121.489 145.269 121.789 144.694 122.299 144.334C122.819 143.974 123.464 143.794 124.234 143.794C124.974 143.794 125.589 143.984 126.079 144.364C126.569 144.734 126.814 145.254 126.814 145.924V145.969ZM129.351 143.929H130.596V145.249C130.826 144.849 131.186 144.509 131.676 144.229C132.166 143.939 132.691 143.794 133.251 143.794C134.301 143.794 135.156 144.149 135.816 144.859C136.486 145.569 136.821 146.529 136.821 147.739V147.859C136.821 149.069 136.491 150.049 135.831 150.799C135.181 151.539 134.321 151.909 133.251 151.909C132.051 151.909 131.166 151.434 130.596 150.484V154.504H129.351V143.929ZM133.131 150.874C133.911 150.874 134.506 150.624 134.916 150.124C135.326 149.614 135.531 148.879 135.531 147.919V147.799C135.531 146.849 135.301 146.119 134.841 145.609C134.391 145.089 133.816 144.829 133.116 144.829C132.356 144.829 131.736 145.084 131.256 145.594C130.786 146.094 130.551 146.829 130.551 147.799V147.919C130.551 148.889 130.781 149.624 131.241 150.124C131.711 150.624 132.341 150.874 133.131 150.874ZM140.81 151.909C140.04 151.909 139.41 151.719 138.92 151.339C138.44 150.949 138.2 150.369 138.2 149.599C138.2 149.169 138.305 148.794 138.515 148.474C138.735 148.144 139.035 147.889 139.415 147.709C139.795 147.519 140.21 147.384 140.66 147.304C141.11 147.214 141.6 147.169 142.13 147.169H143.255V146.599C143.255 145.969 143.125 145.519 142.865 145.249C142.605 144.969 142.175 144.829 141.575 144.829C140.495 144.829 139.895 145.299 139.775 146.239H138.53C138.61 145.399 138.935 144.784 139.505 144.394C140.085 143.994 140.795 143.794 141.635 143.794C143.545 143.794 144.5 144.729 144.5 146.599V151.774H143.255V150.784C142.655 151.534 141.84 151.909 140.81 151.909ZM140.93 150.919C141.61 150.919 142.165 150.754 142.595 150.424C143.035 150.084 143.255 149.619 143.255 149.029V148.054H142.175C140.355 148.054 139.445 148.569 139.445 149.599C139.445 150.479 139.94 150.919 140.93 150.919ZM150.321 151.909C149.141 151.909 148.206 151.529 147.516 150.769C146.826 150.009 146.481 148.854 146.481 147.304V146.824C146.481 146.084 146.511 145.429 146.571 144.859C146.631 144.279 146.756 143.699 146.946 143.119C147.136 142.529 147.386 142.039 147.696 141.649C148.006 141.259 148.426 140.934 148.956 140.674C149.496 140.414 150.131 140.264 150.861 140.224L151.161 140.209C152.261 140.149 153.006 140.039 153.396 139.879L153.561 140.929C153.051 141.149 152.256 141.284 151.176 141.334L150.951 141.349C149.741 141.409 148.876 141.804 148.356 142.534C147.846 143.254 147.546 144.374 147.456 145.894H147.516C147.786 145.344 148.186 144.909 148.716 144.589C149.256 144.259 149.881 144.094 150.591 144.094C151.681 144.094 152.551 144.449 153.201 145.159C153.861 145.859 154.191 146.769 154.191 147.889V147.949C154.191 149.159 153.826 150.124 153.096 150.844C152.376 151.554 151.451 151.909 150.321 151.909ZM148.446 150.109C148.906 150.619 149.536 150.874 150.336 150.874C151.136 150.874 151.761 150.624 152.211 150.124C152.671 149.614 152.901 148.894 152.901 147.964V147.934C152.901 147.064 152.691 146.379 152.271 145.879C151.861 145.379 151.261 145.129 150.471 145.129C149.641 145.129 148.981 145.389 148.491 145.909C148.011 146.429 147.771 147.139 147.771 148.039V148.069C147.771 148.919 147.996 149.599 148.446 150.109ZM159.58 150.874C160.36 150.874 160.98 150.604 161.44 150.064C161.91 149.524 162.145 148.809 162.145 147.919V147.814C162.145 146.904 161.91 146.179 161.44 145.639C160.98 145.099 160.36 144.829 159.58 144.829C158.79 144.829 158.165 145.099 157.705 145.639C157.245 146.179 157.015 146.899 157.015 147.799V147.919C157.015 148.829 157.24 149.549 157.69 150.079C158.15 150.609 158.78 150.874 159.58 150.874ZM159.565 151.909C158.455 151.909 157.535 151.534 156.805 150.784C156.085 150.024 155.725 149.069 155.725 147.919V147.799C155.725 146.629 156.085 145.669 156.805 144.919C157.535 144.169 158.46 143.794 159.58 143.794C160.7 143.794 161.62 144.169 162.34 144.919C163.07 145.659 163.435 146.614 163.435 147.784V147.904C163.435 149.084 163.07 150.049 162.34 150.799C161.61 151.539 160.685 151.909 159.565 151.909ZM170.575 144.979H168.04V151.774H166.795V144.979H164.26V143.929H170.575V144.979ZM176.957 151.774V148.114C176.417 148.694 175.667 148.984 174.707 148.984C173.937 148.984 173.307 148.739 172.817 148.249C172.327 147.749 172.082 146.989 172.082 145.969V143.929H173.327V145.909C173.327 147.239 173.897 147.904 175.037 147.904C175.887 147.904 176.527 147.614 176.957 147.034V143.929H178.202V151.774H176.957ZM180.807 151.774V143.929H182.052V149.974L186.057 143.929H187.302V151.774H186.057V145.729L182.052 151.774H180.807ZM191.004 147.769V151.774H189.759V143.929H191.004V147.589L194.259 143.929H195.714L192.354 147.619L195.999 151.774H194.484L191.004 147.769ZM200.65 150.874C201.43 150.874 202.05 150.604 202.51 150.064C202.98 149.524 203.215 148.809 203.215 147.919V147.814C203.215 146.904 202.98 146.179 202.51 145.639C202.05 145.099 201.43 144.829 200.65 144.829C199.86 144.829 199.235 145.099 198.775 145.639C198.315 146.179 198.085 146.899 198.085 147.799V147.919C198.085 148.829 198.31 149.549 198.76 150.079C199.22 150.609 199.85 150.874 200.65 150.874ZM200.635 151.909C199.525 151.909 198.605 151.534 197.875 150.784C197.155 150.024 196.795 149.069 196.795 147.919V147.799C196.795 146.629 197.155 145.669 197.875 144.919C198.605 144.169 199.53 143.794 200.65 143.794C201.77 143.794 202.69 144.169 203.41 144.919C204.14 145.659 204.505 146.614 204.505 147.784V147.904C204.505 149.084 204.14 150.049 203.41 150.799C202.68 151.539 201.755 151.909 200.635 151.909ZM206.433 143.929H209.178C211.018 143.929 211.938 144.594 211.938 145.924V145.969C211.938 146.349 211.833 146.699 211.623 147.019C211.413 147.329 211.098 147.539 210.678 147.649C211.768 147.889 212.313 148.479 212.313 149.419V149.464C212.313 150.224 212.063 150.799 211.563 151.189C211.073 151.579 210.388 151.774 209.508 151.774H206.433V143.929ZM207.678 144.919V147.244H209.178C209.698 147.244 210.068 147.149 210.288 146.959C210.518 146.769 210.633 146.459 210.633 146.029V145.984C210.633 145.584 210.513 145.309 210.273 145.159C210.043 144.999 209.673 144.919 209.163 144.919H207.678ZM207.678 148.234V150.784H209.388C209.938 150.784 210.343 150.689 210.603 150.499C210.873 150.299 211.008 149.979 211.008 149.539V149.494C211.008 149.054 210.873 148.734 210.603 148.534C210.343 148.334 209.938 148.234 209.388 148.234H207.678Z" fill="#B8B8B8"/>
</svg>
