<svg width="48" height="48" viewBox="0 0 48 48" fill="none" xmlns="http://www.w3.org/2000/svg">
<rect width="48" height="48" rx="24" fill="#DFDFDF"/>
<path fill-rule="evenodd" clip-rule="evenodd" d="M34.3554 21.8756C34.3554 23.2321 33.2484 24.3318 31.8828 24.3318C30.5172 24.3318 29.4102 23.2321 29.4102 21.8756C29.4102 20.5191 30.5172 19.4194 31.8828 19.4194C33.2484 19.4194 34.3554 20.5191 34.3554 21.8756ZM31.8821 20.787C31.8821 21.1416 31.5928 21.429 31.2359 21.429C30.8789 21.429 30.5896 21.1416 30.5896 20.787C30.5896 20.4325 30.8789 20.1451 31.2359 20.1451C31.5928 20.1451 31.8821 20.4325 31.8821 20.787Z" fill="#4D4D4D"/>
<path d="M24.2657 27.5976C24.7434 27.5976 25.5863 27.9326 26.345 28.4629C25.6144 27.6534 24.7434 27.0952 24.2657 27.0952C23.76 27.0952 22.6922 27.7093 21.9336 28.6024C22.7203 27.9884 23.7319 27.5976 24.2657 27.5976Z" fill="#4D4D4D"/>
<path opacity="0.5" fill-rule="evenodd" clip-rule="evenodd" d="M16.9334 13.7256C16.9334 13.7256 13.6741 16.433 12.7187 19.5591C12.2391 21.1287 12.0994 22.8672 11.9868 24.2693C11.8751 25.6596 11.79 26.7192 11.4262 26.9555C10.6843 27.4335 9.87091 25.5378 9.32289 24.2607L9.32289 24.2607C9.10297 23.7482 8.92579 23.3353 8.81314 23.2154C8.53973 22.9191 7.98598 22.4208 7.44121 21.9306L7.44119 21.9306C6.75431 21.3124 6.08171 20.7072 6.00336 20.5359C5.86287 20.2289 10.1618 15.5678 12.0444 14.6467C14.3203 13.5861 17.1301 13.5024 16.9334 13.7256ZM35.2813 19.5591C34.3259 16.433 31.0666 13.7256 31.0666 13.7256C30.8699 13.5024 33.6797 13.5861 35.9556 14.6467C37.8382 15.5678 42.1371 20.2289 41.9966 20.5359C41.9183 20.7071 41.2463 21.3118 40.5599 21.9296L40.5597 21.9298L40.5595 21.93L40.5593 21.9301L40.5591 21.9303L40.5588 21.9305L40.5588 21.9306C40.014 22.4208 39.4603 22.9191 39.1869 23.2154C39.0742 23.3353 38.897 23.7482 38.6771 24.2607C38.1291 25.5378 37.3157 27.4335 36.5738 26.9555C36.21 26.7192 36.1249 25.6596 36.0132 24.2693C35.9006 22.8672 35.7609 21.1287 35.2813 19.5591ZM30.7013 25.5878C29.7377 24.4113 28.3581 23.2917 26.5523 22.7483C26.363 22.1502 25.4689 21.5128 24.2107 21.5128C22.9835 21.5342 22.1028 22.1456 21.8845 22.719C20.0297 23.2507 18.6171 24.3897 17.6359 25.5878C16.3315 27.1686 16.335 27.8592 16.3422 29.2456C16.3428 29.3524 16.3434 29.4633 16.3434 29.5791C16.3434 34.0229 17.5385 34.135 18.7165 34.2456C19.0923 34.2809 19.4664 34.316 19.7994 34.4915C20.9289 35.0525 22.0948 35.0181 23.2824 34.9831H23.2825C23.5719 34.9745 23.8627 34.966 24.1545 34.966H24.1826C24.4574 34.966 24.7294 34.9724 24.9989 34.9787H24.999C26.218 35.0074 27.3873 35.035 28.5378 34.4636C28.8717 34.2943 29.247 34.2679 29.6238 34.2414C30.8009 34.1586 31.9938 34.0747 31.9938 29.6349C31.9951 29.5619 31.9965 29.4907 31.9978 29.4211L31.9979 29.4189L31.9979 29.4173L31.9979 29.4162L31.998 29.4146C32.0265 27.9465 32.0409 27.2112 30.7013 25.5878ZM24.5932 23.7359C24.3703 23.7802 24.211 23.8118 24.211 23.8574C24.2268 23.9201 24.2337 24.018 24.2417 24.1313L24.2417 24.1313L24.2417 24.1314C24.248 24.2199 24.2549 24.3178 24.2672 24.4156C24.2672 24.5356 24.2689 24.6975 24.2708 24.8823V24.8824C24.2777 25.5529 24.2876 26.5235 24.2324 26.8727C25.4695 26.9155 27.3299 28.5459 27.3299 30.584V30.6956C27.3018 28.7139 24.9416 27.0951 24.1829 27.0951C23.4243 27.0951 21.0641 28.7139 21.036 30.6956V30.584C21.036 28.5808 22.8827 26.9284 24.1198 26.8732C24.0425 26.4529 24.0425 25.0317 24.0425 24.4156C24.0425 24.2976 24.0527 24.1491 24.0608 24.0315L24.0608 24.0314L24.0608 24.0313L24.0608 24.0312L24.0609 24.0307C24.0662 23.9539 24.0705 23.8905 24.0705 23.8574C24.0705 23.7862 22.9315 23.4927 22.5917 23.4067C22.8756 23.4765 23.7112 23.6707 23.8739 23.5783C24.0424 23.4667 24.1267 23.1317 24.1267 23.1317C24.1267 23.1317 24.1829 23.4667 24.4077 23.5783C24.6325 23.7179 25.6721 23.3829 25.6721 23.3829C25.3729 23.5811 24.9162 23.6718 24.5932 23.7359ZM22.4971 23.3829C22.4971 23.3829 22.5323 23.3921 22.5917 23.4067L22.4971 23.3829Z" fill="#4D4D4D"/>
<path fill-rule="evenodd" clip-rule="evenodd" d="M18.871 21.8756C18.871 23.2321 17.764 24.3318 16.3984 24.3318C15.0328 24.3318 13.9258 23.2321 13.9258 21.8756C13.9258 20.5191 15.0328 19.4194 16.3984 19.4194C17.764 19.4194 18.871 20.5191 18.871 21.8756ZM17.6908 20.787C17.6908 21.1416 17.4014 21.429 17.0445 21.429C16.6876 21.429 16.3983 21.1416 16.3983 20.787C16.3983 20.4325 16.6876 20.1451 17.0445 20.1451C17.4014 20.1451 17.6908 20.4325 17.6908 20.787Z" fill="#4D4D4D"/>
<path d="M24.7982 23.2307C24.9185 23.1999 24.9688 22.9934 24.9106 22.7695C24.8525 22.5456 24.7079 22.3891 24.5877 22.4199C24.4675 22.4507 24.4172 22.6571 24.4753 22.881C24.5335 23.1049 24.678 23.2615 24.7982 23.2307Z" fill="#4D4D4D"/>
<path d="M23.354 23.2265C23.4726 23.263 23.6246 23.1136 23.6936 22.8928C23.7625 22.672 23.7223 22.4633 23.6038 22.4268C23.4852 22.3902 23.3332 22.5396 23.2642 22.7605C23.1952 22.9813 23.2354 23.19 23.354 23.2265Z" fill="#4D4D4D"/>
<path d="M24.9154 21.9036C24.9154 21.8757 24.2691 22.1828 24.1006 22.2107C23.932 22.1828 23.2857 21.8757 23.2857 21.9036H24.9154Z" fill="#4D4D4D"/>
<path d="M35.906 27.2354L35.8733 27.3742C35.8634 27.3524 35.8535 27.3273 35.8437 27.2991C35.8334 27.3345 35.8228 27.3702 35.8118 27.4061C35.7771 27.6015 35.7023 27.7933 35.6023 27.9825C35.5826 28.027 35.5624 28.0703 35.5416 28.1119C35.7192 27.8383 35.8557 27.5576 35.9014 27.2625C35.9029 27.2535 35.9044 27.2445 35.906 27.2354Z" fill="#4D4D4D"/>
<path d="M34.4639 29.5796C34.2667 29.8752 34.116 30.1714 34.0751 30.4723C34.0199 30.9376 33.8996 31.3633 33.7066 31.7501C33.9615 31.3217 34.1187 30.8404 34.1875 30.3049C34.2205 30.0554 34.3235 29.8152 34.4639 29.5796Z" fill="#4D4D4D"/>
<path d="M24.2127 34.6867H24.2127L24.2127 34.6869L24.2127 34.6867Z" fill="#4D4D4D"/>
<path d="M12.2839 27.4448C12.2791 27.4213 12.2748 27.3978 12.2712 27.3742C12.2712 27.3742 12.2839 27.3896 12.3082 27.418C12.3003 27.3923 12.2926 27.3668 12.2851 27.3414C12.2804 27.353 12.2758 27.364 12.2712 27.3742L12.2386 27.2358C12.2401 27.2447 12.2416 27.2536 12.2431 27.2625C12.2526 27.3238 12.2663 27.3846 12.2839 27.4448Z" fill="#4D4D4D"/>
<path d="M35.6766 16.6284C36.0344 17.2148 36.0961 17.8691 36.1082 18.584L34.8722 15.6081C35.1954 15.923 35.4617 16.2637 35.6766 16.6284Z" fill="#4D4D4D"/>
<path d="M33.8943 14.8443C33.1841 14.3962 32.303 14.0232 31.2257 13.7326L33.8943 14.8443Z" fill="#4D4D4D"/>
<path fill-rule="evenodd" clip-rule="evenodd" d="M31.2116 13.7288C31.3093 13.8512 34.2511 17.5457 34.6932 18.973C34.7645 19.2075 34.8329 19.5571 34.8992 19.9828C34.8322 19.9369 34.7669 19.8892 34.7034 19.8401C34.4433 19.3623 34.1105 19.0349 33.7027 18.7967C33.1337 18.0249 32.8668 17.2983 32.8668 17.2983C32.832 17.7636 32.8863 18.156 32.9994 18.4867C32.7504 18.4041 32.4816 18.3363 32.1925 18.2752C30.8719 17.9682 28.2307 17.717 28.5398 18.6939C28.5464 18.7165 28.5534 18.7405 28.5609 18.7658C28.8379 19.7096 29.6463 22.4642 27.9497 21.5129C27.9497 21.5129 28.1505 21.6279 28.4063 21.9666C29.0462 22.426 30.6039 23.5968 31.5463 24.7506C31.7235 24.9675 31.8741 25.1587 32.0021 25.3269C32.627 25.2526 33.3893 25.0333 34.047 24.4714C34.7456 23.8766 35.0995 23.0079 35.1672 22.1143C35.2121 22.5248 35.2564 22.9469 35.3003 23.3652L35.3004 23.3664L35.3004 23.3669L35.3005 23.367L35.3005 23.3671C35.3866 24.1878 35.4712 24.9944 35.5564 25.6727C35.5576 25.7462 35.5601 25.8293 35.5642 25.9228C35.6175 27.1387 35.4467 27.6871 35.3135 27.9261C34.772 28.4898 33.8753 29.3384 33.0354 29.7466C32.4735 30.0257 32.2768 30.1095 32.2768 29.7466C32.2768 29.3838 32.1925 27.9882 31.8834 26.8997C31.8824 26.896 31.8813 26.8923 31.8802 26.8885L31.8553 26.8997C31.8553 26.8997 30.619 24.5831 29.1017 23.7178C28.9296 23.6214 28.7745 23.5268 28.6348 23.4347C28.6082 23.4199 28.5815 23.405 28.5547 23.3902C27.9833 23.0727 27.3855 22.7407 26.9382 22.3502L26.9248 22.3383C26.1604 21.6603 25.3412 20.9338 24.1846 20.8741L24.1846 20.8709C24.1705 20.8712 24.1565 20.8717 24.1425 20.8722C24.1285 20.8717 24.1144 20.8712 24.1003 20.8709L24.1004 20.8741C22.9344 20.934 22.0582 21.6687 21.2625 22.3502C20.8133 22.7423 20.1994 23.0754 19.6123 23.394L19.6122 23.394C19.3781 23.5211 19.1481 23.6458 18.9346 23.7711C18.9356 23.7685 18.9365 23.7658 18.9375 23.7632C17.4557 24.6612 16.261 26.8997 16.261 26.8997L16.2361 26.8885C16.2351 26.8922 16.234 26.896 16.2329 26.8997C15.9239 27.9882 15.8115 29.3838 15.8115 29.7466C15.8115 29.77 15.8117 29.792 15.8119 29.8126L15.8119 29.8126C15.8151 30.1113 15.8151 30.1122 15.0528 29.7466C14.2987 29.396 13.4987 28.6721 12.9512 28.1156C12.9476 28.1055 12.9455 28.0999 12.9455 28.0999C12.9455 28.0999 12.4746 27.8522 12.5504 25.9637C12.6483 25.2315 12.7452 24.3082 12.8441 23.3664C12.888 22.9477 12.9323 22.5253 12.9773 22.1144C13.0449 23.0079 13.3989 23.8766 14.0975 24.4714C14.7462 25.0256 15.4967 25.2465 16.1167 25.3238C16.2442 25.1563 16.394 24.9662 16.5701 24.7506C17.5448 23.5572 19.1777 22.3457 19.7726 21.9219C20.0117 21.6177 20.1947 21.5129 20.1947 21.5129C18.4982 22.4642 19.3066 19.7096 19.5836 18.7658C19.591 18.7405 19.5981 18.7165 19.6047 18.6939C19.8856 17.717 17.2726 17.9682 15.952 18.2752C15.6004 18.3495 15.2787 18.4317 14.9864 18.5382C15.1117 18.1968 15.1738 17.7879 15.1371 17.2983C15.1371 17.2983 14.8306 18.1329 14.1742 18.9633C13.9447 19.135 13.7433 19.3469 13.5694 19.6145C13.4722 19.7026 13.3702 19.7877 13.2634 19.8685C13.324 19.4944 13.3865 19.1862 13.4513 18.973C13.862 17.647 16.4304 14.364 16.8711 13.8067C18.7123 13.2805 21.1272 13 24.2127 13C27.147 13 29.443 13.2537 31.2116 13.7288ZM15.4821 26.2671C13.482 26.3773 12.8331 24.4435 12.8331 24.4435C12.8331 24.4435 13.2546 25.867 14.0975 26.3415H14.1256C14.5332 26.5082 15.0073 26.4869 15.417 26.4077C15.4306 26.3725 15.4512 26.3265 15.4821 26.2671ZM32.6311 26.261C32.6584 26.3131 32.6779 26.3552 32.6918 26.3888C33.1212 26.4826 33.6366 26.5208 34.0751 26.3415C35.199 25.867 35.3675 24.4435 35.3675 24.4435C35.3675 24.4435 34.6998 26.4336 32.6311 26.261ZM17.9188 17.1587C18.6494 17.0192 19.8576 16.9913 20.8129 17.2983C21.6423 17.5857 21.4389 18.3993 21.3116 18.9082C21.2535 19.1407 21.2113 19.3096 21.2906 19.3358C21.3603 19.3589 21.4365 19.2886 21.5573 19.177C21.8748 18.8838 22.5006 18.306 24.1284 18.3868C25.6479 18.4614 26.2656 18.934 26.6004 19.1901C26.7671 19.3176 26.8636 19.3915 26.9663 19.3358C27.035 19.2986 27.0579 19.14 27.0893 18.9227C27.1991 18.162 27.4129 16.6812 30.0571 17.1587C30.0571 17.1587 26.4886 16.2098 26.6572 18.7776C26.6572 18.7776 24.6064 17.2148 21.7408 18.6098C21.7777 18.5783 22.4682 16.2161 17.9188 17.1587ZM30.3661 17.1587C30.3991 17.1587 30.4223 17.1683 30.4416 17.1763C30.4553 17.1819 30.4669 17.1867 30.4785 17.1867C30.5066 17.1867 30.4504 17.1587 30.3661 17.1587ZM24.2125 19.3645C26.4182 19.434 28.0621 21.15 28.0621 21.15C26.1234 19.8103 24.2127 19.8382 24.2408 19.8382C24.2358 19.8382 24.2304 19.8382 24.2246 19.8382L24.2239 19.8382C23.8988 19.8376 22.2665 19.8349 20.3633 21.15C20.3633 21.15 21.9793 19.434 24.2125 19.3645ZM24.2408 19.3637C24.2314 19.364 24.222 19.3642 24.2125 19.3645L24.2038 19.3642C24.1974 19.3641 24.191 19.3639 24.1846 19.3637H24.2408ZM24.1886 16.3225C25.2964 16.3716 26.1234 17.5216 26.1234 17.5216C25.1399 16.6005 24.2127 16.6284 24.2127 16.6284C24.2127 16.6284 23.2293 16.6005 22.274 17.5216C22.274 17.5216 23.349 16.3716 24.1886 16.3225ZM24.1886 16.3225C24.1779 16.3221 24.1672 16.3217 24.1565 16.3214H24.2127C24.2047 16.3217 24.1966 16.3221 24.1886 16.3225Z" fill="#4D4D4D"/>
<path d="M16.3772 13.9582C15.8146 14.1433 15.3112 14.3538 14.8639 14.5886L16.3772 13.9582Z" fill="#4D4D4D"/>
<path d="M13.1682 15.8586L12.1055 18.4175C12.1611 17.7863 12.2728 17.2028 12.5802 16.6563C12.7435 16.3759 12.9389 16.1098 13.1682 15.8586Z" fill="#4D4D4D"/>
<path d="M13.227 20.1019C13.21 20.2156 13.1931 20.3341 13.1763 20.4567C13.1922 20.4082 13.2089 20.3602 13.2265 20.3127C13.258 20.2276 13.291 20.1462 13.3255 20.0684C13.2918 20.0804 13.259 20.0916 13.227 20.1019Z" fill="#4D4D4D"/>
<path d="M34.924 20.1463C34.8972 20.1388 34.8694 20.1307 34.8407 20.122C34.8674 20.1834 34.8932 20.2469 34.918 20.3127C34.9356 20.3602 34.9523 20.4083 34.9682 20.4568C34.9536 20.35 34.9389 20.2463 34.924 20.1463Z" fill="#4D4D4D"/>
<path d="M24.0407 23.8574C24.0407 23.8574 23.8441 26.5648 23.4507 27.0951L24.1812 26.9277L24.0407 23.8574Z" fill="#4D4D4D"/>
<path d="M24.2374 23.8574C24.2374 23.8574 24.4341 26.5648 24.8275 27.0951L24.0969 26.9277L24.2374 23.8574Z" fill="#4D4D4D"/>
<path d="M24.0688 32.5378C23.0011 32.5378 21.9615 32.2028 21.0062 31.9516C20.8095 31.8958 20.6128 32.0354 20.4161 31.9796C18.646 31.4213 17.213 30.4724 16.342 29.2722V29.5513C16.342 35.4126 18.4212 33.7659 19.798 34.4636C21.2029 35.1614 22.664 34.9381 24.1531 34.9381H24.1812C25.6985 34.9381 27.1315 35.1335 28.5364 34.4357C29.9132 33.738 31.9924 35.4405 31.9924 29.5792C31.9924 29.3559 31.9924 29.1326 32.0205 28.9373C31.2057 30.2491 29.7165 31.2818 27.862 31.8958C27.6935 31.9516 27.3001 31.8121 27.1315 31.84C26.12 32.1749 25.2209 32.5378 24.0688 32.5378Z" fill="#4D4D4D"/>
<path d="M21.3996 29.3838C21.3996 29.3838 20.6971 31.4772 21.1748 32.3982L20.5285 32.1191C20.5285 32.1191 21.0062 29.9979 21.3996 29.3838ZM26.9629 29.3838C26.9629 29.3838 27.6654 31.4772 27.1877 32.3982L27.834 32.1191C27.834 32.1191 27.3282 29.9979 26.9629 29.3838Z" fill="#4D4D4D"/>
<path d="M33.8469 15.4004C33.8469 15.4004 37.6963 20.2848 37.6401 26.3694L39.1855 23.2434C39.1574 23.2434 37.8087 19.2521 33.8469 15.4004Z" fill="#4D4D4D"/>
<path d="M14.1503 15.4004C14.1503 15.4004 10.3009 20.2848 10.3571 26.3694L8.83984 23.2434C8.83984 23.2434 10.1885 19.2521 14.1503 15.4004Z" fill="#4D4D4D"/>
<path d="M21.2591 25.56C21.3832 25.56 21.4838 25.46 21.4838 25.3367C21.4838 25.2134 21.3832 25.1134 21.2591 25.1134C21.1349 25.1134 21.0343 25.2134 21.0343 25.3367C21.0343 25.46 21.1349 25.56 21.2591 25.56Z" fill="#4D4D4D"/>
<path d="M19.9666 26.8997C20.0907 26.8997 20.1914 26.7998 20.1914 26.6765C20.1914 26.5531 20.0907 26.4532 19.9666 26.4532C19.8424 26.4532 19.7418 26.5531 19.7418 26.6765C19.7418 26.7998 19.8424 26.8997 19.9666 26.8997Z" fill="#4D4D4D"/>
<path d="M19.5451 25.56C19.6692 25.56 19.7699 25.46 19.7699 25.3367C19.7699 25.2134 19.6692 25.1134 19.5451 25.1134C19.421 25.1134 19.3203 25.2134 19.3203 25.3367C19.3203 25.46 19.421 25.56 19.5451 25.56Z" fill="#4D4D4D"/>
<path d="M26.7381 25.56C26.8623 25.56 26.9629 25.46 26.9629 25.3367C26.9629 25.2134 26.8623 25.1134 26.7381 25.1134C26.614 25.1134 26.5134 25.2134 26.5134 25.3367C26.5134 25.46 26.614 25.56 26.7381 25.56Z" fill="#4D4D4D"/>
<path d="M28.0306 26.8997C28.1548 26.8997 28.2554 26.7998 28.2554 26.6765C28.2554 26.5531 28.1548 26.4532 28.0306 26.4532C27.9065 26.4532 27.8059 26.5531 27.8059 26.6765C27.8059 26.7998 27.9065 26.8997 28.0306 26.8997Z" fill="#4D4D4D"/>
<path d="M28.4521 25.56C28.5762 25.56 28.6769 25.46 28.6769 25.3367C28.6769 25.2134 28.5762 25.1134 28.4521 25.1134C28.328 25.1134 28.2273 25.2134 28.2273 25.3367C28.2273 25.46 28.328 25.56 28.4521 25.56Z" fill="#4D4D4D"/>
</svg>
