<svg width="48" height="48" viewBox="0 0 48 48" fill="none" xmlns="http://www.w3.org/2000/svg">
<rect width="48" height="48" rx="24" fill="#DFDFDF"/>
<path d="M40.9861 28.5693C40.8785 27.7193 40.3908 27.0601 39.6458 26.5433C39.83 26.6708 39.9858 26.7786 39.6423 26.5407C39.1789 26.22 39.4244 26.39 39.6392 26.5387C37.8023 25.2699 35.4062 25.5519 33.4045 26.2568C32.6022 24.9883 32.5674 24.0203 33.0296 22.6357C33.0895 22.4607 33.0486 22.3636 32.8605 22.2855C32.4038 22.0961 31.746 22.1963 31.2864 22.3144C31.1277 22.3548 31.0122 22.4331 30.9771 22.5882C30.6449 24.1034 29.623 25.4912 28.7323 26.7686C28.1051 25.6028 28.1548 24.7006 28.5767 23.4863C28.6281 23.3385 28.6045 23.2598 28.4518 23.1814C27.9839 22.9466 27.2658 23.0619 26.789 23.1986C26.2405 23.3538 25.4167 25.9858 25.1537 26.5078C24.6038 27.5979 24.1165 29.2993 23.1824 30.1641C22.3896 29.1762 24.6342 26.9443 23.8837 26.0484C23.6299 25.7455 23.1707 25.7533 22.8792 26.0099C22.9491 25.5345 22.9854 25.2219 22.8585 24.8185C22.7244 24.3941 22.3841 24.1506 21.8859 24.1629C20.7261 24.1958 19.7047 25.0263 19.0087 25.8127C18.3463 26.5693 16.5994 27.0394 15.6602 27.4956C14.0468 26.1327 10.5541 24.6865 10.4632 22.3656C10.3647 19.7502 13.5775 17.9753 15.7223 16.9138C18.5119 15.5323 22.8097 13.8134 25.9793 15.3241C26.8203 15.725 27.1587 16.5848 26.9272 17.4083C26.3234 19.5562 23.8851 20.9891 21.7643 21.6463C20.7209 21.9697 19.5749 22.2105 18.4708 22.1479C16.9912 22.064 15.8391 21.1964 15.6812 21.1425C15.5491 21.1182 15.5595 21.2838 15.5943 21.3715C17.1294 25.2736 24.9025 22.4141 26.9353 20.4108C27.9142 19.447 28.5088 18.513 28.7626 17.0425C29.0601 15.3185 27.7549 14.2399 26.7643 13.7952C21.7422 11.5407 14.7994 14.4932 11.0021 17.5031C9.35412 18.8094 7.29265 20.885 8.23869 23.0622C9.26543 25.425 12.4111 26.6366 14.4586 28.0817C12.8019 28.88 10.7292 29.7056 9.6557 31.2025C9.04184 32.0606 8.82406 32.9749 9.28116 33.9504C10.0915 35.6734 13.0378 34.9267 14.281 34.1673C15.4199 33.4717 16.1864 32.5379 16.5175 31.3406C16.8046 30.3025 16.7457 29.2239 16.269 28.2461L18.1114 27.3424C17.6153 28.7847 17.3961 30.5926 18.426 31.8959C18.8386 32.417 19.9095 32.4381 20.3478 31.9153C20.916 31.2314 21.2929 30.3744 21.6692 29.5899C21.6253 30.1758 21.5496 30.8397 21.758 31.3503C21.9971 31.9361 22.5396 32.0559 23.0981 31.6842C24.8074 30.5465 25.8952 27.3934 26.7373 25.5553C26.9663 26.3571 27.219 27.0896 27.6369 27.8288C27.7402 28.0103 27.7276 28.1272 27.5856 28.2785C26.9614 28.9457 25.4699 30.0584 25.3253 30.9597C25.2915 31.1704 25.4357 31.3721 25.6918 31.4203C26.6955 31.6146 27.8083 31.2621 28.6232 30.7279C29.4732 30.1703 29.7477 29.41 29.5414 28.5083C29.2464 27.2101 30.2499 25.7595 31.2043 24.6939C31.3796 25.5006 31.6436 26.2771 32.1159 26.9818C31.2732 27.6994 30.016 28.717 30.1965 29.9154C30.2602 30.3445 30.6564 30.6218 31.132 30.5239C32.1493 30.3162 33.028 29.8919 33.6695 29.1398C34.2511 28.4614 34.0428 27.721 33.7892 26.9751C35.3278 26.5492 36.8843 26.4641 38.4189 26.9734C39.1598 27.2178 39.7566 27.6297 40.1106 28.2746C40.5442 29.0648 40.3001 29.7928 39.4629 30.3123C39.251 30.4438 39.1044 30.5519 39.1761 30.6088C39.2477 30.6657 39.4919 30.7408 40.0323 30.4118C40.5727 30.0826 40.903 29.6378 40.9877 29.0539C41.0046 28.8928 41.0041 28.7303 40.9861 28.5693ZM15.2797 30.1479C15.1922 31.19 14.6587 32.035 13.786 32.7176C13.2951 33.1024 12.6838 33.4161 12.0767 33.4733C11.4697 33.5306 10.9971 33.382 10.9567 32.7714C10.843 31.0531 13.5943 29.3699 15.122 28.8631C15.2522 29.2919 15.316 29.7173 15.2787 30.1498L15.2797 30.1479ZM21.925 25.6196C21.6734 27.0139 20.9692 29.5163 19.8423 30.5156C19.6904 30.6496 19.5451 30.6418 19.4679 30.4674C18.8011 28.9638 19.7045 25.8631 21.6001 25.3845C21.8229 25.3289 21.9612 25.4208 21.925 25.6196ZM26.4568 30.7301C26.9996 30.17 27.5418 29.6104 28.0854 29.0472C28.1527 29.6735 26.9529 30.9199 26.4568 30.7301ZM31.659 29.6241C31.5077 29.7037 31.1678 29.7813 31.1546 29.6763C31.059 28.921 31.9161 28.1217 32.4479 27.7471C32.735 28.4561 32.3952 29.2368 31.659 29.6241Z" fill="#4D4D4D"/>
</svg>
