<svg width="64" height="64" viewBox="0 0 64 64" fill="none" xmlns="http://www.w3.org/2000/svg">
<g clip-path="url(#clip0)">
<path d="M32 0C14.3801 0 1.78521e-05 14.3813 1.78521e-05 32C1.78521e-05 38.1099 1.72689 44.013 5.00402 49.1376L0.131893 61.4344C-0.144607 62.1323 0.0217679 62.9276 0.554643 63.4562C1.08952 63.9867 1.88677 64.1436 2.57989 63.8625L14.8698 58.8768C20.0981 62.2318 25.9995 64 32 64C49.6199 64 64 49.6188 64 32C64 14.3801 49.6189 0 32 0ZM32 60.25C26.432 60.25 20.9476 58.5107 16.1401 55.2202C15.6204 54.8645 14.9579 54.7941 14.3763 55.0301L5.23339 58.7393L8.85064 49.6097C9.08027 49.0303 9.00689 48.3745 8.65477 47.86C5.44614 43.1719 3.75002 37.6876 3.75002 32C3.75002 16.4229 16.423 3.75 32 3.75C47.577 3.75 60.25 16.4229 60.25 32C60.25 47.5771 47.5771 60.25 32 60.25Z" fill="#E15D13"/>
<path d="M47 30.125H17C15.9645 30.125 15.125 30.9645 15.125 32C15.125 41.3049 22.6951 48.875 32 48.875C41.3049 48.875 48.875 41.3049 48.875 32C48.875 30.9645 48.0356 30.125 47 30.125ZM32 45.125C25.3994 45.125 19.9211 40.2259 19.0085 33.8737H44.9914C44.079 40.2259 38.6007 45.125 32 45.125Z" fill="#E15D13"/>
<path d="M20.75 26.375C21.7855 26.375 22.625 25.5355 22.625 24.5V20.75C22.625 19.7161 23.4661 18.875 24.5 18.875C25.5339 18.875 26.375 19.7161 26.375 20.75V24.5C26.375 25.5355 27.2145 26.375 28.25 26.375C29.2855 26.375 30.125 25.5355 30.125 24.5V20.75C30.125 17.6484 27.6016 15.125 24.5 15.125C21.3984 15.125 18.875 17.6484 18.875 20.75V24.5C18.875 25.5355 19.7145 26.375 20.75 26.375Z" fill="#E15D13"/>
<path d="M35.75 26.375C36.7855 26.375 37.625 25.5355 37.625 24.5V20.75C37.625 19.7161 38.4661 18.875 39.5 18.875C40.5339 18.875 41.375 19.7161 41.375 20.75V24.5C41.375 25.5355 42.2145 26.375 43.25 26.375C44.2855 26.375 45.125 25.5355 45.125 24.5V20.75C45.125 17.6484 42.6016 15.125 39.5 15.125C36.3984 15.125 33.875 17.6484 33.875 20.75V24.5C33.875 25.5355 34.7145 26.375 35.75 26.375Z" fill="#E15D13"/>
</g>
<defs>
<clipPath id="clip0">
<rect width="64" height="64" fill="white"/>
</clipPath>
</defs>
</svg>
