<svg width="186" height="32" viewBox="0 0 186 32" fill="none" xmlns="http://www.w3.org/2000/svg">
<g clip-path="url(#clip0)">
<path fill-rule="evenodd" clip-rule="evenodd" d="M15.348 32.0238C23.8417 32.0238 30.7273 25.1449 30.7273 16.6594C30.7273 8.17381 23.8417 1.29271 15.348 1.29492C6.85428 1.29492 -0.03125 8.17381 -0.03125 16.6594C-0.03125 25.1449 6.85428 32.0238 15.348 32.0238ZM12.5054 17.1978H17.1046C18.7613 17.1978 19.7245 15.6861 19.7245 14.2958C19.7245 12.9076 18.8961 11.4754 17.0516 11.4754H12.5054V17.1978ZM12.5054 8.85796H17.3431C19.6958 8.85796 22.5056 10.6919 22.5056 14.1369C22.5056 17.317 20.3386 19.7358 17.1046 19.7358H12.5054V24.5115H9.72417V8.85796H12.5054Z" fill="#151515"/>
<path fill-rule="evenodd" clip-rule="evenodd" d="M49.6527 32.0238C58.1464 32.0238 65.0319 25.1449 65.0319 16.6594C65.0319 8.17381 58.1464 1.29271 49.6527 1.29492C41.159 1.29492 34.2734 8.17381 34.2734 16.6594C34.2734 25.1449 41.159 32.0238 49.6527 32.0238ZM56.9888 12.3294L54.6627 14.0927C54.6627 14.0927 53.1915 11.0494 50.0105 11.045C46.644 11.045 44.6404 13.9294 44.6404 16.6814C44.6404 19.4334 46.7765 22.2649 49.984 22.2649C53.1937 22.2649 54.8527 19.1929 54.8527 19.1929L56.9911 20.8216C56.9911 20.8216 55.0648 24.8558 49.9332 24.8558C45.2523 24.8558 41.8327 21.4086 41.8327 16.6814C41.8327 11.9565 45.1706 8.4563 50.1983 8.4563C55.2238 8.4563 56.9888 12.3294 56.9888 12.3294Z" fill="#151515"/>
<path d="M133.462 17.6348H140.553V15.0152H133.456V11.3518H141.194V8.84473H130.652V24.4762H141.249V21.8919H133.462V17.6348Z" fill="#151515"/>
<path d="M143.441 11.4224H148.226V24.4762H150.987V11.3959H155.691V8.84473H143.441V11.4224Z" fill="#151515"/>
<path d="M168.282 8.85742L160.986 19.7903V8.85742H158.207V24.5087H160.986L168.282 13.5647V24.5087H171.064V8.85742H168.282Z" fill="#151515"/>
<path d="M121.344 11.0489C124.525 11.0489 125.996 14.0944 125.996 14.0944L128.322 12.3311C128.322 12.3311 126.557 8.45801 121.532 8.45801C116.504 8.45801 113.164 11.9582 113.164 16.6831C113.164 21.4103 116.584 24.8575 121.265 24.8575C126.396 24.8575 128.322 20.8233 128.322 20.8233L126.184 19.1946C126.184 19.1946 124.523 22.2644 121.315 22.2644C118.11 22.2644 115.972 19.4329 115.972 16.6831C115.972 13.9333 117.975 11.0489 121.344 11.0489Z" fill="#151515"/>
<path fill-rule="evenodd" clip-rule="evenodd" d="M83.9557 32.024C92.4494 32.024 99.3371 25.1429 99.3371 16.6574C99.3371 8.17187 92.4516 1.29297 83.9557 1.29297C75.4598 1.29297 68.5742 8.17187 68.5742 16.6574C68.5742 25.1451 75.4598 32.024 83.9557 32.024ZM91.1704 8.85822L85.1927 15.0529L91.5172 24.5095H87.9629L83.1339 17.1892L81.0044 19.0938V24.5095H78.2255V8.85822H81.0044V15.2935L87.2935 8.85822H91.1704Z" fill="#151515"/>
<path d="M168.216 30.417H118.469C110.897 30.417 104.736 24.2641 104.736 16.6967C104.736 9.13146 110.897 2.97643 118.469 2.97643H168.216C175.791 2.97643 181.952 9.12925 181.952 16.6967C181.952 24.2641 175.791 30.417 168.216 30.417ZM168.216 1.33008H118.469C109.973 1.33008 103.09 8.21118 103.09 16.6967C103.09 25.1844 109.975 32.0633 118.469 32.0633H168.216C176.712 32.0633 183.598 25.1844 183.598 16.6967C183.598 8.21118 176.712 1.33008 168.216 1.33008Z" fill="#151515"/>
<path d="M183.81 2.19304H183.154V1.45373H183.81C184.15 1.45373 184.287 1.58394 184.287 1.82008C184.287 2.0518 184.15 2.19304 183.81 2.19304ZM184.685 1.81787C184.685 1.35663 184.402 1.0918 183.867 1.0918H182.754V3.54145H183.152V2.53953H183.942L184.296 3.54145H184.707L184.32 2.44684C184.563 2.32766 184.685 2.12021 184.685 1.81787Z" fill="#151515"/>
<path d="M183.649 4.33143C182.529 4.33143 181.668 3.44646 181.668 2.31433C181.668 1.1844 182.527 0.297225 183.649 0.297225C184.767 0.297225 185.631 1.18219 185.631 2.31433C185.631 3.44867 184.767 4.33143 183.649 4.33143ZM183.649 -0.0625C182.328 -0.0625 181.281 0.996808 181.281 2.31433C181.281 3.63184 182.328 4.69116 183.649 4.69116C184.968 4.69116 186.017 3.63184 186.017 2.31433C186.017 0.996808 184.968 -0.0625 183.649 -0.0625Z" fill="#151515"/>
</g>
<defs>
<clipPath id="clip0">
<rect width="186" height="32" fill="white"/>
</clipPath>
</defs>
</svg>
