<svg width="142" height="35" viewBox="0 0 142 35" fill="none" xmlns="http://www.w3.org/2000/svg">
<g clip-path="url(#clip0)">
<path d="M0.417969 34.3963L17.8511 34.3769L17.8422 17.3613C14.2141 24.1482 7.40948 28.5643 0.426918 30.2522C0.446536 31.5377 0.417969 34.3963 0.417969 34.3963Z" fill="#DFDFDF"/>
<path d="M5.99219 25.8299C12.5714 22.5539 15.7438 16.5625 15.7438 16.5625C15.7438 16.5625 15.721 14.5953 15.721 14.5536C12.0957 13.298 8.80938 11.4591 5.99873 8.70605C6.01353 13.3754 5.99219 25.8299 5.99219 25.8299Z" fill="#DFDFDF"/>
<path d="M6.93014 0.0820312C6.93014 0.0820312 6.92841 5.28481 6.92188 6.58245C8.6497 8.16548 9.51844 8.90626 11.3151 10.0383L11.3292 3.06348C9.27578 1.95078 8.4838 1.35931 6.93014 0.0820312Z" fill="#DFDFDF"/>
<path d="M32.7934 5.56426C32.6451 4.6348 32.1129 4.01414 31.2143 3.7196C30.7868 3.57945 30.2929 3.49427 29.7022 3.46C29.3426 3.4393 28.9825 3.46577 28.6346 3.4919C28.5878 3.49597 28.5406 3.49902 28.4938 3.50276V1.46535L30.1717 1.47214L32.0272 1.73343L32.0985 0.078125H26.365L26.5932 2.14403L26.6149 6.76722L26.3516 8.96106L26.6837 8.95801C26.6844 8.95733 27.4695 8.9502 27.8409 8.9597C28.0419 8.96445 28.2429 8.97565 28.4432 8.98516C28.7227 9.00043 29.0087 9.01502 29.2958 9.01502C29.3618 9.01502 29.4283 9.01434 29.4933 9.01264C30.5734 8.9838 31.3967 8.72115 32.0111 8.20942C32.9648 7.41333 32.9142 6.31793 32.7934 5.56426ZM30.9272 6.01795C30.9265 6.21138 30.9131 6.37969 30.8866 6.53307C30.8123 6.95623 30.5889 7.24875 30.2209 7.40111C29.7349 7.60573 29.207 7.66003 28.4869 7.57757V4.93817C29.1405 4.85198 29.7756 4.82924 30.3707 5.12684C30.7462 5.31484 30.9279 5.60633 30.9272 6.01795Z" fill="#DFDFDF"/>
<path d="M38.4912 1.09811L38.2155 0L36.328 0.0234145L36.1101 0.988501L33.8278 6.81771L32.832 8.90907L34.8139 8.93893L35.1587 7.3464L35.633 6.13292L38.4771 6.12749L39.13 7.67488L39.4773 8.91789L42.0367 8.92026L41.1642 7.43938L38.4912 1.09811ZM37.9357 4.78098C37.6373 4.78505 37.333 4.79218 37.0284 4.7993C36.7293 4.80643 36.4298 4.8139 36.1362 4.81729C36.3083 4.39413 36.4911 3.96894 36.6728 3.54646C36.8091 3.22917 36.9451 2.91392 37.0749 2.60139L37.9357 4.78098Z" fill="#DFDFDF"/>
<path d="M56.8194 8.93092L59.4263 8.90445L55.2791 4.27652L59.1667 0.0527344L56.8796 0.0693621L56.1957 1.01375C56.1957 1.01375 54.4417 2.91304 53.4921 3.94905L53.4931 1.649L53.7616 0.0768276H51.3653L51.5109 1.62762L51.5454 7.09407L51.3633 8.91531H53.7547L53.4911 7.10764L53.4921 4.93382L56.8194 8.93092Z" fill="#DFDFDF"/>
<path d="M49.7366 6.27265C49.7314 5.6788 49.7627 1.68747 49.7606 1.68815L49.9723 0.0976562H47.6053L47.7984 1.63487C47.7984 1.63487 47.8043 2.80424 47.8053 3.49718H44.4591C44.4412 2.49273 44.446 1.46249 44.7052 0.460073L44.7974 0.10071H42.3351L42.3761 0.424442C42.3909 0.539479 42.531 1.77163 42.5485 2.34036C42.5843 3.53315 42.574 4.74969 42.5633 5.92686L42.5612 6.18951C42.5571 6.69479 42.4422 8.23336 42.3881 8.50789L42.3203 8.85164H44.6938L44.6567 8.53063C44.6329 8.32533 44.6064 8.12172 44.5803 7.91778C44.5207 7.45865 44.4646 7.02497 44.4385 6.58349C44.4137 6.13929 44.4188 5.68118 44.4261 5.23698C44.4271 5.13111 44.4285 5.02659 44.4295 4.92004H47.8353C47.8353 5.14061 47.8387 5.36152 47.8421 5.58141C47.8566 6.59027 47.87 7.54348 47.6074 8.48889L47.5069 8.85266H49.993L49.9266 8.51095C49.7689 7.69958 49.7424 6.88822 49.7366 6.27265Z" fill="#DFDFDF"/>
<path d="M79.564 13.3004L79.6345 12.9502H74.5605L74.6008 13.279C74.7839 14.7792 74.914 16.1872 74.9973 17.5822C75.0579 18.5836 75.0438 19.6149 75.0293 20.6129C75.0241 20.9675 75.019 21.3217 75.0172 21.6787H65.5255C65.4736 18.9321 65.4471 16.0996 66.1616 13.3221L66.2549 12.957H61.0284L61.0707 13.2882C61.0748 13.3174 61.4669 16.6612 61.5154 18.2487C61.6094 21.3075 61.5822 24.4226 61.556 27.4357L61.5502 28.151C61.5381 29.4636 61.2373 33.4674 61.0962 34.1845L61.0273 34.5337H66.0639L66.026 34.2069C65.9654 33.6856 65.8987 33.1681 65.8319 32.652C65.6839 31.5135 65.5314 30.3353 65.4657 29.1822C65.3989 28.0268 65.4154 26.8411 65.4306 25.6955C65.4364 25.2774 65.4419 24.859 65.4436 24.441H75.0909C75.0857 25.1573 75.0968 25.8774 75.1067 26.5764C75.1439 29.2006 75.1807 31.6788 74.4886 34.1685L74.3853 34.5408H79.6308L79.5626 34.1913C79.1516 32.0697 79.0825 29.9607 79.0687 28.3604C79.0546 26.7651 79.0694 19.699 79.1358 17.7468C79.2012 15.8716 79.3409 14.4172 79.564 13.3004Z" fill="#DFDFDF"/>
<path d="M48.6046 31.9002V24.2521C51.0294 24.3193 55.6525 24.6803 55.7007 24.6834L56.0215 24.7082L56.0349 21.1994L48.6039 21.6147V15.5877C50.8219 15.5612 54.9649 15.5402 57.1209 16.1985L57.4578 16.301L57.5046 15.9569C57.6543 14.8476 57.5504 13.3009 57.5452 13.2354L57.5263 12.9629H44.1133L44.1673 13.3005C44.6154 16.134 44.5876 19.0086 44.5604 21.7875C44.5538 22.4309 44.5469 23.0756 44.5469 23.7227C44.5834 27.8345 44.1284 34.1398 44.1236 34.2023L44.1016 34.5155L57.4361 34.5793L57.4458 34.2932C57.4671 33.5935 57.5297 31.7183 57.5607 31.4461L57.6075 31.0447L57.2055 31.1241C54.5532 31.6565 52.043 31.8846 48.6046 31.9002Z" fill="#DFDFDF"/>
<path d="M37.2102 22.4439C37.2092 22.4432 37.2074 22.4426 37.2057 22.4416C37.2704 22.4039 37.3306 22.3659 37.3899 22.3262C38.5938 21.5172 39.9871 20.3285 40.0697 18.3026C40.185 15.4979 38.6344 13.5206 35.8142 12.8752C33.3787 12.3193 30.8713 12.4072 28.148 13.1439L28.1126 13.1541C26.794 13.5118 26.5685 13.6278 26.6095 13.9356C26.6839 14.5023 26.7974 15.1399 26.9076 15.7575C26.9878 16.2099 27.069 16.666 27.1375 17.1057C27.1626 17.2686 27.2779 17.4006 27.4383 17.4509C27.5966 17.4987 27.7677 17.4559 27.882 17.3372L28.052 17.16C29.3276 15.8339 30.9948 15.2068 33.1223 15.2512C34.4735 15.2764 35.5963 16.1186 35.8541 17.2978C36.2076 18.925 35.6111 20.3363 34.3345 20.8948C33.7235 21.1609 33.0121 21.3648 32.1592 21.5148C31.3328 21.6604 29.6965 21.7669 29.6793 21.7683L29.3888 21.7873L29.511 24.5349L29.805 24.5248C29.8194 24.5244 31.2736 24.4779 32.4903 24.4776H32.4924C33.0417 24.4776 34.8012 24.5964 35.6985 25.1257C36.4922 25.5954 37.0622 26.3603 37.2219 27.1737C37.4639 28.397 37.6752 31.3187 34.4439 32.015C31.6488 32.6164 29.3727 32.011 27.6775 30.2131C27.5326 30.0594 27.3863 29.9057 27.216 29.7282L27.0377 29.5409C26.9303 29.4293 26.7727 29.3906 26.6247 29.4377C26.477 29.4853 26.3731 29.6088 26.3541 29.7608L26.2701 30.4327C26.1886 31.0924 26.1132 31.7141 26.0127 32.3249C25.927 32.8542 26.1066 33.1966 26.616 33.4722C28.5029 34.4882 30.5794 35.0002 32.8039 35.0002C33.2293 35.0002 33.6595 34.9822 34.0953 34.9446C35.8851 34.7912 37.5265 34.1465 38.842 33.0809C40.7595 31.5305 41.6299 29.6475 41.4275 27.4886C41.1969 25.025 39.7789 23.3272 37.2102 22.4439Z" fill="#DFDFDF"/>
<path d="M101.125 25.1261C101.127 24.6676 101.128 24.2115 101.128 23.7589C101.128 23.3367 101.126 22.9129 101.124 22.4884C101.111 19.4319 101.098 16.273 101.651 13.3048L101.716 12.959H96.4886L96.5554 13.3061C96.7313 14.2261 96.8831 15.2047 97.0066 16.2156C97.0441 16.5265 97.0035 16.6829 96.8369 16.8573C95.1762 18.6104 93.5513 20.394 91.9797 22.1192C90.5452 23.6944 89.0631 25.3205 87.5555 26.9215C87.59 25.5709 87.5621 24.2227 87.5356 22.9119C87.4685 19.6057 87.4048 16.482 88.2336 13.3397L88.3306 12.9715H82.9727L83.0911 13.3506C83.5915 14.9563 83.5936 16.536 83.5949 18.2072L83.5998 19.8147C83.6094 22.6234 83.6194 25.5275 83.5919 28.3824C83.5877 28.8123 83.5991 29.2464 83.6104 29.6675C83.6311 30.4551 83.6521 31.2705 83.5691 32.0592C83.5196 32.5346 83.4084 33.0018 83.29 33.4976C83.2363 33.725 83.1823 33.953 83.1334 34.1848L83.0587 34.537H88.2147L88.1603 34.1984C88.0491 33.4983 87.973 32.8003 87.9001 32.1243C87.8577 31.7307 87.8154 31.3391 87.7662 30.9465C87.7462 30.7866 87.8216 30.542 87.9242 30.4327C89.3956 28.8609 90.8463 27.2693 92.2489 25.7294C93.8394 23.9828 95.4836 22.1782 97.1594 20.4028C97.1601 20.5836 97.1601 20.7632 97.1608 20.9393C97.1629 21.7747 97.1653 22.5678 97.156 23.3601C97.1446 24.3161 97.1567 25.2859 97.168 26.2242C97.1849 27.6667 97.2028 29.1588 97.1378 30.6207C97.1013 31.4307 96.9622 32.2234 96.8156 33.0629C96.7492 33.4406 96.6834 33.8183 96.627 34.1984L96.5771 34.5346H101.718L101.65 34.1872C101.104 31.3391 101.115 28.1812 101.125 25.1261Z" fill="#DFDFDF"/>
<path d="M114.323 15.8314C114.323 15.7904 114.327 15.7242 114.334 15.6512L120.937 16.4891L120.514 12.9209H104.006L103.641 16.4877L110.71 15.6478V16.0272C110.71 18.725 110.705 28.7719 110.705 29.2626L110.023 34.5315H115.029L114.403 29.3555C114.402 29.2656 114.339 20.2873 114.323 15.8314Z" fill="#DFDFDF"/>
</g>
<defs>
<clipPath id="clip0">
<rect width="142" height="35" fill="white"/>
</clipPath>
</defs>
</svg>
