<svg width="130" height="40" viewBox="0 0 130 40" fill="none" xmlns="http://www.w3.org/2000/svg">
<path d="M10.4516 20.3002C8.66823 20.3002 7.05156 19.9169 5.60156 19.1502C4.16823 18.3669 3.03489 17.2919 2.20156 15.9252C1.38489 14.5419 0.976562 12.9835 0.976562 11.2502C0.976562 9.51687 1.38489 7.96687 2.20156 6.6002C3.03489 5.21687 4.16823 4.14187 5.60156 3.3752C7.05156 2.59187 8.67656 2.2002 10.4766 2.2002C11.9933 2.2002 13.3599 2.46687 14.5766 3.0002C15.8099 3.53353 16.8433 4.3002 17.6766 5.3002L15.0766 7.7002C13.8933 6.33353 12.4266 5.6502 10.6766 5.6502C9.59323 5.6502 8.62656 5.89187 7.77656 6.3752C6.92656 6.84187 6.25989 7.5002 5.77656 8.3502C5.30989 9.2002 5.07656 10.1669 5.07656 11.2502C5.07656 12.3335 5.30989 13.3002 5.77656 14.1502C6.25989 15.0002 6.92656 15.6669 7.77656 16.1502C8.62656 16.6169 9.59323 16.8502 10.6766 16.8502C12.4266 16.8502 13.8933 16.1585 15.0766 14.7752L17.6766 17.1752C16.8433 18.1919 15.8099 18.9669 14.5766 19.5002C13.3433 20.0335 11.9683 20.3002 10.4516 20.3002ZM25.4639 6.3502C27.5472 6.3502 29.1472 6.8502 30.2639 7.8502C31.3806 8.83353 31.9389 10.3252 31.9389 12.3252V20.0002H28.2889V18.3252C27.5556 19.5752 26.1889 20.2002 24.1889 20.2002C23.1556 20.2002 22.2556 20.0252 21.4889 19.6752C20.7389 19.3252 20.1639 18.8419 19.7639 18.2252C19.3639 17.6085 19.1639 16.9085 19.1639 16.1252C19.1639 14.8752 19.6306 13.8919 20.5639 13.1752C21.5139 12.4585 22.9722 12.1002 24.9389 12.1002H28.0389C28.0389 11.2502 27.7806 10.6002 27.2639 10.1502C26.7472 9.68353 25.9722 9.4502 24.9389 9.4502C24.2222 9.4502 23.5139 9.56687 22.8139 9.8002C22.1306 10.0169 21.5472 10.3169 21.0639 10.7002L19.6639 7.9752C20.3972 7.45853 21.2722 7.05853 22.2889 6.7752C23.3222 6.49187 24.3806 6.3502 25.4639 6.3502ZM25.1639 17.5752C25.8306 17.5752 26.4222 17.4252 26.9389 17.1252C27.4556 16.8085 27.8222 16.3502 28.0389 15.7502V14.3752H25.3639C23.7639 14.3752 22.9639 14.9002 22.9639 15.9502C22.9639 16.4502 23.1556 16.8502 23.5389 17.1502C23.9389 17.4335 24.4806 17.5752 25.1639 17.5752ZM39.1936 8.3252C39.6603 7.6752 40.2853 7.18353 41.0686 6.8502C41.8686 6.51687 42.7853 6.3502 43.8186 6.3502V9.9502C43.3853 9.91687 43.0936 9.9002 42.9436 9.9002C41.8269 9.9002 40.9519 10.2169 40.3186 10.8502C39.6853 11.4669 39.3686 12.4002 39.3686 13.6502V20.0002H35.4686V6.5502H39.1936V8.3252ZM55.2764 19.3502C54.8931 19.6335 54.4181 19.8502 53.8514 20.0002C53.3014 20.1335 52.7181 20.2002 52.1014 20.2002C50.5014 20.2002 49.2597 19.7919 48.3764 18.9752C47.5097 18.1585 47.0764 16.9585 47.0764 15.3752V9.8502H45.0014V6.8502H47.0764V3.5752H50.9764V6.8502H54.3264V9.8502H50.9764V15.3252C50.9764 15.8919 51.1181 16.3335 51.4014 16.6502C51.7014 16.9502 52.1181 17.1002 52.6514 17.1002C53.2681 17.1002 53.7931 16.9335 54.2264 16.6002L55.2764 19.3502ZM62.8907 6.3502C64.974 6.3502 66.574 6.8502 67.6907 7.8502C68.8073 8.83353 69.3657 10.3252 69.3657 12.3252V20.0002H65.7157V18.3252C64.9823 19.5752 63.6157 20.2002 61.6157 20.2002C60.5823 20.2002 59.6823 20.0252 58.9157 19.6752C58.1657 19.3252 57.5907 18.8419 57.1907 18.2252C56.7907 17.6085 56.5907 16.9085 56.5907 16.1252C56.5907 14.8752 57.0573 13.8919 57.9907 13.1752C58.9407 12.4585 60.399 12.1002 62.3657 12.1002H65.4657C65.4657 11.2502 65.2073 10.6002 64.6907 10.1502C64.174 9.68353 63.399 9.4502 62.3657 9.4502C61.649 9.4502 60.9407 9.56687 60.2407 9.8002C59.5573 10.0169 58.974 10.3169 58.4907 10.7002L57.0907 7.9752C57.824 7.45853 58.699 7.05853 59.7157 6.7752C60.749 6.49187 61.8073 6.3502 62.8907 6.3502ZM62.5907 17.5752C63.2573 17.5752 63.849 17.4252 64.3657 17.1252C64.8823 16.8085 65.249 16.3502 65.4657 15.7502V14.3752H62.7907C61.1907 14.3752 60.3907 14.9002 60.3907 15.9502C60.3907 16.4502 60.5823 16.8502 60.9657 17.1502C61.3657 17.4335 61.9073 17.5752 62.5907 17.5752ZM72.8954 6.5502H76.7954V20.0002H72.8954V6.5502ZM74.8454 4.6752C74.1287 4.6752 73.5454 4.46687 73.0954 4.0502C72.6454 3.63353 72.4204 3.11687 72.4204 2.5002C72.4204 1.88353 72.6454 1.36687 73.0954 0.950196C73.5454 0.533529 74.1287 0.325195 74.8454 0.325195C75.562 0.325195 76.1454 0.525196 76.5954 0.925197C77.0454 1.3252 77.2704 1.8252 77.2704 2.4252C77.2704 3.0752 77.0454 3.61687 76.5954 4.0502C76.1454 4.46687 75.562 4.6752 74.8454 4.6752ZM80.4149 1.4502H84.3149V20.0002H80.4149V1.4502Z" fill="#151515"/>
<path d="M93.5 37.2471C100.956 37.2471 107 31.2029 107 23.7471C107 16.2912 100.956 10.2471 93.5 10.2471C86.0442 10.2471 80 16.2912 80 23.7471C80 31.2029 86.0442 37.2471 93.5 37.2471Z" fill="#B8B8B8"/>
<path d="M87.299 30.6772C86.91 30.8068 86.5385 30.7831 86.1843 30.6059C85.8302 30.4288 85.5867 30.141 85.4539 29.7425C85.318 29.3346 85.3418 28.963 85.5252 28.6279C85.7055 28.2832 85.9902 28.0461 86.3791 27.9165C86.7681 27.7868 87.1381 27.8059 87.4891 27.9735C87.8369 28.1317 88.0788 28.4147 88.2147 28.8227C88.3475 29.2211 88.3253 29.5974 88.1482 29.9516C87.971 30.3058 87.688 30.5476 87.299 30.6772ZM90.052 22.2499C90.1944 21.7914 90.4569 21.3929 90.8396 21.0546C91.2317 20.7131 91.7219 20.4444 92.3101 20.2484L92.9929 22.2977C92.7399 22.3609 92.5707 22.4067 92.4853 22.4352C91.8497 22.647 91.4117 22.9932 91.1713 23.4738C90.9277 23.945 90.9245 24.5363 91.1616 25.2478L92.366 28.8625L90.1459 29.6022L87.5949 21.946L89.7153 21.2395L90.052 22.2499ZM101.437 17.334L103.988 24.9902L101.882 25.6919L101.578 24.7812C101.395 25.2112 101.129 25.5843 100.781 25.9005C100.43 26.2072 100.017 26.4396 99.543 26.5976C98.5373 26.9327 97.644 26.9089 96.863 26.5261C96.0819 26.1434 95.5018 25.3828 95.1224 24.2443L93.681 19.9182L95.901 19.1785L97.2334 23.1773C97.6443 24.4107 98.3668 24.8551 99.4009 24.5105C99.9322 24.3335 100.302 24.0205 100.511 23.5714C100.717 23.1129 100.706 22.5422 100.478 21.8591L99.2168 18.0737L101.437 17.334Z" fill="#151515"/>
</svg>
