<svg width="160" height="30" viewBox="0 0 160 30" fill="none" xmlns="http://www.w3.org/2000/svg">
<g clip-path="url(#clip0)">
<path d="M52.1502 16.7985L46.4414 6.92383H51.0701L54.156 12.9412L57.2418 6.92383H61.8705L56.1617 16.7985V24.6673H52.1502V16.7985Z" fill="#151515"/>
<path fill-rule="evenodd" clip-rule="evenodd" d="M66.2702 24.98C69.977 24.98 72.9819 21.975 72.9819 18.2683C72.9819 14.5615 69.977 11.5566 66.2702 11.5566C62.5635 11.5566 59.5586 14.5615 59.5586 18.2683C59.5586 21.975 62.5635 24.98 66.2702 24.98ZM66.27 21.2756C67.9316 21.2756 69.2787 19.9286 69.2787 18.267C69.2787 16.6053 67.9316 15.2582 66.27 15.2582C64.6084 15.2582 63.2613 16.6053 63.2613 18.267C63.2613 19.9286 64.6084 21.2756 66.27 21.2756Z" fill="#151515"/>
<path fill-rule="evenodd" clip-rule="evenodd" d="M88.0989 6.92578H84.2413V12.8949C83.2101 12.0524 81.9285 11.5532 80.5389 11.5532C77.1304 11.5532 74.3672 14.5581 74.3672 18.2649C74.3672 21.9716 77.1304 24.9766 80.5389 24.9766C81.9285 24.9766 83.2101 24.4774 84.2413 23.6349V24.9779H88.0989V6.92578ZM84.2413 17.3739V19.3082C83.8357 20.5387 82.6773 21.4269 81.3101 21.4269C79.6061 21.4269 78.2246 20.0453 78.2246 18.3411C78.2246 16.6368 79.6061 15.2552 81.3101 15.2552C82.6773 15.2552 83.8357 16.1434 84.2413 17.3739Z" fill="#151515"/>
<path fill-rule="evenodd" clip-rule="evenodd" d="M103.185 19.8853C103.31 19.3674 103.376 18.8258 103.376 18.2683C103.376 14.5615 100.44 11.5566 96.8185 11.5566C93.1969 11.5566 90.2617 14.5615 90.2617 18.2683C90.2617 21.975 93.1969 24.98 96.8185 24.98C99.5033 24.98 101.811 23.3292 102.825 20.9654H99.3577C98.7545 21.6322 97.9089 22.0468 96.9729 22.0468C95.6017 22.0468 94.4241 21.1564 93.9193 19.8865H98.9017V19.8853H103.185ZM96.9729 14.9494C95.6577 14.9494 94.5217 15.7681 93.9849 16.9549H99.9609C99.4241 15.7681 98.2881 14.9494 96.9729 14.9494Z" fill="#151515"/>
<path d="M109.082 20.6562H105.07V24.6678H109.082V20.6562Z" fill="#151515"/>
<path fill-rule="evenodd" clip-rule="evenodd" d="M140.098 12.864C140.098 15.157 138.815 17.1465 136.938 18.1367L142.102 24.669H137.166L132.629 18.8067H131.148V24.6697H127.137V18.8067V15.258V10.3206V6.92398H134.192L134.234 6.92383C137.473 6.92383 140.098 9.58337 140.098 12.864ZM133.946 15.258H131.148V10.7837H133.926C135.034 10.7837 135.931 11.7854 135.931 13.021C135.931 14.2491 135.044 15.2461 133.946 15.258Z" fill="#151515"/>
<path fill-rule="evenodd" clip-rule="evenodd" d="M150.742 24.9769C155.855 24.9769 160 20.8322 160 15.7194C160 10.6067 155.855 6.46191 150.742 6.46191C145.629 6.46191 141.484 10.6067 141.484 15.7194C141.484 20.8322 145.629 24.9769 150.742 24.9769ZM150.742 21.1208C153.64 21.1208 155.988 18.7375 155.988 15.7977C155.988 12.8579 153.64 10.4746 150.742 10.4746C147.845 10.4746 145.496 12.8579 145.496 15.7977C145.496 18.7375 147.845 21.1208 150.742 21.1208Z" fill="#151515"/>
<path fill-rule="evenodd" clip-rule="evenodd" d="M3.15929 2.49519C3.15929 1.5474 4.10708 0.599609 5.05486 0.599609L13.9009 19.5554V29.3492H4.73894C4.10708 29.3492 3.15929 28.4014 3.15929 27.7695V18.9235C3.15929 18.2917 2.2115 17.3438 1.57965 17.3438H0V12.9209H1.57965C2.2115 12.9209 3.15929 11.973 3.15929 11.3412V2.49519ZM31.5929 2.49519C31.5929 1.5474 30.6451 0.599609 29.6974 0.599609L20.8513 19.5554V29.3492H30.0133C30.6451 29.3492 31.5929 28.4014 31.5929 27.7695V18.9235C31.5929 18.2917 32.5406 17.3438 33.1726 17.3438H34.7522V12.9209H33.1726C32.5406 12.9209 31.5929 11.973 31.5929 11.3412V2.49519ZM17.2182 12.9209L12.6371 0.599609H22.115L17.2182 12.9209Z" fill="#151515"/>
<path fill-rule="evenodd" clip-rule="evenodd" d="M119.115 19.1128C122.438 19.1128 125.132 16.3843 125.132 13.0183C125.132 9.65241 122.438 6.92383 119.115 6.92383C119.063 6.92383 119.012 6.92448 118.961 6.92579V6.92398H112.172V8.31319V15.258V19.1153V24.6681H116.184V19.1153H118.961V19.1109C119.012 19.1122 119.063 19.1128 119.115 19.1128ZM118.806 15.2576H118.807C120.085 15.2574 121.121 14.2213 121.121 12.9433C121.121 11.6652 120.085 10.6291 118.807 10.6289H118.806H116.184V15.2576H118.806Z" fill="#151515"/>
</g>
<defs>
<clipPath id="clip0">
<rect width="160" height="28.8" fill="white" transform="translate(0 0.599609)"/>
</clipPath>
</defs>
</svg>
