<svg width="141" height="32" viewBox="0 0 141 32" fill="none" xmlns="http://www.w3.org/2000/svg">
<g clip-path="url(#clip0)">
<path fill-rule="evenodd" clip-rule="evenodd" d="M41.4194 8.51433L39.8884 11.3843H36.6368L40.9407 3.1582L41.1529 2.80933C41.3169 2.55002 41.4694 2.28369 41.6102 2.0111C41.8021 1.72433 42.0889 1.34159 42.2797 1.14965C42.4716 0.862876 42.7584 0.672069 43.0452 0.576101C43.332 0.480134 43.7147 0.384166 44.0974 0.384166C44.4802 0.384166 44.8629 0.480134 45.1497 0.576101C45.4365 0.768037 45.7232 0.958843 45.9152 1.14965C46.202 1.34159 46.3928 1.62836 46.5847 2.0111L46.6818 2.15449C46.8636 2.42094 47.0928 2.75626 47.2542 3.15933L51.5581 11.3843H48.4973L46.8715 8.51546H41.4182L41.4194 8.51433ZM44.1934 3.35013L42.8544 5.64546H45.5324L44.1923 3.35013H44.1934ZM52.9931 0.384166H55.6711V8.41949H65.715V0.193359H68.6799V8.03675C68.6799 8.41949 68.5839 8.80223 68.3931 9.18497C68.2011 9.56771 67.9144 9.94933 67.6276 10.2372C67.3408 10.6188 66.9581 10.8108 66.5753 11.0016C66.1926 11.1935 65.8099 11.2895 65.4271 11.2895H56.3407C55.9102 11.2858 55.4858 11.1875 55.0976 11.0016C54.7137 10.8096 54.3321 10.6188 54.0453 10.2372C53.7586 9.85336 53.4707 9.47175 53.2799 9.089C53.0844 8.7042 52.986 8.27747 52.9931 7.84594V0.384166ZM70.3057 3.1582V0.385295H85.8976V3.15933H79.4881V11.3855H76.7141V3.1582H70.3068H70.3057ZM89.9147 0.57723C90.3923 0.481263 90.871 0.385295 91.3486 0.385295H99.5747C100.053 0.385295 100.532 0.481263 100.914 0.673198C101.392 0.864005 101.775 1.15078 102.062 1.43755C102.349 1.82142 102.635 2.20304 102.827 2.58578C103.019 3.06449 103.114 3.4461 103.114 3.92481V8.03788C103.114 8.42062 103.018 8.89933 102.827 9.28094C102.635 9.66481 102.349 10.0464 102.062 10.3332C101.679 10.7171 101.296 10.9079 100.914 11.0987C100.436 11.2906 100.053 11.3855 99.5747 11.3855H91.0618C90.5842 11.3855 90.1055 11.2906 89.7228 11.0987C89.2926 10.9236 88.9024 10.6632 88.5757 10.3332C88.1918 9.95046 88.001 9.56884 87.8102 9.1861C87.6234 8.7306 87.526 8.2434 87.5234 7.7511V3.63691C87.5234 3.1582 87.6182 2.68062 87.8102 2.29788C88.0128 1.88599 88.3071 1.52601 88.6705 1.24562C89.0544 0.958843 89.436 0.766908 89.9147 0.576101V0.57723ZM100.053 8.51659V3.25304H90.2974V8.51433H100.053V8.51659ZM2.68002 19.3237C3.15873 19.1317 3.82824 19.0369 4.40179 19.0369H17.5065V22.2885H0.00195312C0.0979209 21.9058 0.193889 21.619 0.288727 21.3322C0.553061 20.8787 0.874444 20.461 1.24502 20.0892C1.35002 20.0259 1.44824 19.965 1.5476 19.9029C1.89986 19.6816 2.23066 19.4738 2.68002 19.3237ZM0.00195312 26.8803V23.6287H17.6024V26.8803H0.00195312ZM0.241308 28.698C0.19276 28.5298 0.14534 28.3627 0.0979209 28.2193H17.5065V31.5669H4.40179C3.82824 31.5669 3.34953 31.4709 2.77599 31.2801C2.23715 31.1098 1.74596 30.8151 1.34211 30.4198C0.958243 30.1319 0.671469 29.6543 0.384695 29.1756C0.333487 29.0171 0.28568 28.8575 0.241308 28.6969V28.698ZM22.6718 23.7235H34.1495C34.7231 23.7235 35.2978 23.8195 35.9673 24.1063C36.4449 24.2982 36.9236 24.585 37.3063 24.9666C37.689 25.3505 37.9758 25.7321 38.1666 26.2108C38.3586 26.6884 38.4534 27.1671 38.4534 27.7406C38.4534 28.3153 38.2626 28.7929 38.0707 29.2716C37.8064 29.7251 37.485 30.1429 37.1144 30.5147C36.7022 30.8254 36.2523 31.0827 35.7753 31.2801C35.2978 31.4721 34.819 31.5669 34.2455 31.5669H20.0874V28.4101H35.2007V26.8803H23.531C22.9759 26.8865 22.4246 26.7892 21.9052 26.5935C21.4265 26.4016 20.9489 26.2097 20.5661 25.828C20.1823 25.4453 19.8007 25.0626 19.6099 24.585C19.322 24.1063 19.226 23.6276 19.226 23.054C19.226 22.4805 19.322 21.9058 19.6099 21.4282C19.8966 20.9495 20.1834 20.4719 20.661 20.184C21.1397 19.8024 21.6184 19.6105 22.192 19.4196C22.7465 19.2312 23.328 19.134 23.9137 19.1317H37.592V22.1937H22.6718V23.7235ZM40.0803 22.1937V19.0369H57.8716V22.1937H50.6007V31.4709H47.445V22.1937H40.0803ZM62.2715 19.3237C62.7491 19.1317 63.4186 19.0369 63.9932 19.0369H77.0968V22.2885H59.5934C59.6408 22.1451 59.6882 21.978 59.7368 21.8109C59.7842 21.6427 59.8316 21.4756 59.8802 21.3322C60.167 20.8535 60.4537 20.4719 60.8365 20.0892C60.9403 20.0259 61.0397 19.965 61.1379 19.9029C61.4902 19.6816 61.8221 19.4738 62.2715 19.3237ZM59.4974 26.8803V23.6287H77.002V26.8803H59.4963H59.4974ZM59.7368 28.698C59.6882 28.5298 59.6408 28.3627 59.5934 28.2193H77.0008V31.5669H63.8973C63.3237 31.5669 62.845 31.4709 62.2715 31.2801C61.7322 31.11 61.2406 30.8153 60.8365 30.4198C60.4537 30.1319 60.167 29.6543 59.8802 29.1756C59.829 29.0171 59.7812 28.8575 59.7368 28.6969V28.698ZM78.7237 22.1937V19.0369H96.5139V22.1937H89.2452V31.4709H86.0884V22.1937H78.7237ZM98.1408 19.0369H101.679V31.6629H98.1408V19.0369ZM108.184 19.0369H121.192V22.1937H106.654V28.3153H121.288V31.4709H107.61C107.036 31.4709 106.558 31.3761 106.079 31.1842C105.602 30.9867 105.152 30.7295 104.74 30.4187C104.444 30.1974 104.206 29.8609 103.98 29.5426C103.916 29.4514 103.85 29.361 103.784 29.2716C103.497 28.8888 103.401 28.4101 103.401 27.8377V23.6276C103.401 22.0977 103.785 20.9495 104.645 20.184C105.506 19.4196 106.654 19.0369 108.184 19.0369ZM128.175 28.2193L126.454 31.4709V31.3761H122.723L127.601 22.0017C127.709 21.8241 127.82 21.6483 127.935 21.4745C128.092 21.244 128.236 21.005 128.366 20.7587L128.536 20.5306C128.738 20.2563 128.905 20.0293 129.132 19.8024C129.208 19.7516 129.284 19.6929 129.362 19.6342C129.578 19.4716 129.807 19.2977 130.088 19.2277C130.471 19.1329 130.853 19.0358 131.331 19.0358C131.81 19.0358 132.192 19.0358 132.479 19.2277C132.766 19.4196 133.053 19.6116 133.341 19.8972C133.627 20.0892 133.914 20.4719 134.105 20.8535C134.279 21.085 134.417 21.3503 134.562 21.6303C134.658 21.8132 134.756 22.0029 134.87 22.1937L139.749 31.4709H136.305L134.392 28.2193H128.175ZM129.801 25.0626H132.766L131.331 22.3845L129.801 25.0626Z" fill="#151515"/>
</g>
<defs>
<clipPath id="clip0">
<rect width="140" height="31.6129" fill="white" transform="translate(0.00195312 0.193359)"/>
</clipPath>
</defs>
</svg>
