<svg width="197" height="205" viewBox="0 0 197 205" fill="none" xmlns="http://www.w3.org/2000/svg">
<rect x="0.6" y="0.6" width="172.8" height="183.8" stroke="#4D4D4D" stroke-width="1.2" stroke-dasharray="2 2"/>
<circle cx="88.5" cy="92.5" r="36" stroke="#4D4D4D" stroke-dasharray="2 2"/>
<line x1="12" y1="12.4" x2="29" y2="12.4" stroke="#4D4D4D" stroke-width="1.2" stroke-dasharray="2 2"/>
<path d="M97.3 90.8335L99.1 91.8727L98.85 92.3057L99 92.3923L98.85 92.4789L99.1 92.9119L97.3 93.9512L97.05 93.5181L95.25 94.5574L95.5 94.9904L93.7 96.0296L93.45 95.5966L91.65 96.6358L91.9 97.0688L90.1 98.1081L89.85 97.6751L88.05 98.7143L88.3 99.1473L86.5 100.187L86.25 99.7535L84.45 100.793L84.7 101.226L82.9 102.265L82.65 101.832L82.5 101.919V101.745H82V99.6669H82.5L82.5 97.5885H82V95.51H82.5L82.5 93.4315H82V91.3531H82.5L82.5 89.2746H82V87.1962H82.5L82.5 85.1177H82V83.0392H82.5V82.866L82.65 82.9526L82.9 82.5196L84.7 83.5588L84.45 83.9919L86.25 85.0311L86.5 84.5981L88.3 85.6373L88.05 86.0703L89.85 87.1096L90.1 86.6765L91.9 87.7158L91.65 88.1488L93.45 89.188L93.7 88.755L95.5 89.7942L95.25 90.2272L97.05 91.2665L97.3 90.8335Z" stroke="#4D4D4D" stroke-dasharray="2 2"/>
<path d="M155.257 196.781L155.405 197.009L156.028 197.974L155.608 198.246L156.854 200.175L157.274 199.904L158.52 201.834L158.1 202.105L159.347 204.035L159.767 203.764L159.997 204.121L160.28 203.738L160.682 204.035L162.106 202.105L161.704 201.808L163.128 199.879L163.53 200.175L164.955 198.246L164.552 197.949L165.264 196.984L165.414 196.781H165.667H166.646V197.281H168.604V196.781H170.562V197.281H172.521V196.781H174.479V197.281H176.438V196.781H178.396V197.281H180.354V196.781H182.313V197.281H184.271V196.781H186.229V197.281H188.188V196.781H190.146V197.281H192.104V196.781H194.062V197.281H196.021V196.781H196.5V196.272H197V194.254H196.5V192.237H197V190.219H196.5V188.202H197V186.184H196.5V184.167H197V182.149H196.5V180.132H197V178.114H196.5V176.096H197V174.079H196.5V172.061H197V170.044H196.5V168.026H197V166.009H196.5V165.5H196.021V165H194.062V165.5H192.104V165H190.146V165.5H188.188V165H186.229V165.5H184.271V165H182.313V165.5H180.354V165H178.396V165.5H176.438V165H174.479V165.5H172.521V165H170.562V165.5H168.604V165H166.646V165.5H164.688V165H162.729V165.5H160.771V165H158.812V165.5H156.854V165H154.896V165.5H152.938V165H150.979V165.5H150.5V166.009H150V168.026H150.5V170.044H150V172.061H150.5V174.079H150V176.096H150.5V178.114H150V180.132H150.5V182.149H150V184.167H150.5V186.184H150V188.202H150.5V190.219H150V192.237H150.5V194.254H150V196.272H150.5V196.781H151.246V197.281H153.739V196.781H154.985H155.257Z" fill="white" stroke="#4D4D4D" stroke-dasharray="2 2"/>
<line x1="173" y1="172.4" x2="190" y2="172.4" stroke="#4D4D4D" stroke-width="1.2" stroke-dasharray="2 2"/>
</svg>
