<svg width="198" height="208" viewBox="0 0 198 208" fill="none" xmlns="http://www.w3.org/2000/svg">
<rect x="0.6" y="0.6" width="172.8" height="183.8" stroke="#4D4D4D" stroke-width="1.2" stroke-dasharray="2 2"/>
<rect x="46.5" y="68.5" width="64" height="47" fill="white" stroke="#4D4D4D" stroke-dasharray="2 2"/>
<path d="M113.5 93.9166L111.833 92.9598L112.082 92.5262L112.004 92.4814L112.082 92.4366L111.833 92.003L113.5 91.0462L113.749 91.4799L115.416 90.5231L115.167 90.0894L116.833 89.1326L117.082 89.5663L118.749 88.6095L118.5 88.1759L120.167 87.2191L120.416 87.6527L122.082 86.6959L121.833 86.2623L123.5 85.3055L123.749 85.7391L125.416 84.7823L125.167 84.3487L126.833 83.3919L127.082 83.8255L128.749 82.8687L128.5 82.4351L130.167 81.4783L130.416 81.912L130.5 81.8635L130.5 81.9567L131 81.9567L131 83.8703L130.5 83.8703L130.5 85.7839L131 85.7839L131 87.6975L130.5 87.6975L130.5 89.611L131 89.611L131 91.5246L130.5 91.5246L130.5 93.4382L131 93.4382L131 95.3518L130.5 95.3518L130.5 97.2654L131 97.2654L131 99.1789L130.5 99.1789L130.5 101.093L131 101.093L131 103.006L130.5 103.006L130.5 103.099L130.416 103.051L130.167 103.484L128.5 102.528L128.749 102.094L127.082 101.137L126.833 101.571L125.167 100.614L125.416 100.18L123.749 99.2237L123.5 99.6573L121.833 98.7005L122.082 98.2669L120.416 97.3101L120.167 97.7438L118.5 96.787L118.749 96.3533L117.082 95.3965L116.833 95.8302L115.167 94.8734L115.416 94.4398L113.749 93.483L113.5 93.9166Z" stroke="#4D4D4D" stroke-dasharray="2 2"/>
<line x1="53" y1="74.4" x2="77" y2="74.4" stroke="#4D4D4D" stroke-width="1.2" stroke-dasharray="2 2"/>
<circle cx="174.5" cy="184.5" r="23" fill="white" stroke="#4D4D4D" stroke-dasharray="2 2"/>
<mask id="path-6-inside-1" fill="white">
<path d="M195 184.5C195 181.557 194.366 178.648 193.142 175.972C191.918 173.296 190.131 170.914 187.904 168.99C185.678 167.065 183.063 165.643 180.237 164.819C177.412 163.996 174.442 163.79 171.53 164.216C168.618 164.643 165.832 165.691 163.361 167.29C160.89 168.89 158.793 171.002 157.211 173.484C155.63 175.966 154.601 178.76 154.196 181.675C153.79 184.59 154.017 187.558 154.861 190.378L155.839 190.085C155.037 187.406 154.822 184.585 155.207 181.816C155.593 179.046 156.57 176.391 158.073 174.033C159.575 171.675 161.568 169.667 163.916 168.148C166.264 166.628 168.911 165.632 171.678 165.227C174.445 164.822 177.267 165.017 179.951 165.8C182.636 166.582 185.121 167.934 187.237 169.763C189.352 171.591 191.05 173.854 192.213 176.397C193.376 178.94 193.979 181.704 193.979 184.5H195Z"/>
</mask>
<path d="M195 184.5C195 181.557 194.366 178.648 193.142 175.972C191.918 173.296 190.131 170.914 187.904 168.99C185.678 167.065 183.063 165.643 180.237 164.819C177.412 163.996 174.442 163.79 171.53 164.216C168.618 164.643 165.832 165.691 163.361 167.29C160.89 168.89 158.793 171.002 157.211 173.484C155.63 175.966 154.601 178.76 154.196 181.675C153.79 184.59 154.017 187.558 154.861 190.378L155.839 190.085C155.037 187.406 154.822 184.585 155.207 181.816C155.593 179.046 156.57 176.391 158.073 174.033C159.575 171.675 161.568 169.667 163.916 168.148C166.264 166.628 168.911 165.632 171.678 165.227C174.445 164.822 177.267 165.017 179.951 165.8C182.636 166.582 185.121 167.934 187.237 169.763C189.352 171.591 191.05 173.854 192.213 176.397C193.376 178.94 193.979 181.704 193.979 184.5H195Z" fill="white" stroke="#4D4D4D" stroke-width="2" stroke-dasharray="2 2" mask="url(#path-6-inside-1)"/>
<path d="M168.032 190.153C166.774 190.153 165.76 189.802 164.989 189.099C164.23 188.396 163.827 187.501 163.782 186.413H165.142C165.21 187.184 165.488 187.801 165.975 188.266C166.462 188.731 167.159 188.963 168.066 188.963C168.995 188.963 169.687 188.759 170.14 188.351C170.605 187.932 170.837 187.354 170.837 186.617C170.837 185.042 169.981 184.254 168.27 184.254H167.352V183.013H168.202C169.721 183.013 170.48 182.322 170.48 180.939C170.48 180.338 170.293 179.851 169.919 179.477C169.545 179.092 168.995 178.899 168.27 178.899C167.522 178.899 166.904 179.109 166.417 179.528C165.941 179.947 165.663 180.503 165.584 181.194H164.292C164.337 180.219 164.728 179.392 165.465 178.712C166.202 178.032 167.137 177.692 168.27 177.692C169.381 177.692 170.265 178.009 170.922 178.644C171.591 179.267 171.925 180.021 171.925 180.905C171.925 182.14 171.285 183.024 170.004 183.557C171.568 183.988 172.35 185.008 172.35 186.617C172.35 187.716 171.948 188.583 171.143 189.218C170.35 189.841 169.313 190.153 168.032 190.153ZM179.596 188.929C181.738 188.929 182.809 187.359 182.809 184.22V183.54C182.809 182.123 182.52 180.996 181.942 180.157C181.364 179.307 180.57 178.882 179.562 178.882C178.53 178.882 177.726 179.29 177.148 180.106C176.57 180.922 176.281 182.078 176.281 183.574V184.254C176.281 185.761 176.575 186.917 177.165 187.722C177.754 188.527 178.564 188.929 179.596 188.929ZM179.596 190.153C178.145 190.153 176.978 189.615 176.094 188.538C175.21 187.461 174.768 186.039 174.768 184.271V183.591C174.768 181.789 175.193 180.355 176.043 179.29C176.904 178.225 178.077 177.692 179.562 177.692C181.035 177.692 182.191 178.23 183.03 179.307C183.88 180.384 184.305 181.8 184.305 183.557V184.237C184.305 186.028 183.885 187.461 183.047 188.538C182.219 189.615 181.069 190.153 179.596 190.153Z" fill="#151515"/>
</svg>
