<svg width="48" height="48" viewBox="0 0 48 48" fill="none" xmlns="http://www.w3.org/2000/svg">
<rect width="48" height="48" rx="24" fill="#DFDFDF"/>
<path d="M39.4014 22.5732L25.4268 8.59857C25.0376 8.21501 24.5131 8 23.9667 8C23.4202 8 22.8957 8.21501 22.5065 8.59857L19.6129 11.5055L23.2933 15.1858C23.7271 15.0369 24.1942 15.0132 24.6409 15.1175C25.0875 15.2218 25.4958 15.4499 25.8187 15.7757C26.1417 16.1014 26.3663 16.5116 26.4668 16.9592C26.5673 17.4068 26.5396 17.8736 26.3869 18.3061L29.9339 21.8531C30.3493 21.7017 30.798 21.6653 31.2324 21.7479C31.6668 21.8305 32.0708 22.0289 32.4017 22.3222C32.7326 22.6155 32.9781 22.9927 33.1122 23.4141C33.2463 23.8354 33.2641 24.2852 33.1636 24.7158C33.0631 25.1464 32.8482 25.5419 32.5414 25.8604C32.2347 26.1788 31.8475 26.4085 31.421 26.5251C30.9945 26.6416 30.5444 26.6408 30.1183 26.5226C29.6922 26.4043 29.306 26.1732 29.0005 25.8535C28.66 25.5102 28.4279 25.0743 28.3331 24.6002C28.2382 24.126 28.2848 23.6345 28.4671 23.1866L25.1601 19.9996V28.6938C25.3955 28.8166 25.6112 28.9739 25.8002 29.1605C26.1767 29.5339 26.4229 30.0188 26.5022 30.5431C26.5815 31.0675 26.4897 31.6035 26.2405 32.0716C25.9912 32.5397 25.5977 32.915 25.1184 33.1418C24.639 33.3687 24.0993 33.4351 23.5793 33.331C23.0592 33.227 22.5866 32.9582 22.2313 32.5644C21.8761 32.1706 21.6572 31.6729 21.6072 31.1449C21.5571 30.6169 21.6785 30.0869 21.9534 29.6334C22.2283 29.1799 22.642 28.827 23.1333 28.6271V19.7729C22.8318 19.6532 22.5575 19.4742 22.3264 19.2466C22.0953 19.0189 21.9122 18.7473 21.7879 18.4477C21.6636 18.1481 21.6006 17.8267 21.6026 17.5023C21.6047 17.178 21.6717 16.8573 21.7998 16.5593L18.1861 12.9323L8.59857 22.5065C8.21501 22.8957 8 23.4202 8 23.9667C8 24.5131 8.21501 25.0376 8.59857 25.4268L22.5732 39.4014C22.9624 39.785 23.4869 40 24.0333 40C24.5798 40 25.1043 39.785 25.4935 39.4014L39.4014 25.4935C39.785 25.1043 40 24.5798 40 24.0333C40 23.4869 39.785 22.9624 39.4014 22.5732Z" fill="#4D4D4D"/>
</svg>
