<svg width="48" height="48" viewBox="0 0 48 48" fill="none" xmlns="http://www.w3.org/2000/svg">
<rect width="48" height="48" rx="24" fill="#DFDFDF"/>
<path fill-rule="evenodd" clip-rule="evenodd" d="M36 12H12V36H36V12ZM34 30.4004C34 32.4698 32.0135 33.4578 29.957 33.4578C27.7186 33.4578 26.0398 32.2695 25.7321 30.3203L27.7186 30.0399C27.9984 31.1481 28.9637 31.7622 30.0829 31.7622C31.0202 31.7622 31.9995 31.335 31.9995 30.5339C31.9995 30.1467 31.8036 29.7996 31.0202 29.5726L28.4041 28.8383C27.6207 28.6247 26.1238 28.1574 26.1238 26.3284C26.1238 24.3925 27.8165 23.4446 29.887 23.4579C31.9715 23.4846 33.4264 24.4726 33.9161 26.275L31.8596 26.6087C31.6357 25.6742 30.7684 25.1802 29.859 25.1535C28.9637 25.1268 28.1243 25.554 28.1243 26.2349C28.1243 26.8624 28.8238 27.1027 29.4673 27.2629L31.216 27.7169C32.2513 27.9839 34 28.4645 34 30.4004ZM23.7218 32.1093C23.1482 33.0572 22.1969 33.4578 21.0917 33.4578C19.4829 33.4578 18.4337 32.6167 18 31.2816L19.8746 30.8543C19.9586 31.3483 20.4902 31.7622 21.0078 31.7622C21.3575 31.7622 21.8332 31.5886 22.0151 31.1748C22.127 30.9211 22.127 30.5473 22.127 30.0533V23.6448H24.0576V30.0533C24.0576 30.1606 24.0583 30.2621 24.059 30.3587C24.0645 31.0915 24.0679 31.5431 23.7218 32.1093Z" fill="#4D4D4D"/>
</svg>
