<svg width="48" height="48" viewBox="0 0 48 48" fill="none" xmlns="http://www.w3.org/2000/svg">
<rect width="48" height="48" rx="24" fill="#DFDFDF"/>
<path d="M13.4058 28.346C13.4288 28.398 13.4548 28.446 13.4828 28.494C13.4958 28.522 13.5138 28.551 13.5298 28.577C13.5558 28.629 13.5838 28.679 13.6108 28.729L13.7678 28.993C13.7968 29.042 13.8248 29.09 13.8578 29.138C13.9128 29.232 13.9778 29.324 14.0348 29.418C14.0608 29.457 14.0848 29.496 14.1138 29.535C14.2238 29.706 14.3238 29.848 14.4308 29.986C14.5068 30.089 14.5828 30.19 14.6648 30.291C14.6918 30.329 14.7218 30.367 14.7498 30.405L14.9708 30.673C14.9978 30.704 15.0248 30.74 15.0538 30.772C15.1518 30.89 15.2558 31.004 15.3598 31.12C15.3598 31.122 15.3628 31.124 15.3648 31.127C15.4938 31.289 15.6328 31.433 15.7848 31.561L15.7888 31.565C15.8688 31.647 15.9488 31.728 16.0338 31.808L16.1348 31.905C16.2458 32.009 16.3568 32.112 16.4738 32.212C16.4758 32.212 16.4768 32.214 16.4788 32.215L16.5358 32.265C16.6378 32.354 16.7408 32.442 16.8458 32.524L16.9708 32.629C17.0558 32.697 17.1438 32.761 17.2308 32.828L17.3668 32.932C17.4598 33.002 17.5588 33.07 17.6538 33.138C17.6888 33.163 17.7238 33.188 17.7598 33.211L17.7888 33.234L18.0698 33.418L18.1898 33.498C18.3368 33.592 18.4828 33.68 18.6288 33.768C18.6708 33.789 18.7128 33.812 18.7518 33.836C18.8598 33.898 18.9718 33.961 19.0808 34.018C19.1408 34.052 19.2028 34.081 19.2648 34.112C19.3398 34.154 19.4178 34.195 19.4978 34.237C19.5198 34.244 19.5378 34.251 19.5558 34.261L19.5598 34.257C19.5928 34.272 19.6238 34.288 19.6558 34.304C19.7758 34.364 19.9008 34.421 20.0308 34.477C20.0548 34.487 20.0808 34.497 20.1068 34.511C20.2508 34.574 20.3948 34.634 20.5438 34.692C20.5778 34.702 20.6138 34.719 20.6488 34.732C20.7838 34.783 20.9228 34.835 21.0608 34.884L21.1108 34.902C21.2638 34.954 21.4148 35.004 21.5708 35.051C21.6068 35.061 21.6438 35.074 21.6818 35.084C21.8408 35.132 21.9948 35.189 22.1558 35.219C32.4288 37.082 35.4138 29.073 35.4138 29.073C32.9058 32.323 28.4548 33.18 24.2398 32.226C24.0838 32.19 23.9278 32.14 23.7698 32.094C23.4838 32.011 23.2938 31.951 23.1068 31.885L23.2018 31.914L23.1398 31.89C23.0038 31.844 22.8728 31.793 22.7398 31.742C22.7148 31.731 22.6778 31.717 22.6408 31.704L22.6298 31.701C22.4828 31.642 22.3398 31.582 22.1978 31.519C22.1668 31.509 22.1408 31.495 22.1098 31.483C21.8478 31.367 21.7288 31.311 21.6098 31.253L21.7478 31.314C21.7108 31.298 21.6778 31.281 21.6418 31.262C21.5478 31.218 21.4538 31.168 21.3618 31.121C21.2758 31.08 21.2148 31.048 21.1548 31.015L21.1748 31.025C21.0618 30.965 20.9488 30.9 20.8348 30.839C20.8008 30.815 20.7618 30.795 20.7228 30.773C20.5068 30.647 20.3638 30.558 20.2208 30.467L20.2838 30.505C20.2358 30.475 20.1968 30.449 20.1598 30.422L20.1658 30.426C20.0428 30.35 19.9448 30.285 19.8498 30.218C19.8158 30.196 19.7848 30.172 19.7498 30.148C19.6218 30.06 19.5258 29.991 19.4318 29.92L19.4558 29.937C19.4138 29.903 19.3688 29.871 19.3238 29.838C19.2358 29.769 19.1468 29.703 19.0588 29.631L18.9408 29.537C18.8138 29.435 18.7078 29.346 18.6038 29.255C18.5938 29.245 18.5828 29.236 18.5708 29.228L18.5698 29.227L18.2228 28.912L18.1228 28.818C18.0408 28.735 17.9568 28.656 17.8728 28.574L17.7758 28.474C17.6718 28.371 17.5718 28.267 17.4728 28.159L17.4668 28.152L17.4498 28.138C17.3438 28.022 17.2408 27.905 17.1368 27.785C17.1098 27.754 17.0848 27.721 17.0568 27.688L16.8298 27.413C16.7508 27.315 16.6398 27.17 16.5298 27.022L16.4898 26.966C14.1518 23.79 13.3058 19.407 15.1768 15.811L13.5248 17.9C11.3998 20.939 11.6628 24.891 13.2878 28.118C13.3248 28.197 13.3658 28.271 13.4058 28.346Z" fill="#4D4D4D"/>
<path d="M20.5628 23.968C20.5588 23.963 20.5558 23.957 20.5518 23.952C20.5488 23.948 20.5458 23.944 20.5428 23.94L20.5628 23.968Z" fill="#4D4D4D"/>
<path d="M21.6808 25.28L21.7708 25.37C21.8848 25.48 22.0018 25.587 22.1208 25.694L22.1358 25.707C22.2558 25.813 22.3908 25.924 22.5298 26.032L22.5508 26.048C22.5848 26.071 22.6138 26.098 22.6468 26.121C22.7868 26.229 22.9278 26.332 23.0748 26.435L23.0898 26.444C23.1518 26.489 23.2178 26.53 23.2878 26.574C23.3158 26.592 23.3478 26.616 23.3778 26.634C23.4838 26.702 23.5878 26.765 23.6948 26.83C23.7118 26.837 23.7268 26.846 23.7428 26.853C23.8328 26.908 23.9308 26.961 24.0248 27.009C24.0578 27.029 24.0898 27.044 24.1238 27.063C24.1908 27.096 24.2568 27.131 24.3208 27.165L24.3528 27.179C24.4878 27.245 24.6258 27.307 24.7608 27.368C24.7948 27.381 24.8238 27.392 24.8528 27.406C24.9638 27.454 25.0768 27.5 25.1878 27.542C25.2378 27.559 25.2848 27.579 25.3318 27.594C25.4338 27.632 25.5408 27.667 25.6418 27.702L25.7818 27.747C25.9278 27.792 26.0758 27.851 26.2308 27.875C34.1638 29.181 35.9998 23.104 35.9998 23.104C34.3468 25.471 31.1478 26.599 27.7388 25.718C27.5318 25.665 27.3818 25.621 27.2328 25.573L27.2898 25.589C27.2418 25.576 27.1998 25.561 27.1538 25.547C27.0498 25.511 26.9428 25.476 26.8418 25.439L26.6978 25.385C26.5858 25.34 26.4718 25.298 26.3628 25.25C26.3288 25.235 26.2978 25.225 26.2718 25.21C26.1318 25.147 25.9908 25.085 25.8538 25.019L25.6478 24.912L25.5288 24.852C25.4368 24.804 25.3518 24.754 25.2638 24.703C25.2388 24.691 25.2188 24.68 25.1988 24.667L25.2018 24.668C25.0958 24.602 24.9858 24.538 24.8838 24.471C24.8498 24.452 24.8188 24.429 24.7868 24.409L24.5788 24.274C24.4348 24.174 24.2938 24.067 24.1508 23.963C24.1188 23.934 24.0878 23.91 24.0568 23.884C22.5578 22.711 21.3758 21.108 20.8148 19.293C20.2238 17.406 20.3538 15.29 21.3748 13.573L20.1198 15.341C18.5788 17.542 18.6658 20.484 19.8658 22.812C20.0848 23.242 20.3068 23.606 20.5518 23.952C20.7798 24.278 21.0318 24.659 21.3358 24.921C21.4438 25.044 21.5598 25.161 21.6808 25.28Z" fill="#4D4D4D"/>
<path d="M14.4358 29.992L14.4318 29.986L14.4248 29.977L14.4358 29.992Z" fill="#4D4D4D"/>
<path d="M18.5938 29.248L18.6038 29.255L18.6058 29.258L18.5938 29.248Z" fill="#4D4D4D"/>
<path d="M25.6658 13.427C24.7568 14.754 24.6698 16.402 25.2958 17.865C25.9608 19.419 27.3198 20.639 28.9038 21.217C28.9688 21.242 29.0318 21.263 29.0988 21.287L29.1868 21.314C29.2788 21.343 29.3718 21.377 29.4668 21.398C33.8478 22.239 35.0338 19.16 35.3528 18.707C34.3098 20.197 32.5608 20.555 30.4148 20.036C30.2048 19.984 30.0318 19.929 29.8648 19.866L29.8978 19.877C29.6448 19.788 29.4408 19.703 29.2418 19.607L29.2798 19.624C28.8698 19.424 28.5178 19.208 28.1908 18.96C26.2728 17.51 25.0868 14.749 26.3388 12.5L25.6658 13.427Z" fill="#4D4D4D"/>
</svg>
