<svg width="48" height="48" viewBox="0 0 48 48" fill="none" xmlns="http://www.w3.org/2000/svg">
<rect width="48" height="48" rx="24" fill="#DFDFDF"/>
<path fill-rule="evenodd" clip-rule="evenodd" d="M20 13C20 12.4477 20.4477 12 21 12H25C25.5523 12 26 12.4477 26 13C26 13.5523 26.4477 14 27 14H30C30.5523 14 31 13.5523 31 13C31 12.4477 31.4477 12 32 12H36C36.5523 12 37 12.4477 37 13C37 13.5523 37.4477 14 38 14C38.5523 14 39 14.4477 39 15V22C39 22.5523 38.5523 23 38 23H19C18.4477 23 18 22.5523 18 22V15C18 14.4477 18.4477 14 19 14C19.5523 14 20 13.5523 20 13Z" fill="#4D4D4D"/>
<path opacity="0.5" fill-rule="evenodd" clip-rule="evenodd" d="M11 26C11 25.4477 11.4477 25 12 25H16C16.5523 25 17 25.4477 17 26C17 26.5523 17.4477 27 18 27H21C21.5523 27 22 26.5523 22 26C22 25.4477 22.4477 25 23 25H27C27.5523 25 28 25.4477 28 26C28 26.5523 28.4477 27 29 27C29.5523 27 30 27.4477 30 28V35C30 35.5523 29.5523 36 29 36H10C9.44772 36 9 35.5523 9 35V28C9 27.4477 9.44772 27 10 27C10.5523 27 11 26.5523 11 26Z" fill="#4D4D4D"/>
</svg>
