<svg width="48" height="48" viewBox="0 0 48 48" fill="none" xmlns="http://www.w3.org/2000/svg">
<g clip-path="url(#clip0)">
<rect width="48" height="48" rx="24" fill="#DFDFDF"/>
<path d="M-11.6019 38.6003C-13.6287 39.5615 -18.9931 43.8888 -20.0263 45.1708C-21.0993 46.4529 -21.4171 44.4497 -20.3045 41.1243C-19.4305 38.44 -17.2049 34.7939 -13.4697 31.6689C-11.2843 29.866 -6.47588 27.2619 -3.53548 25.7392C-2.93929 25.4186 4.76971 22.1333 11.6443 20.4907C12.2405 20.3303 10.9291 21.4923 10.7303 22.1333C9.69711 25.1782 -10.9267 38.2395 -10.9267 38.2395L-11.6019 38.6003ZM17.4459 75.34C17.8035 77.5035 17.4857 77.6638 15.2605 77.9443C13.0351 78.2248 11.4059 77.3833 10.8099 76.8225C10.2137 76.2613 10.0947 75.0195 10.6907 73.8978C11.0485 73.1765 11.4061 72.9361 11.6049 72.0547C11.8035 71.2134 11.9625 71.013 12.1213 70.6925C12.2801 70.4118 12.3201 70.1313 12.3597 68.1683C12.3995 66.2052 12.3597 62.519 12.5585 60.9566C12.7573 59.3541 19.6319 61.6777 19.6319 61.6777C19.6319 61.6777 18.0025 65.7644 17.5655 66.766C17.1283 67.7678 17.1681 69.6907 17.1681 70.0914C17.1681 70.4921 17.0093 71.2933 16.8899 71.3334C16.7707 71.3733 17.2873 72.415 17.0487 73.0162C16.8897 73.5771 17.4063 75.0195 17.4459 75.34ZM20.0687 14.0802C19.8301 12.5577 20.0687 9.55254 20.3865 9.072C21.3801 7.70965 26.6253 7.54954 27.7381 9.15206C28.2149 9.87316 28.1751 11.5559 28.0957 12.6378C28.0163 13.7194 27.7381 16.0433 27.6983 16.8047C27.6587 17.3657 21.8967 18.2469 20.6251 16.7244C20.2673 16.3239 20.0687 14.0802 20.0687 14.0802ZM31.7515 71.4536C34.1755 73.2166 36.0431 73.537 37.2749 74.1781C38.5067 74.8193 38.1889 76.0613 36.1225 76.4218C34.4535 76.7422 31.8309 76.1012 30.0825 76.1012C28.3341 76.1012 24.4397 76.3016 23.4065 75.5805C22.2145 74.7393 22.7309 73.1765 22.7309 73.1765C23.0489 72.2952 23.8435 70.3318 23.6051 68.7293C23.3667 67.1267 23.0487 66.2453 22.4527 64.7628C21.8567 63.2805 21.4197 59.6346 21.9761 59.4342C22.5325 59.2337 22.3733 59.4342 23.0887 59.5943C23.8039 59.7544 24.5987 59.995 26.1485 59.995C27.6983 59.995 29.4069 59.7544 30.0031 59.6344C30.5991 59.5142 31.0759 59.3939 30.8771 60.636C30.6785 61.878 30.0825 64.2018 30.0427 66.0048C30.0031 67.8077 30.0031 69.8912 30.1223 70.2517C30.2413 70.6123 31.1157 71.013 31.7515 71.4536Z" fill="#4D4D4D"/>
<path d="M23.3037 18.0349C18.9292 21.838 10.4582 22.8787 -2.10873 27.7625C-5.33012 29.0034 -13.9202 32.7263 -15.9883 36.6094C-9.02869 32.5663 -6.44361 38.1306 -5.88696 43.855C-5.37014 49.2191 -2.70541 52.0215 4.13489 51.8611C11.1741 51.7011 13.3217 55.8242 15.2702 60.6681C19.0483 42.1335 25.0933 38.5309 28.9905 35.3685C37.2627 28.6031 27.0817 16.6737 23.3037 18.0349Z" fill="#DFDFDF"/>
<path d="M23.2447 18.0962C12.7621 21.7866 2.3985 22.7093 -9.79134 30.2908C-12.6899 32.0959 -18.8048 36.1873 -19.9961 44.0097C-15.5491 39.0354 -5.26501 32.7779 7.32212 28.8067C13.6752 26.8008 18.3211 25.4772 23.9593 23.2709C23.5624 20.7035 23.5624 19.7006 23.2447 18.0962Z" fill="#DFDFDF"/>
<path d="M36.6577 39.9994C36.6577 39.9994 35.9043 42.6021 34.3975 43.443C34.3975 43.443 33.2872 43.8434 31.0668 42.6023C30.4323 42.242 29.9565 41.0008 29.996 40.6002C30.0357 39.6391 30.6305 39.1988 30.6305 39.1988C30.6305 39.1988 31.2651 38.1176 32.0183 38.1577C32.7719 38.1976 34.0408 38.3177 34.4374 37.9574C34.7941 37.557 36.7371 38.6781 36.6577 39.9994ZM20.4792 14.8145C20.4792 14.8145 20.3208 16.8567 20.0431 18.1378C20.0034 18.3782 18.814 18.4981 17.9414 18.8586C19.6069 23.6633 29.6392 23.6232 30.9478 21.261C30.3134 20.8206 29.0444 20.1399 28.4497 19.8997C27.8548 19.6593 27.8945 19.6994 27.8548 18.5783C27.8153 17.4571 27.7358 15.3751 27.6564 14.8145C27.5772 14.2539 21.4308 14.2539 20.4792 14.8145Z" fill="#4D4D4D"/>
<path d="M20.8951 14.905C20.8951 14.905 20.8951 16.0554 20.7763 17.166C20.7368 17.6817 20.6971 17.999 20.618 18.3957C20.5784 18.6339 21.9643 19.5856 22.3603 21.6881C24.261 25.9324 28.6565 23.8301 30.4779 21.8071C29.8443 21.3707 28.8148 20.7757 27.6269 20.2997C27.0328 20.0616 27.3101 19.5461 27.2706 18.4354C27.2309 17.3248 27.0725 15.6982 26.9934 15.1033C26.9139 14.5083 21.8455 14.3496 20.8951 14.905Z" fill="#4D4D4D"/>
<path d="M20.4384 14.8224C20.4384 14.8224 20.399 15.5568 20.2812 16.4133C20.7923 16.9434 21.4609 17.6778 21.9723 18.1266C22.3262 18.453 23.1911 18.4121 23.9778 18.4121C24.6856 18.4121 25.3148 18.4936 25.5901 18.3306C26.2195 18.0042 27.1238 17.1885 27.635 16.5765C27.5958 15.8423 27.5564 15.1488 27.5172 14.8224C27.4775 14.2513 21.3821 14.2513 20.4384 14.8224Z" fill="#4D4D4D"/>
<path d="M24.1263 17.9278C23.6492 17.9278 23.0926 17.8879 22.6555 17.8077C22.4567 17.7679 22.258 17.6478 22.099 17.5676C21.8207 17.3674 21.5425 17.1274 21.2248 16.8871C20.5886 16.4069 20.549 16.1266 20.549 16.0068C20.8273 13.485 20.4694 11.3637 20.4694 11.3637C20.4694 11.3637 20.1911 10.2829 21.7015 10.0027C23.2119 9.72251 24.1261 9.68262 24.1261 9.68262C24.1261 9.68262 25.0801 9.68262 26.5507 10.0027C28.0611 10.2829 27.7828 11.3637 27.7828 11.3637C27.7828 11.3637 27.4251 13.485 27.7034 16.0068C27.7034 16.1266 27.6638 16.4069 27.0276 16.8871C26.4711 17.2874 26.034 17.7276 25.5969 17.8077C25.1595 17.8879 24.603 17.9278 24.1263 17.9278Z" fill="#4D4D4D"/>
<path d="M24.0739 8.67285C21.4546 8.67285 20.9384 9.39344 20.1843 10.1942C20.0257 10.3943 20.1446 11.5955 20.4226 14.1578H20.7798C20.7798 14.1578 20.5415 13.4371 20.5812 12.5964C20.621 11.7557 20.7798 11.7958 20.6605 11.5955C20.5019 11.3551 20.1843 10.9547 20.8988 10.5545C21.6132 10.1541 22.7244 10.8747 24.0739 10.9148C25.4233 10.8747 26.5743 10.1541 27.2886 10.5545C28.0029 10.9547 27.6855 11.3551 27.5269 11.5955C27.3681 11.8357 27.5664 11.7555 27.6062 12.5964C27.6457 13.4371 27.4076 14.1578 27.4076 14.1578H27.7648C28.0029 11.5955 28.1617 10.4745 28.0426 10.2742C27.3679 9.39344 26.6933 8.71275 24.0739 8.67285ZM36.655 40.2216C36.655 40.2216 35.901 42.6639 34.4326 43.5046C34.115 43.3446 34.1547 43.1044 33.8769 42.7439C33.7974 42.624 33.5195 42.5436 33.4006 42.4237C33.2816 42.3036 33.3213 42.1033 33.1228 41.9433C32.964 41.7831 32.8449 41.9032 32.6861 41.7831C32.5275 41.6231 32.4876 41.4228 32.3687 41.3029C32.2892 41.2227 31.9718 41.1828 31.8925 41.1026C31.694 40.9023 29.9479 40.542 30.0272 40.1416C30.1858 39.541 30.5034 39.1007 30.5034 39.1007C30.5034 39.1007 31.2575 37.9797 32.0114 38.0196C32.7654 38.0597 33.4799 38.2199 33.8769 37.8596C34.3135 37.459 36.7743 38.9405 36.655 40.2216Z" fill="#4D4D4D"/>
<path d="M31.5313 22.41C31.5313 22.41 34.0502 21.8095 35.7696 23.4505C37.489 25.1314 37.3689 27.2124 36.8493 28.4931C37.289 29.0134 38.0887 30.454 37.489 32.175C40.1279 34.4161 38.9684 37.8581 36.6094 40.1393C36.6094 40.1393 36.0496 38.0581 33.8105 37.9381C33.8904 37.1378 31.7313 36.4973 32.7309 34.4161C31.2115 34.0559 31.2516 33.0154 31.0117 31.7349C30.8117 30.454 31.5313 22.41 31.5313 22.41Z" fill="#4D4D4D"/>
<path d="M30.4899 23.5777C30.4899 23.5777 33.4156 22.0992 35.139 23.7776C36.8622 25.4561 36.3811 27.2942 35.8603 28.573C36.3011 29.0923 37.3431 30.5712 36.7019 32.3293C36.5816 32.7289 35.6999 32.7289 35.0585 33.7679C36.6615 32.8486 37.6636 33.0885 38.0243 34.2472C38.5854 36.0455 37.3429 38.2035 36.2609 39.4024C36.2609 39.3624 36.2208 39.3223 36.2208 39.2825C36.0606 39.8821 35.8601 41.0408 34.6579 42.3196C34.0566 42.959 33.5757 42.8791 32.8944 42.7192C32.0929 42.5193 31.8124 42.1595 30.6902 41.5603C30.049 41.2007 30.4097 40.761 30.4097 40.4014C30.4097 40.3215 30.4897 40.2015 30.6102 40.0418C30.6902 39.8419 30.9307 39.5225 31.2913 39.1626C31.2913 39.1626 31.8124 38.4434 32.574 38.4832C33.3355 38.5232 34.1369 38.3635 34.3374 38.1636C34.3374 36.765 32.7344 36.725 33.2953 34.3273C33.3355 34.2074 33.536 34.0075 34.177 33.9276C33.2151 33.7277 32.7743 33.6877 32.0929 33.0485C31.6121 32.609 31.2514 32.0495 31.131 31.3303C30.8907 30.0915 30.4899 23.5777 30.4899 23.5777Z" fill="#4D4D4D"/>
<path d="M22.1202 21.0417C21.8825 20.7207 20.6542 19.1164 18.3162 18.4746C17.6425 18.274 17.2067 18.8356 16.5332 19.2367C16.335 19.1164 15.4633 18.7153 14.9878 18.9959C14.5123 19.2765 14.1954 19.5575 13.7198 19.758C13.4819 19.6376 12.8481 19.6376 12.3329 19.8381C11.8178 19.9986 11.0252 20.3595 10.2723 21.4024C9.79689 23.1272 18.6728 21.8435 18.6728 21.8435L22.1202 21.0417Z" fill="#4D4D4D"/>
<path d="M22.2859 21.0955C21.0154 20.6563 21.214 19.1795 18.3954 18.9401C17.8396 18.9001 17.4823 19.339 17.0853 19.6185C17.2839 19.8182 17.4823 20.1374 17.6014 20.4566C17.2442 20.0577 16.609 19.5385 15.9736 19.4188C15.3782 19.2993 14.9812 19.7382 14.3461 20.0577C14.4649 20.1772 14.5842 20.3769 14.7429 20.6165C14.187 20.2573 13.7902 20.1376 13.036 20.4169C12.5199 20.5764 11.5275 21.0155 10.7732 22.0934C10.2969 23.8098 18.7922 21.8937 18.7922 21.8937L22.2859 21.0955Z" fill="#DFDFDF"/>
<path d="M29.7423 21.6684C29.7423 21.6684 29.7423 21.2128 29.7025 20.7989C29.7025 20.7162 29.3842 20.5091 29.3842 20.4263L29.3047 20.3434C29.3047 20.3434 29.9414 19.9708 30.4189 20.1779C30.936 20.3434 31.2146 21.0473 31.2146 21.0473C32.1299 20.7162 32.2094 21.0888 32.6472 21.5856C33.6024 21.3785 33.7216 21.7511 34.3186 22.6622C34.3186 22.6622 33.6024 22.538 32.2096 22.7862C30.8565 22.9931 29.7423 21.6269 29.7423 21.6684Z" fill="#4D4D4D"/>
<path d="M29.6415 21.4661C29.6415 21.4661 29.8779 21.2602 29.799 21.219C30.2324 20.9721 30.8237 20.6841 31.0996 21.4661C32.0061 21.1367 32.1243 21.5896 32.5577 22.0837C33.6612 21.5486 33.7399 22.2069 33.8189 22.4951C33.4642 22.4951 32.9521 22.5363 32.2425 22.6185C30.9027 22.8245 29.602 21.4249 29.6415 21.4661Z" fill="#DFDFDF"/>
<path d="M16.1324 20.4521C16.1324 20.4521 18.3971 21.2524 20.3042 21.1323C22.2113 20.9724 25.4692 20.8123 27.2173 21.8528C27.2173 21.8528 29.0053 21.2123 30.674 21.6526C32.343 22.0927 35.4021 24.9742 34.4884 28.0157C34.4089 28.2159 33.8923 28.5359 33.2964 28.7361C33.2964 28.7361 33.6144 30.0967 33.0581 31.2172C32.5017 32.2978 31.2701 34.3789 31.2303 37.2602C31.1907 37.7404 31.1113 38.7409 31.0318 39.221C27.9326 39.1012 23.1649 37.9404 18.4766 38.0206C18.5162 37.5005 18.556 37.1803 18.5958 36.66H18.7148C18.4764 35.3393 18.3971 34.6589 18.1585 33.6584C16.6487 32.6981 15.0594 31.5776 13.7088 29.4564C12.3976 27.3353 16.1324 20.4521 16.1324 20.4521ZM31.4687 42.0627C31.4687 42.0627 33.9321 50.9471 31.0318 54.6689C31.0318 54.6689 31.4687 56.3896 30.4755 58.2306C30.3165 59.0309 30.1177 59.7513 29.9987 60.5516C29.4822 63.8732 28.6079 65.2739 28.3696 70.5964L25.9855 70.5565C25.9855 70.5565 25.7074 66.7146 24.8731 64.6736C24.3966 63.5132 22.5288 61.9522 22.6086 60.3916C22.688 59.191 22.9264 58.1905 24.9529 56.5896C25.1117 54.2687 22.8072 52.0674 23.1649 43.4233L31.4687 42.0627Z" fill="#4D4D4D"/>
<path d="M30.7199 41.7567C31.3567 45.8491 32.8294 51.9076 30.1626 54.8764C30.32 55.6292 30.3334 56.4054 30.2023 57.1633C30.1227 57.6447 29.9635 58.1663 29.7645 58.7279C29.3665 59.6909 29.2072 61.0952 29.0878 61.9377C28.5704 65.2678 28.5704 65.4285 28.3316 70.7646L25.9432 70.7245C25.9432 70.7245 25.6646 66.8728 24.8288 64.8267C24.3514 63.6632 23.3562 62.6602 23.2766 61.0954C23.1971 59.8919 24.0329 57.4846 26.0232 57.5648C25.9038 52.71 23.6747 53.6729 23.0777 43.5622L30.7199 41.7567ZM16.0724 20.4521C16.0724 20.4521 16.948 20.733 17.9032 20.8132C18.8586 20.8934 19.8935 20.8132 20.8088 20.773C22.7193 20.6127 25.426 20.412 27.2171 21.4552C27.2171 21.4552 28.2122 21.1341 29.2869 21.2143C29.7645 21.2544 30.2423 21.6557 30.7994 21.8162C32.5507 22.2575 34.2225 25.1863 33.466 27.8345C33.3865 28.0352 32.8292 27.8345 32.1923 28.0352C32.3115 28.597 32.3915 29.8809 31.7544 31.245C31.0779 32.6092 30.2023 34.3745 30.3613 37.7448C26.182 37.5441 24.3114 37.2634 20.1717 37.0627C19.8135 35.5781 19.5746 34.0937 19.5349 33.3314C20.0922 33.0505 20.4103 32.81 20.8484 32.3283C19.6545 32.5291 19.1767 32.4487 18.4601 32.0475C17.7437 31.6462 16.47 30.3623 15.8332 29.5198C15.7537 29.4395 15.3159 30.7634 14.3209 30.8037C13.9625 30.2821 15.475 28.7975 15.1963 28.2359C14.2015 26.1895 16.0724 20.4521 16.0724 20.4521Z" fill="#4D4D4D"/>
<path d="M31.0364 38.3695C31.0364 38.3695 31.1165 39.8113 31.1165 40.1717C31.1165 40.5722 31.4374 41.7735 31.4773 42.3343C31.0364 43.0951 29.112 44.8173 25.6239 45.458C22.1759 46.1788 17.6055 40.7726 17.6055 40.7726C17.7257 40.2519 18.1267 38.7299 18.4074 37.9291C18.4475 37.8491 18.5276 37.6488 18.5276 37.5687C18.8886 37.0481 31.0364 38.3695 31.0364 38.3695Z" fill="#4D4D4D"/>
<path d="M30.186 38.6086C30.186 39.6055 30.3446 40.3233 30.4638 40.9614C30.6622 42.1178 30.9796 42.8754 30.9796 43.633C30.9796 45.9457 27.9635 45.5469 25.4233 45.6268C22.0103 46.3447 19.1133 40.9614 19.1133 40.9614C19.3514 40.0442 19.5102 39.0076 19.8673 38.1301C19.9069 37.6517 19.9864 37.0536 20.0259 36.7744C24.8677 36.7744 28.2807 37.0536 30.2651 37.2527C30.3446 37.6914 30.2653 38.449 30.186 38.6086Z" fill="#4D4D4D"/>
<path d="M26.2954 43.7265C26.2954 43.7265 24.179 38.9967 17.8294 40.3998C16.3121 44.6887 14.2753 49.6191 15.5932 54.9501C14.2753 56.7539 12.7578 57.7562 12.7578 61.0829C12.7578 64.4098 12.9176 64.9711 12.9176 64.9711L17.5898 65.2118C17.5898 65.2118 19.1073 63.2478 19.7062 61.1232C19.866 60.5219 20.0258 59.4397 19.906 58.1972C20.0656 57.9567 20.7445 57.3956 20.8245 56.3133C20.8245 56.3133 23.1007 55.1109 24.4186 52.1848C25.6567 49.5388 25.3371 47.254 26.2954 43.7265Z" fill="#4D4D4D"/>
<path d="M26.2974 43.6842C26.1778 43.2447 24.5808 38.9283 18.6722 40.2071C15.1991 49.4795 16.4766 53.3164 16.9954 54.9948C14.6399 57.9922 13.5621 58.6317 14.0413 64.7068H17.1554C18.5924 62.4287 18.9119 61.5893 18.9917 58.5919C18.9917 58.472 18.5527 58.8316 18.2332 59.2313C18.4729 57.9924 19.1514 57.7526 19.6704 56.9933C19.91 56.6734 20.1095 56.1939 20.1095 55.5544C22.904 53.676 23.942 51.3179 24.5408 48.8799C25.02 47.2014 25.5788 44.4436 26.2974 43.6842Z" fill="#4D4D4D"/>
<path d="M16.5496 37.2788C16.5496 37.2788 17.6226 37.3187 18.5763 37.6393C19.4902 37.9597 19.4902 38.1599 19.8478 38.5608C20.2054 38.9616 21.0795 39.5623 20.9207 40.1631C20.8411 40.4837 20.6425 40.5638 20.3644 40.8443C20.2452 40.9644 19.3708 41.9258 19.1723 42.046C19.0531 42.126 18.8941 42.2464 18.7749 42.3264L18.1789 42.7271C17.7816 42.9275 17.5034 43.0477 17.0664 43.0076C17.0664 43.0076 16.0731 42.9674 15.4371 42.2865C15.4371 42.2865 15.3577 41.9659 15.5167 41.8058C15.5167 41.8058 14.6822 41.0846 14.4438 40.6039C14.2052 40.1234 14.2052 39.4423 14.3644 39.0818C14.4438 38.7209 15.9933 37.7194 16.5496 37.2788ZM17.5432 76.2585L17.424 77.2602C17.424 77.2602 17.0664 77.7008 14.4042 77.6609C11.7022 77.6207 10.987 76.7795 10.7486 76.3388L10.5898 75.2971C10.5898 75.2971 11.1064 74.536 11.2256 74.536C12.0997 74.616 15.0799 75.818 17.1462 76.1384C17.3444 76.1384 17.384 76.2184 17.5432 76.2585ZM23.3046 74.2154C23.3046 74.656 23.2648 74.656 23.2648 75.0967C23.7415 75.4572 24.9339 75.6577 27.1985 75.6173C30.4965 75.5373 33.5561 76.619 37.291 75.9779L37.3308 75.2568L36.9732 75.2169L23.7415 74.1352L23.3046 74.2154Z" fill="#4D4D4D"/>
<path d="M26.1516 75.6695H27.1471C29.2975 75.5893 31.3282 76.071 33.5181 76.1914C34.6729 76.1512 36.1064 75.8702 35.987 75.0273L24.6784 74.0638C24.0014 74.8264 24.5189 75.4687 26.1516 75.6695ZM13.1706 58.77C13.529 59.0108 15.958 60.4559 19.9 60.2551C19.8203 61.0178 19.8602 62.5032 18.1082 65.1122C17.2322 66.3968 16.4754 68.6448 16.3163 71.4949C16.3562 72.1372 16.7145 72.699 16.2367 73.5421C16.3959 74.0638 17.033 75.1075 17.3516 75.7497C17.6701 76.3922 17.8294 77.1147 15.7189 77.1549C13.5687 77.1949 10.1044 76.9541 10.5823 75.2683C10.8214 74.3852 11.4982 73.4619 11.578 73.1005C11.6575 72.7392 11.6575 71.6555 12.3343 70.9328C12.9318 68.9258 12.7325 66.999 12.6133 65.1926C12.4141 63.3058 12.3742 60.2953 13.1706 58.77ZM16.8738 26.0545C19.701 22.2409 17.3117 19.1904 12.7726 20.1135C10.9409 20.4748 9.10931 21.7595 8.98967 24.0875C8.39245 24.1677 7.03867 24.248 6.36168 26.7368C5.84422 28.6636 5.56545 29.0249 4.64938 29.9882C4.05215 30.6706 4.68926 32.0756 5.12716 33.0793C6.60058 36.5314 11.1399 36.8525 14.206 39.4617C15.2413 39.1807 16.3163 38.0168 16.6349 37.2541C14.0466 34.163 14.604 32.9589 13.5687 31.3533C14.6837 30.9517 17.2322 29.3863 16.8738 26.0545Z" fill="#4D4D4D"/>
<path d="M16.2771 25.8595C16.4357 25.6179 16.7136 25.095 16.8328 24.8937C16.8726 24.8534 17.3091 25.6179 17.3488 25.5778C18.4203 23.8073 18.6982 21.2321 17.4677 20.9907C17.1898 20.9504 16.674 20.8299 16.2374 20.6687C15.4437 20.387 14.7294 20.387 13.4592 20.6286C11.7129 20.9504 9.96662 22.238 9.96662 24.089C9.96662 24.2097 11.1967 24.5718 11.5541 26.0606C10.9586 25.2155 9.92667 24.2901 8.69637 25.0948C7.38657 25.9397 8.06135 27.8711 6.31508 29.8829C5.71961 30.567 5.79911 31.3717 6.43394 32.9811C7.46588 35.5162 12.3477 36.8841 15.0069 39.2983C15.6419 39.0166 16.0784 38.3728 16.396 37.89C14.61 35.999 13.8954 34.2284 13.3797 32.9408C12.7446 31.4521 12.0301 30.6073 10.641 29.4803C11.3555 29.762 11.9112 30.0437 12.2285 30.2851C12.5856 30.5265 13.1016 30.5668 13.578 30.4058C15.2849 29.8027 16.1978 27.3883 16.2771 25.8595Z" fill="#4D4D4D"/>
<path d="M33.6136 26.4301C33.4945 27.9528 32.3828 27.1914 31.7874 26.9109C30.5962 26.39 29.405 26.0294 28.0154 26.0294C26.6258 26.0294 24.8392 26.1496 23.2909 26.5503C21.147 27.1513 20.5115 27.1114 19.5587 26.6304C18.606 26.1094 16.9386 24.8271 16.9386 24.8271C16.9386 24.8271 16.8988 25.2279 17.2959 25.7488C17.8119 26.39 18.9635 27.1914 20.5117 27.7122C21.2661 27.9528 21.8617 27.7923 22.5368 27.6321C26.0703 26.7506 29.8023 26.5902 32.9388 28.5137C33.0976 28.5937 33.6535 28.3533 33.8917 27.9927C34.2091 27.472 33.6136 26.4301 33.6136 26.4301Z" fill="#4D4D4D"/>
<path d="M26.9777 10.0036C26.8595 9.64589 25.9925 9.00977 23.9832 9.00977C21.816 9.00977 21.1856 9.6855 21.1463 10.0432C21.1463 10.1624 20.9887 11.4345 20.9492 11.951C20.9492 11.951 20.9492 12.5869 20.9885 13.5407C21.028 14.1766 21.1856 14.5343 21.2643 15.3691C21.3431 16.2433 21.5796 16.7998 22.013 17.5153C22.2101 17.6343 22.3675 17.7538 22.5647 17.7936C23.3527 17.9524 24.7318 17.9922 25.4804 17.7936C25.9137 17.6743 26.4654 16.9192 26.5836 16.2435C26.7411 15.4089 26.8987 14.8126 26.9382 14.296C27.0169 13.7795 27.0564 12.6267 27.0957 12.3086C27.2141 11.4345 27.0169 10.083 26.9777 10.0036Z" fill="#4D4D4D"/>
<path d="M19.7812 35.5962C19.7812 35.8798 22.8945 37.4594 24.6106 37.7835C26.3269 38.1075 29.919 37.7835 30.4776 37.662L30.3977 38.2292C30.3977 38.2292 26.1272 38.8773 22.8545 37.9862C19.5816 37.095 19.9409 36.8924 19.9409 36.8924L19.7812 35.5962Z" fill="#4D4D4D"/>
<path d="M16.2113 20.2837C17.5184 21.0657 19.3404 20.86 20.0136 20.8188C20.1721 20.8188 21.7565 20.5306 21.8357 20.5716C21.9939 20.6129 21.9939 20.7363 21.9939 20.7363C21.9939 20.7363 21.3999 21.0655 20.0533 21.1477C18.7858 21.23 17.2807 21.1477 16.4491 20.7363C15.4587 20.2837 16.2113 20.2837 16.2113 20.2837ZM29.678 21.0657C29.9156 21.2302 31.4604 21.8477 32.1338 22.5885C32.7278 23.2472 32.4111 23.206 32.2921 23.0413C32.1338 22.8354 30.9058 21.9712 30.4305 21.7655C29.9553 21.5597 29.361 21.1892 29.361 21.1069C29.361 21.0247 29.678 21.0657 29.678 21.0657Z" fill="#4D4D4D"/>
<path d="M15.9678 37.6286C17.1446 37.5472 18.362 37.8324 19.1329 38.6472C19.5387 39.0547 20.188 39.5028 20.1069 39.9103C20.1069 40.0326 19.8632 40.3586 19.6606 40.6031C19.5389 40.7659 19.1738 41.1326 19.0518 41.255C18.8897 41.3773 18.3215 41.8256 18.1998 41.907C18.0781 41.9886 17.9157 42.1925 17.794 42.2331C17.3884 42.4369 16.942 42.2739 16.5362 42.0702C16.1306 41.8664 16.6175 41.8256 16.171 41.4997C15.0755 40.7255 14.4667 40.1956 14.9132 38.688C14.9536 38.4028 15.3999 38.0767 15.9678 37.6286Z" fill="#4D4D4D"/>
<path opacity="0.4" d="M5.81215 28.5915C2.23067 30.0328 -6.88227 34.5968 -9.46875 35.998C-7.3199 37.3591 -6.32508 40.6418 -6.00663 43.9647C-5.96697 44.285 -5.92712 44.5653 -5.88726 44.8855C-5.8476 45.1658 -5.80775 45.3659 -5.76809 45.4861C-5.76809 45.5262 -5.76809 45.6062 -5.72824 45.6461C-3.3803 39.2007 5.01603 32.3949 5.33448 31.8744C5.49351 31.6342 5.1354 30.5933 5.69258 29.5927C6.409 28.3112 7.80197 27.7507 5.81215 28.5915ZM14.328 58.8174C16.1584 55.1343 16.1983 51.6112 16.1584 47.4876C16.1584 45.766 17.392 43.3239 16.7555 44.0046C14.3677 46.6867 8.35897 51.7313 4.02141 52.0113C10.1099 51.8112 12.4974 54.8939 14.328 58.8174Z" fill="#4D4D4D"/>
<path d="M-12.9766 39.298C-10.6913 37.6628 1.13618 31.4009 3.98282 30.5232C6.82926 29.6058 5.94724 28.5288 5.94724 28.5288C5.94724 28.5288 -5.59955 33.4746 -12.4955 37.7425" fill="#4D4D4D"/>
<path opacity="0.4" d="M20.5373 27.7428C19.6223 27.3813 18.9063 28.466 19.145 29.5106C19.3838 30.5552 21.532 31.72 21.4125 35.5367C21.333 38.6704 20.6566 39.9558 20.6566 39.9558L19.145 38.0276C19.145 38.0276 18.9063 33.6886 18.3891 33.0459C17.8722 32.4031 16.241 31.238 15.6045 30.6354C14.968 30.0327 16.3205 29.2293 16.241 28.1043C16.1615 27.0197 16.9173 24.8503 16.9173 24.8503L20.5373 27.7428ZM26.067 44.8569C25.9875 47.8699 26.6638 52.3294 26.9422 54.4587C27.2207 56.5879 27.5787 56.7486 26.9422 57.7129C26.3057 58.637 25.4703 60.1636 25.4703 60.1636L22.7253 59.9224C22.7253 59.9224 24.9133 57.1102 25.0325 56.5879C25.1518 56.0658 23.9186 52.0886 23.9186 52.0886L26.067 44.8569ZM20.7762 16.7351C21.3332 17.9802 22.0093 18.5427 23.0833 18.9045C23.7198 19.1455 26.226 19.467 27.2207 18.3419C27.6581 17.8197 27.3796 16.4136 27.3796 16.4136L25.1121 18.2615L22.049 17.6992L21.691 16.7751L20.7762 16.7351Z" fill="#4D4D4D"/>
<path d="M20.9385 19.6104C21.9833 20.2648 24.5952 20.8808 25.3184 20.9962C26.0416 21.1501 27.2069 20.2648 27.7695 20.0339C28.3724 19.7644 29.4171 19.6104 30.6225 20.6498C30.743 20.7653 30.3412 21.2657 30.3412 21.2657C30.3009 21.2272 30.0599 21.2272 29.7383 21.0732C29.4169 20.9193 29.1356 20.8037 28.6535 20.8422C26.6443 21.0732 26.3229 21.7276 24.555 21.3425C22.787 20.9573 22.3449 20.6496 20.6172 20.7265" fill="#DFDFDF"/>
<path fill-rule="evenodd" clip-rule="evenodd" d="M23.2124 20.64C22.3385 20.3827 21.4039 20.0507 20.8603 19.7005L21.0316 19.4424C21.533 19.7655 22.4274 20.087 23.302 20.3445C24.1722 20.6008 24.9996 20.7871 25.353 20.8451C25.3557 20.8456 25.3585 20.8461 25.3612 20.8467C25.5042 20.878 25.6825 20.8586 25.8903 20.7954C26.0963 20.7327 26.3174 20.6315 26.5398 20.5146C26.7321 20.4136 26.9207 20.3035 27.0984 20.1997C27.1261 20.1835 27.1536 20.1674 27.1807 20.1516C27.3774 20.0371 27.5639 19.9306 27.7153 19.8664C28.0374 19.7187 28.4783 19.6025 28.9994 19.666C29.5228 19.7298 30.1145 19.9734 30.7378 20.5262C30.7398 20.528 30.7418 20.5299 30.7438 20.5318C30.7968 20.5841 30.811 20.6492 30.8121 20.6989C30.8132 20.7478 30.8022 20.7956 30.7893 20.8362C30.7632 20.9179 30.7172 21.0052 30.6726 21.0802C30.627 21.1569 30.5779 21.2288 30.5406 21.2809C30.5219 21.3072 30.5059 21.3287 30.4945 21.3439C30.4888 21.3515 30.4842 21.3575 30.481 21.3617C30.4794 21.3637 30.4782 21.3654 30.4773 21.3665L30.4762 21.3679L30.4758 21.3684L30.4758 21.3685C30.4758 21.3685 30.4757 21.3685 30.3517 21.2745L30.4757 21.3685C30.4483 21.4037 30.4068 21.4255 30.3619 21.4284C30.3276 21.4306 30.2939 21.4216 30.2657 21.4033C30.2619 21.4022 30.2563 21.4007 30.2484 21.3988C30.2341 21.3954 30.217 21.3917 30.1948 21.3868L30.1943 21.3867C30.1726 21.382 30.1473 21.3765 30.1194 21.37C30.007 21.3436 29.8539 21.3006 29.6787 21.2143C29.3686 21.0616 29.1182 20.9566 28.6793 20.9922C27.9223 21.0819 27.4157 21.2328 26.9657 21.3668C26.8284 21.4077 26.6964 21.447 26.5642 21.4826C25.9899 21.6369 25.4412 21.7082 24.5288 21.5038C24.0394 21.3941 23.6534 21.2916 23.3164 21.202C22.4185 20.9635 21.8677 20.8172 20.6317 20.8738L20.6172 20.5657C21.9047 20.5068 22.5068 20.6668 23.4232 20.9103C23.7571 20.999 24.1326 21.0988 24.5982 21.2031C25.4544 21.3949 25.9507 21.3278 26.4818 21.185C26.6043 21.1521 26.7301 21.1146 26.8634 21.0749C27.3167 20.9398 27.8564 20.7789 28.6448 20.6857C28.6467 20.6855 28.6486 20.6853 28.6505 20.6851C29.1744 20.642 29.4864 20.7749 29.8186 20.9384L29.8186 20.9385C29.9651 21.0106 30.0933 21.0468 30.192 21.07C30.2169 21.0758 30.2399 21.0809 30.2617 21.0856L30.2645 21.0862C30.2739 21.0882 30.2834 21.0903 30.2926 21.0923C30.3256 21.0457 30.3659 20.986 30.4026 20.9242C30.4434 20.8557 30.4753 20.792 30.4907 20.7437C30.4928 20.7373 30.4944 20.7316 30.4956 20.7266C29.926 20.231 29.4038 20.026 28.9609 19.972C28.5085 19.9169 28.1261 20.0178 27.8454 20.1469C27.8439 20.1476 27.8424 20.1482 27.8408 20.1489C27.7112 20.2036 27.5418 20.2996 27.34 20.4171C27.3134 20.4326 27.2863 20.4484 27.2587 20.4645C27.0813 20.5681 26.8861 20.6821 26.6871 20.7867C26.4573 20.9074 26.2161 21.019 25.9826 21.09C25.7523 21.1601 25.5151 21.1951 25.2976 21.1487C24.9255 21.0872 24.0877 20.8977 23.2124 20.64ZM30.2723 21.4054C30.2739 21.406 30.2735 21.406 30.2717 21.4052C30.2719 21.4053 30.2721 21.4053 30.2723 21.4054Z" fill="#4D4D4D"/>
<path d="M20.6952 19.6104C21.9906 20.2148 24.5027 20.8622 25.2091 21.035C25.9156 21.2077 27.0539 20.4305 27.6035 20.0421C28.5849 19.3514 29.8408 19.9126 30.4297 20.6465C30.8221 21.1212 30.9793 21.4234 30.9793 21.5529C30.9793 21.7254 30.5083 21.5529 30.5083 21.5529C30.2335 21.4234 29.9194 21.3804 29.6841 21.2075C29.37 21.035 29.0559 20.776 28.5851 20.819C26.6224 21.0782 26.2299 21.8119 24.5422 21.3802C22.8545 20.9485 22.4226 20.56 20.6172 20.6893" fill="#DFDFDF"/>
<path d="M14.4072 57.1339C14.3278 57.0538 14.4866 56.9736 14.4072 56.9736C13.8908 56.9736 13.1753 56.5727 12.7776 56.0113C11.0689 53.5256 8.56501 51.8818 4.03453 52.002C-2.76139 52.1623 -5.46388 49.3559 -5.98033 43.9833C-6.25856 41.0565 -7.05345 38.2098 -8.68282 36.606L-9.63672 37.2075C-7.80872 38.8112 -7.21246 41.4173 -6.81502 44.9857C-6.17915 50.3582 -1.8871 52.8441 3.12043 52.9242C8.32658 53.0044 10.1944 54.087 12.1416 56.7333C12.7775 57.5752 13.4929 57.8559 14.0492 57.9762L14.4072 57.1339Z" fill="#4D4D4D"/>
<path opacity="0.4" d="M32.8992 31.3896C33.0132 31.9924 33.3173 33.1578 33.9255 33.7203C34.1919 34.0017 34.2298 34.082 34.0017 34.082C33.7734 34.082 32.1007 34.0017 32.1007 34.0017L31.6445 33.1578L32.8992 31.3896Z" fill="#4D4D4D"/>
</g>
<defs>
<clipPath id="clip0">
<rect width="48" height="48" rx="24" fill="white"/>
</clipPath>
</defs>
</svg>
