<svg width="48" height="48" viewBox="0 0 48 48" fill="none" xmlns="http://www.w3.org/2000/svg">
<rect width="48" height="48" rx="24" fill="#DFDFDF"/>
<g clip-path="url(#clip0)">
<path d="M29.668 32.4259C28.2675 32.9486 26.6462 33.2512 24.9539 33.2512C24.7562 33.2512 24.5598 33.2472 24.3635 33.2392L24.3907 33.2406C24.2285 33.2472 24.0375 33.2512 23.8453 33.2512C22.123 33.2512 20.473 32.9486 18.9471 32.3966L19.0453 32.4272L20.0039 33.9912L20.3885 38.9952C20.3885 39.2868 20.783 39.5263 21.5721 39.7139C22.3725 39.8966 23.293 40.0019 24.238 40.0019C24.3021 40.0019 24.3675 40.0019 24.4316 40.0006H24.4221C24.4821 40.0019 24.5544 40.0019 24.6253 40.0019C25.5621 40.0019 26.4744 39.8992 27.3498 39.7032L27.268 39.7192C28.0571 39.5317 28.4516 39.2921 28.4516 39.0006L28.7707 33.9966L29.668 32.4259ZM17.9612 24.4259C18.1944 23.6646 18.5216 22.9992 18.9375 22.3992L18.9212 22.4246C19.3207 21.8179 19.8607 21.3299 20.4975 20.9966L20.5207 20.9859C20.6803 20.9152 20.8671 20.8739 21.0648 20.8739C21.3116 20.8739 21.5435 20.9392 21.7425 21.0512L21.7357 21.0472C21.9157 21.1392 22.0657 21.2659 22.1803 21.4192L22.183 21.4232C22.2785 21.5246 22.3466 21.6526 22.3739 21.7939L22.3753 21.7992C22.393 21.8486 22.4025 21.9059 22.4025 21.9659C22.4025 22.0539 22.3807 22.1366 22.3412 22.2086L22.3425 22.2059C22.2948 22.2992 22.198 22.3619 22.0862 22.3632C21.9789 22.3632 21.8403 22.2175 21.6703 21.9259C21.4139 21.4672 21.0503 21.4046 20.5794 21.7379C20.1212 22.0752 19.753 22.5032 19.498 22.9979L19.4885 23.0179C19.1953 23.5179 18.9362 24.0979 18.7425 24.7072L18.7248 24.7699C18.6335 24.9859 18.5816 25.2379 18.5816 25.5019C18.5816 25.6979 18.6103 25.8859 18.6648 26.0646L18.6607 26.0512C18.7262 26.1646 18.8475 26.2406 18.988 26.2406C19.393 26.1619 19.7366 25.9472 19.9766 25.6499L19.9794 25.6459C20.3053 25.3446 20.5903 25.0059 20.8303 24.6352L20.8439 24.6139L21.163 23.6766C21.2485 23.4686 21.3766 23.3646 21.5475 23.3646C21.7185 23.3646 21.8039 23.4792 21.8039 23.7086C21.7753 24.0659 21.6839 24.3952 21.5394 24.6952L21.5475 24.6779C21.4153 24.9819 21.283 25.3566 21.178 25.7419L21.163 25.8046L20.6475 27.4259C20.6025 27.5579 20.548 27.6712 20.4825 27.7766L20.4866 27.7686C20.4485 27.8539 20.3666 27.9152 20.2698 27.9259H20.2685C20.2657 27.9259 20.2616 27.9259 20.2575 27.9259C20.1825 27.9259 20.1157 27.8886 20.0775 27.8326V27.8312C20.0475 27.7606 20.0298 27.6792 20.0298 27.5939C20.0298 27.5446 20.0353 27.4966 20.0462 27.4512L20.0448 27.4552C20.1894 26.8232 20.3544 26.2872 20.5535 25.7699L20.5248 25.8552L20.0775 26.2926C19.738 26.6659 19.2675 26.9192 18.7385 26.9859L18.7275 26.9872C18.7139 26.9886 18.6989 26.9886 18.6825 26.9886C18.5107 26.9886 18.3498 26.9419 18.2121 26.8606L18.2162 26.8632L18.7275 31.8032C18.7703 32.0112 19.3244 32.2406 20.3898 32.4912C21.5489 32.7699 22.8798 32.9286 24.2489 32.9286H24.3607H24.3553H24.4616C25.8307 32.9286 27.1616 32.7686 28.4366 32.4686L28.3221 32.4912C29.3457 32.2406 29.8998 32.0112 29.9844 31.8032L30.688 25.9246L30.5598 25.9872C30.2516 26.3232 29.8916 26.6046 29.4894 26.8219L29.4689 26.8326C29.308 26.9032 29.1198 26.9432 28.9221 26.9432C28.8457 26.9432 28.7707 26.9366 28.6971 26.9259L28.7053 26.9272C28.4462 26.8855 28.3166 26.7601 28.3166 26.5512C28.4503 26.1046 28.6944 25.7246 29.0189 25.4272L29.0203 25.4259L29.2125 25.1139C29.4253 24.9059 29.5316 24.7495 29.5316 24.6446C29.5316 24.5397 29.4462 24.4979 29.2753 24.5192C29.0748 24.5526 28.9003 24.6419 28.7639 24.7699C28.5594 24.9539 28.3794 25.1592 28.2266 25.3832L28.2185 25.3952C28.0221 25.6739 27.8407 25.9926 27.688 26.3272L27.673 26.3646L27.4166 26.8646L26.7894 28.6139C26.7089 28.7339 26.6012 28.8286 26.4744 28.8939L26.4703 28.8966C26.4253 28.9259 26.3694 28.9446 26.3107 28.9446C26.2521 28.9446 26.1962 28.9272 26.1498 28.8966H26.1512C26.0775 28.8486 26.0298 28.7686 26.0271 28.6779L26.0912 28.4899C26.2575 28.0179 26.4307 27.6259 26.6285 27.2472L26.6025 27.3019L27.0498 26.3646C27.0925 26.1975 27.1139 26.1348 27.1139 26.1766C26.8644 26.4432 26.5671 26.6632 26.2357 26.8259L26.218 26.8339C26.0816 26.9019 25.9207 26.9419 25.7503 26.9419C25.6889 26.9419 25.6303 26.9366 25.5716 26.9272L25.5785 26.9286C25.4175 26.8952 25.2935 26.7739 25.2594 26.6192V26.6166L25.1953 26.4912C24.9266 26.7592 24.5544 26.9259 24.1412 26.9286C23.8639 26.8868 23.7912 26.5743 23.923 25.9912C23.6857 26.5379 23.1471 26.9166 22.5171 26.9286H22.5157C22.4925 26.9326 22.4653 26.9339 22.4394 26.9339C22.2185 26.9339 22.0275 26.8046 21.9416 26.6192L21.9403 26.6152C21.9348 26.5552 21.9321 26.4859 21.9321 26.4152C21.9321 25.9619 22.048 25.5352 22.2539 25.1619L22.2471 25.1766V25.1139C22.3753 24.8223 22.5244 24.489 22.6944 24.1139C22.8225 23.8632 22.993 23.7797 23.2057 23.8632H23.2698C23.398 23.9468 23.4194 24.1135 23.3339 24.3632L23.1416 24.6139C22.9916 24.8872 22.8416 25.2166 22.7135 25.5579L22.6944 25.6152C22.6089 25.9903 22.6407 26.1779 22.7898 26.1779C22.9657 26.1726 23.1307 26.1272 23.2753 26.0499L23.2698 26.0526C23.5548 25.8499 23.7825 25.5872 23.9366 25.2832L23.9421 25.2712C24.088 25.0286 24.208 24.7472 24.2885 24.4499L24.2939 24.4259L24.4221 24.1059C24.5075 23.8979 24.6035 23.7939 24.7098 23.7939C24.823 23.7952 24.9253 23.8432 24.9975 23.9179C25.083 24.0015 25.083 24.1472 24.9975 24.3552L24.5503 25.3552C24.4507 25.5739 24.3825 25.8272 24.3594 26.0926V26.1019C24.3594 26.269 24.5085 26.2899 24.8066 26.1646C24.9785 26.0992 25.1257 26.0152 25.2566 25.9112L25.2539 25.9139C25.2966 25.7468 25.6375 24.8503 26.2766 23.2246L26.9162 21.6606C26.9748 21.4779 27.1466 21.3472 27.3498 21.3472H27.3648H27.3635C27.4385 21.3606 27.5039 21.3939 27.5557 21.4419C27.6412 21.5041 27.6625 21.6188 27.6198 21.7859L26.4648 24.4872C26.1666 25.2375 25.9848 25.7157 25.9194 25.9219C25.8539 26.1281 25.8666 26.2348 25.9575 26.2419C26.2557 26.2419 26.7462 25.8863 27.4289 25.1752L27.493 25.1126L27.6853 24.6752C27.7303 24.4592 27.8189 24.2686 27.943 24.1046L27.9403 24.1086C28.0257 24.025 28.0898 23.9832 28.1325 23.9832C28.3035 23.9832 28.3889 24.0543 28.3889 24.1966V24.2059C28.3889 24.3472 28.3657 24.4846 28.3221 24.6112L28.3248 24.6019L28.6439 24.2899C28.8975 24.0006 29.2712 23.8179 29.6885 23.8179C29.7144 23.8179 29.7416 23.8192 29.7675 23.8206H29.7635C30.0335 23.8392 30.2448 24.0579 30.2448 24.3246C30.2448 24.3352 30.2448 24.3446 30.2435 24.3552V24.3539C30.1016 24.9219 29.8098 25.4099 29.413 25.7926L29.2848 25.8552C29.2057 25.9632 29.1403 26.0872 29.0953 26.2206L29.0925 26.2299C29.0925 26.2717 29.1353 26.2926 29.2207 26.2926C29.3966 26.2472 29.548 26.1592 29.668 26.0419L30.7589 25.1046L31.7175 16.5992C30.4903 17.0352 29.0735 17.2872 27.5966 17.2872C27.5612 17.2872 27.5257 17.2872 27.4889 17.2872H27.4944C26.5766 17.3472 25.5048 17.3806 24.4235 17.3806C23.3421 17.3806 22.2716 17.3459 21.208 17.2792L21.3525 17.2859C21.3225 17.2859 21.2871 17.2859 21.2503 17.2859C19.7735 17.2859 18.3566 17.0339 17.0435 16.5712L17.1294 16.5979L17.9612 24.4259ZM31.8416 16.0446H31.7775C31.7775 15.8775 31.383 15.7108 30.5939 15.5446C29.698 15.3632 28.633 15.2299 27.5475 15.1712L27.4903 15.1686L28.1298 12.6086L31.7762 8.79257C31.9044 8.70901 31.798 8.52146 31.4571 8.2299C31.3575 8.12457 31.2266 8.04857 31.078 8.0179L31.0725 8.01657C30.9444 7.99613 30.8589 8.00635 30.8162 8.04724L26.9175 12.0379L26.0857 15.1019L24.4235 15.0379C24.3062 15.0366 24.1685 15.0352 24.0294 15.0352C22.318 15.0352 20.6353 15.1499 18.9866 15.3712L19.1775 15.3499C17.7285 15.5579 17.0039 15.7872 17.0039 16.0379C17.0039 16.4548 18.283 16.7468 20.8412 16.9139C21.913 16.9939 23.1635 17.0392 24.4235 17.0392C25.6835 17.0392 26.9339 16.9939 28.1707 16.9046L28.0057 16.9139C30.5639 16.7486 31.843 16.457 31.843 16.0392L31.8416 16.0446ZM27.3689 16.3566C27.3689 16.3983 27.2835 16.4508 27.1125 16.5139C26.9435 16.5739 26.7471 16.6086 26.5425 16.6086C26.5289 16.6086 26.5153 16.6086 26.503 16.6086H26.5044C26.4935 16.6086 26.4798 16.6086 26.4662 16.6086C26.2616 16.6086 26.0666 16.5739 25.8839 16.5112L25.8962 16.5152C25.7253 16.453 25.6398 16.4006 25.6398 16.3579C25.6398 16.3152 25.7039 16.2735 25.8321 16.2326L25.768 16.2952C25.768 16.3788 26.0025 16.4206 26.4716 16.4206C26.9407 16.4206 27.1753 16.3788 27.1753 16.2952L27.2394 16.2326C27.3221 16.2717 27.3635 16.3117 27.3635 16.3526L27.3689 16.3566Z" fill="#4D4D4D"/>
</g>
<defs>
<clipPath id="clip0">
<rect width="15" height="32" fill="white" transform="translate(17 8)"/>
</clipPath>
</defs>
</svg>
