<svg width="48" height="48" viewBox="0 0 48 48" fill="none" xmlns="http://www.w3.org/2000/svg">
<rect width="48" height="48" rx="24" fill="#DFDFDF"/>
<path fill-rule="evenodd" clip-rule="evenodd" d="M40.6574 21.9649C40.486 21.5931 40.4031 21.1533 40.3854 20.7393C40.3414 19.7203 40.3789 18.6976 40.3329 17.6786C40.2917 16.766 39.9666 15.9436 39.0917 15.4732C38.3214 15.0591 37.4286 15.0179 36.5714 15.0082V16.6367C36.8571 16.6464 36.7869 16.6553 36.8566 16.659C38.0077 16.7157 38.3934 17.0814 38.408 18.2251C38.4189 19.0756 38.4114 19.9266 38.4251 20.7768C38.442 21.8083 38.5957 22.793 39.5377 23.4443C39.5537 23.4554 39.5523 23.4964 39.5614 23.5439C39.082 23.885 38.7026 24.3242 38.5923 24.9237C38.5034 25.4087 38.4531 25.9052 38.438 26.3982C38.4106 27.2905 38.4389 28.1847 38.4134 29.0769C38.3934 29.7757 38.0629 30.1037 37.3837 30.2593C37.128 30.3183 36.8571 30.3392 36.5714 30.3755V32C37.1429 31.9657 37.4334 31.9431 37.8249 31.9007C39.298 31.741 40.1274 30.9733 40.2974 29.5419C40.3506 29.0932 40.3446 28.636 40.3546 28.1827C40.3734 27.3331 40.3637 26.4795 40.4397 25.6351C40.5171 24.7735 41.1429 24.2973 42 24.3448V22.6419C41.4286 22.7443 40.902 22.4968 40.6574 21.9649ZM13.804 25.4368C13.8037 22.132 13.7143 18.8272 13.7143 15.5227V15.0027C12.8571 15.0027 11.9354 14.9944 11.0311 15.0067C10.664 15.0116 10.3403 15.0431 9.97629 15.0929C8.58286 15.2829 7.91114 15.9379 7.66429 17.3283C7.59286 17.7295 7.60714 18.1464 7.60114 18.5568C7.59 19.3368 7.61229 20.1172 7.59971 20.8969C7.584 21.879 7.122 22.6402 6.122 22.698C6.08657 22.7 6.28571 22.7409 6 22.7655V24.2836C7.14286 24.4633 7.50657 24.9254 7.58257 25.9888C7.59457 26.1582 7.59771 26.329 7.59943 26.4993C7.60914 27.4493 7.59829 28.4008 7.64114 29.3491C7.68143 30.2341 7.87771 31.0251 8.71286 31.4895C9.49286 31.9233 10.5714 31.9585 11.1429 31.9811V30.3603C11.1429 30.3466 11.0829 30.334 11.0271 30.3306C9.78743 30.2547 9.508 29.9177 9.50057 28.6752C9.49571 27.8525 9.53086 27.0298 9.51771 26.2071C9.50114 25.1735 9.35029 24.1931 8.416 23.539C8.40171 23.529 8.41571 23.4866 8.41114 23.4294C9.03943 23.0316 9.37343 22.4233 9.46429 21.6856C9.51457 21.2787 9.53143 20.866 9.53857 20.4554C9.55286 19.6047 9.53771 18.7531 9.56086 17.9029C9.57714 17.3054 9.958 16.8699 10.444 16.772C10.9046 16.679 11.1429 16.6819 12 16.6387V17.227C12 20.1773 11.8951 23.1272 11.9106 26.0775C11.916 27.0879 12.0277 28.084 13.1091 28.5204C13.6971 28.7576 14.3271 28.8306 15.0026 28.9902C15.1154 28.3286 15.1523 27.7798 15.2446 27.2367C13.9997 26.879 13.804 26.6936 13.804 25.4368ZM21.4251 19.7443C19.328 18.7399 16.7829 19.6181 15.8063 21.7248C15.0709 23.3112 15.0971 24.944 15.7446 26.5528C16.0957 27.425 16.7303 28.078 17.594 28.462C19.2809 29.212 20.988 29.0297 22.6889 28.5032C22.7806 28.4746 22.8977 28.2977 22.8866 28.2039C22.8286 27.7286 22.7323 27.2579 22.6463 26.7671C22.2414 26.8693 21.9031 26.9737 21.5574 27.0387C20.644 27.2106 19.7286 27.2104 18.8397 26.8564C17.962 26.5073 17.3726 25.5029 17.5191 24.6444H23.4826C23.5554 23.7859 23.5266 22.6056 23.1617 21.6295C22.836 20.757 22.2737 20.1509 21.4251 19.7443ZM21.4126 23.2139H17.4937C17.4957 22.0693 18.4263 21.042 19.6471 21.0655C20.7194 21.0861 21.4611 22.0693 21.4126 23.2139ZM37.4434 26.7276C37.584 25.2814 37.148 24.4676 35.8623 23.8392C35.4063 23.6163 34.9223 23.4511 34.4577 23.2445C34.11 23.09 33.76 22.9335 33.4349 22.7378C33.1183 22.5475 32.9857 22.2316 33.0326 21.8616C33.0786 21.4961 33.3131 21.2552 33.652 21.1865C34.0626 21.103 34.4929 21.0314 34.9057 21.0652C35.4891 21.113 36.0646 21.2626 36.6666 21.3728L37.0471 19.708C36.2326 19.5838 35.4731 19.4232 34.7057 19.3626C33.8523 19.2953 33.0211 19.4373 32.24 19.8405C30.5894 20.6923 30.5591 23.3075 32.076 24.166C32.5291 24.4224 33.014 24.6227 33.4854 24.847C33.9817 25.0837 34.496 25.2894 34.9709 25.5635C35.3314 25.7716 35.4603 26.1347 35.3637 26.5579C35.2743 26.9514 34.9769 27.1268 34.6274 27.1603C34.096 27.2109 33.5509 27.2596 33.0249 27.1969C32.3914 27.1214 31.7714 26.9288 31.1226 26.7817L30.7917 28.4385C32.3154 29.0114 33.8231 29.1053 35.3454 28.7673C36.6194 28.4846 37.3451 27.7383 37.4434 26.7276ZM29.3249 24.0229C28.7651 23.7256 28.1631 23.5087 27.5854 23.2437C27.2269 23.0791 26.8471 22.9364 26.5311 22.7083C25.9234 22.2696 26.0366 21.4286 26.7443 21.2037C27.1503 21.0744 27.6094 21.0343 28.036 21.0663C28.6171 21.1101 29.1906 21.2606 29.7966 21.3705L30.156 19.7835C29.8483 19.6997 29.5697 19.6084 29.2843 19.5483C28.1497 19.3091 27.0091 19.2164 25.8917 19.6098C24.9317 19.9481 24.2657 20.5805 24.134 21.6444C23.9866 22.8325 24.38 23.7705 25.4757 24.3348C25.9143 24.5609 26.3843 24.7248 26.832 24.9343C27.2789 25.1432 27.7351 25.3426 28.1503 25.6047C28.4677 25.8051 28.5929 26.1441 28.5034 26.5362C28.4146 26.9248 28.1317 27.1205 27.7797 27.1568C27.2483 27.2115 26.7029 27.2621 26.1766 27.2006C25.5406 27.1262 24.9186 26.9331 24.2583 26.7843C24.1609 27.2458 24.0466 27.7108 23.9754 28.1821C23.96 28.2846 24.074 28.4815 24.17 28.5149C25.7083 29.0489 27.274 29.1256 28.8386 28.664C29.7729 28.3887 30.4263 27.791 30.558 26.7688C30.7074 25.6085 30.4311 24.6101 29.3249 24.0229Z" fill="#4D4D4D"/>
</svg>
