<svg width="48" height="48" viewBox="0 0 48 48" fill="none" xmlns="http://www.w3.org/2000/svg">
<rect width="48" height="48" rx="24" fill="#DFDFDF"/>
<path d="M24.5781 32.9865L32.6835 28.6025V19.9185L24.5781 24.5211V32.9865Z" fill="#4D4D4D"/>
<path opacity="0.5" d="M38.6652 16.52L33.8398 19.2587V29.1187L38.6652 31.8614V16.52Z" fill="#4D4D4D"/>
<path d="M32.1379 18.9134L24.0006 14.5107L15.8633 18.9134L24.0006 23.5334L32.1379 18.9134Z" fill="#4D4D4D"/>
<path opacity="0.5" d="M32.7955 29.8398L24.5781 34.2852V39.9998L37.7648 32.6638L32.7955 29.8398Z" fill="#4D4D4D"/>
<path opacity="0.5" d="M23.421 34.2852L15.205 29.8398L10.2344 32.6638L23.421 39.9998V34.2852Z" fill="#4D4D4D"/>
<path opacity="0.5" d="M9.33203 31.8614L14.1574 29.1187V19.2587L9.33203 16.52V31.8614Z" fill="#4D4D4D"/>
<path opacity="0.5" d="M14.6918 18.248L23.4211 13.5253V8L9.89844 15.5253L14.6918 18.248Z" fill="#4D4D4D"/>
<path d="M23.4217 24.5211L15.3164 19.9185V28.6025L23.4217 32.9865V24.5211Z" fill="#4D4D4D"/>
<path opacity="0.5" d="M24.5781 13.5253L33.3075 18.2493L38.1021 15.5253L24.5781 8V13.5253Z" fill="#4D4D4D"/>
</svg>
